<svg xmlns="http://www.w3.org/2000/svg" width="900" height="1600" viewBox="0 0 900 1600">
<defs><linearGradient id="bg" x1="0%" y1="0%" x2="100%" y2="100%">
<stop offset="0%" stop-color="#ff8ac9"/>
<stop offset="50%" stop-color="#ffd27a"/>
<stop offset="100%" stop-color="#a97cff"/>
</linearGradient><radialGradient id="glow" cx="80%" cy="20%" r="60%">
<stop offset="0%" stop-color="#ffe39b" stop-opacity="0.22"/>
<stop offset="60%" stop-color="#ffe39b" stop-opacity="0.06"/>
<stop offset="100%" stop-color="#ffe39b" stop-opacity="0"/>
</radialGradient></defs><rect width="100%" height="100%" fill="url(#bg)"/><rect width="100%" height="100%" fill="url(#glow)"/><rect x="-900" y="-100" width="80" height="1800" transform="rotate(-18 -900 0)" fill="#ffffff" opacity="0.03"/><rect x="-780" y="-100" width="80" height="1800" transform="rotate(-18 -780 0)" fill="#ffffff" opacity="0.03"/><rect x="-660" y="-100" width="80" height="1800" transform="rotate(-18 -660 0)" fill="#ffffff" opacity="0.03"/><rect x="-540" y="-100" width="80" height="1800" transform="rotate(-18 -540 0)" fill="#ffffff" opacity="0.03"/><rect x="-420" y="-100" width="80" height="1800" transform="rotate(-18 -420 0)" fill="#ffffff" opacity="0.03"/><rect x="-300" y="-100" width="80" height="1800" transform="rotate(-18 -300 0)" fill="#ffffff" opacity="0.03"/><rect x="-180" y="-100" width="80" height="1800" transform="rotate(-18 -180 0)" fill="#ffffff" opacity="0.03"/><rect x="-60" y="-100" width="80" height="1800" transform="rotate(-18 -60 0)" fill="#ffffff" opacity="0.03"/><rect x="60" y="-100" width="80" height="1800" transform="rotate(-18 60 0)" fill="#ffffff" opacity="0.03"/><rect x="180" y="-100" width="80" height="1800" transform="rotate(-18 180 0)" fill="#ffffff" opacity="0.03"/><rect x="300" y="-100" width="80" height="1800" transform="rotate(-18 300 0)" fill="#ffffff" opacity="0.03"/><rect x="420" y="-100" width="80" height="1800" transform="rotate(-18 420 0)" fill="#ffffff" opacity="0.03"/><rect x="540" y="-100" width="80" height="1800" transform="rotate(-18 540 0)" fill="#ffffff" opacity="0.03"/><rect x="660" y="-100" width="80" height="1800" transform="rotate(-18 660 0)" fill="#ffffff" opacity="0.03"/><rect x="780" y="-100" width="80" height="1800" transform="rotate(-18 780 0)" fill="#ffffff" opacity="0.03"/><rect x="900" y="-100" width="80" height="1800" transform="rotate(-18 900 0)" fill="#ffffff" opacity="0.03"/><rect x="1020" y="-100" width="80" height="1800" transform="rotate(-18 1020 0)" fill="#ffffff" opacity="0.03"/><rect x="1140" y="-100" width="80" height="1800" transform="rotate(-18 1140 0)" fill="#ffffff" opacity="0.03"/><rect x="1260" y="-100" width="80" height="1800" transform="rotate(-18 1260 0)" fill="#ffffff" opacity="0.03"/><rect x="1380" y="-100" width="80" height="1800" transform="rotate(-18 1380 0)" fill="#ffffff" opacity="0.03"/><rect x="1500" y="-100" width="80" height="1800" transform="rotate(-18 1500 0)" fill="#ffffff" opacity="0.03"/><rect x="1620" y="-100" width="80" height="1800" transform="rotate(-18 1620 0)" fill="#ffffff" opacity="0.03"/><rect x="1740" y="-100" width="80" height="1800" transform="rotate(-18 1740 0)" fill="#ffffff" opacity="0.03"/><g transform="translate(842 1205) rotate(248) scale(1.2431724253918361)"><g opacity="0.121" fill="#9d4581" font-family="Arial, Helvetica, sans-serif" font-size="22" font-weight="700"><text x="-30" y="-6">x² + y²</text><text x="-30" y="18">= r²</text></g></g><g transform="translate(179 1387) rotate(191) scale(1.101890652493779)"><g opacity="0.151" fill="none" stroke="#9d4581" stroke-width="2.4"><path d="M-28,0 C-18,-12 -8,-12 2,0 S22,12 32,0"/></g></g><g transform="translate(309 1031) rotate(211) scale(1.2311492898975622)"><g opacity="0.142" fill="none" stroke="#9d4581" stroke-width="2.4"><polygon points="0,-20 20,16 -20,16"/></g></g><g transform="translate(126 425) rotate(358) scale(1.088050847740241)"><g opacity="0.147" fill="#9d4581" font-family="Arial, Helvetica, sans-serif" font-size="22" font-weight="700"><text x="-30" y="-6">x² + y²</text><text x="-30" y="18">= r²</text></g></g><g transform="translate(654 1434) rotate(217) scale(0.8028654315067038)"><g opacity="0.161" fill="none" stroke="#9d4581" stroke-width="2.4"><path d="M-28,0 C-18,-12 -8,-12 2,0 S22,12 32,0"/></g></g><g transform="translate(400 869) rotate(227) scale(1.2328689079753459)"><g opacity="0.151" fill="none" stroke="#9d4581" stroke-width="2.4"><circle cx="0" cy="0" r="12"/><ellipse cx="0" cy="0" rx="24" ry="8" transform="rotate(-18)"/></g></g><g transform="translate(747 1330) rotate(49) scale(1.2278465164803725)"><g stroke="#9d4581" stroke-width="2.5" stroke-linecap="round" stroke-linejoin="round" opacity="0.144" fill="none"><path d="M0,-16 L4,-4 L16,0 L4,4 L0,16 L-4,4 L-16,0 L-4,-4 Z"/></g></g><g transform="translate(235 1372) rotate(249) scale(1.2976055027263445)"><g opacity="0.141" fill="none" stroke="#9d4581" stroke-width="2.2"><ellipse cx="0" cy="0" rx="22" ry="9"/><ellipse cx="0" cy="0" rx="22" ry="9" transform="rotate(60)"/><ellipse cx="0" cy="0" rx="22" ry="9" transform="rotate(120)"/><circle cx="0" cy="0" r="4" fill="#9d4581"/></g></g><g transform="translate(690 1459) rotate(257) scale(1.2854450261838954)"><g stroke="#9d4581" stroke-width="2.5" stroke-linecap="round" stroke-linejoin="round" opacity="0.146" fill="none"><path d="M0,-16 L4,-4 L16,0 L4,4 L0,16 L-4,4 L-16,0 L-4,-4 Z"/></g></g><g transform="translate(280 1262) rotate(182) scale(1.007813162971993)"><g opacity="0.124" fill="none" stroke="#9d4581" stroke-width="2"><circle cx="0" cy="0" r="18"/><path d="M-18,0H18 M0,-18V18"/><path d="M-12,-12 Q0,-5 12,-12 M-12,12 Q0,5 12,12"/></g></g><g transform="translate(542 1419) rotate(59) scale(1.065157910581494)"><g opacity="0.147" fill="none" stroke="#9d4581" stroke-width="2"><circle cx="0" cy="0" r="18"/><path d="M-18,0H18 M0,-18V18"/><path d="M-12,-12 Q0,-5 12,-12 M-12,12 Q0,5 12,12"/></g></g><g transform="translate(349 1502) rotate(247) scale(0.8677344801119269)"><g opacity="0.125" fill="none" stroke="#9d4581" stroke-width="2.2"><ellipse cx="0" cy="0" rx="22" ry="9"/><ellipse cx="0" cy="0" rx="22" ry="9" transform="rotate(60)"/><ellipse cx="0" cy="0" rx="22" ry="9" transform="rotate(120)"/><circle cx="0" cy="0" r="4" fill="#9d4581"/></g></g><g transform="translate(244 1459) rotate(96) scale(1.0632843196951867)"><g opacity="0.12" fill="none" stroke="#9d4581" stroke-width="2.4" stroke-linejoin="round"><path d="M-16,-10 h14 a6,6 0 0 1 6,6 v18 h-14 a6,6 0 0 0 -6,6 v-24 a6,6 0 0 1 6,-6z"/><path d="M16,-10 h-14 a6,6 0 0 0 -6,6 v18 h14 a6,6 0 0 1 6,6 v-24 a6,6 0 0 0 -6,-6z"/></g></g><g transform="translate(370 1172) rotate(317) scale(1.29266271146248)"><g opacity="0.132" fill="none" stroke="#9d4581" stroke-width="2"><circle cx="0" cy="0" r="18"/><path d="M-18,0H18 M0,-18V18"/><path d="M-12,-12 Q0,-5 12,-12 M-12,12 Q0,5 12,12"/></g></g><g transform="translate(416 1110) rotate(64) scale(0.9834993494562024)"><g opacity="0.161" fill="#9d4581"><circle cx="0" cy="0" r="3"/><path d="M0,-12 L3,-3 L12,0 L3,3 L0,12 L-3,3 L-12,0 L-3,-3 Z"/></g></g><g transform="translate(85 409) rotate(203) scale(1.0037331935492007)"><g opacity="0.16" fill="none" stroke="#9d4581" stroke-width="2.4"><circle cx="0" cy="0" r="12"/><ellipse cx="0" cy="0" rx="24" ry="8" transform="rotate(-18)"/></g></g><g transform="translate(281 212) rotate(343) scale(1.285354196741498)"><g opacity="0.138" fill="none" stroke="#9d4581" stroke-width="2.4" stroke-linejoin="round"><path d="M-20,10 L10,-20 L20,-10 L-10,20 L-24,24 Z"/><path d="M6,-24 L24,-6"/></g></g><g transform="translate(419 186) rotate(241) scale(1.0600119997251962)"><g opacity="0.149" fill="#9d4581" font-family="Arial, Helvetica, sans-serif" font-size="22" font-weight="700"><text x="-30" y="-6">x² + y²</text><text x="-30" y="18">= r²</text></g></g><g transform="translate(448 205) rotate(348) scale(0.8652872297757084)"><g opacity="0.138" fill="#9d4581" font-family="Arial, Helvetica, sans-serif" font-size="22" font-weight="700"><text x="-30" y="-6">x² + y²</text><text x="-30" y="18">= r²</text></g></g><g transform="translate(769 382) rotate(275) scale(0.761124555864364)"><g opacity="0.13" fill="none" stroke="#9d4581" stroke-width="2.4"><circle cx="0" cy="0" r="12"/><ellipse cx="0" cy="0" rx="24" ry="8" transform="rotate(-18)"/></g></g><g transform="translate(851 769) rotate(257) scale(0.8625354420675884)"><g opacity="0.133" fill="none" stroke="#9d4581" stroke-width="2.4" stroke-linejoin="round"><path d="M-20,10 L10,-20 L20,-10 L-10,20 L-24,24 Z"/><path d="M6,-24 L24,-6"/></g></g><g transform="translate(559 551) rotate(215) scale(1.3389367390151543)"><g opacity="0.139" fill="none" stroke="#9d4581" stroke-width="2"><circle cx="0" cy="0" r="18"/><path d="M-18,0H18 M0,-18V18"/><path d="M-12,-12 Q0,-5 12,-12 M-12,12 Q0,5 12,12"/></g></g><g transform="translate(646 1002) rotate(251) scale(1.143772532694961)"><g opacity="0.149" fill="none" stroke="#9d4581" stroke-width="2.4" stroke-linejoin="round"><path d="M-16,-10 h14 a6,6 0 0 1 6,6 v18 h-14 a6,6 0 0 0 -6,6 v-24 a6,6 0 0 1 6,-6z"/><path d="M16,-10 h-14 a6,6 0 0 0 -6,6 v18 h14 a6,6 0 0 1 6,6 v-24 a6,6 0 0 0 -6,-6z"/></g></g><g transform="translate(538 656) rotate(239) scale(1.1306811771008713)"><g opacity="0.134" fill="none" stroke="#9d4581" stroke-width="2.4"><path d="M-28,0 C-18,-12 -8,-12 2,0 S22,12 32,0"/></g></g><g transform="translate(196 1298) rotate(308) scale(0.9756256775309995)"><g opacity="0.132" fill="#9d4581" font-family="Arial, Helvetica, sans-serif" font-size="22" font-weight="700"><text x="-30" y="-6">x² + y²</text><text x="-30" y="18">= r²</text></g></g><g transform="translate(437 1029) rotate(80) scale(1.187583382994409)"><g opacity="0.143" fill="#9d4581" font-family="Arial, Helvetica, sans-serif" font-size="22" font-weight="700"><text x="-30" y="-6">x² + y²</text><text x="-30" y="18">= r²</text></g></g><g transform="translate(668 950) rotate(93) scale(1.3287936019470024)"><g stroke="#9d4581" stroke-width="2.5" stroke-linecap="round" stroke-linejoin="round" opacity="0.145" fill="none"><path d="M0,-16 L4,-4 L16,0 L4,4 L0,16 L-4,4 L-16,0 L-4,-4 Z"/></g></g><g transform="translate(613 259) rotate(189) scale(1.1592576550774598)"><g opacity="0.16" fill="none" stroke="#9d4581" stroke-width="2.4"><path d="M-28,0 C-18,-12 -8,-12 2,0 S22,12 32,0"/></g></g><g transform="translate(539 1237) rotate(98) scale(0.78736491018209)"><g opacity="0.159" fill="none" stroke="#9d4581" stroke-width="2.4" stroke-linejoin="round"><path d="M-16,-10 h14 a6,6 0 0 1 6,6 v18 h-14 a6,6 0 0 0 -6,6 v-24 a6,6 0 0 1 6,-6z"/><path d="M16,-10 h-14 a6,6 0 0 0 -6,6 v18 h14 a6,6 0 0 1 6,6 v-24 a6,6 0 0 0 -6,-6z"/></g></g><g transform="translate(658 60) rotate(268) scale(1.003266963986522)"><g opacity="0.122" fill="none" stroke="#9d4581" stroke-width="2.4" stroke-linejoin="round"><path d="M-20,10 L10,-20 L20,-10 L-10,20 L-24,24 Z"/><path d="M6,-24 L24,-6"/></g></g><g transform="translate(267 235) rotate(74) scale(0.9725480736582219)"><g opacity="0.145" fill="#9d4581"><circle cx="0" cy="0" r="3"/><path d="M0,-12 L3,-3 L12,0 L3,3 L0,12 L-3,3 L-12,0 L-3,-3 Z"/></g></g><g transform="translate(651 681) rotate(321) scale(0.8365657703772797)"><g opacity="0.123" fill="#9d4581"><circle cx="0" cy="0" r="3"/><path d="M0,-12 L3,-3 L12,0 L3,3 L0,12 L-3,3 L-12,0 L-3,-3 Z"/></g></g><g transform="translate(137 122) rotate(236) scale(1.1373420975113318)"><g opacity="0.145" fill="none" stroke="#9d4581" stroke-width="2.4"><circle cx="0" cy="0" r="12"/><ellipse cx="0" cy="0" rx="24" ry="8" transform="rotate(-18)"/></g></g><g transform="translate(748 1159) rotate(42) scale(0.8262039703873574)"><g opacity="0.145" fill="none" stroke="#9d4581" stroke-width="2.4" stroke-linejoin="round"><path d="M-16,-10 h14 a6,6 0 0 1 6,6 v18 h-14 a6,6 0 0 0 -6,6 v-24 a6,6 0 0 1 6,-6z"/><path d="M16,-10 h-14 a6,6 0 0 0 -6,6 v18 h14 a6,6 0 0 1 6,6 v-24 a6,6 0 0 0 -6,-6z"/></g></g><g transform="translate(301 1369) rotate(355) scale(1.0211903102682194)"><g stroke="#9d4581" stroke-width="2.5" stroke-linecap="round" stroke-linejoin="round" opacity="0.152" fill="none"><path d="M0,-16 L4,-4 L16,0 L4,4 L0,16 L-4,4 L-16,0 L-4,-4 Z"/></g></g><g transform="translate(170 416) rotate(225) scale(1.2952645984327171)"><g opacity="0.152" fill="none" stroke="#9d4581" stroke-width="2.4" stroke-linejoin="round"><path d="M-20,10 L10,-20 L20,-10 L-10,20 L-24,24 Z"/><path d="M6,-24 L24,-6"/></g></g><g transform="translate(487 1173) rotate(296) scale(0.9158442399386995)"><g opacity="0.154" fill="none" stroke="#9d4581" stroke-width="2.4"><circle cx="0" cy="0" r="12"/><ellipse cx="0" cy="0" rx="24" ry="8" transform="rotate(-18)"/></g></g><g transform="translate(328 774) rotate(17) scale(0.9216424019343041)"><g opacity="0.14" fill="none" stroke="#9d4581" stroke-width="2.4"><circle cx="0" cy="0" r="12"/><ellipse cx="0" cy="0" rx="24" ry="8" transform="rotate(-18)"/></g></g><g transform="translate(312 603) rotate(242) scale(0.9144689036885822)"><g opacity="0.138" fill="none" stroke="#9d4581" stroke-width="2"><rect x="-18" y="-18" width="36" height="36" rx="4"/><path d="M-6,-18V18 M6,-18V18 M-18,-6H18 M-18,6H18"/></g></g><g transform="translate(410 95) rotate(127) scale(1.1782702270998513)"><g opacity="0.146" fill="none" stroke="#9d4581" stroke-width="2"><circle cx="0" cy="0" r="18"/><path d="M-18,0H18 M0,-18V18"/><path d="M-12,-12 Q0,-5 12,-12 M-12,12 Q0,5 12,12"/></g></g><g transform="translate(578 1556) rotate(88) scale(0.7696276489155504)"><g opacity="0.135" fill="none" stroke="#9d4581" stroke-width="2.4"><path d="M-28,0 C-18,-12 -8,-12 2,0 S22,12 32,0"/></g></g><g transform="translate(83 1545) rotate(107) scale(1.2091186422909734)"><g opacity="0.133" fill="none" stroke="#9d4581" stroke-width="2"><rect x="-18" y="-18" width="36" height="36" rx="4"/><path d="M-6,-18V18 M6,-18V18 M-18,-6H18 M-18,6H18"/></g></g><g transform="translate(109 352) rotate(58) scale(1.1889119252971705)"><g opacity="0.142" fill="none" stroke="#9d4581" stroke-width="2"><rect x="-18" y="-18" width="36" height="36" rx="4"/><path d="M-6,-18V18 M6,-18V18 M-18,-6H18 M-18,6H18"/></g></g><g transform="translate(505 1551) rotate(38) scale(1.0467184452983884)"><g opacity="0.122" fill="none" stroke="#9d4581" stroke-width="2.4" stroke-linejoin="round"><path d="M-16,-10 h14 a6,6 0 0 1 6,6 v18 h-14 a6,6 0 0 0 -6,6 v-24 a6,6 0 0 1 6,-6z"/><path d="M16,-10 h-14 a6,6 0 0 0 -6,6 v18 h14 a6,6 0 0 1 6,6 v-24 a6,6 0 0 0 -6,-6z"/></g></g><g transform="translate(562 92) rotate(76) scale(0.8614075386170583)"><g opacity="0.131" fill="none" stroke="#9d4581" stroke-width="2.4" stroke-linejoin="round"><path d="M-16,-10 h14 a6,6 0 0 1 6,6 v18 h-14 a6,6 0 0 0 -6,6 v-24 a6,6 0 0 1 6,-6z"/><path d="M16,-10 h-14 a6,6 0 0 0 -6,6 v18 h14 a6,6 0 0 1 6,6 v-24 a6,6 0 0 0 -6,-6z"/></g></g><g transform="translate(184 1068) rotate(198) scale(1.091062089130592)"><g opacity="0.159" fill="none" stroke="#9d4581" stroke-width="2.2"><ellipse cx="0" cy="0" rx="22" ry="9"/><ellipse cx="0" cy="0" rx="22" ry="9" transform="rotate(60)"/><ellipse cx="0" cy="0" rx="22" ry="9" transform="rotate(120)"/><circle cx="0" cy="0" r="4" fill="#9d4581"/></g></g><g transform="translate(742 1185) rotate(64) scale(1.179129717844339)"><g opacity="0.148" fill="none" stroke="#9d4581" stroke-width="2"><rect x="-18" y="-18" width="36" height="36" rx="4"/><path d="M-6,-18V18 M6,-18V18 M-18,-6H18 M-18,6H18"/></g></g><g transform="translate(805 678) rotate(287) scale(1.3460551421657216)"><g opacity="0.119" fill="none" stroke="#9d4581" stroke-width="2"><circle cx="0" cy="0" r="18"/><path d="M-18,0H18 M0,-18V18"/><path d="M-12,-12 Q0,-5 12,-12 M-12,12 Q0,5 12,12"/></g></g><g transform="translate(854 1195) rotate(166) scale(0.9820112773246149)"><g opacity="0.141" fill="none" stroke="#9d4581" stroke-width="2"><rect x="-18" y="-18" width="36" height="36" rx="4"/><path d="M-6,-18V18 M6,-18V18 M-18,-6H18 M-18,6H18"/></g></g><g transform="translate(39 844) rotate(271) scale(1.2569220989831709)"><g opacity="0.155" fill="none" stroke="#9d4581" stroke-width="2.4"><polygon points="0,-20 20,16 -20,16"/></g></g><g transform="translate(169 1497) rotate(278) scale(0.8902158810726257)"><g opacity="0.13" fill="none" stroke="#9d4581" stroke-width="2.4"><path d="M-28,0 C-18,-12 -8,-12 2,0 S22,12 32,0"/></g></g><g transform="translate(219 335) rotate(320) scale(0.8484771461348803)"><g opacity="0.135" fill="none" stroke="#9d4581" stroke-width="2.4" stroke-linejoin="round"><path d="M-16,-10 h14 a6,6 0 0 1 6,6 v18 h-14 a6,6 0 0 0 -6,6 v-24 a6,6 0 0 1 6,-6z"/><path d="M16,-10 h-14 a6,6 0 0 0 -6,6 v18 h14 a6,6 0 0 1 6,6 v-24 a6,6 0 0 0 -6,-6z"/></g></g><g transform="translate(92 55) rotate(30) scale(0.7739228657135614)"><g opacity="0.146" fill="none" stroke="#9d4581" stroke-width="2.4"><circle cx="0" cy="0" r="12"/><ellipse cx="0" cy="0" rx="24" ry="8" transform="rotate(-18)"/></g></g><g transform="translate(583 235) rotate(304) scale(1.154238440249631)"><g stroke="#9d4581" stroke-width="2.5" stroke-linecap="round" stroke-linejoin="round" opacity="0.122" fill="none"><path d="M0,-16 L4,-4 L16,0 L4,4 L0,16 L-4,4 L-16,0 L-4,-4 Z"/></g></g><g transform="translate(260 863) rotate(289) scale(0.8853469703956429)"><g opacity="0.123" fill="#9d4581" font-family="Arial, Helvetica, sans-serif" font-size="22" font-weight="700"><text x="-30" y="-6">x² + y²</text><text x="-30" y="18">= r²</text></g></g><g transform="translate(109 1513) rotate(30) scale(1.0940431678185893)"><g opacity="0.157" fill="none" stroke="#9d4581" stroke-width="2.4" stroke-linejoin="round"><path d="M-16,-10 h14 a6,6 0 0 1 6,6 v18 h-14 a6,6 0 0 0 -6,6 v-24 a6,6 0 0 1 6,-6z"/><path d="M16,-10 h-14 a6,6 0 0 0 -6,6 v18 h14 a6,6 0 0 1 6,6 v-24 a6,6 0 0 0 -6,-6z"/></g></g><g transform="translate(478 275) rotate(359) scale(1.3248355155239566)"><g opacity="0.121" fill="none" stroke="#9d4581" stroke-width="2.4" stroke-linejoin="round"><path d="M-16,-10 h14 a6,6 0 0 1 6,6 v18 h-14 a6,6 0 0 0 -6,6 v-24 a6,6 0 0 1 6,-6z"/><path d="M16,-10 h-14 a6,6 0 0 0 -6,6 v18 h14 a6,6 0 0 1 6,6 v-24 a6,6 0 0 0 -6,-6z"/></g></g><g transform="translate(61 1566) rotate(217) scale(1.254458810430483)"><g opacity="0.149" fill="#9d4581"><circle cx="0" cy="0" r="3"/><path d="M0,-12 L3,-3 L12,0 L3,3 L0,12 L-3,3 L-12,0 L-3,-3 Z"/></g></g><g transform="translate(291 938) rotate(334) scale(0.8891666972732917)"><g opacity="0.152" fill="none" stroke="#9d4581" stroke-width="2.4"><polygon points="0,-20 20,16 -20,16"/></g></g><g transform="translate(249 598) rotate(130) scale(1.1053267077197788)"><g opacity="0.152" fill="none" stroke="#9d4581" stroke-width="2.4"><polygon points="0,-20 20,16 -20,16"/></g></g><g transform="translate(792 1480) rotate(169) scale(1.272823520081737)"><g opacity="0.123" fill="none" stroke="#9d4581" stroke-width="2.4"><polygon points="0,-20 20,16 -20,16"/></g></g><g transform="translate(639 1351) rotate(187) scale(0.7696447105499358)"><g opacity="0.129" fill="none" stroke="#9d4581" stroke-width="2.4"><circle cx="0" cy="0" r="12"/><ellipse cx="0" cy="0" rx="24" ry="8" transform="rotate(-18)"/></g></g><g transform="translate(811 87) rotate(354) scale(0.9662193011700364)"><g opacity="0.137" fill="none" stroke="#9d4581" stroke-width="2.4"><path d="M-28,0 C-18,-12 -8,-12 2,0 S22,12 32,0"/></g></g><g transform="translate(82 734) rotate(5) scale(0.8336396054792287)"><g opacity="0.122" fill="none" stroke="#9d4581" stroke-width="2.4"><path d="M-28,0 C-18,-12 -8,-12 2,0 S22,12 32,0"/></g></g><g transform="translate(32 979) rotate(44) scale(1.2469987627731138)"><g opacity="0.144" fill="#9d4581"><circle cx="0" cy="0" r="3"/><path d="M0,-12 L3,-3 L12,0 L3,3 L0,12 L-3,3 L-12,0 L-3,-3 Z"/></g></g><g transform="translate(309 501) rotate(214) scale(0.8294279476669446)"><g opacity="0.127" fill="none" stroke="#9d4581" stroke-width="2.4"><polygon points="0,-20 20,16 -20,16"/></g></g><g transform="translate(708 816) rotate(219) scale(1.3391897839031484)"><g opacity="0.141" fill="none" stroke="#9d4581" stroke-width="2"><circle cx="0" cy="0" r="18"/><path d="M-18,0H18 M0,-18V18"/><path d="M-12,-12 Q0,-5 12,-12 M-12,12 Q0,5 12,12"/></g></g><g transform="translate(521 583) rotate(153) scale(0.9018980524097674)"><g stroke="#9d4581" stroke-width="2.5" stroke-linecap="round" stroke-linejoin="round" opacity="0.127" fill="none"><path d="M0,-16 L4,-4 L16,0 L4,4 L0,16 L-4,4 L-16,0 L-4,-4 Z"/></g></g><g transform="translate(489 244) rotate(294) scale(1.235022310209664)"><g opacity="0.159" fill="none" stroke="#9d4581" stroke-width="2.4"><circle cx="0" cy="0" r="12"/><ellipse cx="0" cy="0" rx="24" ry="8" transform="rotate(-18)"/></g></g><g transform="translate(858 35) rotate(61) scale(1.0581409431716786)"><g opacity="0.144" fill="none" stroke="#9d4581" stroke-width="2.4" stroke-linejoin="round"><path d="M-16,-10 h14 a6,6 0 0 1 6,6 v18 h-14 a6,6 0 0 0 -6,6 v-24 a6,6 0 0 1 6,-6z"/><path d="M16,-10 h-14 a6,6 0 0 0 -6,6 v18 h14 a6,6 0 0 1 6,6 v-24 a6,6 0 0 0 -6,-6z"/></g></g><g transform="translate(515 1025) rotate(271) scale(1.26705403567654)"><g opacity="0.153" fill="none" stroke="#9d4581" stroke-width="2.4"><polygon points="0,-20 20,16 -20,16"/></g></g><g transform="translate(511 471) rotate(198) scale(1.2551370962450763)"><g opacity="0.151" fill="none" stroke="#9d4581" stroke-width="2.4" stroke-linejoin="round"><path d="M-16,-10 h14 a6,6 0 0 1 6,6 v18 h-14 a6,6 0 0 0 -6,6 v-24 a6,6 0 0 1 6,-6z"/><path d="M16,-10 h-14 a6,6 0 0 0 -6,6 v18 h14 a6,6 0 0 1 6,6 v-24 a6,6 0 0 0 -6,-6z"/></g></g><g transform="translate(499 51) rotate(128) scale(0.9526582468342464)"><g opacity="0.125" fill="none" stroke="#9d4581" stroke-width="2.4"><path d="M-28,0 C-18,-12 -8,-12 2,0 S22,12 32,0"/></g></g><g transform="translate(409 1234) rotate(185) scale(1.2630171984966965)"><g opacity="0.119" fill="none" stroke="#9d4581" stroke-width="2.2"><ellipse cx="0" cy="0" rx="22" ry="9"/><ellipse cx="0" cy="0" rx="22" ry="9" transform="rotate(60)"/><ellipse cx="0" cy="0" rx="22" ry="9" transform="rotate(120)"/><circle cx="0" cy="0" r="4" fill="#9d4581"/></g></g><g transform="translate(342 391) rotate(318) scale(0.7995182785733739)"><g opacity="0.151" fill="none" stroke="#9d4581" stroke-width="2"><circle cx="0" cy="0" r="18"/><path d="M-18,0H18 M0,-18V18"/><path d="M-12,-12 Q0,-5 12,-12 M-12,12 Q0,5 12,12"/></g></g><g transform="translate(687 212) rotate(210) scale(0.8665382014829046)"><g opacity="0.151" fill="none" stroke="#9d4581" stroke-width="2.4" stroke-linejoin="round"><path d="M-16,-10 h14 a6,6 0 0 1 6,6 v18 h-14 a6,6 0 0 0 -6,6 v-24 a6,6 0 0 1 6,-6z"/><path d="M16,-10 h-14 a6,6 0 0 0 -6,6 v18 h14 a6,6 0 0 1 6,6 v-24 a6,6 0 0 0 -6,-6z"/></g></g><g transform="translate(181 1094) rotate(25) scale(1.307269231769628)"><g opacity="0.141" fill="none" stroke="#9d4581" stroke-width="2.4"><polygon points="0,-20 20,16 -20,16"/></g></g><g transform="translate(529 776) rotate(168) scale(1.279783245896158)"><g opacity="0.135" fill="none" stroke="#9d4581" stroke-width="2"><circle cx="0" cy="0" r="18"/><path d="M-18,0H18 M0,-18V18"/><path d="M-12,-12 Q0,-5 12,-12 M-12,12 Q0,5 12,12"/></g></g><g transform="translate(309 1360) rotate(34) scale(1.1482656678458052)"><g opacity="0.125" fill="#9d4581" font-family="Arial, Helvetica, sans-serif" font-size="22" font-weight="700"><text x="-30" y="-6">x² + y²</text><text x="-30" y="18">= r²</text></g></g><g transform="translate(142 1236) rotate(79) scale(1.1118683052572815)"><g opacity="0.14" fill="none" stroke="#9d4581" stroke-width="2.4"><polygon points="0,-20 20,16 -20,16"/></g></g><g transform="translate(831 1438) rotate(44) scale(1.2092786004201816)"><g opacity="0.16" fill="none" stroke="#9d4581" stroke-width="2.4"><circle cx="0" cy="0" r="12"/><ellipse cx="0" cy="0" rx="24" ry="8" transform="rotate(-18)"/></g></g><g transform="translate(710 285) rotate(173) scale(0.8796719104843128)"><g opacity="0.16" fill="none" stroke="#9d4581" stroke-width="2.4" stroke-linejoin="round"><path d="M-16,-10 h14 a6,6 0 0 1 6,6 v18 h-14 a6,6 0 0 0 -6,6 v-24 a6,6 0 0 1 6,-6z"/><path d="M16,-10 h-14 a6,6 0 0 0 -6,6 v18 h14 a6,6 0 0 1 6,6 v-24 a6,6 0 0 0 -6,-6z"/></g></g><g transform="translate(868 530) rotate(94) scale(0.8550798652996462)"><g opacity="0.145" fill="none" stroke="#9d4581" stroke-width="2.2"><ellipse cx="0" cy="0" rx="22" ry="9"/><ellipse cx="0" cy="0" rx="22" ry="9" transform="rotate(60)"/><ellipse cx="0" cy="0" rx="22" ry="9" transform="rotate(120)"/><circle cx="0" cy="0" r="4" fill="#9d4581"/></g></g><g transform="translate(520 1543) rotate(318) scale(1.3065832545955502)"><g opacity="0.15" fill="none" stroke="#9d4581" stroke-width="2.4"><circle cx="0" cy="0" r="12"/><ellipse cx="0" cy="0" rx="24" ry="8" transform="rotate(-18)"/></g></g><g transform="translate(169 962) rotate(100) scale(1.3327095589210516)"><g opacity="0.135" fill="none" stroke="#9d4581" stroke-width="2"><circle cx="0" cy="0" r="18"/><path d="M-18,0H18 M0,-18V18"/><path d="M-12,-12 Q0,-5 12,-12 M-12,12 Q0,5 12,12"/></g></g>
</svg>