<svg xmlns="http://www.w3.org/2000/svg" width="900" height="1600" viewBox="0 0 900 1600">
<defs><linearGradient id="bg" x1="0%" y1="0%" x2="100%" y2="100%">
<stop offset="0%" stop-color="#7a2cff"/>
<stop offset="50%" stop-color="#d46cff"/>
<stop offset="100%" stop-color="#ffa2d7"/>
</linearGradient><radialGradient id="glow" cx="80%" cy="20%" r="60%">
<stop offset="0%" stop-color="#ffd9f3" stop-opacity="0.22"/>
<stop offset="60%" stop-color="#ffd9f3" stop-opacity="0.06"/>
<stop offset="100%" stop-color="#ffd9f3" stop-opacity="0"/>
</radialGradient></defs><rect width="100%" height="100%" fill="url(#bg)"/><rect width="100%" height="100%" fill="url(#glow)"/><g transform="translate(262 788) rotate(64) scale(1.3273770215006298)"><g opacity="0.17" fill="none" stroke="#4c188b" stroke-width="2.2"><ellipse cx="0" cy="0" rx="22" ry="9"/><ellipse cx="0" cy="0" rx="22" ry="9" transform="rotate(60)"/><ellipse cx="0" cy="0" rx="22" ry="9" transform="rotate(120)"/><circle cx="0" cy="0" r="4" fill="#4c188b"/></g></g><g transform="translate(117 310) rotate(259) scale(0.8984645909574511)"><g opacity="0.155" fill="none" stroke="#4c188b" stroke-width="2.2"><ellipse cx="0" cy="0" rx="22" ry="9"/><ellipse cx="0" cy="0" rx="22" ry="9" transform="rotate(60)"/><ellipse cx="0" cy="0" rx="22" ry="9" transform="rotate(120)"/><circle cx="0" cy="0" r="4" fill="#4c188b"/></g></g><g transform="translate(61 970) rotate(199) scale(1.0424412464490493)"><g opacity="0.164" fill="none" stroke="#4c188b" stroke-width="2.4" stroke-linejoin="round"><path d="M-20,10 L10,-20 L20,-10 L-10,20 L-24,24 Z"/><path d="M6,-24 L24,-6"/></g></g><g transform="translate(442 213) rotate(10) scale(1.0410596887805297)"><g opacity="0.161" fill="#4c188b" font-family="Arial, Helvetica, sans-serif" font-size="22" font-weight="700"><text x="-30" y="-6">x² + y²</text><text x="-30" y="18">= r²</text></g></g><g transform="translate(515 806) rotate(339) scale(1.185601160438646)"><g opacity="0.141" fill="#4c188b" font-family="Arial, Helvetica, sans-serif" font-size="22" font-weight="700"><text x="-30" y="-6">x² + y²</text><text x="-30" y="18">= r²</text></g></g><g transform="translate(863 159) rotate(193) scale(0.9818215308494924)"><g opacity="0.168" fill="none" stroke="#4c188b" stroke-width="2.4"><circle cx="0" cy="0" r="12"/><ellipse cx="0" cy="0" rx="24" ry="8" transform="rotate(-18)"/></g></g><g transform="translate(376 510) rotate(254) scale(1.1647803429635835)"><g opacity="0.161" fill="#4c188b"><circle cx="0" cy="0" r="3"/><path d="M0,-12 L3,-3 L12,0 L3,3 L0,12 L-3,3 L-12,0 L-3,-3 Z"/></g></g><g transform="translate(242 1220) rotate(310) scale(1.2350356227553099)"><g opacity="0.162" fill="none" stroke="#4c188b" stroke-width="2.4"><circle cx="0" cy="0" r="12"/><ellipse cx="0" cy="0" rx="24" ry="8" transform="rotate(-18)"/></g></g><g transform="translate(68 1030) rotate(75) scale(1.171091853948775)"><g opacity="0.158" fill="none" stroke="#4c188b" stroke-width="2"><circle cx="0" cy="0" r="18"/><path d="M-18,0H18 M0,-18V18"/><path d="M-12,-12 Q0,-5 12,-12 M-12,12 Q0,5 12,12"/></g></g><g transform="translate(628 941) rotate(182) scale(0.9213919381379488)"><g opacity="0.142" fill="none" stroke="#4c188b" stroke-width="2"><rect x="-18" y="-18" width="36" height="36" rx="4"/><path d="M-6,-18V18 M6,-18V18 M-18,-6H18 M-18,6H18"/></g></g><g transform="translate(812 1261) rotate(353) scale(0.8085698941281795)"><g opacity="0.17" fill="none" stroke="#4c188b" stroke-width="2.4"><path d="M-28,0 C-18,-12 -8,-12 2,0 S22,12 32,0"/></g></g><g transform="translate(689 1043) rotate(101) scale(1.0521728424310046)"><g opacity="0.143" fill="#4c188b" font-family="Arial, Helvetica, sans-serif" font-size="22" font-weight="700"><text x="-30" y="-6">x² + y²</text><text x="-30" y="18">= r²</text></g></g><g transform="translate(571 612) rotate(36) scale(1.055874492185069)"><g opacity="0.18" fill="none" stroke="#4c188b" stroke-width="2.4"><polygon points="0,-20 20,16 -20,16"/></g></g><g transform="translate(588 480) rotate(6) scale(0.9565214585239572)"><g opacity="0.152" fill="#4c188b" font-family="Arial, Helvetica, sans-serif" font-size="22" font-weight="700"><text x="-30" y="-6">x² + y²</text><text x="-30" y="18">= r²</text></g></g><g transform="translate(303 98) rotate(192) scale(1.0040411140983083)"><g opacity="0.176" fill="#4c188b" font-family="Arial, Helvetica, sans-serif" font-size="22" font-weight="700"><text x="-30" y="-6">x² + y²</text><text x="-30" y="18">= r²</text></g></g><g transform="translate(456 388) rotate(59) scale(1.1444644349646447)"><g opacity="0.181" fill="none" stroke="#4c188b" stroke-width="2.4" stroke-linejoin="round"><path d="M-16,-10 h14 a6,6 0 0 1 6,6 v18 h-14 a6,6 0 0 0 -6,6 v-24 a6,6 0 0 1 6,-6z"/><path d="M16,-10 h-14 a6,6 0 0 0 -6,6 v18 h14 a6,6 0 0 1 6,6 v-24 a6,6 0 0 0 -6,-6z"/></g></g><g transform="translate(56 443) rotate(82) scale(1.333844410329199)"><g opacity="0.142" fill="#4c188b" font-family="Arial, Helvetica, sans-serif" font-size="22" font-weight="700"><text x="-30" y="-6">x² + y²</text><text x="-30" y="18">= r²</text></g></g><g transform="translate(845 809) rotate(87) scale(0.955089554949388)"><g opacity="0.157" fill="none" stroke="#4c188b" stroke-width="2"><circle cx="0" cy="0" r="18"/><path d="M-18,0H18 M0,-18V18"/><path d="M-12,-12 Q0,-5 12,-12 M-12,12 Q0,5 12,12"/></g></g><g transform="translate(267 314) rotate(228) scale(0.9960605870067952)"><g opacity="0.156" fill="none" stroke="#4c188b" stroke-width="2"><rect x="-18" y="-18" width="36" height="36" rx="4"/><path d="M-6,-18V18 M6,-18V18 M-18,-6H18 M-18,6H18"/></g></g><g transform="translate(632 173) rotate(48) scale(0.9232465790965141)"><g stroke="#4c188b" stroke-width="2.5" stroke-linecap="round" stroke-linejoin="round" opacity="0.14" fill="none"><path d="M0,-16 L4,-4 L16,0 L4,4 L0,16 L-4,4 L-16,0 L-4,-4 Z"/></g></g><g transform="translate(139 1096) rotate(78) scale(1.0663704217679675)"><g opacity="0.159" fill="none" stroke="#4c188b" stroke-width="2.4"><polygon points="0,-20 20,16 -20,16"/></g></g><g transform="translate(182 1267) rotate(8) scale(0.7877843418256038)"><g opacity="0.152" fill="none" stroke="#4c188b" stroke-width="2.4" stroke-linejoin="round"><path d="M-16,-10 h14 a6,6 0 0 1 6,6 v18 h-14 a6,6 0 0 0 -6,6 v-24 a6,6 0 0 1 6,-6z"/><path d="M16,-10 h-14 a6,6 0 0 0 -6,6 v18 h14 a6,6 0 0 1 6,6 v-24 a6,6 0 0 0 -6,-6z"/></g></g><g transform="translate(704 1204) rotate(153) scale(0.8224493521917697)"><g opacity="0.152" fill="none" stroke="#4c188b" stroke-width="2.4"><path d="M-28,0 C-18,-12 -8,-12 2,0 S22,12 32,0"/></g></g><g transform="translate(404 36) rotate(255) scale(1.1375078909203937)"><g opacity="0.139" fill="none" stroke="#4c188b" stroke-width="2.2"><ellipse cx="0" cy="0" rx="22" ry="9"/><ellipse cx="0" cy="0" rx="22" ry="9" transform="rotate(60)"/><ellipse cx="0" cy="0" rx="22" ry="9" transform="rotate(120)"/><circle cx="0" cy="0" r="4" fill="#4c188b"/></g></g><g transform="translate(662 97) rotate(296) scale(1.279743021570874)"><g opacity="0.145" fill="none" stroke="#4c188b" stroke-width="2.4" stroke-linejoin="round"><path d="M-16,-10 h14 a6,6 0 0 1 6,6 v18 h-14 a6,6 0 0 0 -6,6 v-24 a6,6 0 0 1 6,-6z"/><path d="M16,-10 h-14 a6,6 0 0 0 -6,6 v18 h14 a6,6 0 0 1 6,6 v-24 a6,6 0 0 0 -6,-6z"/></g></g><g transform="translate(471 934) rotate(102) scale(0.8225707549602753)"><g opacity="0.147" fill="none" stroke="#4c188b" stroke-width="2"><circle cx="0" cy="0" r="18"/><path d="M-18,0H18 M0,-18V18"/><path d="M-12,-12 Q0,-5 12,-12 M-12,12 Q0,5 12,12"/></g></g><g transform="translate(860 999) rotate(195) scale(1.2241262830250836)"><g opacity="0.141" fill="none" stroke="#4c188b" stroke-width="2.4"><circle cx="0" cy="0" r="12"/><ellipse cx="0" cy="0" rx="24" ry="8" transform="rotate(-18)"/></g></g><g transform="translate(768 957) rotate(225) scale(1.1387489816238814)"><g opacity="0.171" fill="none" stroke="#4c188b" stroke-width="2.4"><polygon points="0,-20 20,16 -20,16"/></g></g><g transform="translate(762 995) rotate(184) scale(1.0883159565646332)"><g opacity="0.147" fill="none" stroke="#4c188b" stroke-width="2.4" stroke-linejoin="round"><path d="M-20,10 L10,-20 L20,-10 L-10,20 L-24,24 Z"/><path d="M6,-24 L24,-6"/></g></g><g transform="translate(232 130) rotate(55) scale(1.0177328338238394)"><g opacity="0.171" fill="none" stroke="#4c188b" stroke-width="2.2"><ellipse cx="0" cy="0" rx="22" ry="9"/><ellipse cx="0" cy="0" rx="22" ry="9" transform="rotate(60)"/><ellipse cx="0" cy="0" rx="22" ry="9" transform="rotate(120)"/><circle cx="0" cy="0" r="4" fill="#4c188b"/></g></g><g transform="translate(755 1260) rotate(11) scale(1.116911007046196)"><g opacity="0.153" fill="#4c188b"><circle cx="0" cy="0" r="3"/><path d="M0,-12 L3,-3 L12,0 L3,3 L0,12 L-3,3 L-12,0 L-3,-3 Z"/></g></g><g transform="translate(472 1111) rotate(307) scale(0.8060014083027272)"><g opacity="0.175" fill="none" stroke="#4c188b" stroke-width="2.4"><polygon points="0,-20 20,16 -20,16"/></g></g><g transform="translate(612 440) rotate(165) scale(1.050917468500589)"><g opacity="0.154" fill="none" stroke="#4c188b" stroke-width="2.4"><polygon points="0,-20 20,16 -20,16"/></g></g><g transform="translate(562 1355) rotate(148) scale(0.8677052423656817)"><g opacity="0.15" fill="none" stroke="#4c188b" stroke-width="2"><circle cx="0" cy="0" r="18"/><path d="M-18,0H18 M0,-18V18"/><path d="M-12,-12 Q0,-5 12,-12 M-12,12 Q0,5 12,12"/></g></g><g transform="translate(111 1552) rotate(206) scale(0.942618012104541)"><g opacity="0.166" fill="none" stroke="#4c188b" stroke-width="2.2"><ellipse cx="0" cy="0" rx="22" ry="9"/><ellipse cx="0" cy="0" rx="22" ry="9" transform="rotate(60)"/><ellipse cx="0" cy="0" rx="22" ry="9" transform="rotate(120)"/><circle cx="0" cy="0" r="4" fill="#4c188b"/></g></g><g transform="translate(111 1150) rotate(189) scale(1.001689906314627)"><g opacity="0.161" fill="none" stroke="#4c188b" stroke-width="2.4"><path d="M-28,0 C-18,-12 -8,-12 2,0 S22,12 32,0"/></g></g><g transform="translate(670 760) rotate(151) scale(1.2199640433278887)"><g opacity="0.177" fill="#4c188b"><circle cx="0" cy="0" r="3"/><path d="M0,-12 L3,-3 L12,0 L3,3 L0,12 L-3,3 L-12,0 L-3,-3 Z"/></g></g><g transform="translate(230 1023) rotate(299) scale(0.9719833346244529)"><g opacity="0.146" fill="#4c188b" font-family="Arial, Helvetica, sans-serif" font-size="22" font-weight="700"><text x="-30" y="-6">x² + y²</text><text x="-30" y="18">= r²</text></g></g><g transform="translate(436 1285) rotate(350) scale(0.9800843723534242)"><g opacity="0.181" fill="none" stroke="#4c188b" stroke-width="2.4"><polygon points="0,-20 20,16 -20,16"/></g></g><g transform="translate(775 758) rotate(309) scale(1.2425532982171419)"><g opacity="0.153" fill="none" stroke="#4c188b" stroke-width="2"><circle cx="0" cy="0" r="18"/><path d="M-18,0H18 M0,-18V18"/><path d="M-12,-12 Q0,-5 12,-12 M-12,12 Q0,5 12,12"/></g></g><g transform="translate(467 431) rotate(270) scale(1.0439653597296332)"><g opacity="0.176" fill="none" stroke="#4c188b" stroke-width="2.4"><polygon points="0,-20 20,16 -20,16"/></g></g><g transform="translate(305 364) rotate(138) scale(0.7911764390688024)"><g opacity="0.173" fill="none" stroke="#4c188b" stroke-width="2"><rect x="-18" y="-18" width="36" height="36" rx="4"/><path d="M-6,-18V18 M6,-18V18 M-18,-6H18 M-18,6H18"/></g></g><g transform="translate(669 591) rotate(140) scale(1.3420394463463705)"><g opacity="0.149" fill="none" stroke="#4c188b" stroke-width="2.4"><polygon points="0,-20 20,16 -20,16"/></g></g><g transform="translate(677 873) rotate(125) scale(0.8967225299538396)"><g opacity="0.174" fill="none" stroke="#4c188b" stroke-width="2.2"><ellipse cx="0" cy="0" rx="22" ry="9"/><ellipse cx="0" cy="0" rx="22" ry="9" transform="rotate(60)"/><ellipse cx="0" cy="0" rx="22" ry="9" transform="rotate(120)"/><circle cx="0" cy="0" r="4" fill="#4c188b"/></g></g><g transform="translate(795 967) rotate(305) scale(0.8999393920640532)"><g opacity="0.176" fill="none" stroke="#4c188b" stroke-width="2.4"><polygon points="0,-20 20,16 -20,16"/></g></g><g transform="translate(406 1047) rotate(57) scale(1.2184597854573174)"><g opacity="0.14" fill="none" stroke="#4c188b" stroke-width="2"><rect x="-18" y="-18" width="36" height="36" rx="4"/><path d="M-6,-18V18 M6,-18V18 M-18,-6H18 M-18,6H18"/></g></g><g transform="translate(204 1190) rotate(23) scale(1.3458497573177892)"><g opacity="0.137" fill="none" stroke="#4c188b" stroke-width="2.4" stroke-linejoin="round"><path d="M-16,-10 h14 a6,6 0 0 1 6,6 v18 h-14 a6,6 0 0 0 -6,6 v-24 a6,6 0 0 1 6,-6z"/><path d="M16,-10 h-14 a6,6 0 0 0 -6,6 v18 h14 a6,6 0 0 1 6,6 v-24 a6,6 0 0 0 -6,-6z"/></g></g><g transform="translate(225 1432) rotate(48) scale(0.9087803501801707)"><g opacity="0.158" fill="none" stroke="#4c188b" stroke-width="2.4" stroke-linejoin="round"><path d="M-20,10 L10,-20 L20,-10 L-10,20 L-24,24 Z"/><path d="M6,-24 L24,-6"/></g></g><g transform="translate(715 608) rotate(47) scale(1.3051889176642084)"><g opacity="0.165" fill="none" stroke="#4c188b" stroke-width="2.4" stroke-linejoin="round"><path d="M-16,-10 h14 a6,6 0 0 1 6,6 v18 h-14 a6,6 0 0 0 -6,6 v-24 a6,6 0 0 1 6,-6z"/><path d="M16,-10 h-14 a6,6 0 0 0 -6,6 v18 h14 a6,6 0 0 1 6,6 v-24 a6,6 0 0 0 -6,-6z"/></g></g><g transform="translate(698 165) rotate(19) scale(0.9419516971287526)"><g opacity="0.177" fill="none" stroke="#4c188b" stroke-width="2.4"><circle cx="0" cy="0" r="12"/><ellipse cx="0" cy="0" rx="24" ry="8" transform="rotate(-18)"/></g></g><g transform="translate(699 780) rotate(38) scale(1.3469656385262816)"><g opacity="0.171" fill="none" stroke="#4c188b" stroke-width="2.2"><ellipse cx="0" cy="0" rx="22" ry="9"/><ellipse cx="0" cy="0" rx="22" ry="9" transform="rotate(60)"/><ellipse cx="0" cy="0" rx="22" ry="9" transform="rotate(120)"/><circle cx="0" cy="0" r="4" fill="#4c188b"/></g></g><g transform="translate(644 683) rotate(183) scale(0.8833977578428162)"><g opacity="0.139" fill="none" stroke="#4c188b" stroke-width="2.4"><path d="M-28,0 C-18,-12 -8,-12 2,0 S22,12 32,0"/></g></g><g transform="translate(146 1507) rotate(222) scale(1.1157189727487264)"><g opacity="0.144" fill="none" stroke="#4c188b" stroke-width="2.4" stroke-linejoin="round"><path d="M-16,-10 h14 a6,6 0 0 1 6,6 v18 h-14 a6,6 0 0 0 -6,6 v-24 a6,6 0 0 1 6,-6z"/><path d="M16,-10 h-14 a6,6 0 0 0 -6,6 v18 h14 a6,6 0 0 1 6,6 v-24 a6,6 0 0 0 -6,-6z"/></g></g><g transform="translate(428 334) rotate(33) scale(1.0087352412691462)"><g opacity="0.162" fill="none" stroke="#4c188b" stroke-width="2.4"><circle cx="0" cy="0" r="12"/><ellipse cx="0" cy="0" rx="24" ry="8" transform="rotate(-18)"/></g></g><g transform="translate(114 630) rotate(172) scale(1.3050181709677755)"><g opacity="0.141" fill="none" stroke="#4c188b" stroke-width="2.2"><ellipse cx="0" cy="0" rx="22" ry="9"/><ellipse cx="0" cy="0" rx="22" ry="9" transform="rotate(60)"/><ellipse cx="0" cy="0" rx="22" ry="9" transform="rotate(120)"/><circle cx="0" cy="0" r="4" fill="#4c188b"/></g></g><g transform="translate(82 147) rotate(90) scale(1.083511938690083)"><g opacity="0.163" fill="none" stroke="#4c188b" stroke-width="2.4" stroke-linejoin="round"><path d="M-16,-10 h14 a6,6 0 0 1 6,6 v18 h-14 a6,6 0 0 0 -6,6 v-24 a6,6 0 0 1 6,-6z"/><path d="M16,-10 h-14 a6,6 0 0 0 -6,6 v18 h14 a6,6 0 0 1 6,6 v-24 a6,6 0 0 0 -6,-6z"/></g></g><g transform="translate(364 634) rotate(256) scale(1.2791406031351615)"><g opacity="0.141" fill="none" stroke="#4c188b" stroke-width="2.4" stroke-linejoin="round"><path d="M-20,10 L10,-20 L20,-10 L-10,20 L-24,24 Z"/><path d="M6,-24 L24,-6"/></g></g><g transform="translate(765 199) rotate(67) scale(1.3484140730090113)"><g opacity="0.152" fill="none" stroke="#4c188b" stroke-width="2.2"><ellipse cx="0" cy="0" rx="22" ry="9"/><ellipse cx="0" cy="0" rx="22" ry="9" transform="rotate(60)"/><ellipse cx="0" cy="0" rx="22" ry="9" transform="rotate(120)"/><circle cx="0" cy="0" r="4" fill="#4c188b"/></g></g><g transform="translate(447 386) rotate(225) scale(0.851376732297363)"><g stroke="#4c188b" stroke-width="2.5" stroke-linecap="round" stroke-linejoin="round" opacity="0.169" fill="none"><path d="M0,-16 L4,-4 L16,0 L4,4 L0,16 L-4,4 L-16,0 L-4,-4 Z"/></g></g><g transform="translate(489 1229) rotate(147) scale(1.1507052747030388)"><g opacity="0.175" fill="none" stroke="#4c188b" stroke-width="2"><rect x="-18" y="-18" width="36" height="36" rx="4"/><path d="M-6,-18V18 M6,-18V18 M-18,-6H18 M-18,6H18"/></g></g><g transform="translate(477 1214) rotate(190) scale(1.1619300703550337)"><g opacity="0.183" fill="none" stroke="#4c188b" stroke-width="2"><circle cx="0" cy="0" r="18"/><path d="M-18,0H18 M0,-18V18"/><path d="M-12,-12 Q0,-5 12,-12 M-12,12 Q0,5 12,12"/></g></g><g transform="translate(531 780) rotate(270) scale(1.1907024749100326)"><g opacity="0.151" fill="none" stroke="#4c188b" stroke-width="2.4" stroke-linejoin="round"><path d="M-16,-10 h14 a6,6 0 0 1 6,6 v18 h-14 a6,6 0 0 0 -6,6 v-24 a6,6 0 0 1 6,-6z"/><path d="M16,-10 h-14 a6,6 0 0 0 -6,6 v18 h14 a6,6 0 0 1 6,6 v-24 a6,6 0 0 0 -6,-6z"/></g></g><g transform="translate(726 1004) rotate(141) scale(1.2498125827069118)"><g opacity="0.166" fill="none" stroke="#4c188b" stroke-width="2.4" stroke-linejoin="round"><path d="M-20,10 L10,-20 L20,-10 L-10,20 L-24,24 Z"/><path d="M6,-24 L24,-6"/></g></g><g transform="translate(548 1122) rotate(262) scale(1.2232946586765794)"><g opacity="0.175" fill="#4c188b" font-family="Arial, Helvetica, sans-serif" font-size="22" font-weight="700"><text x="-30" y="-6">x² + y²</text><text x="-30" y="18">= r²</text></g></g><g transform="translate(612 1108) rotate(69) scale(0.9843943063917359)"><g opacity="0.167" fill="none" stroke="#4c188b" stroke-width="2.4" stroke-linejoin="round"><path d="M-20,10 L10,-20 L20,-10 L-10,20 L-24,24 Z"/><path d="M6,-24 L24,-6"/></g></g><g transform="translate(157 626) rotate(17) scale(0.9864448742511408)"><g opacity="0.16" fill="none" stroke="#4c188b" stroke-width="2.4"><path d="M-28,0 C-18,-12 -8,-12 2,0 S22,12 32,0"/></g></g><g transform="translate(333 740) rotate(14) scale(0.9750510187399773)"><g opacity="0.184" fill="none" stroke="#4c188b" stroke-width="2"><circle cx="0" cy="0" r="18"/><path d="M-18,0H18 M0,-18V18"/><path d="M-12,-12 Q0,-5 12,-12 M-12,12 Q0,5 12,12"/></g></g><g transform="translate(734 59) rotate(94) scale(0.7978269465017206)"><g opacity="0.164" fill="none" stroke="#4c188b" stroke-width="2.4" stroke-linejoin="round"><path d="M-20,10 L10,-20 L20,-10 L-10,20 L-24,24 Z"/><path d="M6,-24 L24,-6"/></g></g><g transform="translate(160 901) rotate(296) scale(1.0884602202338711)"><g opacity="0.154" fill="none" stroke="#4c188b" stroke-width="2.4"><circle cx="0" cy="0" r="12"/><ellipse cx="0" cy="0" rx="24" ry="8" transform="rotate(-18)"/></g></g><g transform="translate(544 111) rotate(335) scale(1.3427343052681293)"><g opacity="0.183" fill="none" stroke="#4c188b" stroke-width="2.4"><path d="M-28,0 C-18,-12 -8,-12 2,0 S22,12 32,0"/></g></g><g transform="translate(396 247) rotate(332) scale(1.3180546238413184)"><g opacity="0.159" fill="none" stroke="#4c188b" stroke-width="2.4"><circle cx="0" cy="0" r="12"/><ellipse cx="0" cy="0" rx="24" ry="8" transform="rotate(-18)"/></g></g><g transform="translate(203 1353) rotate(186) scale(0.8914590797282294)"><g opacity="0.153" fill="none" stroke="#4c188b" stroke-width="2"><circle cx="0" cy="0" r="18"/><path d="M-18,0H18 M0,-18V18"/><path d="M-12,-12 Q0,-5 12,-12 M-12,12 Q0,5 12,12"/></g></g><g transform="translate(410 909) rotate(321) scale(0.9749488446534209)"><g opacity="0.138" fill="#4c188b"><circle cx="0" cy="0" r="3"/><path d="M0,-12 L3,-3 L12,0 L3,3 L0,12 L-3,3 L-12,0 L-3,-3 Z"/></g></g><g transform="translate(174 1483) rotate(333) scale(1.147802356886479)"><g opacity="0.139" fill="none" stroke="#4c188b" stroke-width="2.4"><path d="M-28,0 C-18,-12 -8,-12 2,0 S22,12 32,0"/></g></g><g transform="translate(268 1074) rotate(187) scale(0.966297199503754)"><g opacity="0.163" fill="none" stroke="#4c188b" stroke-width="2.4" stroke-linejoin="round"><path d="M-20,10 L10,-20 L20,-10 L-10,20 L-24,24 Z"/><path d="M6,-24 L24,-6"/></g></g><g transform="translate(338 315) rotate(11) scale(1.1382205781331374)"><g opacity="0.172" fill="none" stroke="#4c188b" stroke-width="2.4" stroke-linejoin="round"><path d="M-20,10 L10,-20 L20,-10 L-10,20 L-24,24 Z"/><path d="M6,-24 L24,-6"/></g></g><g transform="translate(628 1431) rotate(151) scale(0.9064795171661612)"><g opacity="0.155" fill="#4c188b" font-family="Arial, Helvetica, sans-serif" font-size="22" font-weight="700"><text x="-30" y="-6">x² + y²</text><text x="-30" y="18">= r²</text></g></g><g transform="translate(539 945) rotate(45) scale(1.1439244581574357)"><g opacity="0.179" fill="none" stroke="#4c188b" stroke-width="2.4" stroke-linejoin="round"><path d="M-20,10 L10,-20 L20,-10 L-10,20 L-24,24 Z"/><path d="M6,-24 L24,-6"/></g></g><g transform="translate(479 728) rotate(55) scale(0.8314871575462374)"><g opacity="0.17" fill="none" stroke="#4c188b" stroke-width="2.4"><path d="M-28,0 C-18,-12 -8,-12 2,0 S22,12 32,0"/></g></g><g transform="translate(712 964) rotate(293) scale(0.9670398852379488)"><g opacity="0.146" fill="none" stroke="#4c188b" stroke-width="2"><rect x="-18" y="-18" width="36" height="36" rx="4"/><path d="M-6,-18V18 M6,-18V18 M-18,-6H18 M-18,6H18"/></g></g><g transform="translate(565 1482) rotate(74) scale(1.1040523507017044)"><g opacity="0.176" fill="none" stroke="#4c188b" stroke-width="2.4"><polygon points="0,-20 20,16 -20,16"/></g></g><g transform="translate(120 1152) rotate(159) scale(1.2258523181017718)"><g opacity="0.143" fill="none" stroke="#4c188b" stroke-width="2.2"><ellipse cx="0" cy="0" rx="22" ry="9"/><ellipse cx="0" cy="0" rx="22" ry="9" transform="rotate(60)"/><ellipse cx="0" cy="0" rx="22" ry="9" transform="rotate(120)"/><circle cx="0" cy="0" r="4" fill="#4c188b"/></g></g><g transform="translate(440 549) rotate(101) scale(1.318638985820069)"><g opacity="0.137" fill="none" stroke="#4c188b" stroke-width="2.4"><circle cx="0" cy="0" r="12"/><ellipse cx="0" cy="0" rx="24" ry="8" transform="rotate(-18)"/></g></g><g transform="translate(483 1501) rotate(162) scale(1.2474121267132363)"><g opacity="0.137" fill="none" stroke="#4c188b" stroke-width="2.4"><path d="M-28,0 C-18,-12 -8,-12 2,0 S22,12 32,0"/></g></g><g transform="translate(35 1537) rotate(65) scale(0.759969041068573)"><g opacity="0.151" fill="none" stroke="#4c188b" stroke-width="2"><circle cx="0" cy="0" r="18"/><path d="M-18,0H18 M0,-18V18"/><path d="M-12,-12 Q0,-5 12,-12 M-12,12 Q0,5 12,12"/></g></g>
</svg>