<svg xmlns="http://www.w3.org/2000/svg" width="900" height="1600" viewBox="0 0 900 1600">
<defs><linearGradient id="bg" x1="0%" y1="0%" x2="100%" y2="100%">
<stop offset="0%" stop-color="#04070b"/>
<stop offset="100%" stop-color="#081018"/>
</linearGradient><radialGradient id="glow" cx="80%" cy="20%" r="60%">
<stop offset="0%" stop-color="#4aa3ff" stop-opacity="0.22"/>
<stop offset="60%" stop-color="#4aa3ff" stop-opacity="0.06"/>
<stop offset="100%" stop-color="#4aa3ff" stop-opacity="0"/>
</radialGradient></defs><rect width="100%" height="100%" fill="url(#bg)"/><rect width="100%" height="100%" fill="url(#glow)"/><rect x="-900" y="-100" width="80" height="1800" transform="rotate(-18 -900 0)" fill="#ffffff" opacity="0.03"/><rect x="-780" y="-100" width="80" height="1800" transform="rotate(-18 -780 0)" fill="#ffffff" opacity="0.03"/><rect x="-660" y="-100" width="80" height="1800" transform="rotate(-18 -660 0)" fill="#ffffff" opacity="0.03"/><rect x="-540" y="-100" width="80" height="1800" transform="rotate(-18 -540 0)" fill="#ffffff" opacity="0.03"/><rect x="-420" y="-100" width="80" height="1800" transform="rotate(-18 -420 0)" fill="#ffffff" opacity="0.03"/><rect x="-300" y="-100" width="80" height="1800" transform="rotate(-18 -300 0)" fill="#ffffff" opacity="0.03"/><rect x="-180" y="-100" width="80" height="1800" transform="rotate(-18 -180 0)" fill="#ffffff" opacity="0.03"/><rect x="-60" y="-100" width="80" height="1800" transform="rotate(-18 -60 0)" fill="#ffffff" opacity="0.03"/><rect x="60" y="-100" width="80" height="1800" transform="rotate(-18 60 0)" fill="#ffffff" opacity="0.03"/><rect x="180" y="-100" width="80" height="1800" transform="rotate(-18 180 0)" fill="#ffffff" opacity="0.03"/><rect x="300" y="-100" width="80" height="1800" transform="rotate(-18 300 0)" fill="#ffffff" opacity="0.03"/><rect x="420" y="-100" width="80" height="1800" transform="rotate(-18 420 0)" fill="#ffffff" opacity="0.03"/><rect x="540" y="-100" width="80" height="1800" transform="rotate(-18 540 0)" fill="#ffffff" opacity="0.03"/><rect x="660" y="-100" width="80" height="1800" transform="rotate(-18 660 0)" fill="#ffffff" opacity="0.03"/><rect x="780" y="-100" width="80" height="1800" transform="rotate(-18 780 0)" fill="#ffffff" opacity="0.03"/><rect x="900" y="-100" width="80" height="1800" transform="rotate(-18 900 0)" fill="#ffffff" opacity="0.03"/><rect x="1020" y="-100" width="80" height="1800" transform="rotate(-18 1020 0)" fill="#ffffff" opacity="0.03"/><rect x="1140" y="-100" width="80" height="1800" transform="rotate(-18 1140 0)" fill="#ffffff" opacity="0.03"/><rect x="1260" y="-100" width="80" height="1800" transform="rotate(-18 1260 0)" fill="#ffffff" opacity="0.03"/><rect x="1380" y="-100" width="80" height="1800" transform="rotate(-18 1380 0)" fill="#ffffff" opacity="0.03"/><rect x="1500" y="-100" width="80" height="1800" transform="rotate(-18 1500 0)" fill="#ffffff" opacity="0.03"/><rect x="1620" y="-100" width="80" height="1800" transform="rotate(-18 1620 0)" fill="#ffffff" opacity="0.03"/><rect x="1740" y="-100" width="80" height="1800" transform="rotate(-18 1740 0)" fill="#ffffff" opacity="0.03"/><g transform="translate(770 1435) rotate(77) scale(1.2220075596861957)"><g opacity="0.158" fill="#4aa3ff" font-family="Arial, Helvetica, sans-serif" font-size="22" font-weight="700"><text x="-30" y="-6">x² + y²</text><text x="-30" y="18">= r²</text></g></g><g transform="translate(133 700) rotate(86) scale(1.0937644015495331)"><g stroke="#4aa3ff" stroke-width="2.5" stroke-linecap="round" stroke-linejoin="round" opacity="0.146" fill="none"><path d="M0,-16 L4,-4 L16,0 L4,4 L0,16 L-4,4 L-16,0 L-4,-4 Z"/></g></g><g transform="translate(106 241) rotate(242) scale(0.8250463052949569)"><g opacity="0.148" fill="none" stroke="#4aa3ff" stroke-width="2"><circle cx="0" cy="0" r="18"/><path d="M-18,0H18 M0,-18V18"/><path d="M-12,-12 Q0,-5 12,-12 M-12,12 Q0,5 12,12"/></g></g><g transform="translate(243 439) rotate(348) scale(0.9401423899473558)"><g opacity="0.142" fill="none" stroke="#4aa3ff" stroke-width="2.4"><path d="M-28,0 C-18,-12 -8,-12 2,0 S22,12 32,0"/></g></g><g transform="translate(124 1315) rotate(251) scale(1.060709764684372)"><g opacity="0.131" fill="none" stroke="#4aa3ff" stroke-width="2"><rect x="-18" y="-18" width="36" height="36" rx="4"/><path d="M-6,-18V18 M6,-18V18 M-18,-6H18 M-18,6H18"/></g></g><g transform="translate(616 526) rotate(48) scale(0.7710582920990116)"><g opacity="0.136" fill="none" stroke="#4aa3ff" stroke-width="2.4"><circle cx="0" cy="0" r="12"/><ellipse cx="0" cy="0" rx="24" ry="8" transform="rotate(-18)"/></g></g><g transform="translate(740 610) rotate(131) scale(0.9330380723934613)"><g opacity="0.156" fill="none" stroke="#4aa3ff" stroke-width="2.4" stroke-linejoin="round"><path d="M-16,-10 h14 a6,6 0 0 1 6,6 v18 h-14 a6,6 0 0 0 -6,6 v-24 a6,6 0 0 1 6,-6z"/><path d="M16,-10 h-14 a6,6 0 0 0 -6,6 v18 h14 a6,6 0 0 1 6,6 v-24 a6,6 0 0 0 -6,-6z"/></g></g><g transform="translate(53 577) rotate(112) scale(1.173470226976095)"><g opacity="0.138" fill="none" stroke="#4aa3ff" stroke-width="2"><circle cx="0" cy="0" r="18"/><path d="M-18,0H18 M0,-18V18"/><path d="M-12,-12 Q0,-5 12,-12 M-12,12 Q0,5 12,12"/></g></g><g transform="translate(43 1350) rotate(143) scale(1.1206036193702196)"><g opacity="0.159" fill="none" stroke="#4aa3ff" stroke-width="2.4" stroke-linejoin="round"><path d="M-16,-10 h14 a6,6 0 0 1 6,6 v18 h-14 a6,6 0 0 0 -6,6 v-24 a6,6 0 0 1 6,-6z"/><path d="M16,-10 h-14 a6,6 0 0 0 -6,6 v18 h14 a6,6 0 0 1 6,6 v-24 a6,6 0 0 0 -6,-6z"/></g></g><g transform="translate(373 1258) rotate(78) scale(1.1827759554120387)"><g opacity="0.14" fill="#4aa3ff"><circle cx="0" cy="0" r="3"/><path d="M0,-12 L3,-3 L12,0 L3,3 L0,12 L-3,3 L-12,0 L-3,-3 Z"/></g></g><g transform="translate(473 350) rotate(61) scale(0.8488029527922357)"><g opacity="0.172" fill="none" stroke="#4aa3ff" stroke-width="2.4" stroke-linejoin="round"><path d="M-16,-10 h14 a6,6 0 0 1 6,6 v18 h-14 a6,6 0 0 0 -6,6 v-24 a6,6 0 0 1 6,-6z"/><path d="M16,-10 h-14 a6,6 0 0 0 -6,6 v18 h14 a6,6 0 0 1 6,6 v-24 a6,6 0 0 0 -6,-6z"/></g></g><g transform="translate(624 907) rotate(59) scale(0.9568664665104006)"><g opacity="0.13" fill="none" stroke="#4aa3ff" stroke-width="2"><circle cx="0" cy="0" r="18"/><path d="M-18,0H18 M0,-18V18"/><path d="M-12,-12 Q0,-5 12,-12 M-12,12 Q0,5 12,12"/></g></g><g transform="translate(228 923) rotate(88) scale(0.8533953398136862)"><g opacity="0.133" fill="none" stroke="#4aa3ff" stroke-width="2.4"><circle cx="0" cy="0" r="12"/><ellipse cx="0" cy="0" rx="24" ry="8" transform="rotate(-18)"/></g></g><g transform="translate(330 34) rotate(161) scale(1.2360119625246506)"><g opacity="0.16" fill="#4aa3ff"><circle cx="0" cy="0" r="3"/><path d="M0,-12 L3,-3 L12,0 L3,3 L0,12 L-3,3 L-12,0 L-3,-3 Z"/></g></g><g transform="translate(498 1116) rotate(27) scale(1.20390335066431)"><g opacity="0.135" fill="#4aa3ff"><circle cx="0" cy="0" r="3"/><path d="M0,-12 L3,-3 L12,0 L3,3 L0,12 L-3,3 L-12,0 L-3,-3 Z"/></g></g><g transform="translate(496 1171) rotate(37) scale(0.9501161680192031)"><g opacity="0.161" fill="none" stroke="#4aa3ff" stroke-width="2"><circle cx="0" cy="0" r="18"/><path d="M-18,0H18 M0,-18V18"/><path d="M-12,-12 Q0,-5 12,-12 M-12,12 Q0,5 12,12"/></g></g><g transform="translate(125 711) rotate(43) scale(0.9043868987680816)"><g opacity="0.163" fill="#4aa3ff"><circle cx="0" cy="0" r="3"/><path d="M0,-12 L3,-3 L12,0 L3,3 L0,12 L-3,3 L-12,0 L-3,-3 Z"/></g></g><g transform="translate(709 120) rotate(99) scale(1.2225774095675848)"><g opacity="0.151" fill="none" stroke="#4aa3ff" stroke-width="2.2"><ellipse cx="0" cy="0" rx="22" ry="9"/><ellipse cx="0" cy="0" rx="22" ry="9" transform="rotate(60)"/><ellipse cx="0" cy="0" rx="22" ry="9" transform="rotate(120)"/><circle cx="0" cy="0" r="4" fill="#4aa3ff"/></g></g><g transform="translate(747 54) rotate(341) scale(0.8439376966228415)"><g opacity="0.168" fill="none" stroke="#4aa3ff" stroke-width="2.4"><polygon points="0,-20 20,16 -20,16"/></g></g><g transform="translate(349 288) rotate(55) scale(1.0013858569042717)"><g opacity="0.132" fill="none" stroke="#4aa3ff" stroke-width="2"><rect x="-18" y="-18" width="36" height="36" rx="4"/><path d="M-6,-18V18 M6,-18V18 M-18,-6H18 M-18,6H18"/></g></g><g transform="translate(275 434) rotate(49) scale(1.2655006046282993)"><g opacity="0.133" fill="#4aa3ff" font-family="Arial, Helvetica, sans-serif" font-size="22" font-weight="700"><text x="-30" y="-6">x² + y²</text><text x="-30" y="18">= r²</text></g></g><g transform="translate(429 315) rotate(229) scale(1.1387815657976685)"><g opacity="0.128" fill="none" stroke="#4aa3ff" stroke-width="2.4" stroke-linejoin="round"><path d="M-20,10 L10,-20 L20,-10 L-10,20 L-24,24 Z"/><path d="M6,-24 L24,-6"/></g></g><g transform="translate(223 1328) rotate(48) scale(0.9367739054787227)"><g opacity="0.137" fill="#4aa3ff" font-family="Arial, Helvetica, sans-serif" font-size="22" font-weight="700"><text x="-30" y="-6">x² + y²</text><text x="-30" y="18">= r²</text></g></g><g transform="translate(667 640) rotate(50) scale(0.8363045305451338)"><g stroke="#4aa3ff" stroke-width="2.5" stroke-linecap="round" stroke-linejoin="round" opacity="0.14" fill="none"><path d="M0,-16 L4,-4 L16,0 L4,4 L0,16 L-4,4 L-16,0 L-4,-4 Z"/></g></g><g transform="translate(426 794) rotate(144) scale(1.1912881805148665)"><g opacity="0.172" fill="none" stroke="#4aa3ff" stroke-width="2"><rect x="-18" y="-18" width="36" height="36" rx="4"/><path d="M-6,-18V18 M6,-18V18 M-18,-6H18 M-18,6H18"/></g></g><g transform="translate(503 233) rotate(240) scale(0.7899657886221237)"><g opacity="0.171" fill="none" stroke="#4aa3ff" stroke-width="2.2"><ellipse cx="0" cy="0" rx="22" ry="9"/><ellipse cx="0" cy="0" rx="22" ry="9" transform="rotate(60)"/><ellipse cx="0" cy="0" rx="22" ry="9" transform="rotate(120)"/><circle cx="0" cy="0" r="4" fill="#4aa3ff"/></g></g><g transform="translate(40 1465) rotate(35) scale(1.1888698676046747)"><g opacity="0.156" fill="none" stroke="#4aa3ff" stroke-width="2.4"><polygon points="0,-20 20,16 -20,16"/></g></g><g transform="translate(378 1493) rotate(142) scale(0.759311499501588)"><g opacity="0.155" fill="#4aa3ff" font-family="Arial, Helvetica, sans-serif" font-size="22" font-weight="700"><text x="-30" y="-6">x² + y²</text><text x="-30" y="18">= r²</text></g></g><g transform="translate(132 34) rotate(21) scale(1.3389272510314396)"><g opacity="0.161" fill="none" stroke="#4aa3ff" stroke-width="2.2"><ellipse cx="0" cy="0" rx="22" ry="9"/><ellipse cx="0" cy="0" rx="22" ry="9" transform="rotate(60)"/><ellipse cx="0" cy="0" rx="22" ry="9" transform="rotate(120)"/><circle cx="0" cy="0" r="4" fill="#4aa3ff"/></g></g><g transform="translate(663 861) rotate(40) scale(1.1631577608045205)"><g opacity="0.166" fill="none" stroke="#4aa3ff" stroke-width="2"><circle cx="0" cy="0" r="18"/><path d="M-18,0H18 M0,-18V18"/><path d="M-12,-12 Q0,-5 12,-12 M-12,12 Q0,5 12,12"/></g></g><g transform="translate(838 609) rotate(335) scale(1.0156703802192841)"><g opacity="0.167" fill="none" stroke="#4aa3ff" stroke-width="2.4" stroke-linejoin="round"><path d="M-16,-10 h14 a6,6 0 0 1 6,6 v18 h-14 a6,6 0 0 0 -6,6 v-24 a6,6 0 0 1 6,-6z"/><path d="M16,-10 h-14 a6,6 0 0 0 -6,6 v18 h14 a6,6 0 0 1 6,6 v-24 a6,6 0 0 0 -6,-6z"/></g></g><g transform="translate(414 1181) rotate(130) scale(0.9883890482517603)"><g stroke="#4aa3ff" stroke-width="2.5" stroke-linecap="round" stroke-linejoin="round" opacity="0.164" fill="none"><path d="M0,-16 L4,-4 L16,0 L4,4 L0,16 L-4,4 L-16,0 L-4,-4 Z"/></g></g><g transform="translate(499 217) rotate(251) scale(1.0991731652825014)"><g opacity="0.138" fill="none" stroke="#4aa3ff" stroke-width="2.4"><path d="M-28,0 C-18,-12 -8,-12 2,0 S22,12 32,0"/></g></g><g transform="translate(235 629) rotate(172) scale(1.020350611166226)"><g opacity="0.137" fill="none" stroke="#4aa3ff" stroke-width="2"><rect x="-18" y="-18" width="36" height="36" rx="4"/><path d="M-6,-18V18 M6,-18V18 M-18,-6H18 M-18,6H18"/></g></g><g transform="translate(83 743) rotate(46) scale(0.830934718151086)"><g opacity="0.128" fill="none" stroke="#4aa3ff" stroke-width="2.4"><path d="M-28,0 C-18,-12 -8,-12 2,0 S22,12 32,0"/></g></g><g transform="translate(150 1006) rotate(72) scale(0.893737223186376)"><g opacity="0.162" fill="#4aa3ff" font-family="Arial, Helvetica, sans-serif" font-size="22" font-weight="700"><text x="-30" y="-6">x² + y²</text><text x="-30" y="18">= r²</text></g></g><g transform="translate(36 316) rotate(179) scale(1.1588116423640675)"><g opacity="0.134" fill="none" stroke="#4aa3ff" stroke-width="2.4"><polygon points="0,-20 20,16 -20,16"/></g></g><g transform="translate(265 916) rotate(126) scale(1.0658564483328257)"><g opacity="0.172" fill="none" stroke="#4aa3ff" stroke-width="2"><rect x="-18" y="-18" width="36" height="36" rx="4"/><path d="M-6,-18V18 M6,-18V18 M-18,-6H18 M-18,6H18"/></g></g><g transform="translate(737 1127) rotate(148) scale(1.2545368047156567)"><g opacity="0.155" fill="none" stroke="#4aa3ff" stroke-width="2.4"><polygon points="0,-20 20,16 -20,16"/></g></g><g transform="translate(762 637) rotate(42) scale(1.122393553394774)"><g opacity="0.15" fill="#4aa3ff"><circle cx="0" cy="0" r="3"/><path d="M0,-12 L3,-3 L12,0 L3,3 L0,12 L-3,3 L-12,0 L-3,-3 Z"/></g></g><g transform="translate(390 1543) rotate(337) scale(0.8253867229749835)"><g opacity="0.149" fill="none" stroke="#4aa3ff" stroke-width="2.2"><ellipse cx="0" cy="0" rx="22" ry="9"/><ellipse cx="0" cy="0" rx="22" ry="9" transform="rotate(60)"/><ellipse cx="0" cy="0" rx="22" ry="9" transform="rotate(120)"/><circle cx="0" cy="0" r="4" fill="#4aa3ff"/></g></g><g transform="translate(392 701) rotate(321) scale(1.3444114561161813)"><g opacity="0.134" fill="none" stroke="#4aa3ff" stroke-width="2.4"><polygon points="0,-20 20,16 -20,16"/></g></g><g transform="translate(793 1469) rotate(351) scale(1.1823511347881985)"><g opacity="0.169" fill="none" stroke="#4aa3ff" stroke-width="2.4"><polygon points="0,-20 20,16 -20,16"/></g></g><g transform="translate(156 1558) rotate(19) scale(0.910889337861587)"><g opacity="0.136" fill="none" stroke="#4aa3ff" stroke-width="2.4"><polygon points="0,-20 20,16 -20,16"/></g></g><g transform="translate(430 468) rotate(157) scale(1.0779095583006442)"><g opacity="0.156" fill="none" stroke="#4aa3ff" stroke-width="2.4" stroke-linejoin="round"><path d="M-20,10 L10,-20 L20,-10 L-10,20 L-24,24 Z"/><path d="M6,-24 L24,-6"/></g></g><g transform="translate(169 293) rotate(12) scale(0.9148118952485282)"><g opacity="0.158" fill="none" stroke="#4aa3ff" stroke-width="2"><circle cx="0" cy="0" r="18"/><path d="M-18,0H18 M0,-18V18"/><path d="M-12,-12 Q0,-5 12,-12 M-12,12 Q0,5 12,12"/></g></g><g transform="translate(108 379) rotate(125) scale(0.9538219896314319)"><g opacity="0.142" fill="#4aa3ff"><circle cx="0" cy="0" r="3"/><path d="M0,-12 L3,-3 L12,0 L3,3 L0,12 L-3,3 L-12,0 L-3,-3 Z"/></g></g><g transform="translate(179 570) rotate(67) scale(0.9054828022237409)"><g opacity="0.172" fill="#4aa3ff" font-family="Arial, Helvetica, sans-serif" font-size="22" font-weight="700"><text x="-30" y="-6">x² + y²</text><text x="-30" y="18">= r²</text></g></g><g transform="translate(537 110) rotate(243) scale(1.0524127232029818)"><g opacity="0.145" fill="none" stroke="#4aa3ff" stroke-width="2.4" stroke-linejoin="round"><path d="M-20,10 L10,-20 L20,-10 L-10,20 L-24,24 Z"/><path d="M6,-24 L24,-6"/></g></g><g transform="translate(550 1544) rotate(334) scale(1.1523593102184062)"><g opacity="0.164" fill="none" stroke="#4aa3ff" stroke-width="2.4" stroke-linejoin="round"><path d="M-16,-10 h14 a6,6 0 0 1 6,6 v18 h-14 a6,6 0 0 0 -6,6 v-24 a6,6 0 0 1 6,-6z"/><path d="M16,-10 h-14 a6,6 0 0 0 -6,6 v18 h14 a6,6 0 0 1 6,6 v-24 a6,6 0 0 0 -6,-6z"/></g></g><g transform="translate(348 1058) rotate(87) scale(1.0799381528148777)"><g opacity="0.147" fill="none" stroke="#4aa3ff" stroke-width="2.4" stroke-linejoin="round"><path d="M-20,10 L10,-20 L20,-10 L-10,20 L-24,24 Z"/><path d="M6,-24 L24,-6"/></g></g><g transform="translate(826 1091) rotate(78) scale(1.0401916615679123)"><g opacity="0.136" fill="none" stroke="#4aa3ff" stroke-width="2.4" stroke-linejoin="round"><path d="M-16,-10 h14 a6,6 0 0 1 6,6 v18 h-14 a6,6 0 0 0 -6,6 v-24 a6,6 0 0 1 6,-6z"/><path d="M16,-10 h-14 a6,6 0 0 0 -6,6 v18 h14 a6,6 0 0 1 6,6 v-24 a6,6 0 0 0 -6,-6z"/></g></g><g transform="translate(326 271) rotate(205) scale(0.8641920020254343)"><g opacity="0.131" fill="none" stroke="#4aa3ff" stroke-width="2.4" stroke-linejoin="round"><path d="M-20,10 L10,-20 L20,-10 L-10,20 L-24,24 Z"/><path d="M6,-24 L24,-6"/></g></g><g transform="translate(817 657) rotate(58) scale(1.1318392866911362)"><g opacity="0.16" fill="none" stroke="#4aa3ff" stroke-width="2.2"><ellipse cx="0" cy="0" rx="22" ry="9"/><ellipse cx="0" cy="0" rx="22" ry="9" transform="rotate(60)"/><ellipse cx="0" cy="0" rx="22" ry="9" transform="rotate(120)"/><circle cx="0" cy="0" r="4" fill="#4aa3ff"/></g></g><g transform="translate(241 1519) rotate(106) scale(0.9332617202510591)"><g opacity="0.141" fill="none" stroke="#4aa3ff" stroke-width="2.4"><polygon points="0,-20 20,16 -20,16"/></g></g><g transform="translate(476 999) rotate(265) scale(0.8069009424628676)"><g opacity="0.161" fill="none" stroke="#4aa3ff" stroke-width="2.2"><ellipse cx="0" cy="0" rx="22" ry="9"/><ellipse cx="0" cy="0" rx="22" ry="9" transform="rotate(60)"/><ellipse cx="0" cy="0" rx="22" ry="9" transform="rotate(120)"/><circle cx="0" cy="0" r="4" fill="#4aa3ff"/></g></g><g transform="translate(218 1177) rotate(149) scale(1.0932268621270147)"><g opacity="0.128" fill="none" stroke="#4aa3ff" stroke-width="2.4" stroke-linejoin="round"><path d="M-16,-10 h14 a6,6 0 0 1 6,6 v18 h-14 a6,6 0 0 0 -6,6 v-24 a6,6 0 0 1 6,-6z"/><path d="M16,-10 h-14 a6,6 0 0 0 -6,6 v18 h14 a6,6 0 0 1 6,6 v-24 a6,6 0 0 0 -6,-6z"/></g></g><g transform="translate(851 803) rotate(262) scale(0.8382477758160414)"><g opacity="0.15" fill="none" stroke="#4aa3ff" stroke-width="2.4" stroke-linejoin="round"><path d="M-16,-10 h14 a6,6 0 0 1 6,6 v18 h-14 a6,6 0 0 0 -6,6 v-24 a6,6 0 0 1 6,-6z"/><path d="M16,-10 h-14 a6,6 0 0 0 -6,6 v18 h14 a6,6 0 0 1 6,6 v-24 a6,6 0 0 0 -6,-6z"/></g></g><g transform="translate(212 1248) rotate(267) scale(1.2439422480949278)"><g stroke="#4aa3ff" stroke-width="2.5" stroke-linecap="round" stroke-linejoin="round" opacity="0.133" fill="none"><path d="M0,-16 L4,-4 L16,0 L4,4 L0,16 L-4,4 L-16,0 L-4,-4 Z"/></g></g><g transform="translate(316 885) rotate(45) scale(1.0875396381677644)"><g opacity="0.136" fill="none" stroke="#4aa3ff" stroke-width="2.4"><polygon points="0,-20 20,16 -20,16"/></g></g><g transform="translate(731 935) rotate(22) scale(1.0166723969910465)"><g opacity="0.135" fill="#4aa3ff"><circle cx="0" cy="0" r="3"/><path d="M0,-12 L3,-3 L12,0 L3,3 L0,12 L-3,3 L-12,0 L-3,-3 Z"/></g></g><g transform="translate(207 225) rotate(306) scale(1.0478562520631867)"><g opacity="0.161" fill="none" stroke="#4aa3ff" stroke-width="2"><circle cx="0" cy="0" r="18"/><path d="M-18,0H18 M0,-18V18"/><path d="M-12,-12 Q0,-5 12,-12 M-12,12 Q0,5 12,12"/></g></g><g transform="translate(335 354) rotate(140) scale(0.8958405507941588)"><g opacity="0.133" fill="none" stroke="#4aa3ff" stroke-width="2.2"><ellipse cx="0" cy="0" rx="22" ry="9"/><ellipse cx="0" cy="0" rx="22" ry="9" transform="rotate(60)"/><ellipse cx="0" cy="0" rx="22" ry="9" transform="rotate(120)"/><circle cx="0" cy="0" r="4" fill="#4aa3ff"/></g></g><g transform="translate(593 1447) rotate(228) scale(1.0715032723201814)"><g opacity="0.143" fill="none" stroke="#4aa3ff" stroke-width="2"><rect x="-18" y="-18" width="36" height="36" rx="4"/><path d="M-6,-18V18 M6,-18V18 M-18,-6H18 M-18,6H18"/></g></g><g transform="translate(273 1139) rotate(261) scale(1.1882293634148124)"><g stroke="#4aa3ff" stroke-width="2.5" stroke-linecap="round" stroke-linejoin="round" opacity="0.148" fill="none"><path d="M0,-16 L4,-4 L16,0 L4,4 L0,16 L-4,4 L-16,0 L-4,-4 Z"/></g></g><g transform="translate(549 80) rotate(130) scale(0.92147183432048)"><g opacity="0.139" fill="none" stroke="#4aa3ff" stroke-width="2.4"><path d="M-28,0 C-18,-12 -8,-12 2,0 S22,12 32,0"/></g></g><g transform="translate(344 1122) rotate(347) scale(0.991338460000126)"><g opacity="0.158" fill="none" stroke="#4aa3ff" stroke-width="2.4"><circle cx="0" cy="0" r="12"/><ellipse cx="0" cy="0" rx="24" ry="8" transform="rotate(-18)"/></g></g><g transform="translate(402 58) rotate(91) scale(0.7870050813758734)"><g opacity="0.138" fill="none" stroke="#4aa3ff" stroke-width="2.4" stroke-linejoin="round"><path d="M-16,-10 h14 a6,6 0 0 1 6,6 v18 h-14 a6,6 0 0 0 -6,6 v-24 a6,6 0 0 1 6,-6z"/><path d="M16,-10 h-14 a6,6 0 0 0 -6,6 v18 h14 a6,6 0 0 1 6,6 v-24 a6,6 0 0 0 -6,-6z"/></g></g><g transform="translate(103 1532) rotate(21) scale(1.0148222405647152)"><g stroke="#4aa3ff" stroke-width="2.5" stroke-linecap="round" stroke-linejoin="round" opacity="0.155" fill="none"><path d="M0,-16 L4,-4 L16,0 L4,4 L0,16 L-4,4 L-16,0 L-4,-4 Z"/></g></g><g transform="translate(253 827) rotate(287) scale(1.0741697964194021)"><g opacity="0.132" fill="none" stroke="#4aa3ff" stroke-width="2.4" stroke-linejoin="round"><path d="M-20,10 L10,-20 L20,-10 L-10,20 L-24,24 Z"/><path d="M6,-24 L24,-6"/></g></g><g transform="translate(811 980) rotate(338) scale(1.2873400108400768)"><g opacity="0.141" fill="none" stroke="#4aa3ff" stroke-width="2.4"><polygon points="0,-20 20,16 -20,16"/></g></g><g transform="translate(137 942) rotate(318) scale(0.8633700243331582)"><g opacity="0.133" fill="#4aa3ff"><circle cx="0" cy="0" r="3"/><path d="M0,-12 L3,-3 L12,0 L3,3 L0,12 L-3,3 L-12,0 L-3,-3 Z"/></g></g><g transform="translate(65 750) rotate(103) scale(0.8622303023771811)"><g opacity="0.138" fill="none" stroke="#4aa3ff" stroke-width="2.4" stroke-linejoin="round"><path d="M-16,-10 h14 a6,6 0 0 1 6,6 v18 h-14 a6,6 0 0 0 -6,6 v-24 a6,6 0 0 1 6,-6z"/><path d="M16,-10 h-14 a6,6 0 0 0 -6,6 v18 h14 a6,6 0 0 1 6,6 v-24 a6,6 0 0 0 -6,-6z"/></g></g><g transform="translate(30 284) rotate(114) scale(0.7812845527224558)"><g opacity="0.172" fill="none" stroke="#4aa3ff" stroke-width="2"><rect x="-18" y="-18" width="36" height="36" rx="4"/><path d="M-6,-18V18 M6,-18V18 M-18,-6H18 M-18,6H18"/></g></g><g transform="translate(680 1277) rotate(141) scale(0.9770607888828384)"><g opacity="0.143" fill="none" stroke="#4aa3ff" stroke-width="2"><circle cx="0" cy="0" r="18"/><path d="M-18,0H18 M0,-18V18"/><path d="M-12,-12 Q0,-5 12,-12 M-12,12 Q0,5 12,12"/></g></g><g transform="translate(829 1257) rotate(67) scale(1.0761073303953324)"><g opacity="0.167" fill="none" stroke="#4aa3ff" stroke-width="2.4"><path d="M-28,0 C-18,-12 -8,-12 2,0 S22,12 32,0"/></g></g><g transform="translate(84 52) rotate(260) scale(1.2634587277145908)"><g opacity="0.151" fill="none" stroke="#4aa3ff" stroke-width="2.4"><polygon points="0,-20 20,16 -20,16"/></g></g><g transform="translate(211 333) rotate(178) scale(0.8762049014033443)"><g opacity="0.134" fill="none" stroke="#4aa3ff" stroke-width="2.4" stroke-linejoin="round"><path d="M-16,-10 h14 a6,6 0 0 1 6,6 v18 h-14 a6,6 0 0 0 -6,6 v-24 a6,6 0 0 1 6,-6z"/><path d="M16,-10 h-14 a6,6 0 0 0 -6,6 v18 h14 a6,6 0 0 1 6,6 v-24 a6,6 0 0 0 -6,-6z"/></g></g><g transform="translate(810 626) rotate(87) scale(1.225784102531043)"><g opacity="0.171" fill="none" stroke="#4aa3ff" stroke-width="2.4"><polygon points="0,-20 20,16 -20,16"/></g></g><g transform="translate(341 985) rotate(43) scale(0.8719293231000435)"><g opacity="0.134" fill="none" stroke="#4aa3ff" stroke-width="2.4"><circle cx="0" cy="0" r="12"/><ellipse cx="0" cy="0" rx="24" ry="8" transform="rotate(-18)"/></g></g><g transform="translate(662 349) rotate(180) scale(1.055707247933817)"><g opacity="0.144" fill="#4aa3ff" font-family="Arial, Helvetica, sans-serif" font-size="22" font-weight="700"><text x="-30" y="-6">x² + y²</text><text x="-30" y="18">= r²</text></g></g><g transform="translate(796 77) rotate(13) scale(0.9062425585880363)"><g opacity="0.128" fill="none" stroke="#4aa3ff" stroke-width="2.4" stroke-linejoin="round"><path d="M-20,10 L10,-20 L20,-10 L-10,20 L-24,24 Z"/><path d="M6,-24 L24,-6"/></g></g><g transform="translate(834 614) rotate(232) scale(1.1717908165011233)"><g opacity="0.13" fill="#4aa3ff" font-family="Arial, Helvetica, sans-serif" font-size="22" font-weight="700"><text x="-30" y="-6">x² + y²</text><text x="-30" y="18">= r²</text></g></g><g transform="translate(64 203) rotate(157) scale(0.762138549280489)"><g opacity="0.14" fill="none" stroke="#4aa3ff" stroke-width="2"><rect x="-18" y="-18" width="36" height="36" rx="4"/><path d="M-6,-18V18 M6,-18V18 M-18,-6H18 M-18,6H18"/></g></g><g transform="translate(669 605) rotate(329) scale(0.8009384742969242)"><g opacity="0.166" fill="none" stroke="#4aa3ff" stroke-width="2"><rect x="-18" y="-18" width="36" height="36" rx="4"/><path d="M-6,-18V18 M6,-18V18 M-18,-6H18 M-18,6H18"/></g></g><rect width="100%" height="100%" fill="#000" opacity="0.12"/>
</svg>