<svg xmlns="http://www.w3.org/2000/svg" width="900" height="1600" viewBox="0 0 900 1600">
<defs><linearGradient id="bg" x1="0%" y1="0%" x2="100%" y2="100%">
<stop offset="0%" stop-color="#06080d"/>
<stop offset="100%" stop-color="#1a091f"/>
</linearGradient><radialGradient id="glow" cx="80%" cy="20%" r="60%">
<stop offset="0%" stop-color="#cf61ff" stop-opacity="0.22"/>
<stop offset="60%" stop-color="#cf61ff" stop-opacity="0.06"/>
<stop offset="100%" stop-color="#cf61ff" stop-opacity="0"/>
</radialGradient></defs><rect width="100%" height="100%" fill="url(#bg)"/><rect width="100%" height="100%" fill="url(#glow)"/><g transform="translate(295 625) rotate(350) scale(1.1611547957787223)"><g opacity="0.188" fill="none" stroke="#cf61ff" stroke-width="2.4" stroke-linejoin="round"><path d="M-16,-10 h14 a6,6 0 0 1 6,6 v18 h-14 a6,6 0 0 0 -6,6 v-24 a6,6 0 0 1 6,-6z"/><path d="M16,-10 h-14 a6,6 0 0 0 -6,6 v18 h14 a6,6 0 0 1 6,6 v-24 a6,6 0 0 0 -6,-6z"/></g></g><g transform="translate(712 331) rotate(328) scale(1.2715385745100511)"><g opacity="0.16" fill="none" stroke="#cf61ff" stroke-width="2.4" stroke-linejoin="round"><path d="M-16,-10 h14 a6,6 0 0 1 6,6 v18 h-14 a6,6 0 0 0 -6,6 v-24 a6,6 0 0 1 6,-6z"/><path d="M16,-10 h-14 a6,6 0 0 0 -6,6 v18 h14 a6,6 0 0 1 6,6 v-24 a6,6 0 0 0 -6,-6z"/></g></g><g transform="translate(574 468) rotate(15) scale(1.1968153027951276)"><g opacity="0.16" fill="none" stroke="#cf61ff" stroke-width="2"><rect x="-18" y="-18" width="36" height="36" rx="4"/><path d="M-6,-18V18 M6,-18V18 M-18,-6H18 M-18,6H18"/></g></g><g transform="translate(730 1276) rotate(141) scale(1.3488040477682608)"><g opacity="0.158" fill="none" stroke="#cf61ff" stroke-width="2.4" stroke-linejoin="round"><path d="M-16,-10 h14 a6,6 0 0 1 6,6 v18 h-14 a6,6 0 0 0 -6,6 v-24 a6,6 0 0 1 6,-6z"/><path d="M16,-10 h-14 a6,6 0 0 0 -6,6 v18 h14 a6,6 0 0 1 6,6 v-24 a6,6 0 0 0 -6,-6z"/></g></g><g transform="translate(843 567) rotate(223) scale(1.2458192040818896)"><g opacity="0.196" fill="none" stroke="#cf61ff" stroke-width="2.4" stroke-linejoin="round"><path d="M-16,-10 h14 a6,6 0 0 1 6,6 v18 h-14 a6,6 0 0 0 -6,6 v-24 a6,6 0 0 1 6,-6z"/><path d="M16,-10 h-14 a6,6 0 0 0 -6,6 v18 h14 a6,6 0 0 1 6,6 v-24 a6,6 0 0 0 -6,-6z"/></g></g><g transform="translate(292 758) rotate(249) scale(1.2599634076685957)"><g opacity="0.183" fill="none" stroke="#cf61ff" stroke-width="2.4"><polygon points="0,-20 20,16 -20,16"/></g></g><g transform="translate(469 1403) rotate(220) scale(0.9685215751318457)"><g opacity="0.17" fill="#cf61ff"><circle cx="0" cy="0" r="3"/><path d="M0,-12 L3,-3 L12,0 L3,3 L0,12 L-3,3 L-12,0 L-3,-3 Z"/></g></g><g transform="translate(150 738) rotate(324) scale(1.2417861860752486)"><g opacity="0.19" fill="#cf61ff" font-family="Arial, Helvetica, sans-serif" font-size="22" font-weight="700"><text x="-30" y="-6">x² + y²</text><text x="-30" y="18">= r²</text></g></g><g transform="translate(597 1281) rotate(69) scale(1.1990468948505273)"><g opacity="0.19" fill="none" stroke="#cf61ff" stroke-width="2.4" stroke-linejoin="round"><path d="M-20,10 L10,-20 L20,-10 L-10,20 L-24,24 Z"/><path d="M6,-24 L24,-6"/></g></g><g transform="translate(484 1127) rotate(103) scale(0.8559802485703272)"><g opacity="0.181" fill="none" stroke="#cf61ff" stroke-width="2.4" stroke-linejoin="round"><path d="M-16,-10 h14 a6,6 0 0 1 6,6 v18 h-14 a6,6 0 0 0 -6,6 v-24 a6,6 0 0 1 6,-6z"/><path d="M16,-10 h-14 a6,6 0 0 0 -6,6 v18 h14 a6,6 0 0 1 6,6 v-24 a6,6 0 0 0 -6,-6z"/></g></g><g transform="translate(289 790) rotate(310) scale(1.0256754141826732)"><g opacity="0.174" fill="#cf61ff" font-family="Arial, Helvetica, sans-serif" font-size="22" font-weight="700"><text x="-30" y="-6">x² + y²</text><text x="-30" y="18">= r²</text></g></g><g transform="translate(163 1212) rotate(120) scale(1.0445142815263262)"><g opacity="0.166" fill="none" stroke="#cf61ff" stroke-width="2"><circle cx="0" cy="0" r="18"/><path d="M-18,0H18 M0,-18V18"/><path d="M-12,-12 Q0,-5 12,-12 M-12,12 Q0,5 12,12"/></g></g><g transform="translate(229 1466) rotate(37) scale(0.9698639458318117)"><g opacity="0.188" fill="none" stroke="#cf61ff" stroke-width="2"><rect x="-18" y="-18" width="36" height="36" rx="4"/><path d="M-6,-18V18 M6,-18V18 M-18,-6H18 M-18,6H18"/></g></g><g transform="translate(504 828) rotate(217) scale(0.7513086127588837)"><g stroke="#cf61ff" stroke-width="2.5" stroke-linecap="round" stroke-linejoin="round" opacity="0.165" fill="none"><path d="M0,-16 L4,-4 L16,0 L4,4 L0,16 L-4,4 L-16,0 L-4,-4 Z"/></g></g><g transform="translate(539 1459) rotate(327) scale(1.2528872271408908)"><g opacity="0.162" fill="#cf61ff" font-family="Arial, Helvetica, sans-serif" font-size="22" font-weight="700"><text x="-30" y="-6">x² + y²</text><text x="-30" y="18">= r²</text></g></g><g transform="translate(453 1537) rotate(179) scale(1.2709449123648304)"><g opacity="0.191" fill="none" stroke="#cf61ff" stroke-width="2.2"><ellipse cx="0" cy="0" rx="22" ry="9"/><ellipse cx="0" cy="0" rx="22" ry="9" transform="rotate(60)"/><ellipse cx="0" cy="0" rx="22" ry="9" transform="rotate(120)"/><circle cx="0" cy="0" r="4" fill="#cf61ff"/></g></g><g transform="translate(675 797) rotate(336) scale(1.0622118818007906)"><g opacity="0.202" fill="none" stroke="#cf61ff" stroke-width="2.4" stroke-linejoin="round"><path d="M-16,-10 h14 a6,6 0 0 1 6,6 v18 h-14 a6,6 0 0 0 -6,6 v-24 a6,6 0 0 1 6,-6z"/><path d="M16,-10 h-14 a6,6 0 0 0 -6,6 v18 h14 a6,6 0 0 1 6,6 v-24 a6,6 0 0 0 -6,-6z"/></g></g><g transform="translate(750 1265) rotate(254) scale(0.8925955059649691)"><g opacity="0.2" fill="none" stroke="#cf61ff" stroke-width="2.2"><ellipse cx="0" cy="0" rx="22" ry="9"/><ellipse cx="0" cy="0" rx="22" ry="9" transform="rotate(60)"/><ellipse cx="0" cy="0" rx="22" ry="9" transform="rotate(120)"/><circle cx="0" cy="0" r="4" fill="#cf61ff"/></g></g><g transform="translate(73 1219) rotate(19) scale(1.1710769918168709)"><g opacity="0.184" fill="none" stroke="#cf61ff" stroke-width="2.4"><path d="M-28,0 C-18,-12 -8,-12 2,0 S22,12 32,0"/></g></g><g transform="translate(613 729) rotate(98) scale(0.8592906175344813)"><g opacity="0.196" fill="none" stroke="#cf61ff" stroke-width="2.4" stroke-linejoin="round"><path d="M-16,-10 h14 a6,6 0 0 1 6,6 v18 h-14 a6,6 0 0 0 -6,6 v-24 a6,6 0 0 1 6,-6z"/><path d="M16,-10 h-14 a6,6 0 0 0 -6,6 v18 h14 a6,6 0 0 1 6,6 v-24 a6,6 0 0 0 -6,-6z"/></g></g><g transform="translate(598 259) rotate(85) scale(1.2903707529256825)"><g opacity="0.176" fill="none" stroke="#cf61ff" stroke-width="2.4"><circle cx="0" cy="0" r="12"/><ellipse cx="0" cy="0" rx="24" ry="8" transform="rotate(-18)"/></g></g><g transform="translate(639 1169) rotate(355) scale(1.2342053288667603)"><g stroke="#cf61ff" stroke-width="2.5" stroke-linecap="round" stroke-linejoin="round" opacity="0.205" fill="none"><path d="M0,-16 L4,-4 L16,0 L4,4 L0,16 L-4,4 L-16,0 L-4,-4 Z"/></g></g><g transform="translate(381 1351) rotate(1) scale(0.8055971571501449)"><g opacity="0.207" fill="none" stroke="#cf61ff" stroke-width="2.4" stroke-linejoin="round"><path d="M-16,-10 h14 a6,6 0 0 1 6,6 v18 h-14 a6,6 0 0 0 -6,6 v-24 a6,6 0 0 1 6,-6z"/><path d="M16,-10 h-14 a6,6 0 0 0 -6,6 v18 h14 a6,6 0 0 1 6,6 v-24 a6,6 0 0 0 -6,-6z"/></g></g><g transform="translate(154 865) rotate(137) scale(0.9309018682244549)"><g opacity="0.185" fill="none" stroke="#cf61ff" stroke-width="2"><circle cx="0" cy="0" r="18"/><path d="M-18,0H18 M0,-18V18"/><path d="M-12,-12 Q0,-5 12,-12 M-12,12 Q0,5 12,12"/></g></g><g transform="translate(109 992) rotate(18) scale(1.0632110925020177)"><g stroke="#cf61ff" stroke-width="2.5" stroke-linecap="round" stroke-linejoin="round" opacity="0.17" fill="none"><path d="M0,-16 L4,-4 L16,0 L4,4 L0,16 L-4,4 L-16,0 L-4,-4 Z"/></g></g><g transform="translate(188 1046) rotate(272) scale(1.08585618571842)"><g opacity="0.198" fill="none" stroke="#cf61ff" stroke-width="2.4"><polygon points="0,-20 20,16 -20,16"/></g></g><g transform="translate(258 1401) rotate(16) scale(0.8743356643463198)"><g opacity="0.18" fill="none" stroke="#cf61ff" stroke-width="2"><rect x="-18" y="-18" width="36" height="36" rx="4"/><path d="M-6,-18V18 M6,-18V18 M-18,-6H18 M-18,6H18"/></g></g><g transform="translate(190 1542) rotate(217) scale(0.8378202181681166)"><g opacity="0.198" fill="#cf61ff"><circle cx="0" cy="0" r="3"/><path d="M0,-12 L3,-3 L12,0 L3,3 L0,12 L-3,3 L-12,0 L-3,-3 Z"/></g></g><g transform="translate(250 559) rotate(120) scale(1.0049108308017787)"><g opacity="0.195" fill="none" stroke="#cf61ff" stroke-width="2.4"><path d="M-28,0 C-18,-12 -8,-12 2,0 S22,12 32,0"/></g></g><g transform="translate(636 618) rotate(328) scale(1.0067330458932253)"><g opacity="0.176" fill="none" stroke="#cf61ff" stroke-width="2.4"><path d="M-28,0 C-18,-12 -8,-12 2,0 S22,12 32,0"/></g></g><g transform="translate(354 844) rotate(35) scale(1.026402971536325)"><g stroke="#cf61ff" stroke-width="2.5" stroke-linecap="round" stroke-linejoin="round" opacity="0.185" fill="none"><path d="M0,-16 L4,-4 L16,0 L4,4 L0,16 L-4,4 L-16,0 L-4,-4 Z"/></g></g><g transform="translate(34 1368) rotate(97) scale(1.2143108247505705)"><g opacity="0.179" fill="none" stroke="#cf61ff" stroke-width="2.4" stroke-linejoin="round"><path d="M-20,10 L10,-20 L20,-10 L-10,20 L-24,24 Z"/><path d="M6,-24 L24,-6"/></g></g><g transform="translate(597 828) rotate(148) scale(0.9497197422145223)"><g opacity="0.176" fill="none" stroke="#cf61ff" stroke-width="2.4"><polygon points="0,-20 20,16 -20,16"/></g></g><g transform="translate(170 333) rotate(57) scale(1.2681389274564294)"><g opacity="0.197" fill="none" stroke="#cf61ff" stroke-width="2.4"><path d="M-28,0 C-18,-12 -8,-12 2,0 S22,12 32,0"/></g></g><g transform="translate(253 660) rotate(198) scale(0.9320119705940884)"><g opacity="0.155" fill="#cf61ff" font-family="Arial, Helvetica, sans-serif" font-size="22" font-weight="700"><text x="-30" y="-6">x² + y²</text><text x="-30" y="18">= r²</text></g></g><g transform="translate(161 234) rotate(226) scale(0.9666155822168354)"><g opacity="0.2" fill="none" stroke="#cf61ff" stroke-width="2"><circle cx="0" cy="0" r="18"/><path d="M-18,0H18 M0,-18V18"/><path d="M-12,-12 Q0,-5 12,-12 M-12,12 Q0,5 12,12"/></g></g><g transform="translate(474 119) rotate(151) scale(0.9606251904445249)"><g opacity="0.205" fill="none" stroke="#cf61ff" stroke-width="2.4" stroke-linejoin="round"><path d="M-16,-10 h14 a6,6 0 0 1 6,6 v18 h-14 a6,6 0 0 0 -6,6 v-24 a6,6 0 0 1 6,-6z"/><path d="M16,-10 h-14 a6,6 0 0 0 -6,6 v18 h14 a6,6 0 0 1 6,6 v-24 a6,6 0 0 0 -6,-6z"/></g></g><g transform="translate(80 690) rotate(279) scale(0.8499837483148169)"><g opacity="0.202" fill="none" stroke="#cf61ff" stroke-width="2.4" stroke-linejoin="round"><path d="M-16,-10 h14 a6,6 0 0 1 6,6 v18 h-14 a6,6 0 0 0 -6,6 v-24 a6,6 0 0 1 6,-6z"/><path d="M16,-10 h-14 a6,6 0 0 0 -6,6 v18 h14 a6,6 0 0 1 6,6 v-24 a6,6 0 0 0 -6,-6z"/></g></g><g transform="translate(284 1425) rotate(245) scale(0.839849657221216)"><g opacity="0.157" fill="none" stroke="#cf61ff" stroke-width="2.4"><path d="M-28,0 C-18,-12 -8,-12 2,0 S22,12 32,0"/></g></g><g transform="translate(300 467) rotate(121) scale(0.7781704353617488)"><g opacity="0.198" fill="#cf61ff"><circle cx="0" cy="0" r="3"/><path d="M0,-12 L3,-3 L12,0 L3,3 L0,12 L-3,3 L-12,0 L-3,-3 Z"/></g></g><g transform="translate(274 1094) rotate(225) scale(1.221713961305227)"><g opacity="0.184" fill="none" stroke="#cf61ff" stroke-width="2.2"><ellipse cx="0" cy="0" rx="22" ry="9"/><ellipse cx="0" cy="0" rx="22" ry="9" transform="rotate(60)"/><ellipse cx="0" cy="0" rx="22" ry="9" transform="rotate(120)"/><circle cx="0" cy="0" r="4" fill="#cf61ff"/></g></g><g transform="translate(665 141) rotate(26) scale(1.2537933716793779)"><g opacity="0.186" fill="none" stroke="#cf61ff" stroke-width="2.4"><circle cx="0" cy="0" r="12"/><ellipse cx="0" cy="0" rx="24" ry="8" transform="rotate(-18)"/></g></g><g transform="translate(576 789) rotate(153) scale(1.0701575222457198)"><g opacity="0.205" fill="none" stroke="#cf61ff" stroke-width="2.4" stroke-linejoin="round"><path d="M-16,-10 h14 a6,6 0 0 1 6,6 v18 h-14 a6,6 0 0 0 -6,6 v-24 a6,6 0 0 1 6,-6z"/><path d="M16,-10 h-14 a6,6 0 0 0 -6,6 v18 h14 a6,6 0 0 1 6,6 v-24 a6,6 0 0 0 -6,-6z"/></g></g><g transform="translate(335 564) rotate(26) scale(0.8021307723492817)"><g stroke="#cf61ff" stroke-width="2.5" stroke-linecap="round" stroke-linejoin="round" opacity="0.162" fill="none"><path d="M0,-16 L4,-4 L16,0 L4,4 L0,16 L-4,4 L-16,0 L-4,-4 Z"/></g></g><g transform="translate(45 249) rotate(138) scale(1.0644693808978958)"><g opacity="0.207" fill="none" stroke="#cf61ff" stroke-width="2.4"><circle cx="0" cy="0" r="12"/><ellipse cx="0" cy="0" rx="24" ry="8" transform="rotate(-18)"/></g></g><g transform="translate(858 1314) rotate(318) scale(1.0046094245934754)"><g opacity="0.192" fill="#cf61ff"><circle cx="0" cy="0" r="3"/><path d="M0,-12 L3,-3 L12,0 L3,3 L0,12 L-3,3 L-12,0 L-3,-3 Z"/></g></g><g transform="translate(327 113) rotate(157) scale(0.8156484608113949)"><g opacity="0.207" fill="none" stroke="#cf61ff" stroke-width="2"><rect x="-18" y="-18" width="36" height="36" rx="4"/><path d="M-6,-18V18 M6,-18V18 M-18,-6H18 M-18,6H18"/></g></g><g transform="translate(512 828) rotate(76) scale(0.9106566674300278)"><g opacity="0.169" fill="none" stroke="#cf61ff" stroke-width="2.4" stroke-linejoin="round"><path d="M-20,10 L10,-20 L20,-10 L-10,20 L-24,24 Z"/><path d="M6,-24 L24,-6"/></g></g><g transform="translate(568 89) rotate(141) scale(1.0693238150731794)"><g opacity="0.165" fill="none" stroke="#cf61ff" stroke-width="2.4"><path d="M-28,0 C-18,-12 -8,-12 2,0 S22,12 32,0"/></g></g><g transform="translate(283 797) rotate(247) scale(0.9996869004811966)"><g opacity="0.167" fill="none" stroke="#cf61ff" stroke-width="2"><rect x="-18" y="-18" width="36" height="36" rx="4"/><path d="M-6,-18V18 M6,-18V18 M-18,-6H18 M-18,6H18"/></g></g><g transform="translate(502 1214) rotate(274) scale(1.2912290049703419)"><g opacity="0.163" fill="none" stroke="#cf61ff" stroke-width="2.4" stroke-linejoin="round"><path d="M-20,10 L10,-20 L20,-10 L-10,20 L-24,24 Z"/><path d="M6,-24 L24,-6"/></g></g><g transform="translate(414 1492) rotate(97) scale(1.0356627561065483)"><g stroke="#cf61ff" stroke-width="2.5" stroke-linecap="round" stroke-linejoin="round" opacity="0.184" fill="none"><path d="M0,-16 L4,-4 L16,0 L4,4 L0,16 L-4,4 L-16,0 L-4,-4 Z"/></g></g><g transform="translate(65 1017) rotate(91) scale(1.2427399031853164)"><g opacity="0.159" fill="none" stroke="#cf61ff" stroke-width="2.4" stroke-linejoin="round"><path d="M-16,-10 h14 a6,6 0 0 1 6,6 v18 h-14 a6,6 0 0 0 -6,6 v-24 a6,6 0 0 1 6,-6z"/><path d="M16,-10 h-14 a6,6 0 0 0 -6,6 v18 h14 a6,6 0 0 1 6,6 v-24 a6,6 0 0 0 -6,-6z"/></g></g><g transform="translate(633 302) rotate(254) scale(0.9343647349506625)"><g opacity="0.181" fill="none" stroke="#cf61ff" stroke-width="2"><circle cx="0" cy="0" r="18"/><path d="M-18,0H18 M0,-18V18"/><path d="M-12,-12 Q0,-5 12,-12 M-12,12 Q0,5 12,12"/></g></g><g transform="translate(86 468) rotate(332) scale(1.1732421610296375)"><g opacity="0.154" fill="none" stroke="#cf61ff" stroke-width="2"><rect x="-18" y="-18" width="36" height="36" rx="4"/><path d="M-6,-18V18 M6,-18V18 M-18,-6H18 M-18,6H18"/></g></g><g transform="translate(574 75) rotate(348) scale(1.2161340141100023)"><g opacity="0.169" fill="none" stroke="#cf61ff" stroke-width="2.4" stroke-linejoin="round"><path d="M-16,-10 h14 a6,6 0 0 1 6,6 v18 h-14 a6,6 0 0 0 -6,6 v-24 a6,6 0 0 1 6,-6z"/><path d="M16,-10 h-14 a6,6 0 0 0 -6,6 v18 h14 a6,6 0 0 1 6,6 v-24 a6,6 0 0 0 -6,-6z"/></g></g><g transform="translate(664 344) rotate(256) scale(1.1402059438239758)"><g opacity="0.203" fill="none" stroke="#cf61ff" stroke-width="2"><rect x="-18" y="-18" width="36" height="36" rx="4"/><path d="M-6,-18V18 M6,-18V18 M-18,-6H18 M-18,6H18"/></g></g><g transform="translate(293 492) rotate(311) scale(1.0418888122805081)"><g opacity="0.166" fill="none" stroke="#cf61ff" stroke-width="2.4"><circle cx="0" cy="0" r="12"/><ellipse cx="0" cy="0" rx="24" ry="8" transform="rotate(-18)"/></g></g><g transform="translate(573 1062) rotate(230) scale(0.7557542483716396)"><g opacity="0.188" fill="none" stroke="#cf61ff" stroke-width="2.4"><path d="M-28,0 C-18,-12 -8,-12 2,0 S22,12 32,0"/></g></g><g transform="translate(652 134) rotate(218) scale(1.064771191927495)"><g opacity="0.202" fill="none" stroke="#cf61ff" stroke-width="2.2"><ellipse cx="0" cy="0" rx="22" ry="9"/><ellipse cx="0" cy="0" rx="22" ry="9" transform="rotate(60)"/><ellipse cx="0" cy="0" rx="22" ry="9" transform="rotate(120)"/><circle cx="0" cy="0" r="4" fill="#cf61ff"/></g></g><g transform="translate(788 56) rotate(75) scale(0.810234919349778)"><g opacity="0.197" fill="none" stroke="#cf61ff" stroke-width="2.4" stroke-linejoin="round"><path d="M-20,10 L10,-20 L20,-10 L-10,20 L-24,24 Z"/><path d="M6,-24 L24,-6"/></g></g><g transform="translate(166 1425) rotate(116) scale(0.956868878249098)"><g opacity="0.168" fill="#cf61ff"><circle cx="0" cy="0" r="3"/><path d="M0,-12 L3,-3 L12,0 L3,3 L0,12 L-3,3 L-12,0 L-3,-3 Z"/></g></g><g transform="translate(125 556) rotate(64) scale(1.1777110627302312)"><g opacity="0.185" fill="none" stroke="#cf61ff" stroke-width="2.4" stroke-linejoin="round"><path d="M-16,-10 h14 a6,6 0 0 1 6,6 v18 h-14 a6,6 0 0 0 -6,6 v-24 a6,6 0 0 1 6,-6z"/><path d="M16,-10 h-14 a6,6 0 0 0 -6,6 v18 h14 a6,6 0 0 1 6,6 v-24 a6,6 0 0 0 -6,-6z"/></g></g><g transform="translate(87 1149) rotate(312) scale(1.1350192672388426)"><g opacity="0.154" fill="none" stroke="#cf61ff" stroke-width="2.4"><polygon points="0,-20 20,16 -20,16"/></g></g><g transform="translate(503 759) rotate(292) scale(0.9786631982537923)"><g opacity="0.196" fill="none" stroke="#cf61ff" stroke-width="2.4" stroke-linejoin="round"><path d="M-20,10 L10,-20 L20,-10 L-10,20 L-24,24 Z"/><path d="M6,-24 L24,-6"/></g></g><g transform="translate(555 877) rotate(227) scale(0.7904389587030077)"><g opacity="0.204" fill="none" stroke="#cf61ff" stroke-width="2.4"><polygon points="0,-20 20,16 -20,16"/></g></g><g transform="translate(376 807) rotate(105) scale(1.1533885365333567)"><g opacity="0.171" fill="#cf61ff"><circle cx="0" cy="0" r="3"/><path d="M0,-12 L3,-3 L12,0 L3,3 L0,12 L-3,3 L-12,0 L-3,-3 Z"/></g></g><g transform="translate(623 189) rotate(212) scale(1.209447193794138)"><g opacity="0.197" fill="#cf61ff" font-family="Arial, Helvetica, sans-serif" font-size="22" font-weight="700"><text x="-30" y="-6">x² + y²</text><text x="-30" y="18">= r²</text></g></g><g transform="translate(833 83) rotate(229) scale(1.3416980745483145)"><g opacity="0.175" fill="none" stroke="#cf61ff" stroke-width="2"><rect x="-18" y="-18" width="36" height="36" rx="4"/><path d="M-6,-18V18 M6,-18V18 M-18,-6H18 M-18,6H18"/></g></g><g transform="translate(607 1565) rotate(128) scale(0.7865647543069263)"><g opacity="0.153" fill="none" stroke="#cf61ff" stroke-width="2.2"><ellipse cx="0" cy="0" rx="22" ry="9"/><ellipse cx="0" cy="0" rx="22" ry="9" transform="rotate(60)"/><ellipse cx="0" cy="0" rx="22" ry="9" transform="rotate(120)"/><circle cx="0" cy="0" r="4" fill="#cf61ff"/></g></g><g transform="translate(575 694) rotate(271) scale(1.3441708190734538)"><g opacity="0.176" fill="none" stroke="#cf61ff" stroke-width="2.2"><ellipse cx="0" cy="0" rx="22" ry="9"/><ellipse cx="0" cy="0" rx="22" ry="9" transform="rotate(60)"/><ellipse cx="0" cy="0" rx="22" ry="9" transform="rotate(120)"/><circle cx="0" cy="0" r="4" fill="#cf61ff"/></g></g><g transform="translate(604 633) rotate(322) scale(0.7567713001542139)"><g opacity="0.193" fill="none" stroke="#cf61ff" stroke-width="2.4"><circle cx="0" cy="0" r="12"/><ellipse cx="0" cy="0" rx="24" ry="8" transform="rotate(-18)"/></g></g><g transform="translate(701 293) rotate(283) scale(1.32354103654734)"><g opacity="0.187" fill="none" stroke="#cf61ff" stroke-width="2"><rect x="-18" y="-18" width="36" height="36" rx="4"/><path d="M-6,-18V18 M6,-18V18 M-18,-6H18 M-18,6H18"/></g></g><g transform="translate(350 355) rotate(81) scale(1.344978828798281)"><g opacity="0.156" fill="none" stroke="#cf61ff" stroke-width="2.4" stroke-linejoin="round"><path d="M-16,-10 h14 a6,6 0 0 1 6,6 v18 h-14 a6,6 0 0 0 -6,6 v-24 a6,6 0 0 1 6,-6z"/><path d="M16,-10 h-14 a6,6 0 0 0 -6,6 v18 h14 a6,6 0 0 1 6,6 v-24 a6,6 0 0 0 -6,-6z"/></g></g><g transform="translate(266 925) rotate(91) scale(1.0892681925832672)"><g opacity="0.195" fill="#cf61ff"><circle cx="0" cy="0" r="3"/><path d="M0,-12 L3,-3 L12,0 L3,3 L0,12 L-3,3 L-12,0 L-3,-3 Z"/></g></g><g transform="translate(449 1464) rotate(249) scale(0.7984118556848874)"><g opacity="0.161" fill="none" stroke="#cf61ff" stroke-width="2.4"><polygon points="0,-20 20,16 -20,16"/></g></g><g transform="translate(85 744) rotate(265) scale(1.1225537719658627)"><g opacity="0.195" fill="none" stroke="#cf61ff" stroke-width="2.4"><polygon points="0,-20 20,16 -20,16"/></g></g><g transform="translate(797 386) rotate(218) scale(0.8049173476074447)"><g opacity="0.176" fill="#cf61ff" font-family="Arial, Helvetica, sans-serif" font-size="22" font-weight="700"><text x="-30" y="-6">x² + y²</text><text x="-30" y="18">= r²</text></g></g><g transform="translate(280 567) rotate(296) scale(0.9189409858257203)"><g opacity="0.176" fill="none" stroke="#cf61ff" stroke-width="2.4"><polygon points="0,-20 20,16 -20,16"/></g></g><g transform="translate(319 603) rotate(108) scale(1.1959285484952984)"><g opacity="0.198" fill="none" stroke="#cf61ff" stroke-width="2.4"><circle cx="0" cy="0" r="12"/><ellipse cx="0" cy="0" rx="24" ry="8" transform="rotate(-18)"/></g></g><g transform="translate(116 359) rotate(61) scale(0.7782211342048825)"><g opacity="0.161" fill="#cf61ff" font-family="Arial, Helvetica, sans-serif" font-size="22" font-weight="700"><text x="-30" y="-6">x² + y²</text><text x="-30" y="18">= r²</text></g></g><g transform="translate(254 1309) rotate(52) scale(0.933237800449936)"><g opacity="0.177" fill="none" stroke="#cf61ff" stroke-width="2.4" stroke-linejoin="round"><path d="M-20,10 L10,-20 L20,-10 L-10,20 L-24,24 Z"/><path d="M6,-24 L24,-6"/></g></g><g transform="translate(136 124) rotate(294) scale(1.1726309935536636)"><g opacity="0.176" fill="none" stroke="#cf61ff" stroke-width="2.4"><polygon points="0,-20 20,16 -20,16"/></g></g><g transform="translate(756 1008) rotate(169) scale(0.8900070837653393)"><g opacity="0.16" fill="none" stroke="#cf61ff" stroke-width="2.4"><path d="M-28,0 C-18,-12 -8,-12 2,0 S22,12 32,0"/></g></g><g transform="translate(759 1033) rotate(51) scale(0.8029470549360885)"><g opacity="0.177" fill="#cf61ff" font-family="Arial, Helvetica, sans-serif" font-size="22" font-weight="700"><text x="-30" y="-6">x² + y²</text><text x="-30" y="18">= r²</text></g></g><rect width="100%" height="100%" fill="#000" opacity="0.12"/>
</svg>