<svg xmlns="http://www.w3.org/2000/svg" width="900" height="1600" viewBox="0 0 900 1600">
<defs><linearGradient id="bg" x1="0%" y1="0%" x2="100%" y2="100%">
<stop offset="0%" stop-color="#06101a"/>
<stop offset="100%" stop-color="#08131f"/>
</linearGradient><radialGradient id="glow" cx="80%" cy="20%" r="60%">
<stop offset="0%" stop-color="#3d9fff" stop-opacity="0.22"/>
<stop offset="60%" stop-color="#3d9fff" stop-opacity="0.06"/>
<stop offset="100%" stop-color="#3d9fff" stop-opacity="0"/>
</radialGradient></defs><rect width="100%" height="100%" fill="url(#bg)"/><rect width="100%" height="100%" fill="url(#glow)"/><rect x="-900" y="-100" width="80" height="1800" transform="rotate(-18 -900 0)" fill="#ffffff" opacity="0.03"/><rect x="-780" y="-100" width="80" height="1800" transform="rotate(-18 -780 0)" fill="#ffffff" opacity="0.03"/><rect x="-660" y="-100" width="80" height="1800" transform="rotate(-18 -660 0)" fill="#ffffff" opacity="0.03"/><rect x="-540" y="-100" width="80" height="1800" transform="rotate(-18 -540 0)" fill="#ffffff" opacity="0.03"/><rect x="-420" y="-100" width="80" height="1800" transform="rotate(-18 -420 0)" fill="#ffffff" opacity="0.03"/><rect x="-300" y="-100" width="80" height="1800" transform="rotate(-18 -300 0)" fill="#ffffff" opacity="0.03"/><rect x="-180" y="-100" width="80" height="1800" transform="rotate(-18 -180 0)" fill="#ffffff" opacity="0.03"/><rect x="-60" y="-100" width="80" height="1800" transform="rotate(-18 -60 0)" fill="#ffffff" opacity="0.03"/><rect x="60" y="-100" width="80" height="1800" transform="rotate(-18 60 0)" fill="#ffffff" opacity="0.03"/><rect x="180" y="-100" width="80" height="1800" transform="rotate(-18 180 0)" fill="#ffffff" opacity="0.03"/><rect x="300" y="-100" width="80" height="1800" transform="rotate(-18 300 0)" fill="#ffffff" opacity="0.03"/><rect x="420" y="-100" width="80" height="1800" transform="rotate(-18 420 0)" fill="#ffffff" opacity="0.03"/><rect x="540" y="-100" width="80" height="1800" transform="rotate(-18 540 0)" fill="#ffffff" opacity="0.03"/><rect x="660" y="-100" width="80" height="1800" transform="rotate(-18 660 0)" fill="#ffffff" opacity="0.03"/><rect x="780" y="-100" width="80" height="1800" transform="rotate(-18 780 0)" fill="#ffffff" opacity="0.03"/><rect x="900" y="-100" width="80" height="1800" transform="rotate(-18 900 0)" fill="#ffffff" opacity="0.03"/><rect x="1020" y="-100" width="80" height="1800" transform="rotate(-18 1020 0)" fill="#ffffff" opacity="0.03"/><rect x="1140" y="-100" width="80" height="1800" transform="rotate(-18 1140 0)" fill="#ffffff" opacity="0.03"/><rect x="1260" y="-100" width="80" height="1800" transform="rotate(-18 1260 0)" fill="#ffffff" opacity="0.03"/><rect x="1380" y="-100" width="80" height="1800" transform="rotate(-18 1380 0)" fill="#ffffff" opacity="0.03"/><rect x="1500" y="-100" width="80" height="1800" transform="rotate(-18 1500 0)" fill="#ffffff" opacity="0.03"/><rect x="1620" y="-100" width="80" height="1800" transform="rotate(-18 1620 0)" fill="#ffffff" opacity="0.03"/><rect x="1740" y="-100" width="80" height="1800" transform="rotate(-18 1740 0)" fill="#ffffff" opacity="0.03"/><g transform="translate(400 990) rotate(213) scale(1.0382883993607765)"><g opacity="0.157" fill="none" stroke="#3d9fff" stroke-width="2.2"><ellipse cx="0" cy="0" rx="22" ry="9"/><ellipse cx="0" cy="0" rx="22" ry="9" transform="rotate(60)"/><ellipse cx="0" cy="0" rx="22" ry="9" transform="rotate(120)"/><circle cx="0" cy="0" r="4" fill="#3d9fff"/></g></g><g transform="translate(449 1376) rotate(121) scale(1.17660087462748)"><g opacity="0.147" fill="#3d9fff"><circle cx="0" cy="0" r="3"/><path d="M0,-12 L3,-3 L12,0 L3,3 L0,12 L-3,3 L-12,0 L-3,-3 Z"/></g></g><g transform="translate(333 648) rotate(341) scale(1.2389466956335158)"><g opacity="0.182" fill="none" stroke="#3d9fff" stroke-width="2.4" stroke-linejoin="round"><path d="M-16,-10 h14 a6,6 0 0 1 6,6 v18 h-14 a6,6 0 0 0 -6,6 v-24 a6,6 0 0 1 6,-6z"/><path d="M16,-10 h-14 a6,6 0 0 0 -6,6 v18 h14 a6,6 0 0 1 6,6 v-24 a6,6 0 0 0 -6,-6z"/></g></g><g transform="translate(646 665) rotate(112) scale(0.7633090486641615)"><g opacity="0.148" fill="none" stroke="#3d9fff" stroke-width="2"><circle cx="0" cy="0" r="18"/><path d="M-18,0H18 M0,-18V18"/><path d="M-12,-12 Q0,-5 12,-12 M-12,12 Q0,5 12,12"/></g></g><g transform="translate(187 1271) rotate(14) scale(1.1504513813448967)"><g opacity="0.158" fill="none" stroke="#3d9fff" stroke-width="2.4" stroke-linejoin="round"><path d="M-20,10 L10,-20 L20,-10 L-10,20 L-24,24 Z"/><path d="M6,-24 L24,-6"/></g></g><g transform="translate(671 1470) rotate(114) scale(0.9277353911940601)"><g opacity="0.153" fill="#3d9fff" font-family="Arial, Helvetica, sans-serif" font-size="22" font-weight="700"><text x="-30" y="-6">x² + y²</text><text x="-30" y="18">= r²</text></g></g><g transform="translate(460 206) rotate(216) scale(0.9586683265609718)"><g opacity="0.167" fill="none" stroke="#3d9fff" stroke-width="2.4"><polygon points="0,-20 20,16 -20,16"/></g></g><g transform="translate(606 630) rotate(144) scale(1.0972533034265337)"><g opacity="0.176" fill="none" stroke="#3d9fff" stroke-width="2.4"><circle cx="0" cy="0" r="12"/><ellipse cx="0" cy="0" rx="24" ry="8" transform="rotate(-18)"/></g></g><g transform="translate(839 42) rotate(120) scale(1.0640236006963315)"><g opacity="0.143" fill="none" stroke="#3d9fff" stroke-width="2.4" stroke-linejoin="round"><path d="M-20,10 L10,-20 L20,-10 L-10,20 L-24,24 Z"/><path d="M6,-24 L24,-6"/></g></g><g transform="translate(341 678) rotate(33) scale(1.0265293901574504)"><g opacity="0.17" fill="none" stroke="#3d9fff" stroke-width="2.4" stroke-linejoin="round"><path d="M-16,-10 h14 a6,6 0 0 1 6,6 v18 h-14 a6,6 0 0 0 -6,6 v-24 a6,6 0 0 1 6,-6z"/><path d="M16,-10 h-14 a6,6 0 0 0 -6,6 v18 h14 a6,6 0 0 1 6,6 v-24 a6,6 0 0 0 -6,-6z"/></g></g><g transform="translate(775 56) rotate(251) scale(1.017079571675189)"><g stroke="#3d9fff" stroke-width="2.5" stroke-linecap="round" stroke-linejoin="round" opacity="0.18" fill="none"><path d="M0,-16 L4,-4 L16,0 L4,4 L0,16 L-4,4 L-16,0 L-4,-4 Z"/></g></g><g transform="translate(516 1461) rotate(232) scale(1.2274429684412778)"><g opacity="0.14" fill="none" stroke="#3d9fff" stroke-width="2"><circle cx="0" cy="0" r="18"/><path d="M-18,0H18 M0,-18V18"/><path d="M-12,-12 Q0,-5 12,-12 M-12,12 Q0,5 12,12"/></g></g><g transform="translate(700 76) rotate(118) scale(1.3308503067968)"><g opacity="0.179" fill="none" stroke="#3d9fff" stroke-width="2"><rect x="-18" y="-18" width="36" height="36" rx="4"/><path d="M-6,-18V18 M6,-18V18 M-18,-6H18 M-18,6H18"/></g></g><g transform="translate(63 1134) rotate(332) scale(0.7757993355067057)"><g opacity="0.165" fill="none" stroke="#3d9fff" stroke-width="2"><rect x="-18" y="-18" width="36" height="36" rx="4"/><path d="M-6,-18V18 M6,-18V18 M-18,-6H18 M-18,6H18"/></g></g><g transform="translate(518 1076) rotate(348) scale(1.151104903009978)"><g opacity="0.176" fill="#3d9fff"><circle cx="0" cy="0" r="3"/><path d="M0,-12 L3,-3 L12,0 L3,3 L0,12 L-3,3 L-12,0 L-3,-3 Z"/></g></g><g transform="translate(102 496) rotate(47) scale(0.9419866119365587)"><g opacity="0.142" fill="none" stroke="#3d9fff" stroke-width="2.4"><polygon points="0,-20 20,16 -20,16"/></g></g><g transform="translate(39 837) rotate(58) scale(1.1253486158546633)"><g opacity="0.138" fill="#3d9fff"><circle cx="0" cy="0" r="3"/><path d="M0,-12 L3,-3 L12,0 L3,3 L0,12 L-3,3 L-12,0 L-3,-3 Z"/></g></g><g transform="translate(813 834) rotate(326) scale(0.8419079656887563)"><g opacity="0.148" fill="#3d9fff" font-family="Arial, Helvetica, sans-serif" font-size="22" font-weight="700"><text x="-30" y="-6">x² + y²</text><text x="-30" y="18">= r²</text></g></g><g transform="translate(626 52) rotate(125) scale(0.8933512532356529)"><g opacity="0.141" fill="none" stroke="#3d9fff" stroke-width="2.4"><circle cx="0" cy="0" r="12"/><ellipse cx="0" cy="0" rx="24" ry="8" transform="rotate(-18)"/></g></g><g transform="translate(180 578) rotate(19) scale(0.982999109061027)"><g opacity="0.158" fill="none" stroke="#3d9fff" stroke-width="2"><rect x="-18" y="-18" width="36" height="36" rx="4"/><path d="M-6,-18V18 M6,-18V18 M-18,-6H18 M-18,6H18"/></g></g><g transform="translate(777 985) rotate(19) scale(1.0264521237904272)"><g stroke="#3d9fff" stroke-width="2.5" stroke-linecap="round" stroke-linejoin="round" opacity="0.137" fill="none"><path d="M0,-16 L4,-4 L16,0 L4,4 L0,16 L-4,4 L-16,0 L-4,-4 Z"/></g></g><g transform="translate(232 905) rotate(257) scale(1.1502974119277298)"><g opacity="0.141" fill="none" stroke="#3d9fff" stroke-width="2"><rect x="-18" y="-18" width="36" height="36" rx="4"/><path d="M-6,-18V18 M6,-18V18 M-18,-6H18 M-18,6H18"/></g></g><g transform="translate(251 262) rotate(55) scale(0.9995661495591025)"><g opacity="0.142" fill="#3d9fff" font-family="Arial, Helvetica, sans-serif" font-size="22" font-weight="700"><text x="-30" y="-6">x² + y²</text><text x="-30" y="18">= r²</text></g></g><g transform="translate(474 319) rotate(121) scale(1.2543130713687736)"><g opacity="0.178" fill="none" stroke="#3d9fff" stroke-width="2.4" stroke-linejoin="round"><path d="M-16,-10 h14 a6,6 0 0 1 6,6 v18 h-14 a6,6 0 0 0 -6,6 v-24 a6,6 0 0 1 6,-6z"/><path d="M16,-10 h-14 a6,6 0 0 0 -6,6 v18 h14 a6,6 0 0 1 6,6 v-24 a6,6 0 0 0 -6,-6z"/></g></g><g transform="translate(443 916) rotate(202) scale(1.050819366685491)"><g opacity="0.153" fill="none" stroke="#3d9fff" stroke-width="2.4" stroke-linejoin="round"><path d="M-16,-10 h14 a6,6 0 0 1 6,6 v18 h-14 a6,6 0 0 0 -6,6 v-24 a6,6 0 0 1 6,-6z"/><path d="M16,-10 h-14 a6,6 0 0 0 -6,6 v18 h14 a6,6 0 0 1 6,6 v-24 a6,6 0 0 0 -6,-6z"/></g></g><g transform="translate(537 386) rotate(106) scale(1.2663068104148654)"><g opacity="0.156" fill="#3d9fff"><circle cx="0" cy="0" r="3"/><path d="M0,-12 L3,-3 L12,0 L3,3 L0,12 L-3,3 L-12,0 L-3,-3 Z"/></g></g><g transform="translate(52 1029) rotate(151) scale(0.9327948983272796)"><g opacity="0.177" fill="none" stroke="#3d9fff" stroke-width="2.4"><circle cx="0" cy="0" r="12"/><ellipse cx="0" cy="0" rx="24" ry="8" transform="rotate(-18)"/></g></g><g transform="translate(799 654) rotate(123) scale(1.192291306699742)"><g opacity="0.167" fill="none" stroke="#3d9fff" stroke-width="2.4"><polygon points="0,-20 20,16 -20,16"/></g></g><g transform="translate(244 1237) rotate(68) scale(1.0151959888746236)"><g opacity="0.163" fill="none" stroke="#3d9fff" stroke-width="2.4" stroke-linejoin="round"><path d="M-20,10 L10,-20 L20,-10 L-10,20 L-24,24 Z"/><path d="M6,-24 L24,-6"/></g></g><g transform="translate(811 1325) rotate(54) scale(1.3447205975745473)"><g opacity="0.151" fill="#3d9fff"><circle cx="0" cy="0" r="3"/><path d="M0,-12 L3,-3 L12,0 L3,3 L0,12 L-3,3 L-12,0 L-3,-3 Z"/></g></g><g transform="translate(503 194) rotate(26) scale(1.2337847895763288)"><g opacity="0.152" fill="none" stroke="#3d9fff" stroke-width="2.4"><polygon points="0,-20 20,16 -20,16"/></g></g><g transform="translate(205 234) rotate(206) scale(1.1765721039370853)"><g opacity="0.155" fill="#3d9fff" font-family="Arial, Helvetica, sans-serif" font-size="22" font-weight="700"><text x="-30" y="-6">x² + y²</text><text x="-30" y="18">= r²</text></g></g><g transform="translate(258 420) rotate(6) scale(1.0224701562965235)"><g opacity="0.136" fill="#3d9fff"><circle cx="0" cy="0" r="3"/><path d="M0,-12 L3,-3 L12,0 L3,3 L0,12 L-3,3 L-12,0 L-3,-3 Z"/></g></g><g transform="translate(371 839) rotate(104) scale(1.114093403323488)"><g stroke="#3d9fff" stroke-width="2.5" stroke-linecap="round" stroke-linejoin="round" opacity="0.149" fill="none"><path d="M0,-16 L4,-4 L16,0 L4,4 L0,16 L-4,4 L-16,0 L-4,-4 Z"/></g></g><g transform="translate(685 76) rotate(29) scale(0.9817412478851554)"><g opacity="0.168" fill="none" stroke="#3d9fff" stroke-width="2.4" stroke-linejoin="round"><path d="M-16,-10 h14 a6,6 0 0 1 6,6 v18 h-14 a6,6 0 0 0 -6,6 v-24 a6,6 0 0 1 6,-6z"/><path d="M16,-10 h-14 a6,6 0 0 0 -6,6 v18 h14 a6,6 0 0 1 6,6 v-24 a6,6 0 0 0 -6,-6z"/></g></g><g transform="translate(578 1446) rotate(105) scale(1.3211619625504833)"><g opacity="0.174" fill="none" stroke="#3d9fff" stroke-width="2.4"><polygon points="0,-20 20,16 -20,16"/></g></g><g transform="translate(673 1134) rotate(326) scale(1.1476834051014366)"><g opacity="0.161" fill="#3d9fff" font-family="Arial, Helvetica, sans-serif" font-size="22" font-weight="700"><text x="-30" y="-6">x² + y²</text><text x="-30" y="18">= r²</text></g></g><g transform="translate(659 1284) rotate(261) scale(1.2289497962779248)"><g opacity="0.159" fill="none" stroke="#3d9fff" stroke-width="2.2"><ellipse cx="0" cy="0" rx="22" ry="9"/><ellipse cx="0" cy="0" rx="22" ry="9" transform="rotate(60)"/><ellipse cx="0" cy="0" rx="22" ry="9" transform="rotate(120)"/><circle cx="0" cy="0" r="4" fill="#3d9fff"/></g></g><g transform="translate(522 745) rotate(235) scale(0.8320276635028848)"><g opacity="0.141" fill="none" stroke="#3d9fff" stroke-width="2.4" stroke-linejoin="round"><path d="M-16,-10 h14 a6,6 0 0 1 6,6 v18 h-14 a6,6 0 0 0 -6,6 v-24 a6,6 0 0 1 6,-6z"/><path d="M16,-10 h-14 a6,6 0 0 0 -6,6 v18 h14 a6,6 0 0 1 6,6 v-24 a6,6 0 0 0 -6,-6z"/></g></g><g transform="translate(53 218) rotate(146) scale(1.308766558947339)"><g opacity="0.175" fill="#3d9fff"><circle cx="0" cy="0" r="3"/><path d="M0,-12 L3,-3 L12,0 L3,3 L0,12 L-3,3 L-12,0 L-3,-3 Z"/></g></g><g transform="translate(129 348) rotate(313) scale(0.7728415273987284)"><g opacity="0.171" fill="none" stroke="#3d9fff" stroke-width="2.4"><circle cx="0" cy="0" r="12"/><ellipse cx="0" cy="0" rx="24" ry="8" transform="rotate(-18)"/></g></g><g transform="translate(809 500) rotate(290) scale(0.9567350873510418)"><g opacity="0.14" fill="none" stroke="#3d9fff" stroke-width="2"><rect x="-18" y="-18" width="36" height="36" rx="4"/><path d="M-6,-18V18 M6,-18V18 M-18,-6H18 M-18,6H18"/></g></g><g transform="translate(121 975) rotate(16) scale(0.7972848544274256)"><g opacity="0.143" fill="none" stroke="#3d9fff" stroke-width="2"><circle cx="0" cy="0" r="18"/><path d="M-18,0H18 M0,-18V18"/><path d="M-12,-12 Q0,-5 12,-12 M-12,12 Q0,5 12,12"/></g></g><g transform="translate(725 1516) rotate(105) scale(1.217952110578795)"><g opacity="0.138" fill="none" stroke="#3d9fff" stroke-width="2"><rect x="-18" y="-18" width="36" height="36" rx="4"/><path d="M-6,-18V18 M6,-18V18 M-18,-6H18 M-18,6H18"/></g></g><g transform="translate(392 265) rotate(206) scale(1.1592694306293505)"><g opacity="0.148" fill="none" stroke="#3d9fff" stroke-width="2"><rect x="-18" y="-18" width="36" height="36" rx="4"/><path d="M-6,-18V18 M6,-18V18 M-18,-6H18 M-18,6H18"/></g></g><g transform="translate(655 814) rotate(181) scale(1.1071242445417653)"><g opacity="0.154" fill="none" stroke="#3d9fff" stroke-width="2.4" stroke-linejoin="round"><path d="M-20,10 L10,-20 L20,-10 L-10,20 L-24,24 Z"/><path d="M6,-24 L24,-6"/></g></g><g transform="translate(47 734) rotate(41) scale(0.8655227280845338)"><g opacity="0.182" fill="none" stroke="#3d9fff" stroke-width="2.2"><ellipse cx="0" cy="0" rx="22" ry="9"/><ellipse cx="0" cy="0" rx="22" ry="9" transform="rotate(60)"/><ellipse cx="0" cy="0" rx="22" ry="9" transform="rotate(120)"/><circle cx="0" cy="0" r="4" fill="#3d9fff"/></g></g><g transform="translate(451 142) rotate(211) scale(1.1061263868734925)"><g opacity="0.163" fill="#3d9fff"><circle cx="0" cy="0" r="3"/><path d="M0,-12 L3,-3 L12,0 L3,3 L0,12 L-3,3 L-12,0 L-3,-3 Z"/></g></g><g transform="translate(74 1087) rotate(178) scale(1.3464403170608081)"><g stroke="#3d9fff" stroke-width="2.5" stroke-linecap="round" stroke-linejoin="round" opacity="0.167" fill="none"><path d="M0,-16 L4,-4 L16,0 L4,4 L0,16 L-4,4 L-16,0 L-4,-4 Z"/></g></g><g transform="translate(456 512) rotate(85) scale(1.3274084343996182)"><g opacity="0.139" fill="none" stroke="#3d9fff" stroke-width="2"><rect x="-18" y="-18" width="36" height="36" rx="4"/><path d="M-6,-18V18 M6,-18V18 M-18,-6H18 M-18,6H18"/></g></g><g transform="translate(73 849) rotate(229) scale(1.1327472918402388)"><g opacity="0.181" fill="#3d9fff"><circle cx="0" cy="0" r="3"/><path d="M0,-12 L3,-3 L12,0 L3,3 L0,12 L-3,3 L-12,0 L-3,-3 Z"/></g></g><g transform="translate(176 30) rotate(99) scale(0.8505953002107309)"><g opacity="0.164" fill="#3d9fff"><circle cx="0" cy="0" r="3"/><path d="M0,-12 L3,-3 L12,0 L3,3 L0,12 L-3,3 L-12,0 L-3,-3 Z"/></g></g><g transform="translate(658 1398) rotate(210) scale(1.3327113818672385)"><g stroke="#3d9fff" stroke-width="2.5" stroke-linecap="round" stroke-linejoin="round" opacity="0.138" fill="none"><path d="M0,-16 L4,-4 L16,0 L4,4 L0,16 L-4,4 L-16,0 L-4,-4 Z"/></g></g><g transform="translate(560 1130) rotate(64) scale(0.7506317629027272)"><g opacity="0.165" fill="none" stroke="#3d9fff" stroke-width="2.4"><path d="M-28,0 C-18,-12 -8,-12 2,0 S22,12 32,0"/></g></g><g transform="translate(111 1231) rotate(228) scale(1.070514859121741)"><g opacity="0.165" fill="none" stroke="#3d9fff" stroke-width="2.4" stroke-linejoin="round"><path d="M-16,-10 h14 a6,6 0 0 1 6,6 v18 h-14 a6,6 0 0 0 -6,6 v-24 a6,6 0 0 1 6,-6z"/><path d="M16,-10 h-14 a6,6 0 0 0 -6,6 v18 h14 a6,6 0 0 1 6,6 v-24 a6,6 0 0 0 -6,-6z"/></g></g><g transform="translate(319 1182) rotate(209) scale(1.1159717819351507)"><g opacity="0.14" fill="none" stroke="#3d9fff" stroke-width="2.4"><polygon points="0,-20 20,16 -20,16"/></g></g><g transform="translate(736 333) rotate(152) scale(1.120137383234164)"><g opacity="0.151" fill="#3d9fff" font-family="Arial, Helvetica, sans-serif" font-size="22" font-weight="700"><text x="-30" y="-6">x² + y²</text><text x="-30" y="18">= r²</text></g></g><g transform="translate(744 939) rotate(161) scale(1.302454634270837)"><g opacity="0.179" fill="none" stroke="#3d9fff" stroke-width="2.4"><circle cx="0" cy="0" r="12"/><ellipse cx="0" cy="0" rx="24" ry="8" transform="rotate(-18)"/></g></g><g transform="translate(868 1317) rotate(157) scale(0.9064494805515166)"><g opacity="0.184" fill="#3d9fff"><circle cx="0" cy="0" r="3"/><path d="M0,-12 L3,-3 L12,0 L3,3 L0,12 L-3,3 L-12,0 L-3,-3 Z"/></g></g><g transform="translate(608 1007) rotate(58) scale(0.763078456182123)"><g opacity="0.179" fill="none" stroke="#3d9fff" stroke-width="2.4"><path d="M-28,0 C-18,-12 -8,-12 2,0 S22,12 32,0"/></g></g><g transform="translate(441 589) rotate(230) scale(1.3216842630452001)"><g opacity="0.176" fill="#3d9fff" font-family="Arial, Helvetica, sans-serif" font-size="22" font-weight="700"><text x="-30" y="-6">x² + y²</text><text x="-30" y="18">= r²</text></g></g><g transform="translate(253 587) rotate(242) scale(1.328749720815681)"><g stroke="#3d9fff" stroke-width="2.5" stroke-linecap="round" stroke-linejoin="round" opacity="0.171" fill="none"><path d="M0,-16 L4,-4 L16,0 L4,4 L0,16 L-4,4 L-16,0 L-4,-4 Z"/></g></g><g transform="translate(114 887) rotate(303) scale(0.8433714507100991)"><g opacity="0.181" fill="none" stroke="#3d9fff" stroke-width="2.2"><ellipse cx="0" cy="0" rx="22" ry="9"/><ellipse cx="0" cy="0" rx="22" ry="9" transform="rotate(60)"/><ellipse cx="0" cy="0" rx="22" ry="9" transform="rotate(120)"/><circle cx="0" cy="0" r="4" fill="#3d9fff"/></g></g><g transform="translate(448 1200) rotate(136) scale(1.211577478534567)"><g stroke="#3d9fff" stroke-width="2.5" stroke-linecap="round" stroke-linejoin="round" opacity="0.151" fill="none"><path d="M0,-16 L4,-4 L16,0 L4,4 L0,16 L-4,4 L-16,0 L-4,-4 Z"/></g></g><g transform="translate(203 795) rotate(148) scale(1.0007983829997713)"><g opacity="0.172" fill="none" stroke="#3d9fff" stroke-width="2.4"><path d="M-28,0 C-18,-12 -8,-12 2,0 S22,12 32,0"/></g></g><g transform="translate(191 1371) rotate(268) scale(0.8715901485319849)"><g stroke="#3d9fff" stroke-width="2.5" stroke-linecap="round" stroke-linejoin="round" opacity="0.162" fill="none"><path d="M0,-16 L4,-4 L16,0 L4,4 L0,16 L-4,4 L-16,0 L-4,-4 Z"/></g></g><g transform="translate(315 30) rotate(282) scale(1.1741696969550566)"><g opacity="0.177" fill="none" stroke="#3d9fff" stroke-width="2.4"><circle cx="0" cy="0" r="12"/><ellipse cx="0" cy="0" rx="24" ry="8" transform="rotate(-18)"/></g></g><g transform="translate(305 429) rotate(254) scale(0.8140492116777989)"><g opacity="0.153" fill="none" stroke="#3d9fff" stroke-width="2.4" stroke-linejoin="round"><path d="M-20,10 L10,-20 L20,-10 L-10,20 L-24,24 Z"/><path d="M6,-24 L24,-6"/></g></g><g transform="translate(33 164) rotate(351) scale(1.174310487153664)"><g opacity="0.178" fill="none" stroke="#3d9fff" stroke-width="2"><rect x="-18" y="-18" width="36" height="36" rx="4"/><path d="M-6,-18V18 M6,-18V18 M-18,-6H18 M-18,6H18"/></g></g><g transform="translate(366 889) rotate(192) scale(1.1078155852132456)"><g opacity="0.165" fill="none" stroke="#3d9fff" stroke-width="2.2"><ellipse cx="0" cy="0" rx="22" ry="9"/><ellipse cx="0" cy="0" rx="22" ry="9" transform="rotate(60)"/><ellipse cx="0" cy="0" rx="22" ry="9" transform="rotate(120)"/><circle cx="0" cy="0" r="4" fill="#3d9fff"/></g></g><g transform="translate(342 356) rotate(93) scale(0.8836126312430784)"><g opacity="0.155" fill="none" stroke="#3d9fff" stroke-width="2.4" stroke-linejoin="round"><path d="M-16,-10 h14 a6,6 0 0 1 6,6 v18 h-14 a6,6 0 0 0 -6,6 v-24 a6,6 0 0 1 6,-6z"/><path d="M16,-10 h-14 a6,6 0 0 0 -6,6 v18 h14 a6,6 0 0 1 6,6 v-24 a6,6 0 0 0 -6,-6z"/></g></g><g transform="translate(391 179) rotate(330) scale(0.8389292300983016)"><g opacity="0.173" fill="none" stroke="#3d9fff" stroke-width="2.2"><ellipse cx="0" cy="0" rx="22" ry="9"/><ellipse cx="0" cy="0" rx="22" ry="9" transform="rotate(60)"/><ellipse cx="0" cy="0" rx="22" ry="9" transform="rotate(120)"/><circle cx="0" cy="0" r="4" fill="#3d9fff"/></g></g><g transform="translate(806 1326) rotate(358) scale(0.9976269860156056)"><g opacity="0.181" fill="#3d9fff" font-family="Arial, Helvetica, sans-serif" font-size="22" font-weight="700"><text x="-30" y="-6">x² + y²</text><text x="-30" y="18">= r²</text></g></g><g transform="translate(326 906) rotate(166) scale(0.9521300898297691)"><g opacity="0.145" fill="none" stroke="#3d9fff" stroke-width="2"><rect x="-18" y="-18" width="36" height="36" rx="4"/><path d="M-6,-18V18 M6,-18V18 M-18,-6H18 M-18,6H18"/></g></g><g transform="translate(285 971) rotate(9) scale(0.7647822508429941)"><g opacity="0.137" fill="none" stroke="#3d9fff" stroke-width="2.4"><path d="M-28,0 C-18,-12 -8,-12 2,0 S22,12 32,0"/></g></g><g transform="translate(582 863) rotate(301) scale(1.0560852054209835)"><g opacity="0.161" fill="none" stroke="#3d9fff" stroke-width="2.4"><circle cx="0" cy="0" r="12"/><ellipse cx="0" cy="0" rx="24" ry="8" transform="rotate(-18)"/></g></g><g transform="translate(744 520) rotate(9) scale(1.0693232785733597)"><g opacity="0.138" fill="none" stroke="#3d9fff" stroke-width="2.4" stroke-linejoin="round"><path d="M-16,-10 h14 a6,6 0 0 1 6,6 v18 h-14 a6,6 0 0 0 -6,6 v-24 a6,6 0 0 1 6,-6z"/><path d="M16,-10 h-14 a6,6 0 0 0 -6,6 v18 h14 a6,6 0 0 1 6,6 v-24 a6,6 0 0 0 -6,-6z"/></g></g><g transform="translate(299 478) rotate(18) scale(0.9666376701839172)"><g opacity="0.183" fill="none" stroke="#3d9fff" stroke-width="2.4" stroke-linejoin="round"><path d="M-20,10 L10,-20 L20,-10 L-10,20 L-24,24 Z"/><path d="M6,-24 L24,-6"/></g></g><g transform="translate(280 674) rotate(323) scale(1.031335099433039)"><g opacity="0.171" fill="none" stroke="#3d9fff" stroke-width="2.4"><path d="M-28,0 C-18,-12 -8,-12 2,0 S22,12 32,0"/></g></g><g transform="translate(279 626) rotate(5) scale(0.9983933894762069)"><g opacity="0.178" fill="none" stroke="#3d9fff" stroke-width="2"><rect x="-18" y="-18" width="36" height="36" rx="4"/><path d="M-6,-18V18 M6,-18V18 M-18,-6H18 M-18,6H18"/></g></g><g transform="translate(868 449) rotate(329) scale(1.331077568056159)"><g opacity="0.167" fill="none" stroke="#3d9fff" stroke-width="2"><rect x="-18" y="-18" width="36" height="36" rx="4"/><path d="M-6,-18V18 M6,-18V18 M-18,-6H18 M-18,6H18"/></g></g><g transform="translate(37 466) rotate(311) scale(1.2788599977136168)"><g opacity="0.168" fill="none" stroke="#3d9fff" stroke-width="2"><circle cx="0" cy="0" r="18"/><path d="M-18,0H18 M0,-18V18"/><path d="M-12,-12 Q0,-5 12,-12 M-12,12 Q0,5 12,12"/></g></g><g transform="translate(58 1232) rotate(260) scale(0.807822985471332)"><g opacity="0.166" fill="none" stroke="#3d9fff" stroke-width="2.2"><ellipse cx="0" cy="0" rx="22" ry="9"/><ellipse cx="0" cy="0" rx="22" ry="9" transform="rotate(60)"/><ellipse cx="0" cy="0" rx="22" ry="9" transform="rotate(120)"/><circle cx="0" cy="0" r="4" fill="#3d9fff"/></g></g><g transform="translate(438 590) rotate(29) scale(0.7592714598488954)"><g opacity="0.171" fill="none" stroke="#3d9fff" stroke-width="2.4"><path d="M-28,0 C-18,-12 -8,-12 2,0 S22,12 32,0"/></g></g><g transform="translate(350 1450) rotate(126) scale(0.9503039841980445)"><g opacity="0.138" fill="none" stroke="#3d9fff" stroke-width="2.2"><ellipse cx="0" cy="0" rx="22" ry="9"/><ellipse cx="0" cy="0" rx="22" ry="9" transform="rotate(60)"/><ellipse cx="0" cy="0" rx="22" ry="9" transform="rotate(120)"/><circle cx="0" cy="0" r="4" fill="#3d9fff"/></g></g><rect width="100%" height="100%" fill="#000" opacity="0.12"/>
</svg>