<svg xmlns="http://www.w3.org/2000/svg" width="900" height="1600" viewBox="0 0 900 1600">
<defs><linearGradient id="bg" x1="0%" y1="0%" x2="100%" y2="100%">
<stop offset="0%" stop-color="#0b1952"/>
<stop offset="50%" stop-color="#61196f"/>
<stop offset="100%" stop-color="#0d748d"/>
</linearGradient></defs><rect width="100%" height="100%" fill="url(#bg)"/><path d="M171,744 Q483,552 639,76" stroke="#ffffff" stroke-opacity="0.07" stroke-width="3.9464001146953573" fill="none" stroke-linecap="round"/><path d="M39,1375 Q518,820 621,386" stroke="#ffffff" stroke-opacity="0.07" stroke-width="2.797569372984555" fill="none" stroke-linecap="round"/><path d="M889,1395 Q642,1369 470,1617" stroke="#ffffff" stroke-opacity="0.07" stroke-width="3.6634273761924607" fill="none" stroke-linecap="round"/><path d="M211,709 Q617,249 831,20" stroke="#ffffff" stroke-opacity="0.07" stroke-width="1.9607214298826605" fill="none" stroke-linecap="round"/><path d="M-34,545 Q405,859 540,1093" stroke="#ffffff" stroke-opacity="0.07" stroke-width="3.4001177503603297" fill="none" stroke-linecap="round"/><path d="M865,616 Q733,646 887,990" stroke="#ffffff" stroke-opacity="0.07" stroke-width="2.853573194222091" fill="none" stroke-linecap="round"/><path d="M102,1666 Q311,1348 397,1294" stroke="#ffffff" stroke-opacity="0.07" stroke-width="4.018969920067073" fill="none" stroke-linecap="round"/><path d="M319,791 Q403,558 134,77" stroke="#ffffff" stroke-opacity="0.07" stroke-width="3.7489426414115465" fill="none" stroke-linecap="round"/><path d="M617,1077 Q694,1354 789,1255" stroke="#ffffff" stroke-opacity="0.07" stroke-width="3.4047808199628147" fill="none" stroke-linecap="round"/><path d="M583,333 Q261,387 253,498" stroke="#ffffff" stroke-opacity="0.07" stroke-width="1.9380600639076153" fill="none" stroke-linecap="round"/><path d="M334,97 Q164,756 334,1117" stroke="#ffffff" stroke-opacity="0.07" stroke-width="1.9618788173227406" fill="none" stroke-linecap="round"/><path d="M84,866 Q-56,365 -65,-28" stroke="#ffffff" stroke-opacity="0.07" stroke-width="1.5348212523084945" fill="none" stroke-linecap="round"/><path d="M324,1480 Q-7,1498 -74,1431" stroke="#ffffff" stroke-opacity="0.07" stroke-width="3.456270271682386" fill="none" stroke-linecap="round"/><path d="M-84,356 Q250,366 456,504" stroke="#ffffff" stroke-opacity="0.07" stroke-width="2.3189231603123392" fill="none" stroke-linecap="round"/><path d="M293,920 Q98,918 270,570" stroke="#ffffff" stroke-opacity="0.07" stroke-width="3.427586534125945" fill="none" stroke-linecap="round"/><path d="M704,-55 Q733,234 671,172" stroke="#ffffff" stroke-opacity="0.07" stroke-width="2.878479268942645" fill="none" stroke-linecap="round"/><path d="M-12,1575 Q59,1515 361,1557" stroke="#ffffff" stroke-opacity="0.07" stroke-width="1.782596065988982" fill="none" stroke-linecap="round"/><path d="M122,681 Q349,573 489,269" stroke="#ffffff" stroke-opacity="0.07" stroke-width="4.067354875596268" fill="none" stroke-linecap="round"/><path d="M982,146 Q865,668 633,910" stroke="#ffffff" stroke-opacity="0.07" stroke-width="3.6173970015216312" fill="none" stroke-linecap="round"/><path d="M117,405 Q168,918 -43,1056" stroke="#ffffff" stroke-opacity="0.07" stroke-width="1.6038287971214085" fill="none" stroke-linecap="round"/><path d="M523,929 Q559,449 760,231" stroke="#ffffff" stroke-opacity="0.07" stroke-width="3.8381896164451823" fill="none" stroke-linecap="round"/><path d="M817,-76 Q812,320 946,1065" stroke="#ffffff" stroke-opacity="0.07" stroke-width="1.5958908985413394" fill="none" stroke-linecap="round"/><circle cx="331" cy="359" r="120" fill="none" stroke="#ffffff" stroke-opacity="0.05" stroke-width="2"/><circle cx="321" cy="246" r="180" fill="none" stroke="#ffffff" stroke-opacity="0.05" stroke-width="2"/><circle cx="724" cy="438" r="240" fill="none" stroke="#ffffff" stroke-opacity="0.05" stroke-width="2"/><circle cx="610" cy="580" r="320" fill="none" stroke="#ffffff" stroke-opacity="0.05" stroke-width="2"/>
</svg>