<svg xmlns="http://www.w3.org/2000/svg" width="900" height="1600" viewBox="0 0 900 1600">
<defs><linearGradient id="bg" x1="0%" y1="0%" x2="100%" y2="100%">
<stop offset="0%" stop-color="#c798ff"/>
<stop offset="100%" stop-color="#87e3ff"/>
</linearGradient><radialGradient id="glow" cx="80%" cy="20%" r="60%">
<stop offset="0%" stop-color="#9ef0ff" stop-opacity="0.22"/>
<stop offset="60%" stop-color="#9ef0ff" stop-opacity="0.06"/>
<stop offset="100%" stop-color="#9ef0ff" stop-opacity="0"/>
</radialGradient></defs><rect width="100%" height="100%" fill="url(#bg)"/><rect width="100%" height="100%" fill="url(#glow)"/><g transform="translate(167 1195) rotate(32) scale(1.2584602421623396)"><g opacity="0.142" fill="#6e4aa8" font-family="Arial, Helvetica, sans-serif" font-size="22" font-weight="700"><text x="-30" y="-6">x² + y²</text><text x="-30" y="18">= r²</text></g></g><g transform="translate(809 950) rotate(194) scale(1.03334714614567)"><g opacity="0.141" fill="none" stroke="#6e4aa8" stroke-width="2.2"><ellipse cx="0" cy="0" rx="22" ry="9"/><ellipse cx="0" cy="0" rx="22" ry="9" transform="rotate(60)"/><ellipse cx="0" cy="0" rx="22" ry="9" transform="rotate(120)"/><circle cx="0" cy="0" r="4" fill="#6e4aa8"/></g></g><g transform="translate(59 828) rotate(1) scale(1.009660240743032)"><g opacity="0.149" fill="none" stroke="#6e4aa8" stroke-width="2.4" stroke-linejoin="round"><path d="M-20,10 L10,-20 L20,-10 L-10,20 L-24,24 Z"/><path d="M6,-24 L24,-6"/></g></g><g transform="translate(851 498) rotate(52) scale(1.1046920610007824)"><g opacity="0.137" fill="none" stroke="#6e4aa8" stroke-width="2.4"><path d="M-28,0 C-18,-12 -8,-12 2,0 S22,12 32,0"/></g></g><g transform="translate(56 1360) rotate(195) scale(1.074847483676098)"><g opacity="0.146" fill="#6e4aa8"><circle cx="0" cy="0" r="3"/><path d="M0,-12 L3,-3 L12,0 L3,3 L0,12 L-3,3 L-12,0 L-3,-3 Z"/></g></g><g transform="translate(462 1516) rotate(113) scale(0.7674244725449207)"><g opacity="0.181" fill="none" stroke="#6e4aa8" stroke-width="2.4" stroke-linejoin="round"><path d="M-20,10 L10,-20 L20,-10 L-10,20 L-24,24 Z"/><path d="M6,-24 L24,-6"/></g></g><g transform="translate(596 507) rotate(346) scale(0.9574202488252515)"><g opacity="0.173" fill="none" stroke="#6e4aa8" stroke-width="2.2"><ellipse cx="0" cy="0" rx="22" ry="9"/><ellipse cx="0" cy="0" rx="22" ry="9" transform="rotate(60)"/><ellipse cx="0" cy="0" rx="22" ry="9" transform="rotate(120)"/><circle cx="0" cy="0" r="4" fill="#6e4aa8"/></g></g><g transform="translate(326 74) rotate(284) scale(0.9997079633366077)"><g opacity="0.141" fill="#6e4aa8"><circle cx="0" cy="0" r="3"/><path d="M0,-12 L3,-3 L12,0 L3,3 L0,12 L-3,3 L-12,0 L-3,-3 Z"/></g></g><g transform="translate(674 1512) rotate(61) scale(1.265967917277174)"><g opacity="0.179" fill="none" stroke="#6e4aa8" stroke-width="2.4"><path d="M-28,0 C-18,-12 -8,-12 2,0 S22,12 32,0"/></g></g><g transform="translate(758 1055) rotate(216) scale(1.311864352079676)"><g opacity="0.176" fill="none" stroke="#6e4aa8" stroke-width="2.4"><polygon points="0,-20 20,16 -20,16"/></g></g><g transform="translate(716 418) rotate(300) scale(0.9320211065597506)"><g opacity="0.177" fill="none" stroke="#6e4aa8" stroke-width="2.4" stroke-linejoin="round"><path d="M-20,10 L10,-20 L20,-10 L-10,20 L-24,24 Z"/><path d="M6,-24 L24,-6"/></g></g><g transform="translate(547 835) rotate(17) scale(1.103401354789531)"><g opacity="0.148" fill="none" stroke="#6e4aa8" stroke-width="2.4" stroke-linejoin="round"><path d="M-20,10 L10,-20 L20,-10 L-10,20 L-24,24 Z"/><path d="M6,-24 L24,-6"/></g></g><g transform="translate(846 857) rotate(88) scale(0.9985883995804646)"><g opacity="0.162" fill="none" stroke="#6e4aa8" stroke-width="2.4"><path d="M-28,0 C-18,-12 -8,-12 2,0 S22,12 32,0"/></g></g><g transform="translate(749 1411) rotate(44) scale(1.1929292784990506)"><g opacity="0.168" fill="none" stroke="#6e4aa8" stroke-width="2.4" stroke-linejoin="round"><path d="M-20,10 L10,-20 L20,-10 L-10,20 L-24,24 Z"/><path d="M6,-24 L24,-6"/></g></g><g transform="translate(140 365) rotate(201) scale(1.0625630505678871)"><g opacity="0.16" fill="none" stroke="#6e4aa8" stroke-width="2.4"><path d="M-28,0 C-18,-12 -8,-12 2,0 S22,12 32,0"/></g></g><g transform="translate(60 991) rotate(314) scale(0.7760923742139164)"><g opacity="0.164" fill="none" stroke="#6e4aa8" stroke-width="2"><circle cx="0" cy="0" r="18"/><path d="M-18,0H18 M0,-18V18"/><path d="M-12,-12 Q0,-5 12,-12 M-12,12 Q0,5 12,12"/></g></g><g transform="translate(692 378) rotate(116) scale(0.8511565782229836)"><g stroke="#6e4aa8" stroke-width="2.5" stroke-linecap="round" stroke-linejoin="round" opacity="0.173" fill="none"><path d="M0,-16 L4,-4 L16,0 L4,4 L0,16 L-4,4 L-16,0 L-4,-4 Z"/></g></g><g transform="translate(582 1152) rotate(263) scale(0.8893056768378087)"><g opacity="0.182" fill="none" stroke="#6e4aa8" stroke-width="2.4"><path d="M-28,0 C-18,-12 -8,-12 2,0 S22,12 32,0"/></g></g><g transform="translate(621 753) rotate(137) scale(1.025479039146401)"><g opacity="0.162" fill="#6e4aa8"><circle cx="0" cy="0" r="3"/><path d="M0,-12 L3,-3 L12,0 L3,3 L0,12 L-3,3 L-12,0 L-3,-3 Z"/></g></g><g transform="translate(776 41) rotate(262) scale(0.980213779734024)"><g opacity="0.161" fill="none" stroke="#6e4aa8" stroke-width="2.4" stroke-linejoin="round"><path d="M-16,-10 h14 a6,6 0 0 1 6,6 v18 h-14 a6,6 0 0 0 -6,6 v-24 a6,6 0 0 1 6,-6z"/><path d="M16,-10 h-14 a6,6 0 0 0 -6,6 v18 h14 a6,6 0 0 1 6,6 v-24 a6,6 0 0 0 -6,-6z"/></g></g><g transform="translate(604 450) rotate(28) scale(1.0056544078128902)"><g opacity="0.178" fill="none" stroke="#6e4aa8" stroke-width="2.4" stroke-linejoin="round"><path d="M-20,10 L10,-20 L20,-10 L-10,20 L-24,24 Z"/><path d="M6,-24 L24,-6"/></g></g><g transform="translate(613 1165) rotate(258) scale(0.8699036521062858)"><g opacity="0.159" fill="none" stroke="#6e4aa8" stroke-width="2"><rect x="-18" y="-18" width="36" height="36" rx="4"/><path d="M-6,-18V18 M6,-18V18 M-18,-6H18 M-18,6H18"/></g></g><g transform="translate(395 878) rotate(275) scale(0.957646751410893)"><g opacity="0.166" fill="none" stroke="#6e4aa8" stroke-width="2.4"><polygon points="0,-20 20,16 -20,16"/></g></g><g transform="translate(657 708) rotate(14) scale(1.0248880800598346)"><g opacity="0.166" fill="none" stroke="#6e4aa8" stroke-width="2.2"><ellipse cx="0" cy="0" rx="22" ry="9"/><ellipse cx="0" cy="0" rx="22" ry="9" transform="rotate(60)"/><ellipse cx="0" cy="0" rx="22" ry="9" transform="rotate(120)"/><circle cx="0" cy="0" r="4" fill="#6e4aa8"/></g></g><g transform="translate(593 1226) rotate(46) scale(0.8584703960761824)"><g opacity="0.174" fill="none" stroke="#6e4aa8" stroke-width="2.4"><polygon points="0,-20 20,16 -20,16"/></g></g><g transform="translate(866 552) rotate(344) scale(0.769475478716544)"><g opacity="0.14" fill="none" stroke="#6e4aa8" stroke-width="2.4"><circle cx="0" cy="0" r="12"/><ellipse cx="0" cy="0" rx="24" ry="8" transform="rotate(-18)"/></g></g><g transform="translate(47 957) rotate(143) scale(0.7587359849548874)"><g opacity="0.149" fill="none" stroke="#6e4aa8" stroke-width="2.2"><ellipse cx="0" cy="0" rx="22" ry="9"/><ellipse cx="0" cy="0" rx="22" ry="9" transform="rotate(60)"/><ellipse cx="0" cy="0" rx="22" ry="9" transform="rotate(120)"/><circle cx="0" cy="0" r="4" fill="#6e4aa8"/></g></g><g transform="translate(846 1309) rotate(148) scale(0.8607661098737547)"><g opacity="0.144" fill="none" stroke="#6e4aa8" stroke-width="2.4"><circle cx="0" cy="0" r="12"/><ellipse cx="0" cy="0" rx="24" ry="8" transform="rotate(-18)"/></g></g><g transform="translate(291 1110) rotate(336) scale(1.3211745910412593)"><g opacity="0.167" fill="#6e4aa8" font-family="Arial, Helvetica, sans-serif" font-size="22" font-weight="700"><text x="-30" y="-6">x² + y²</text><text x="-30" y="18">= r²</text></g></g><g transform="translate(331 961) rotate(254) scale(1.1715753316372712)"><g opacity="0.141" fill="none" stroke="#6e4aa8" stroke-width="2.4" stroke-linejoin="round"><path d="M-20,10 L10,-20 L20,-10 L-10,20 L-24,24 Z"/><path d="M6,-24 L24,-6"/></g></g><g transform="translate(349 821) rotate(96) scale(0.9560054827671588)"><g opacity="0.141" fill="#6e4aa8" font-family="Arial, Helvetica, sans-serif" font-size="22" font-weight="700"><text x="-30" y="-6">x² + y²</text><text x="-30" y="18">= r²</text></g></g><g transform="translate(777 1074) rotate(310) scale(1.3360429653931751)"><g opacity="0.175" fill="none" stroke="#6e4aa8" stroke-width="2"><rect x="-18" y="-18" width="36" height="36" rx="4"/><path d="M-6,-18V18 M6,-18V18 M-18,-6H18 M-18,6H18"/></g></g><g transform="translate(51 491) rotate(74) scale(0.7607187124966772)"><g stroke="#6e4aa8" stroke-width="2.5" stroke-linecap="round" stroke-linejoin="round" opacity="0.171" fill="none"><path d="M0,-16 L4,-4 L16,0 L4,4 L0,16 L-4,4 L-16,0 L-4,-4 Z"/></g></g><g transform="translate(194 942) rotate(347) scale(1.1727633767112016)"><g opacity="0.162" fill="none" stroke="#6e4aa8" stroke-width="2"><rect x="-18" y="-18" width="36" height="36" rx="4"/><path d="M-6,-18V18 M6,-18V18 M-18,-6H18 M-18,6H18"/></g></g><g transform="translate(255 1321) rotate(264) scale(1.2286865146236907)"><g opacity="0.147" fill="none" stroke="#6e4aa8" stroke-width="2.4" stroke-linejoin="round"><path d="M-20,10 L10,-20 L20,-10 L-10,20 L-24,24 Z"/><path d="M6,-24 L24,-6"/></g></g><g transform="translate(694 92) rotate(294) scale(0.9869388059149797)"><g opacity="0.168" fill="none" stroke="#6e4aa8" stroke-width="2.4"><path d="M-28,0 C-18,-12 -8,-12 2,0 S22,12 32,0"/></g></g><g transform="translate(466 150) rotate(64) scale(1.1924707500574259)"><g opacity="0.178" fill="none" stroke="#6e4aa8" stroke-width="2.2"><ellipse cx="0" cy="0" rx="22" ry="9"/><ellipse cx="0" cy="0" rx="22" ry="9" transform="rotate(60)"/><ellipse cx="0" cy="0" rx="22" ry="9" transform="rotate(120)"/><circle cx="0" cy="0" r="4" fill="#6e4aa8"/></g></g><g transform="translate(343 174) rotate(158) scale(1.2651086438139356)"><g opacity="0.172" fill="#6e4aa8" font-family="Arial, Helvetica, sans-serif" font-size="22" font-weight="700"><text x="-30" y="-6">x² + y²</text><text x="-30" y="18">= r²</text></g></g><g transform="translate(456 1186) rotate(4) scale(0.9014148613679012)"><g opacity="0.178" fill="none" stroke="#6e4aa8" stroke-width="2.4"><polygon points="0,-20 20,16 -20,16"/></g></g><g transform="translate(68 1239) rotate(291) scale(1.2416484663676783)"><g opacity="0.144" fill="none" stroke="#6e4aa8" stroke-width="2.4" stroke-linejoin="round"><path d="M-20,10 L10,-20 L20,-10 L-10,20 L-24,24 Z"/><path d="M6,-24 L24,-6"/></g></g><g transform="translate(828 1471) rotate(19) scale(1.123777688334318)"><g opacity="0.146" fill="none" stroke="#6e4aa8" stroke-width="2"><rect x="-18" y="-18" width="36" height="36" rx="4"/><path d="M-6,-18V18 M6,-18V18 M-18,-6H18 M-18,6H18"/></g></g><g transform="translate(131 451) rotate(221) scale(1.0940296218133851)"><g opacity="0.145" fill="none" stroke="#6e4aa8" stroke-width="2"><circle cx="0" cy="0" r="18"/><path d="M-18,0H18 M0,-18V18"/><path d="M-12,-12 Q0,-5 12,-12 M-12,12 Q0,5 12,12"/></g></g><g transform="translate(136 1393) rotate(258) scale(0.9840363232615859)"><g opacity="0.137" fill="none" stroke="#6e4aa8" stroke-width="2.4" stroke-linejoin="round"><path d="M-20,10 L10,-20 L20,-10 L-10,20 L-24,24 Z"/><path d="M6,-24 L24,-6"/></g></g><g transform="translate(656 853) rotate(9) scale(1.2898069617808687)"><g opacity="0.146" fill="none" stroke="#6e4aa8" stroke-width="2.4" stroke-linejoin="round"><path d="M-16,-10 h14 a6,6 0 0 1 6,6 v18 h-14 a6,6 0 0 0 -6,6 v-24 a6,6 0 0 1 6,-6z"/><path d="M16,-10 h-14 a6,6 0 0 0 -6,6 v18 h14 a6,6 0 0 1 6,6 v-24 a6,6 0 0 0 -6,-6z"/></g></g><g transform="translate(365 1183) rotate(173) scale(1.2196202254376254)"><g opacity="0.146" fill="none" stroke="#6e4aa8" stroke-width="2"><rect x="-18" y="-18" width="36" height="36" rx="4"/><path d="M-6,-18V18 M6,-18V18 M-18,-6H18 M-18,6H18"/></g></g><g transform="translate(720 227) rotate(280) scale(1.2526206420923787)"><g opacity="0.18" fill="none" stroke="#6e4aa8" stroke-width="2.4"><path d="M-28,0 C-18,-12 -8,-12 2,0 S22,12 32,0"/></g></g><g transform="translate(733 1124) rotate(272) scale(1.0406992335674965)"><g opacity="0.139" fill="none" stroke="#6e4aa8" stroke-width="2.2"><ellipse cx="0" cy="0" rx="22" ry="9"/><ellipse cx="0" cy="0" rx="22" ry="9" transform="rotate(60)"/><ellipse cx="0" cy="0" rx="22" ry="9" transform="rotate(120)"/><circle cx="0" cy="0" r="4" fill="#6e4aa8"/></g></g><g transform="translate(71 203) rotate(85) scale(0.8298102073506749)"><g opacity="0.146" fill="none" stroke="#6e4aa8" stroke-width="2.4"><polygon points="0,-20 20,16 -20,16"/></g></g><g transform="translate(807 710) rotate(130) scale(1.1101252980793497)"><g opacity="0.152" fill="none" stroke="#6e4aa8" stroke-width="2.4"><path d="M-28,0 C-18,-12 -8,-12 2,0 S22,12 32,0"/></g></g><g transform="translate(146 626) rotate(309) scale(0.8911137068305306)"><g opacity="0.142" fill="none" stroke="#6e4aa8" stroke-width="2.4" stroke-linejoin="round"><path d="M-20,10 L10,-20 L20,-10 L-10,20 L-24,24 Z"/><path d="M6,-24 L24,-6"/></g></g><g transform="translate(594 243) rotate(208) scale(0.9424355732163987)"><g opacity="0.154" fill="none" stroke="#6e4aa8" stroke-width="2.4"><circle cx="0" cy="0" r="12"/><ellipse cx="0" cy="0" rx="24" ry="8" transform="rotate(-18)"/></g></g><g transform="translate(837 331) rotate(174) scale(1.2471035828814683)"><g opacity="0.166" fill="none" stroke="#6e4aa8" stroke-width="2.4"><circle cx="0" cy="0" r="12"/><ellipse cx="0" cy="0" rx="24" ry="8" transform="rotate(-18)"/></g></g><g transform="translate(830 804) rotate(281) scale(0.7959909822230705)"><g opacity="0.163" fill="none" stroke="#6e4aa8" stroke-width="2.2"><ellipse cx="0" cy="0" rx="22" ry="9"/><ellipse cx="0" cy="0" rx="22" ry="9" transform="rotate(60)"/><ellipse cx="0" cy="0" rx="22" ry="9" transform="rotate(120)"/><circle cx="0" cy="0" r="4" fill="#6e4aa8"/></g></g><g transform="translate(303 777) rotate(288) scale(1.2844608767131833)"><g opacity="0.18" fill="none" stroke="#6e4aa8" stroke-width="2.4"><polygon points="0,-20 20,16 -20,16"/></g></g><g transform="translate(498 597) rotate(23) scale(0.8146384110466302)"><g opacity="0.137" fill="#6e4aa8" font-family="Arial, Helvetica, sans-serif" font-size="22" font-weight="700"><text x="-30" y="-6">x² + y²</text><text x="-30" y="18">= r²</text></g></g>
</svg>