<svg xmlns="http://www.w3.org/2000/svg" width="900" height="1600" viewBox="0 0 900 1600">
<defs><linearGradient id="bg" x1="0%" y1="0%" x2="100%" y2="100%">
<stop offset="0%" stop-color="#08110d"/>
<stop offset="50%" stop-color="#143022"/>
<stop offset="100%" stop-color="#28543d"/>
</linearGradient></defs><rect width="100%" height="100%" fill="url(#bg)"/><path d="M847,1120 Q705,1593 706,1673" stroke="#d6ffe8" stroke-opacity="0.05" stroke-width="3.3885304685679483" fill="none" stroke-linecap="round"/><path d="M302,855 Q355,748 606,1018" stroke="#d6ffe8" stroke-opacity="0.05" stroke-width="2.6552809070741596" fill="none" stroke-linecap="round"/><path d="M-48,130 Q-77,1002 72,1688" stroke="#d6ffe8" stroke-opacity="0.05" stroke-width="4.402750207390896" fill="none" stroke-linecap="round"/><path d="M52,57 Q-88,486 117,543" stroke="#d6ffe8" stroke-opacity="0.05" stroke-width="4.407804360077287" fill="none" stroke-linecap="round"/><path d="M255,620 Q388,665 776,364" stroke="#d6ffe8" stroke-opacity="0.05" stroke-width="4.35025760216984" fill="none" stroke-linecap="round"/><path d="M513,154 Q741,280 590,687" stroke="#d6ffe8" stroke-opacity="0.05" stroke-width="3.006682266116997" fill="none" stroke-linecap="round"/><path d="M264,1565 Q730,847 834,-28" stroke="#d6ffe8" stroke-opacity="0.05" stroke-width="2.305633478605415" fill="none" stroke-linecap="round"/><path d="M83,784 Q186,831 199,1093" stroke="#d6ffe8" stroke-opacity="0.05" stroke-width="2.315234567269843" fill="none" stroke-linecap="round"/><path d="M8,858 Q-83,923 122,648" stroke="#d6ffe8" stroke-opacity="0.05" stroke-width="1.5600137362771445" fill="none" stroke-linecap="round"/><path d="M722,314 Q460,471 107,447" stroke="#d6ffe8" stroke-opacity="0.05" stroke-width="3.010707966329124" fill="none" stroke-linecap="round"/><path d="M337,54 Q235,93 409,402" stroke="#d6ffe8" stroke-opacity="0.05" stroke-width="4.002854848919702" fill="none" stroke-linecap="round"/><path d="M969,532 Q799,596 250,619" stroke="#d6ffe8" stroke-opacity="0.05" stroke-width="1.8792608617874946" fill="none" stroke-linecap="round"/><path d="M94,1262 Q528,505 734,31" stroke="#d6ffe8" stroke-opacity="0.05" stroke-width="2.491366085984425" fill="none" stroke-linecap="round"/><path d="M-34,1328 Q-152,1540 62,1575" stroke="#d6ffe8" stroke-opacity="0.05" stroke-width="4.369839775839933" fill="none" stroke-linecap="round"/><path d="M961,816 Q313,504 41,248" stroke="#d6ffe8" stroke-opacity="0.05" stroke-width="3.477566549187391" fill="none" stroke-linecap="round"/><path d="M190,704 Q356,622 602,600" stroke="#d6ffe8" stroke-opacity="0.05" stroke-width="4.199058821374909" fill="none" stroke-linecap="round"/><path d="M191,449 Q288,995 237,1576" stroke="#d6ffe8" stroke-opacity="0.05" stroke-width="3.29856893957145" fill="none" stroke-linecap="round"/><path d="M845,260 Q523,734 349,1150" stroke="#d6ffe8" stroke-opacity="0.05" stroke-width="2.223571888742528" fill="none" stroke-linecap="round"/><path d="M239,460 Q22,446 -87,41" stroke="#d6ffe8" stroke-opacity="0.05" stroke-width="3.748617335188211" fill="none" stroke-linecap="round"/><path d="M787,58 Q456,299 180,923" stroke="#d6ffe8" stroke-opacity="0.05" stroke-width="4.371527309700337" fill="none" stroke-linecap="round"/><path d="M970,115 Q786,-161 420,-58" stroke="#d6ffe8" stroke-opacity="0.05" stroke-width="2.083440307256576" fill="none" stroke-linecap="round"/><path d="M668,1266 Q623,915 821,902" stroke="#d6ffe8" stroke-opacity="0.05" stroke-width="3.5215177737528256" fill="none" stroke-linecap="round"/><path d="M0,0 Q40,400 0,800 T0,1600" stroke="#fff" stroke-opacity="0.04" stroke-width="2" fill="none"/><path d="M80,0 Q120,400 80,800 T80,1600" stroke="#fff" stroke-opacity="0.04" stroke-width="2" fill="none"/><path d="M160,0 Q200,400 160,800 T160,1600" stroke="#fff" stroke-opacity="0.04" stroke-width="2" fill="none"/><path d="M240,0 Q280,400 240,800 T240,1600" stroke="#fff" stroke-opacity="0.04" stroke-width="2" fill="none"/><path d="M320,0 Q360,400 320,800 T320,1600" stroke="#fff" stroke-opacity="0.04" stroke-width="2" fill="none"/><path d="M400,0 Q440,400 400,800 T400,1600" stroke="#fff" stroke-opacity="0.04" stroke-width="2" fill="none"/><path d="M480,0 Q520,400 480,800 T480,1600" stroke="#fff" stroke-opacity="0.04" stroke-width="2" fill="none"/><path d="M560,0 Q600,400 560,800 T560,1600" stroke="#fff" stroke-opacity="0.04" stroke-width="2" fill="none"/><path d="M640,0 Q680,400 640,800 T640,1600" stroke="#fff" stroke-opacity="0.04" stroke-width="2" fill="none"/><path d="M720,0 Q760,400 720,800 T720,1600" stroke="#fff" stroke-opacity="0.04" stroke-width="2" fill="none"/><path d="M800,0 Q840,400 800,800 T800,1600" stroke="#fff" stroke-opacity="0.04" stroke-width="2" fill="none"/><path d="M880,0 Q920,400 880,800 T880,1600" stroke="#fff" stroke-opacity="0.04" stroke-width="2" fill="none"/><path d="M960,0 Q1000,400 960,800 T960,1600" stroke="#fff" stroke-opacity="0.04" stroke-width="2" fill="none"/>
</svg>