<svg xmlns="http://www.w3.org/2000/svg" width="900" height="1600" viewBox="0 0 900 1600">
<defs><linearGradient id="bg" x1="0%" y1="0%" x2="100%" y2="100%">
<stop offset="0%" stop-color="#96b8ff"/>
<stop offset="100%" stop-color="#d6fda3"/>
</linearGradient><radialGradient id="glow" cx="80%" cy="20%" r="60%">
<stop offset="0%" stop-color="#eaffc8" stop-opacity="0.22"/>
<stop offset="60%" stop-color="#eaffc8" stop-opacity="0.06"/>
<stop offset="100%" stop-color="#eaffc8" stop-opacity="0"/>
</radialGradient></defs><rect width="100%" height="100%" fill="url(#bg)"/><rect width="100%" height="100%" fill="url(#glow)"/><g transform="translate(615 96) rotate(295) scale(1.0073334328050687)"><g stroke="#4a6c8f" stroke-width="2.5" stroke-linecap="round" stroke-linejoin="round" opacity="0.109" fill="none"><path d="M0,-16 L4,-4 L16,0 L4,4 L0,16 L-4,4 L-16,0 L-4,-4 Z"/></g></g><g transform="translate(862 1036) rotate(334) scale(1.2441533235200675)"><g opacity="0.103" fill="none" stroke="#4a6c8f" stroke-width="2.4" stroke-linejoin="round"><path d="M-16,-10 h14 a6,6 0 0 1 6,6 v18 h-14 a6,6 0 0 0 -6,6 v-24 a6,6 0 0 1 6,-6z"/><path d="M16,-10 h-14 a6,6 0 0 0 -6,6 v18 h14 a6,6 0 0 1 6,6 v-24 a6,6 0 0 0 -6,-6z"/></g></g><g transform="translate(531 701) rotate(184) scale(0.7956536080688089)"><g stroke="#4a6c8f" stroke-width="2.5" stroke-linecap="round" stroke-linejoin="round" opacity="0.117" fill="none"><path d="M0,-16 L4,-4 L16,0 L4,4 L0,16 L-4,4 L-16,0 L-4,-4 Z"/></g></g><g transform="translate(172 1265) rotate(215) scale(0.9630490126383573)"><g opacity="0.132" fill="#4a6c8f" font-family="Arial, Helvetica, sans-serif" font-size="22" font-weight="700"><text x="-30" y="-6">x² + y²</text><text x="-30" y="18">= r²</text></g></g><g transform="translate(298 965) rotate(155) scale(0.8548023537659414)"><g opacity="0.115" fill="#4a6c8f"><circle cx="0" cy="0" r="3"/><path d="M0,-12 L3,-3 L12,0 L3,3 L0,12 L-3,3 L-12,0 L-3,-3 Z"/></g></g><g transform="translate(497 520) rotate(314) scale(1.3316328962429513)"><g opacity="0.104" fill="none" stroke="#4a6c8f" stroke-width="2"><rect x="-18" y="-18" width="36" height="36" rx="4"/><path d="M-6,-18V18 M6,-18V18 M-18,-6H18 M-18,6H18"/></g></g><g transform="translate(34 512) rotate(155) scale(0.8303835162294804)"><g opacity="0.115" fill="none" stroke="#4a6c8f" stroke-width="2.4"><polygon points="0,-20 20,16 -20,16"/></g></g><g transform="translate(275 673) rotate(230) scale(1.1500139708026447)"><g opacity="0.119" fill="none" stroke="#4a6c8f" stroke-width="2"><rect x="-18" y="-18" width="36" height="36" rx="4"/><path d="M-6,-18V18 M6,-18V18 M-18,-6H18 M-18,6H18"/></g></g><g transform="translate(698 1227) rotate(256) scale(0.9448129706564601)"><g opacity="0.132" fill="none" stroke="#4a6c8f" stroke-width="2.4" stroke-linejoin="round"><path d="M-16,-10 h14 a6,6 0 0 1 6,6 v18 h-14 a6,6 0 0 0 -6,6 v-24 a6,6 0 0 1 6,-6z"/><path d="M16,-10 h-14 a6,6 0 0 0 -6,6 v18 h14 a6,6 0 0 1 6,6 v-24 a6,6 0 0 0 -6,-6z"/></g></g><g transform="translate(452 518) rotate(254) scale(0.7721549214351774)"><g opacity="0.131" fill="#4a6c8f" font-family="Arial, Helvetica, sans-serif" font-size="22" font-weight="700"><text x="-30" y="-6">x² + y²</text><text x="-30" y="18">= r²</text></g></g><g transform="translate(703 177) rotate(41) scale(1.0700902413916633)"><g opacity="0.116" fill="none" stroke="#4a6c8f" stroke-width="2.4" stroke-linejoin="round"><path d="M-16,-10 h14 a6,6 0 0 1 6,6 v18 h-14 a6,6 0 0 0 -6,6 v-24 a6,6 0 0 1 6,-6z"/><path d="M16,-10 h-14 a6,6 0 0 0 -6,6 v18 h14 a6,6 0 0 1 6,6 v-24 a6,6 0 0 0 -6,-6z"/></g></g><g transform="translate(413 1261) rotate(49) scale(0.8397969921510623)"><g opacity="0.108" fill="none" stroke="#4a6c8f" stroke-width="2.4" stroke-linejoin="round"><path d="M-20,10 L10,-20 L20,-10 L-10,20 L-24,24 Z"/><path d="M6,-24 L24,-6"/></g></g><g transform="translate(856 421) rotate(221) scale(1.3186163545340945)"><g opacity="0.118" fill="none" stroke="#4a6c8f" stroke-width="2"><rect x="-18" y="-18" width="36" height="36" rx="4"/><path d="M-6,-18V18 M6,-18V18 M-18,-6H18 M-18,6H18"/></g></g><g transform="translate(727 592) rotate(267) scale(0.836107928830025)"><g opacity="0.133" fill="none" stroke="#4a6c8f" stroke-width="2.4" stroke-linejoin="round"><path d="M-16,-10 h14 a6,6 0 0 1 6,6 v18 h-14 a6,6 0 0 0 -6,6 v-24 a6,6 0 0 1 6,-6z"/><path d="M16,-10 h-14 a6,6 0 0 0 -6,6 v18 h14 a6,6 0 0 1 6,6 v-24 a6,6 0 0 0 -6,-6z"/></g></g><g transform="translate(303 963) rotate(338) scale(0.9315420187932453)"><g opacity="0.136" fill="#4a6c8f"><circle cx="0" cy="0" r="3"/><path d="M0,-12 L3,-3 L12,0 L3,3 L0,12 L-3,3 L-12,0 L-3,-3 Z"/></g></g><g transform="translate(208 390) rotate(177) scale(1.0380800341346086)"><g opacity="0.118" fill="none" stroke="#4a6c8f" stroke-width="2.4"><path d="M-28,0 C-18,-12 -8,-12 2,0 S22,12 32,0"/></g></g><g transform="translate(35 1145) rotate(169) scale(1.1775439204737825)"><g opacity="0.111" fill="none" stroke="#4a6c8f" stroke-width="2.4"><path d="M-28,0 C-18,-12 -8,-12 2,0 S22,12 32,0"/></g></g><g transform="translate(298 947) rotate(81) scale(0.9928755041190191)"><g opacity="0.135" fill="none" stroke="#4a6c8f" stroke-width="2"><rect x="-18" y="-18" width="36" height="36" rx="4"/><path d="M-6,-18V18 M6,-18V18 M-18,-6H18 M-18,6H18"/></g></g><g transform="translate(537 1409) rotate(268) scale(1.2860861744347583)"><g opacity="0.121" fill="#4a6c8f" font-family="Arial, Helvetica, sans-serif" font-size="22" font-weight="700"><text x="-30" y="-6">x² + y²</text><text x="-30" y="18">= r²</text></g></g><g transform="translate(646 1053) rotate(250) scale(0.7876641742869126)"><g opacity="0.119" fill="#4a6c8f"><circle cx="0" cy="0" r="3"/><path d="M0,-12 L3,-3 L12,0 L3,3 L0,12 L-3,3 L-12,0 L-3,-3 Z"/></g></g><g transform="translate(440 308) rotate(299) scale(1.0022612148879133)"><g opacity="0.121" fill="none" stroke="#4a6c8f" stroke-width="2.4"><path d="M-28,0 C-18,-12 -8,-12 2,0 S22,12 32,0"/></g></g><g transform="translate(531 1467) rotate(225) scale(0.8494778643193246)"><g opacity="0.137" fill="none" stroke="#4a6c8f" stroke-width="2.4"><circle cx="0" cy="0" r="12"/><ellipse cx="0" cy="0" rx="24" ry="8" transform="rotate(-18)"/></g></g><g transform="translate(455 102) rotate(224) scale(1.2732080564029387)"><g opacity="0.104" fill="none" stroke="#4a6c8f" stroke-width="2.4"><polygon points="0,-20 20,16 -20,16"/></g></g><g transform="translate(388 219) rotate(311) scale(0.8412072261069257)"><g opacity="0.132" fill="none" stroke="#4a6c8f" stroke-width="2.4" stroke-linejoin="round"><path d="M-20,10 L10,-20 L20,-10 L-10,20 L-24,24 Z"/><path d="M6,-24 L24,-6"/></g></g><g transform="translate(848 1023) rotate(223) scale(0.8335797941325915)"><g opacity="0.135" fill="none" stroke="#4a6c8f" stroke-width="2.4"><polygon points="0,-20 20,16 -20,16"/></g></g><g transform="translate(381 1517) rotate(357) scale(0.9054729352799424)"><g opacity="0.117" fill="none" stroke="#4a6c8f" stroke-width="2.4" stroke-linejoin="round"><path d="M-20,10 L10,-20 L20,-10 L-10,20 L-24,24 Z"/><path d="M6,-24 L24,-6"/></g></g><g transform="translate(695 1094) rotate(78) scale(1.2957243585142013)"><g opacity="0.114" fill="none" stroke="#4a6c8f" stroke-width="2.2"><ellipse cx="0" cy="0" rx="22" ry="9"/><ellipse cx="0" cy="0" rx="22" ry="9" transform="rotate(60)"/><ellipse cx="0" cy="0" rx="22" ry="9" transform="rotate(120)"/><circle cx="0" cy="0" r="4" fill="#4a6c8f"/></g></g><g transform="translate(63 1437) rotate(301) scale(0.8673469825503239)"><g opacity="0.132" fill="none" stroke="#4a6c8f" stroke-width="2"><circle cx="0" cy="0" r="18"/><path d="M-18,0H18 M0,-18V18"/><path d="M-12,-12 Q0,-5 12,-12 M-12,12 Q0,5 12,12"/></g></g><g transform="translate(520 81) rotate(151) scale(1.234553316755783)"><g opacity="0.133" fill="none" stroke="#4a6c8f" stroke-width="2"><rect x="-18" y="-18" width="36" height="36" rx="4"/><path d="M-6,-18V18 M6,-18V18 M-18,-6H18 M-18,6H18"/></g></g><g transform="translate(282 1500) rotate(45) scale(0.9235867912561364)"><g stroke="#4a6c8f" stroke-width="2.5" stroke-linecap="round" stroke-linejoin="round" opacity="0.124" fill="none"><path d="M0,-16 L4,-4 L16,0 L4,4 L0,16 L-4,4 L-16,0 L-4,-4 Z"/></g></g><g transform="translate(593 246) rotate(146) scale(1.3387916154416521)"><g opacity="0.126" fill="none" stroke="#4a6c8f" stroke-width="2.4" stroke-linejoin="round"><path d="M-16,-10 h14 a6,6 0 0 1 6,6 v18 h-14 a6,6 0 0 0 -6,6 v-24 a6,6 0 0 1 6,-6z"/><path d="M16,-10 h-14 a6,6 0 0 0 -6,6 v18 h14 a6,6 0 0 1 6,6 v-24 a6,6 0 0 0 -6,-6z"/></g></g><g transform="translate(174 769) rotate(98) scale(1.1070796582132725)"><g opacity="0.109" fill="none" stroke="#4a6c8f" stroke-width="2.4"><path d="M-28,0 C-18,-12 -8,-12 2,0 S22,12 32,0"/></g></g><g transform="translate(635 428) rotate(49) scale(1.0060478398548185)"><g opacity="0.138" fill="#4a6c8f"><circle cx="0" cy="0" r="3"/><path d="M0,-12 L3,-3 L12,0 L3,3 L0,12 L-3,3 L-12,0 L-3,-3 Z"/></g></g><g transform="translate(504 1553) rotate(267) scale(1.2008472011770464)"><g opacity="0.118" fill="none" stroke="#4a6c8f" stroke-width="2"><rect x="-18" y="-18" width="36" height="36" rx="4"/><path d="M-6,-18V18 M6,-18V18 M-18,-6H18 M-18,6H18"/></g></g><g transform="translate(791 1167) rotate(305) scale(0.8751039919222436)"><g opacity="0.106" fill="none" stroke="#4a6c8f" stroke-width="2.4"><path d="M-28,0 C-18,-12 -8,-12 2,0 S22,12 32,0"/></g></g><g transform="translate(831 1314) rotate(217) scale(0.7546485373806674)"><g opacity="0.117" fill="none" stroke="#4a6c8f" stroke-width="2"><circle cx="0" cy="0" r="18"/><path d="M-18,0H18 M0,-18V18"/><path d="M-12,-12 Q0,-5 12,-12 M-12,12 Q0,5 12,12"/></g></g><g transform="translate(421 1365) rotate(216) scale(0.8698444429196686)"><g opacity="0.132" fill="none" stroke="#4a6c8f" stroke-width="2.4"><circle cx="0" cy="0" r="12"/><ellipse cx="0" cy="0" rx="24" ry="8" transform="rotate(-18)"/></g></g><g transform="translate(386 551) rotate(217) scale(0.966133280650707)"><g opacity="0.125" fill="none" stroke="#4a6c8f" stroke-width="2.2"><ellipse cx="0" cy="0" rx="22" ry="9"/><ellipse cx="0" cy="0" rx="22" ry="9" transform="rotate(60)"/><ellipse cx="0" cy="0" rx="22" ry="9" transform="rotate(120)"/><circle cx="0" cy="0" r="4" fill="#4a6c8f"/></g></g><g transform="translate(319 985) rotate(259) scale(1.1670414371520346)"><g opacity="0.12" fill="none" stroke="#4a6c8f" stroke-width="2.4" stroke-linejoin="round"><path d="M-20,10 L10,-20 L20,-10 L-10,20 L-24,24 Z"/><path d="M6,-24 L24,-6"/></g></g><g transform="translate(299 858) rotate(174) scale(1.0149874119736206)"><g opacity="0.128" fill="none" stroke="#4a6c8f" stroke-width="2.4"><path d="M-28,0 C-18,-12 -8,-12 2,0 S22,12 32,0"/></g></g><g transform="translate(524 944) rotate(300) scale(1.261965834246612)"><g opacity="0.105" fill="none" stroke="#4a6c8f" stroke-width="2.4" stroke-linejoin="round"><path d="M-20,10 L10,-20 L20,-10 L-10,20 L-24,24 Z"/><path d="M6,-24 L24,-6"/></g></g><g transform="translate(582 1504) rotate(207) scale(0.9702109774996205)"><g opacity="0.137" fill="none" stroke="#4a6c8f" stroke-width="2.4" stroke-linejoin="round"><path d="M-16,-10 h14 a6,6 0 0 1 6,6 v18 h-14 a6,6 0 0 0 -6,6 v-24 a6,6 0 0 1 6,-6z"/><path d="M16,-10 h-14 a6,6 0 0 0 -6,6 v18 h14 a6,6 0 0 1 6,6 v-24 a6,6 0 0 0 -6,-6z"/></g></g><g transform="translate(455 1505) rotate(304) scale(1.0885432589001447)"><g opacity="0.103" fill="#4a6c8f" font-family="Arial, Helvetica, sans-serif" font-size="22" font-weight="700"><text x="-30" y="-6">x² + y²</text><text x="-30" y="18">= r²</text></g></g><g transform="translate(365 1364) rotate(203) scale(0.9432583320462801)"><g opacity="0.115" fill="none" stroke="#4a6c8f" stroke-width="2"><circle cx="0" cy="0" r="18"/><path d="M-18,0H18 M0,-18V18"/><path d="M-12,-12 Q0,-5 12,-12 M-12,12 Q0,5 12,12"/></g></g><g transform="translate(650 411) rotate(157) scale(0.894508428134905)"><g opacity="0.122" fill="none" stroke="#4a6c8f" stroke-width="2.4"><circle cx="0" cy="0" r="12"/><ellipse cx="0" cy="0" rx="24" ry="8" transform="rotate(-18)"/></g></g><g transform="translate(866 139) rotate(37) scale(0.881925802990924)"><g opacity="0.109" fill="none" stroke="#4a6c8f" stroke-width="2"><rect x="-18" y="-18" width="36" height="36" rx="4"/><path d="M-6,-18V18 M6,-18V18 M-18,-6H18 M-18,6H18"/></g></g><g transform="translate(615 929) rotate(303) scale(1.298948916680489)"><g stroke="#4a6c8f" stroke-width="2.5" stroke-linecap="round" stroke-linejoin="round" opacity="0.116" fill="none"><path d="M0,-16 L4,-4 L16,0 L4,4 L0,16 L-4,4 L-16,0 L-4,-4 Z"/></g></g><g transform="translate(377 1206) rotate(288) scale(0.8644714214927821)"><g opacity="0.133" fill="none" stroke="#4a6c8f" stroke-width="2.4"><path d="M-28,0 C-18,-12 -8,-12 2,0 S22,12 32,0"/></g></g><g transform="translate(703 1447) rotate(18) scale(1.0969544427848072)"><g opacity="0.115" fill="none" stroke="#4a6c8f" stroke-width="2"><circle cx="0" cy="0" r="18"/><path d="M-18,0H18 M0,-18V18"/><path d="M-12,-12 Q0,-5 12,-12 M-12,12 Q0,5 12,12"/></g></g><g transform="translate(436 694) rotate(87) scale(1.1106953038499863)"><g opacity="0.106" fill="none" stroke="#4a6c8f" stroke-width="2.4" stroke-linejoin="round"><path d="M-16,-10 h14 a6,6 0 0 1 6,6 v18 h-14 a6,6 0 0 0 -6,6 v-24 a6,6 0 0 1 6,-6z"/><path d="M16,-10 h-14 a6,6 0 0 0 -6,6 v18 h14 a6,6 0 0 1 6,6 v-24 a6,6 0 0 0 -6,-6z"/></g></g><g transform="translate(838 737) rotate(15) scale(1.3499027795982843)"><g opacity="0.12" fill="none" stroke="#4a6c8f" stroke-width="2.4"><polygon points="0,-20 20,16 -20,16"/></g></g><g transform="translate(387 210) rotate(295) scale(0.9884487991299171)"><g opacity="0.104" fill="none" stroke="#4a6c8f" stroke-width="2.4"><path d="M-28,0 C-18,-12 -8,-12 2,0 S22,12 32,0"/></g></g><g transform="translate(485 1476) rotate(231) scale(1.032484958811946)"><g opacity="0.137" fill="none" stroke="#4a6c8f" stroke-width="2.4" stroke-linejoin="round"><path d="M-20,10 L10,-20 L20,-10 L-10,20 L-24,24 Z"/><path d="M6,-24 L24,-6"/></g></g><g transform="translate(209 754) rotate(175) scale(1.244501260326413)"><g opacity="0.12" fill="none" stroke="#4a6c8f" stroke-width="2.4"><polygon points="0,-20 20,16 -20,16"/></g></g><g transform="translate(427 428) rotate(328) scale(0.8082193826119493)"><g opacity="0.103" fill="none" stroke="#4a6c8f" stroke-width="2.4" stroke-linejoin="round"><path d="M-16,-10 h14 a6,6 0 0 1 6,6 v18 h-14 a6,6 0 0 0 -6,6 v-24 a6,6 0 0 1 6,-6z"/><path d="M16,-10 h-14 a6,6 0 0 0 -6,6 v18 h14 a6,6 0 0 1 6,6 v-24 a6,6 0 0 0 -6,-6z"/></g></g><g transform="translate(221 1340) rotate(291) scale(1.1303288706695795)"><g opacity="0.137" fill="none" stroke="#4a6c8f" stroke-width="2"><rect x="-18" y="-18" width="36" height="36" rx="4"/><path d="M-6,-18V18 M6,-18V18 M-18,-6H18 M-18,6H18"/></g></g><g transform="translate(842 767) rotate(25) scale(1.0854701327209901)"><g opacity="0.104" fill="none" stroke="#4a6c8f" stroke-width="2"><circle cx="0" cy="0" r="18"/><path d="M-18,0H18 M0,-18V18"/><path d="M-12,-12 Q0,-5 12,-12 M-12,12 Q0,5 12,12"/></g></g><g transform="translate(348 487) rotate(90) scale(0.7797252263724715)"><g opacity="0.125" fill="none" stroke="#4a6c8f" stroke-width="2.4"><circle cx="0" cy="0" r="12"/><ellipse cx="0" cy="0" rx="24" ry="8" transform="rotate(-18)"/></g></g><g transform="translate(399 410) rotate(21) scale(0.9315809187921205)"><g opacity="0.124" fill="none" stroke="#4a6c8f" stroke-width="2"><rect x="-18" y="-18" width="36" height="36" rx="4"/><path d="M-6,-18V18 M6,-18V18 M-18,-6H18 M-18,6H18"/></g></g><g transform="translate(469 189) rotate(99) scale(0.9572027329781966)"><g opacity="0.108" fill="none" stroke="#4a6c8f" stroke-width="2.4" stroke-linejoin="round"><path d="M-20,10 L10,-20 L20,-10 L-10,20 L-24,24 Z"/><path d="M6,-24 L24,-6"/></g></g><g transform="translate(445 1570) rotate(168) scale(1.327981958396256)"><g stroke="#4a6c8f" stroke-width="2.5" stroke-linecap="round" stroke-linejoin="round" opacity="0.108" fill="none"><path d="M0,-16 L4,-4 L16,0 L4,4 L0,16 L-4,4 L-16,0 L-4,-4 Z"/></g></g><g transform="translate(210 1220) rotate(78) scale(1.17371075937437)"><g opacity="0.125" fill="none" stroke="#4a6c8f" stroke-width="2.4"><polygon points="0,-20 20,16 -20,16"/></g></g><g transform="translate(743 832) rotate(203) scale(1.3315552492184628)"><g opacity="0.11" fill="none" stroke="#4a6c8f" stroke-width="2.4"><circle cx="0" cy="0" r="12"/><ellipse cx="0" cy="0" rx="24" ry="8" transform="rotate(-18)"/></g></g><g transform="translate(462 1508) rotate(148) scale(1.1332789032645745)"><g opacity="0.125" fill="none" stroke="#4a6c8f" stroke-width="2.4"><polygon points="0,-20 20,16 -20,16"/></g></g><g transform="translate(131 737) rotate(267) scale(1.2501900311136938)"><g opacity="0.119" fill="none" stroke="#4a6c8f" stroke-width="2"><circle cx="0" cy="0" r="18"/><path d="M-18,0H18 M0,-18V18"/><path d="M-12,-12 Q0,-5 12,-12 M-12,12 Q0,5 12,12"/></g></g><g transform="translate(280 1120) rotate(340) scale(0.9243736491153554)"><g opacity="0.137" fill="none" stroke="#4a6c8f" stroke-width="2.4" stroke-linejoin="round"><path d="M-16,-10 h14 a6,6 0 0 1 6,6 v18 h-14 a6,6 0 0 0 -6,6 v-24 a6,6 0 0 1 6,-6z"/><path d="M16,-10 h-14 a6,6 0 0 0 -6,6 v18 h14 a6,6 0 0 1 6,6 v-24 a6,6 0 0 0 -6,-6z"/></g></g><g transform="translate(425 1450) rotate(261) scale(0.8873466704647017)"><g opacity="0.129" fill="#4a6c8f"><circle cx="0" cy="0" r="3"/><path d="M0,-12 L3,-3 L12,0 L3,3 L0,12 L-3,3 L-12,0 L-3,-3 Z"/></g></g><g transform="translate(132 1211) rotate(298) scale(1.2935420858821156)"><g opacity="0.112" fill="none" stroke="#4a6c8f" stroke-width="2.2"><ellipse cx="0" cy="0" rx="22" ry="9"/><ellipse cx="0" cy="0" rx="22" ry="9" transform="rotate(60)"/><ellipse cx="0" cy="0" rx="22" ry="9" transform="rotate(120)"/><circle cx="0" cy="0" r="4" fill="#4a6c8f"/></g></g><g transform="translate(101 416) rotate(285) scale(1.1234505811138296)"><g opacity="0.103" fill="none" stroke="#4a6c8f" stroke-width="2.4"><polygon points="0,-20 20,16 -20,16"/></g></g><g transform="translate(439 94) rotate(220) scale(0.7603723286977968)"><g opacity="0.132" fill="none" stroke="#4a6c8f" stroke-width="2.4"><path d="M-28,0 C-18,-12 -8,-12 2,0 S22,12 32,0"/></g></g><g transform="translate(212 1518) rotate(166) scale(0.7784246177602947)"><g opacity="0.119" fill="#4a6c8f"><circle cx="0" cy="0" r="3"/><path d="M0,-12 L3,-3 L12,0 L3,3 L0,12 L-3,3 L-12,0 L-3,-3 Z"/></g></g><g transform="translate(836 380) rotate(65) scale(0.7613149845849079)"><g opacity="0.137" fill="#4a6c8f" font-family="Arial, Helvetica, sans-serif" font-size="22" font-weight="700"><text x="-30" y="-6">x² + y²</text><text x="-30" y="18">= r²</text></g></g><g transform="translate(236 535) rotate(197) scale(1.2937203001069317)"><g opacity="0.122" fill="none" stroke="#4a6c8f" stroke-width="2"><circle cx="0" cy="0" r="18"/><path d="M-18,0H18 M0,-18V18"/><path d="M-12,-12 Q0,-5 12,-12 M-12,12 Q0,5 12,12"/></g></g><g transform="translate(639 887) rotate(15) scale(1.2742485011418814)"><g opacity="0.102" fill="none" stroke="#4a6c8f" stroke-width="2.4" stroke-linejoin="round"><path d="M-16,-10 h14 a6,6 0 0 1 6,6 v18 h-14 a6,6 0 0 0 -6,6 v-24 a6,6 0 0 1 6,-6z"/><path d="M16,-10 h-14 a6,6 0 0 0 -6,6 v18 h14 a6,6 0 0 1 6,6 v-24 a6,6 0 0 0 -6,-6z"/></g></g><g transform="translate(58 142) rotate(91) scale(1.1614136685612364)"><g opacity="0.127" fill="none" stroke="#4a6c8f" stroke-width="2.4"><circle cx="0" cy="0" r="12"/><ellipse cx="0" cy="0" rx="24" ry="8" transform="rotate(-18)"/></g></g><g transform="translate(99 59) rotate(338) scale(1.1472358544199754)"><g opacity="0.124" fill="none" stroke="#4a6c8f" stroke-width="2.4" stroke-linejoin="round"><path d="M-16,-10 h14 a6,6 0 0 1 6,6 v18 h-14 a6,6 0 0 0 -6,6 v-24 a6,6 0 0 1 6,-6z"/><path d="M16,-10 h-14 a6,6 0 0 0 -6,6 v18 h14 a6,6 0 0 1 6,6 v-24 a6,6 0 0 0 -6,-6z"/></g></g><g transform="translate(78 1159) rotate(359) scale(0.8517122449849703)"><g opacity="0.123" fill="none" stroke="#4a6c8f" stroke-width="2"><rect x="-18" y="-18" width="36" height="36" rx="4"/><path d="M-6,-18V18 M6,-18V18 M-18,-6H18 M-18,6H18"/></g></g><g transform="translate(496 717) rotate(204) scale(0.861447827672321)"><g opacity="0.119" fill="#4a6c8f"><circle cx="0" cy="0" r="3"/><path d="M0,-12 L3,-3 L12,0 L3,3 L0,12 L-3,3 L-12,0 L-3,-3 Z"/></g></g><g transform="translate(756 1490) rotate(36) scale(0.9687505856124945)"><g opacity="0.112" fill="none" stroke="#4a6c8f" stroke-width="2.4" stroke-linejoin="round"><path d="M-16,-10 h14 a6,6 0 0 1 6,6 v18 h-14 a6,6 0 0 0 -6,6 v-24 a6,6 0 0 1 6,-6z"/><path d="M16,-10 h-14 a6,6 0 0 0 -6,6 v18 h14 a6,6 0 0 1 6,6 v-24 a6,6 0 0 0 -6,-6z"/></g></g><g transform="translate(210 216) rotate(78) scale(1.0264450282453157)"><g opacity="0.105" fill="#4a6c8f" font-family="Arial, Helvetica, sans-serif" font-size="22" font-weight="700"><text x="-30" y="-6">x² + y²</text><text x="-30" y="18">= r²</text></g></g><g transform="translate(567 661) rotate(53) scale(0.834472533018456)"><g opacity="0.106" fill="none" stroke="#4a6c8f" stroke-width="2.4"><polygon points="0,-20 20,16 -20,16"/></g></g><g transform="translate(752 1296) rotate(1) scale(1.2339932322560467)"><g opacity="0.111" fill="none" stroke="#4a6c8f" stroke-width="2"><circle cx="0" cy="0" r="18"/><path d="M-18,0H18 M0,-18V18"/><path d="M-12,-12 Q0,-5 12,-12 M-12,12 Q0,5 12,12"/></g></g><g transform="translate(801 1089) rotate(260) scale(1.0065916741292578)"><g opacity="0.128" fill="none" stroke="#4a6c8f" stroke-width="2.4" stroke-linejoin="round"><path d="M-16,-10 h14 a6,6 0 0 1 6,6 v18 h-14 a6,6 0 0 0 -6,6 v-24 a6,6 0 0 1 6,-6z"/><path d="M16,-10 h-14 a6,6 0 0 0 -6,6 v18 h14 a6,6 0 0 1 6,6 v-24 a6,6 0 0 0 -6,-6z"/></g></g><g transform="translate(679 145) rotate(330) scale(1.1152910205438689)"><g opacity="0.121" fill="none" stroke="#4a6c8f" stroke-width="2.2"><ellipse cx="0" cy="0" rx="22" ry="9"/><ellipse cx="0" cy="0" rx="22" ry="9" transform="rotate(60)"/><ellipse cx="0" cy="0" rx="22" ry="9" transform="rotate(120)"/><circle cx="0" cy="0" r="4" fill="#4a6c8f"/></g></g><g transform="translate(249 330) rotate(353) scale(0.9334796005207109)"><g opacity="0.107" fill="none" stroke="#4a6c8f" stroke-width="2"><rect x="-18" y="-18" width="36" height="36" rx="4"/><path d="M-6,-18V18 M6,-18V18 M-18,-6H18 M-18,6H18"/></g></g>
</svg>