<svg xmlns="http://www.w3.org/2000/svg" width="900" height="1600" viewBox="0 0 900 1600">
<defs><linearGradient id="bg" x1="0%" y1="0%" x2="100%" y2="100%">
<stop offset="0%" stop-color="#d9d3ff"/>
<stop offset="50%" stop-color="#dff6ff"/>
<stop offset="100%" stop-color="#e4ffd8"/>
</linearGradient><radialGradient id="glow" cx="80%" cy="20%" r="60%">
<stop offset="0%" stop-color="#ffffff" stop-opacity="0.22"/>
<stop offset="60%" stop-color="#ffffff" stop-opacity="0.06"/>
<stop offset="100%" stop-color="#ffffff" stop-opacity="0"/>
</radialGradient></defs><rect width="100%" height="100%" fill="url(#bg)"/><rect width="100%" height="100%" fill="url(#glow)"/><rect x="-900" y="-100" width="80" height="1800" transform="rotate(-18 -900 0)" fill="#ffffff" opacity="0.03"/><rect x="-780" y="-100" width="80" height="1800" transform="rotate(-18 -780 0)" fill="#ffffff" opacity="0.03"/><rect x="-660" y="-100" width="80" height="1800" transform="rotate(-18 -660 0)" fill="#ffffff" opacity="0.03"/><rect x="-540" y="-100" width="80" height="1800" transform="rotate(-18 -540 0)" fill="#ffffff" opacity="0.03"/><rect x="-420" y="-100" width="80" height="1800" transform="rotate(-18 -420 0)" fill="#ffffff" opacity="0.03"/><rect x="-300" y="-100" width="80" height="1800" transform="rotate(-18 -300 0)" fill="#ffffff" opacity="0.03"/><rect x="-180" y="-100" width="80" height="1800" transform="rotate(-18 -180 0)" fill="#ffffff" opacity="0.03"/><rect x="-60" y="-100" width="80" height="1800" transform="rotate(-18 -60 0)" fill="#ffffff" opacity="0.03"/><rect x="60" y="-100" width="80" height="1800" transform="rotate(-18 60 0)" fill="#ffffff" opacity="0.03"/><rect x="180" y="-100" width="80" height="1800" transform="rotate(-18 180 0)" fill="#ffffff" opacity="0.03"/><rect x="300" y="-100" width="80" height="1800" transform="rotate(-18 300 0)" fill="#ffffff" opacity="0.03"/><rect x="420" y="-100" width="80" height="1800" transform="rotate(-18 420 0)" fill="#ffffff" opacity="0.03"/><rect x="540" y="-100" width="80" height="1800" transform="rotate(-18 540 0)" fill="#ffffff" opacity="0.03"/><rect x="660" y="-100" width="80" height="1800" transform="rotate(-18 660 0)" fill="#ffffff" opacity="0.03"/><rect x="780" y="-100" width="80" height="1800" transform="rotate(-18 780 0)" fill="#ffffff" opacity="0.03"/><rect x="900" y="-100" width="80" height="1800" transform="rotate(-18 900 0)" fill="#ffffff" opacity="0.03"/><rect x="1020" y="-100" width="80" height="1800" transform="rotate(-18 1020 0)" fill="#ffffff" opacity="0.03"/><rect x="1140" y="-100" width="80" height="1800" transform="rotate(-18 1140 0)" fill="#ffffff" opacity="0.03"/><rect x="1260" y="-100" width="80" height="1800" transform="rotate(-18 1260 0)" fill="#ffffff" opacity="0.03"/><rect x="1380" y="-100" width="80" height="1800" transform="rotate(-18 1380 0)" fill="#ffffff" opacity="0.03"/><rect x="1500" y="-100" width="80" height="1800" transform="rotate(-18 1500 0)" fill="#ffffff" opacity="0.03"/><rect x="1620" y="-100" width="80" height="1800" transform="rotate(-18 1620 0)" fill="#ffffff" opacity="0.03"/><rect x="1740" y="-100" width="80" height="1800" transform="rotate(-18 1740 0)" fill="#ffffff" opacity="0.03"/><g transform="translate(273 1243) rotate(189) scale(1.0765375351775712)"><g opacity="0.139" fill="none" stroke="#6a75b2" stroke-width="2"><circle cx="0" cy="0" r="18"/><path d="M-18,0H18 M0,-18V18"/><path d="M-12,-12 Q0,-5 12,-12 M-12,12 Q0,5 12,12"/></g></g><g transform="translate(624 164) rotate(240) scale(1.1133597180835961)"><g opacity="0.142" fill="#6a75b2" font-family="Arial, Helvetica, sans-serif" font-size="22" font-weight="700"><text x="-30" y="-6">x² + y²</text><text x="-30" y="18">= r²</text></g></g><g transform="translate(226 1498) rotate(281) scale(1.032158104513469)"><g opacity="0.136" fill="none" stroke="#6a75b2" stroke-width="2.4" stroke-linejoin="round"><path d="M-20,10 L10,-20 L20,-10 L-10,20 L-24,24 Z"/><path d="M6,-24 L24,-6"/></g></g><g transform="translate(184 504) rotate(267) scale(1.1309163949711132)"><g opacity="0.15" fill="none" stroke="#6a75b2" stroke-width="2"><rect x="-18" y="-18" width="36" height="36" rx="4"/><path d="M-6,-18V18 M6,-18V18 M-18,-6H18 M-18,6H18"/></g></g><g transform="translate(717 161) rotate(302) scale(0.8456399638573687)"><g stroke="#6a75b2" stroke-width="2.5" stroke-linecap="round" stroke-linejoin="round" opacity="0.132" fill="none"><path d="M0,-16 L4,-4 L16,0 L4,4 L0,16 L-4,4 L-16,0 L-4,-4 Z"/></g></g><g transform="translate(61 581) rotate(198) scale(1.0336494531992801)"><g opacity="0.136" fill="none" stroke="#6a75b2" stroke-width="2"><rect x="-18" y="-18" width="36" height="36" rx="4"/><path d="M-6,-18V18 M6,-18V18 M-18,-6H18 M-18,6H18"/></g></g><g transform="translate(850 1211) rotate(68) scale(1.0167726336304566)"><g opacity="0.123" fill="none" stroke="#6a75b2" stroke-width="2.4"><path d="M-28,0 C-18,-12 -8,-12 2,0 S22,12 32,0"/></g></g><g transform="translate(169 1043) rotate(344) scale(0.8801921647398824)"><g opacity="0.152" fill="none" stroke="#6a75b2" stroke-width="2"><rect x="-18" y="-18" width="36" height="36" rx="4"/><path d="M-6,-18V18 M6,-18V18 M-18,-6H18 M-18,6H18"/></g></g><g transform="translate(338 892) rotate(197) scale(1.0543457902974358)"><g opacity="0.134" fill="none" stroke="#6a75b2" stroke-width="2"><circle cx="0" cy="0" r="18"/><path d="M-18,0H18 M0,-18V18"/><path d="M-12,-12 Q0,-5 12,-12 M-12,12 Q0,5 12,12"/></g></g><g transform="translate(629 864) rotate(172) scale(1.1005510757821195)"><g opacity="0.157" fill="#6a75b2"><circle cx="0" cy="0" r="3"/><path d="M0,-12 L3,-3 L12,0 L3,3 L0,12 L-3,3 L-12,0 L-3,-3 Z"/></g></g><g transform="translate(59 602) rotate(343) scale(1.3445937869212892)"><g opacity="0.148" fill="none" stroke="#6a75b2" stroke-width="2.4" stroke-linejoin="round"><path d="M-16,-10 h14 a6,6 0 0 1 6,6 v18 h-14 a6,6 0 0 0 -6,6 v-24 a6,6 0 0 1 6,-6z"/><path d="M16,-10 h-14 a6,6 0 0 0 -6,6 v18 h14 a6,6 0 0 1 6,6 v-24 a6,6 0 0 0 -6,-6z"/></g></g><g transform="translate(364 1139) rotate(291) scale(1.292817590707342)"><g opacity="0.149" fill="none" stroke="#6a75b2" stroke-width="2.4"><circle cx="0" cy="0" r="12"/><ellipse cx="0" cy="0" rx="24" ry="8" transform="rotate(-18)"/></g></g><g transform="translate(246 1326) rotate(293) scale(1.2489647581640126)"><g opacity="0.131" fill="#6a75b2" font-family="Arial, Helvetica, sans-serif" font-size="22" font-weight="700"><text x="-30" y="-6">x² + y²</text><text x="-30" y="18">= r²</text></g></g><g transform="translate(94 1017) rotate(247) scale(1.2623654930536081)"><g opacity="0.133" fill="none" stroke="#6a75b2" stroke-width="2.4"><circle cx="0" cy="0" r="12"/><ellipse cx="0" cy="0" rx="24" ry="8" transform="rotate(-18)"/></g></g><g transform="translate(98 870) rotate(10) scale(1.2882576949183586)"><g opacity="0.137" fill="#6a75b2" font-family="Arial, Helvetica, sans-serif" font-size="22" font-weight="700"><text x="-30" y="-6">x² + y²</text><text x="-30" y="18">= r²</text></g></g><g transform="translate(455 273) rotate(314) scale(0.776514036677726)"><g stroke="#6a75b2" stroke-width="2.5" stroke-linecap="round" stroke-linejoin="round" opacity="0.135" fill="none"><path d="M0,-16 L4,-4 L16,0 L4,4 L0,16 L-4,4 L-16,0 L-4,-4 Z"/></g></g><g transform="translate(630 707) rotate(142) scale(1.0805108646194874)"><g opacity="0.129" fill="none" stroke="#6a75b2" stroke-width="2.4"><polygon points="0,-20 20,16 -20,16"/></g></g><g transform="translate(66 664) rotate(55) scale(0.754339640186596)"><g opacity="0.141" fill="none" stroke="#6a75b2" stroke-width="2"><circle cx="0" cy="0" r="18"/><path d="M-18,0H18 M0,-18V18"/><path d="M-12,-12 Q0,-5 12,-12 M-12,12 Q0,5 12,12"/></g></g><g transform="translate(232 865) rotate(134) scale(0.9249674392214438)"><g opacity="0.148" fill="none" stroke="#6a75b2" stroke-width="2.4" stroke-linejoin="round"><path d="M-16,-10 h14 a6,6 0 0 1 6,6 v18 h-14 a6,6 0 0 0 -6,6 v-24 a6,6 0 0 1 6,-6z"/><path d="M16,-10 h-14 a6,6 0 0 0 -6,6 v18 h14 a6,6 0 0 1 6,6 v-24 a6,6 0 0 0 -6,-6z"/></g></g><g transform="translate(377 672) rotate(70) scale(0.9661179540693436)"><g opacity="0.135" fill="none" stroke="#6a75b2" stroke-width="2"><rect x="-18" y="-18" width="36" height="36" rx="4"/><path d="M-6,-18V18 M6,-18V18 M-18,-6H18 M-18,6H18"/></g></g><g transform="translate(562 820) rotate(304) scale(1.1363332310326362)"><g opacity="0.142" fill="#6a75b2"><circle cx="0" cy="0" r="3"/><path d="M0,-12 L3,-3 L12,0 L3,3 L0,12 L-3,3 L-12,0 L-3,-3 Z"/></g></g><g transform="translate(665 1068) rotate(324) scale(0.9127803791963677)"><g opacity="0.158" fill="none" stroke="#6a75b2" stroke-width="2.2"><ellipse cx="0" cy="0" rx="22" ry="9"/><ellipse cx="0" cy="0" rx="22" ry="9" transform="rotate(60)"/><ellipse cx="0" cy="0" rx="22" ry="9" transform="rotate(120)"/><circle cx="0" cy="0" r="4" fill="#6a75b2"/></g></g><g transform="translate(477 558) rotate(280) scale(1.0626763759687237)"><g opacity="0.119" fill="none" stroke="#6a75b2" stroke-width="2.4"><path d="M-28,0 C-18,-12 -8,-12 2,0 S22,12 32,0"/></g></g><g transform="translate(455 1217) rotate(192) scale(0.9389258355798702)"><g opacity="0.144" fill="none" stroke="#6a75b2" stroke-width="2"><circle cx="0" cy="0" r="18"/><path d="M-18,0H18 M0,-18V18"/><path d="M-12,-12 Q0,-5 12,-12 M-12,12 Q0,5 12,12"/></g></g><g transform="translate(166 153) rotate(170) scale(1.1301197094947448)"><g opacity="0.134" fill="none" stroke="#6a75b2" stroke-width="2.4" stroke-linejoin="round"><path d="M-20,10 L10,-20 L20,-10 L-10,20 L-24,24 Z"/><path d="M6,-24 L24,-6"/></g></g><g transform="translate(391 1276) rotate(250) scale(1.1741701496195396)"><g stroke="#6a75b2" stroke-width="2.5" stroke-linecap="round" stroke-linejoin="round" opacity="0.144" fill="none"><path d="M0,-16 L4,-4 L16,0 L4,4 L0,16 L-4,4 L-16,0 L-4,-4 Z"/></g></g><g transform="translate(722 73) rotate(128) scale(1.3279833482317545)"><g opacity="0.138" fill="#6a75b2"><circle cx="0" cy="0" r="3"/><path d="M0,-12 L3,-3 L12,0 L3,3 L0,12 L-3,3 L-12,0 L-3,-3 Z"/></g></g><g transform="translate(636 1261) rotate(186) scale(0.942015231448804)"><g opacity="0.132" fill="none" stroke="#6a75b2" stroke-width="2.4" stroke-linejoin="round"><path d="M-16,-10 h14 a6,6 0 0 1 6,6 v18 h-14 a6,6 0 0 0 -6,6 v-24 a6,6 0 0 1 6,-6z"/><path d="M16,-10 h-14 a6,6 0 0 0 -6,6 v18 h14 a6,6 0 0 1 6,6 v-24 a6,6 0 0 0 -6,-6z"/></g></g><g transform="translate(408 1249) rotate(193) scale(0.9084823487717091)"><g opacity="0.151" fill="none" stroke="#6a75b2" stroke-width="2.4"><circle cx="0" cy="0" r="12"/><ellipse cx="0" cy="0" rx="24" ry="8" transform="rotate(-18)"/></g></g><g transform="translate(57 1195) rotate(67) scale(1.1602397102199786)"><g opacity="0.14" fill="#6a75b2" font-family="Arial, Helvetica, sans-serif" font-size="22" font-weight="700"><text x="-30" y="-6">x² + y²</text><text x="-30" y="18">= r²</text></g></g><g transform="translate(699 581) rotate(95) scale(0.8932171061387052)"><g opacity="0.137" fill="#6a75b2"><circle cx="0" cy="0" r="3"/><path d="M0,-12 L3,-3 L12,0 L3,3 L0,12 L-3,3 L-12,0 L-3,-3 Z"/></g></g><g transform="translate(744 228) rotate(164) scale(0.8111050155791228)"><g opacity="0.147" fill="none" stroke="#6a75b2" stroke-width="2.4"><path d="M-28,0 C-18,-12 -8,-12 2,0 S22,12 32,0"/></g></g><g transform="translate(259 927) rotate(86) scale(1.2358589970567906)"><g opacity="0.133" fill="none" stroke="#6a75b2" stroke-width="2.4"><circle cx="0" cy="0" r="12"/><ellipse cx="0" cy="0" rx="24" ry="8" transform="rotate(-18)"/></g></g><g transform="translate(695 476) rotate(230) scale(1.2809389631527734)"><g opacity="0.128" fill="#6a75b2" font-family="Arial, Helvetica, sans-serif" font-size="22" font-weight="700"><text x="-30" y="-6">x² + y²</text><text x="-30" y="18">= r²</text></g></g><g transform="translate(153 99) rotate(97) scale(1.067776576985036)"><g opacity="0.153" fill="none" stroke="#6a75b2" stroke-width="2.4"><path d="M-28,0 C-18,-12 -8,-12 2,0 S22,12 32,0"/></g></g><g transform="translate(618 405) rotate(174) scale(1.2682365608748443)"><g opacity="0.123" fill="#6a75b2"><circle cx="0" cy="0" r="3"/><path d="M0,-12 L3,-3 L12,0 L3,3 L0,12 L-3,3 L-12,0 L-3,-3 Z"/></g></g><g transform="translate(664 737) rotate(215) scale(1.103688450737398)"><g opacity="0.141" fill="#6a75b2" font-family="Arial, Helvetica, sans-serif" font-size="22" font-weight="700"><text x="-30" y="-6">x² + y²</text><text x="-30" y="18">= r²</text></g></g><g transform="translate(307 981) rotate(213) scale(0.9578125684001121)"><g opacity="0.137" fill="#6a75b2" font-family="Arial, Helvetica, sans-serif" font-size="22" font-weight="700"><text x="-30" y="-6">x² + y²</text><text x="-30" y="18">= r²</text></g></g><g transform="translate(449 102) rotate(79) scale(1.3023674297925785)"><g opacity="0.119" fill="none" stroke="#6a75b2" stroke-width="2.2"><ellipse cx="0" cy="0" rx="22" ry="9"/><ellipse cx="0" cy="0" rx="22" ry="9" transform="rotate(60)"/><ellipse cx="0" cy="0" rx="22" ry="9" transform="rotate(120)"/><circle cx="0" cy="0" r="4" fill="#6a75b2"/></g></g><g transform="translate(667 1074) rotate(113) scale(1.0106113876053908)"><g stroke="#6a75b2" stroke-width="2.5" stroke-linecap="round" stroke-linejoin="round" opacity="0.15" fill="none"><path d="M0,-16 L4,-4 L16,0 L4,4 L0,16 L-4,4 L-16,0 L-4,-4 Z"/></g></g><g transform="translate(801 1387) rotate(147) scale(1.198808658953078)"><g opacity="0.133" fill="none" stroke="#6a75b2" stroke-width="2.4"><polygon points="0,-20 20,16 -20,16"/></g></g><g transform="translate(262 169) rotate(146) scale(1.2647886585683126)"><g opacity="0.153" fill="none" stroke="#6a75b2" stroke-width="2.4"><circle cx="0" cy="0" r="12"/><ellipse cx="0" cy="0" rx="24" ry="8" transform="rotate(-18)"/></g></g><g transform="translate(76 101) rotate(355) scale(1.2921655690802054)"><g opacity="0.158" fill="none" stroke="#6a75b2" stroke-width="2.4"><polygon points="0,-20 20,16 -20,16"/></g></g><g transform="translate(470 1211) rotate(246) scale(0.7796141133299969)"><g opacity="0.126" fill="none" stroke="#6a75b2" stroke-width="2.4"><circle cx="0" cy="0" r="12"/><ellipse cx="0" cy="0" rx="24" ry="8" transform="rotate(-18)"/></g></g><g transform="translate(337 519) rotate(268) scale(1.147737662582897)"><g opacity="0.136" fill="none" stroke="#6a75b2" stroke-width="2.4"><polygon points="0,-20 20,16 -20,16"/></g></g><g transform="translate(656 262) rotate(129) scale(0.9548115944507971)"><g opacity="0.139" fill="none" stroke="#6a75b2" stroke-width="2.4"><polygon points="0,-20 20,16 -20,16"/></g></g><g transform="translate(831 155) rotate(101) scale(0.961104978117957)"><g opacity="0.141" fill="none" stroke="#6a75b2" stroke-width="2.4"><circle cx="0" cy="0" r="12"/><ellipse cx="0" cy="0" rx="24" ry="8" transform="rotate(-18)"/></g></g><g transform="translate(866 274) rotate(140) scale(0.8527813564514664)"><g opacity="0.154" fill="none" stroke="#6a75b2" stroke-width="2.4" stroke-linejoin="round"><path d="M-16,-10 h14 a6,6 0 0 1 6,6 v18 h-14 a6,6 0 0 0 -6,6 v-24 a6,6 0 0 1 6,-6z"/><path d="M16,-10 h-14 a6,6 0 0 0 -6,6 v18 h14 a6,6 0 0 1 6,6 v-24 a6,6 0 0 0 -6,-6z"/></g></g><g transform="translate(37 1028) rotate(204) scale(1.1271643261800497)"><g stroke="#6a75b2" stroke-width="2.5" stroke-linecap="round" stroke-linejoin="round" opacity="0.151" fill="none"><path d="M0,-16 L4,-4 L16,0 L4,4 L0,16 L-4,4 L-16,0 L-4,-4 Z"/></g></g><g transform="translate(284 580) rotate(266) scale(1.1208534592118837)"><g opacity="0.121" fill="none" stroke="#6a75b2" stroke-width="2"><rect x="-18" y="-18" width="36" height="36" rx="4"/><path d="M-6,-18V18 M6,-18V18 M-18,-6H18 M-18,6H18"/></g></g><g transform="translate(360 33) rotate(64) scale(1.2642134653992962)"><g stroke="#6a75b2" stroke-width="2.5" stroke-linecap="round" stroke-linejoin="round" opacity="0.124" fill="none"><path d="M0,-16 L4,-4 L16,0 L4,4 L0,16 L-4,4 L-16,0 L-4,-4 Z"/></g></g><g transform="translate(100 1018) rotate(44) scale(1.3348155187055966)"><g opacity="0.14" fill="none" stroke="#6a75b2" stroke-width="2.4"><polygon points="0,-20 20,16 -20,16"/></g></g><g transform="translate(353 351) rotate(179) scale(0.9387478801836453)"><g opacity="0.146" fill="none" stroke="#6a75b2" stroke-width="2"><rect x="-18" y="-18" width="36" height="36" rx="4"/><path d="M-6,-18V18 M6,-18V18 M-18,-6H18 M-18,6H18"/></g></g><g transform="translate(630 652) rotate(97) scale(0.9665007513683906)"><g opacity="0.137" fill="none" stroke="#6a75b2" stroke-width="2.4"><path d="M-28,0 C-18,-12 -8,-12 2,0 S22,12 32,0"/></g></g><g transform="translate(160 1167) rotate(194) scale(0.7520933511080272)"><g opacity="0.143" fill="none" stroke="#6a75b2" stroke-width="2.4"><circle cx="0" cy="0" r="12"/><ellipse cx="0" cy="0" rx="24" ry="8" transform="rotate(-18)"/></g></g>
</svg>