<svg xmlns="http://www.w3.org/2000/svg" width="900" height="1600" viewBox="0 0 900 1600">
<defs><linearGradient id="bg" x1="0%" y1="0%" x2="100%" y2="100%">
<stop offset="0%" stop-color="#05090c"/>
<stop offset="100%" stop-color="#04161f"/>
</linearGradient><radialGradient id="glow" cx="80%" cy="20%" r="60%">
<stop offset="0%" stop-color="#2ee5d6" stop-opacity="0.22"/>
<stop offset="60%" stop-color="#2ee5d6" stop-opacity="0.06"/>
<stop offset="100%" stop-color="#2ee5d6" stop-opacity="0"/>
</radialGradient></defs><rect width="100%" height="100%" fill="url(#bg)"/><rect width="100%" height="100%" fill="url(#glow)"/><g transform="translate(243 53) rotate(18) scale(1.062790139329396)"><g opacity="0.18" fill="none" stroke="#2ee5d6" stroke-width="2.4" stroke-linejoin="round"><path d="M-16,-10 h14 a6,6 0 0 1 6,6 v18 h-14 a6,6 0 0 0 -6,6 v-24 a6,6 0 0 1 6,-6z"/><path d="M16,-10 h-14 a6,6 0 0 0 -6,6 v18 h14 a6,6 0 0 1 6,6 v-24 a6,6 0 0 0 -6,-6z"/></g></g><g transform="translate(274 64) rotate(348) scale(0.7829689303613808)"><g opacity="0.177" fill="none" stroke="#2ee5d6" stroke-width="2.4" stroke-linejoin="round"><path d="M-16,-10 h14 a6,6 0 0 1 6,6 v18 h-14 a6,6 0 0 0 -6,6 v-24 a6,6 0 0 1 6,-6z"/><path d="M16,-10 h-14 a6,6 0 0 0 -6,6 v18 h14 a6,6 0 0 1 6,6 v-24 a6,6 0 0 0 -6,-6z"/></g></g><g transform="translate(406 520) rotate(238) scale(0.8202779010150332)"><g opacity="0.149" fill="none" stroke="#2ee5d6" stroke-width="2.4"><path d="M-28,0 C-18,-12 -8,-12 2,0 S22,12 32,0"/></g></g><g transform="translate(299 735) rotate(105) scale(0.8871658352093498)"><g opacity="0.174" fill="none" stroke="#2ee5d6" stroke-width="2.4"><path d="M-28,0 C-18,-12 -8,-12 2,0 S22,12 32,0"/></g></g><g transform="translate(258 655) rotate(261) scale(1.304902968078658)"><g opacity="0.147" fill="none" stroke="#2ee5d6" stroke-width="2"><rect x="-18" y="-18" width="36" height="36" rx="4"/><path d="M-6,-18V18 M6,-18V18 M-18,-6H18 M-18,6H18"/></g></g><g transform="translate(496 889) rotate(236) scale(1.04377282297146)"><g opacity="0.174" fill="none" stroke="#2ee5d6" stroke-width="2"><circle cx="0" cy="0" r="18"/><path d="M-18,0H18 M0,-18V18"/><path d="M-12,-12 Q0,-5 12,-12 M-12,12 Q0,5 12,12"/></g></g><g transform="translate(479 1196) rotate(355) scale(0.9390930664400042)"><g opacity="0.158" fill="#2ee5d6"><circle cx="0" cy="0" r="3"/><path d="M0,-12 L3,-3 L12,0 L3,3 L0,12 L-3,3 L-12,0 L-3,-3 Z"/></g></g><g transform="translate(825 164) rotate(9) scale(1.0441539151633277)"><g opacity="0.143" fill="none" stroke="#2ee5d6" stroke-width="2.2"><ellipse cx="0" cy="0" rx="22" ry="9"/><ellipse cx="0" cy="0" rx="22" ry="9" transform="rotate(60)"/><ellipse cx="0" cy="0" rx="22" ry="9" transform="rotate(120)"/><circle cx="0" cy="0" r="4" fill="#2ee5d6"/></g></g><g transform="translate(206 1287) rotate(353) scale(1.312838873796049)"><g stroke="#2ee5d6" stroke-width="2.5" stroke-linecap="round" stroke-linejoin="round" opacity="0.15" fill="none"><path d="M0,-16 L4,-4 L16,0 L4,4 L0,16 L-4,4 L-16,0 L-4,-4 Z"/></g></g><g transform="translate(536 340) rotate(51) scale(1.2822388389210069)"><g opacity="0.155" fill="none" stroke="#2ee5d6" stroke-width="2.4"><circle cx="0" cy="0" r="12"/><ellipse cx="0" cy="0" rx="24" ry="8" transform="rotate(-18)"/></g></g><g transform="translate(105 989) rotate(284) scale(1.185333041133652)"><g opacity="0.155" fill="#2ee5d6" font-family="Arial, Helvetica, sans-serif" font-size="22" font-weight="700"><text x="-30" y="-6">x² + y²</text><text x="-30" y="18">= r²</text></g></g><g transform="translate(544 505) rotate(256) scale(0.8575268784628496)"><g opacity="0.14" fill="none" stroke="#2ee5d6" stroke-width="2.4"><path d="M-28,0 C-18,-12 -8,-12 2,0 S22,12 32,0"/></g></g><g transform="translate(347 667) rotate(320) scale(0.8487273119014473)"><g opacity="0.155" fill="none" stroke="#2ee5d6" stroke-width="2.4"><path d="M-28,0 C-18,-12 -8,-12 2,0 S22,12 32,0"/></g></g><g transform="translate(517 718) rotate(37) scale(1.2721064348886095)"><g opacity="0.159" fill="#2ee5d6" font-family="Arial, Helvetica, sans-serif" font-size="22" font-weight="700"><text x="-30" y="-6">x² + y²</text><text x="-30" y="18">= r²</text></g></g><g transform="translate(148 1415) rotate(192) scale(1.04548981811011)"><g stroke="#2ee5d6" stroke-width="2.5" stroke-linecap="round" stroke-linejoin="round" opacity="0.176" fill="none"><path d="M0,-16 L4,-4 L16,0 L4,4 L0,16 L-4,4 L-16,0 L-4,-4 Z"/></g></g><g transform="translate(788 219) rotate(21) scale(0.9223272892722958)"><g opacity="0.179" fill="none" stroke="#2ee5d6" stroke-width="2.4" stroke-linejoin="round"><path d="M-20,10 L10,-20 L20,-10 L-10,20 L-24,24 Z"/><path d="M6,-24 L24,-6"/></g></g><g transform="translate(291 354) rotate(289) scale(1.2436723463233996)"><g opacity="0.178" fill="none" stroke="#2ee5d6" stroke-width="2.4" stroke-linejoin="round"><path d="M-20,10 L10,-20 L20,-10 L-10,20 L-24,24 Z"/><path d="M6,-24 L24,-6"/></g></g><g transform="translate(540 118) rotate(242) scale(1.0501856404321188)"><g opacity="0.163" fill="none" stroke="#2ee5d6" stroke-width="2.4"><circle cx="0" cy="0" r="12"/><ellipse cx="0" cy="0" rx="24" ry="8" transform="rotate(-18)"/></g></g><g transform="translate(503 504) rotate(303) scale(1.2166493553896192)"><g opacity="0.169" fill="none" stroke="#2ee5d6" stroke-width="2.4" stroke-linejoin="round"><path d="M-20,10 L10,-20 L20,-10 L-10,20 L-24,24 Z"/><path d="M6,-24 L24,-6"/></g></g><g transform="translate(291 1419) rotate(4) scale(0.8009581831580557)"><g stroke="#2ee5d6" stroke-width="2.5" stroke-linecap="round" stroke-linejoin="round" opacity="0.152" fill="none"><path d="M0,-16 L4,-4 L16,0 L4,4 L0,16 L-4,4 L-16,0 L-4,-4 Z"/></g></g><g transform="translate(694 807) rotate(28) scale(1.0101741329461096)"><g opacity="0.181" fill="none" stroke="#2ee5d6" stroke-width="2"><circle cx="0" cy="0" r="18"/><path d="M-18,0H18 M0,-18V18"/><path d="M-12,-12 Q0,-5 12,-12 M-12,12 Q0,5 12,12"/></g></g><g transform="translate(339 1249) rotate(280) scale(1.0173799409497006)"><g stroke="#2ee5d6" stroke-width="2.5" stroke-linecap="round" stroke-linejoin="round" opacity="0.174" fill="none"><path d="M0,-16 L4,-4 L16,0 L4,4 L0,16 L-4,4 L-16,0 L-4,-4 Z"/></g></g><g transform="translate(424 60) rotate(178) scale(1.2861608803383913)"><g opacity="0.155" fill="none" stroke="#2ee5d6" stroke-width="2"><circle cx="0" cy="0" r="18"/><path d="M-18,0H18 M0,-18V18"/><path d="M-12,-12 Q0,-5 12,-12 M-12,12 Q0,5 12,12"/></g></g><g transform="translate(560 35) rotate(127) scale(0.8363313328519563)"><g opacity="0.183" fill="none" stroke="#2ee5d6" stroke-width="2.4" stroke-linejoin="round"><path d="M-20,10 L10,-20 L20,-10 L-10,20 L-24,24 Z"/><path d="M6,-24 L24,-6"/></g></g><g transform="translate(368 695) rotate(350) scale(1.2978022824697204)"><g opacity="0.151" fill="none" stroke="#2ee5d6" stroke-width="2"><circle cx="0" cy="0" r="18"/><path d="M-18,0H18 M0,-18V18"/><path d="M-12,-12 Q0,-5 12,-12 M-12,12 Q0,5 12,12"/></g></g><g transform="translate(356 35) rotate(359) scale(1.1129163325817777)"><g opacity="0.152" fill="none" stroke="#2ee5d6" stroke-width="2.2"><ellipse cx="0" cy="0" rx="22" ry="9"/><ellipse cx="0" cy="0" rx="22" ry="9" transform="rotate(60)"/><ellipse cx="0" cy="0" rx="22" ry="9" transform="rotate(120)"/><circle cx="0" cy="0" r="4" fill="#2ee5d6"/></g></g><g transform="translate(90 382) rotate(258) scale(1.134847729775345)"><g opacity="0.183" fill="none" stroke="#2ee5d6" stroke-width="2.4"><circle cx="0" cy="0" r="12"/><ellipse cx="0" cy="0" rx="24" ry="8" transform="rotate(-18)"/></g></g><g transform="translate(771 1209) rotate(65) scale(0.9894756197995342)"><g opacity="0.141" fill="none" stroke="#2ee5d6" stroke-width="2.4"><path d="M-28,0 C-18,-12 -8,-12 2,0 S22,12 32,0"/></g></g><g transform="translate(381 968) rotate(280) scale(1.1926405934111657)"><g opacity="0.159" fill="none" stroke="#2ee5d6" stroke-width="2"><circle cx="0" cy="0" r="18"/><path d="M-18,0H18 M0,-18V18"/><path d="M-12,-12 Q0,-5 12,-12 M-12,12 Q0,5 12,12"/></g></g><g transform="translate(154 836) rotate(297) scale(1.3065793042844627)"><g stroke="#2ee5d6" stroke-width="2.5" stroke-linecap="round" stroke-linejoin="round" opacity="0.141" fill="none"><path d="M0,-16 L4,-4 L16,0 L4,4 L0,16 L-4,4 L-16,0 L-4,-4 Z"/></g></g><g transform="translate(189 1480) rotate(81) scale(1.143412097373291)"><g opacity="0.145" fill="#2ee5d6"><circle cx="0" cy="0" r="3"/><path d="M0,-12 L3,-3 L12,0 L3,3 L0,12 L-3,3 L-12,0 L-3,-3 Z"/></g></g><g transform="translate(587 1156) rotate(164) scale(1.1203321639511632)"><g opacity="0.155" fill="none" stroke="#2ee5d6" stroke-width="2.4"><path d="M-28,0 C-18,-12 -8,-12 2,0 S22,12 32,0"/></g></g><g transform="translate(600 1354) rotate(59) scale(1.062210379371181)"><g opacity="0.171" fill="none" stroke="#2ee5d6" stroke-width="2.4"><polygon points="0,-20 20,16 -20,16"/></g></g><g transform="translate(631 350) rotate(350) scale(1.2483031185309652)"><g opacity="0.158" fill="none" stroke="#2ee5d6" stroke-width="2.4"><path d="M-28,0 C-18,-12 -8,-12 2,0 S22,12 32,0"/></g></g><g transform="translate(649 1190) rotate(208) scale(1.1473149819463253)"><g stroke="#2ee5d6" stroke-width="2.5" stroke-linecap="round" stroke-linejoin="round" opacity="0.149" fill="none"><path d="M0,-16 L4,-4 L16,0 L4,4 L0,16 L-4,4 L-16,0 L-4,-4 Z"/></g></g><g transform="translate(163 589) rotate(95) scale(0.9642786830610839)"><g stroke="#2ee5d6" stroke-width="2.5" stroke-linecap="round" stroke-linejoin="round" opacity="0.158" fill="none"><path d="M0,-16 L4,-4 L16,0 L4,4 L0,16 L-4,4 L-16,0 L-4,-4 Z"/></g></g><g transform="translate(743 1225) rotate(50) scale(1.2203430095881047)"><g opacity="0.167" fill="none" stroke="#2ee5d6" stroke-width="2.4"><circle cx="0" cy="0" r="12"/><ellipse cx="0" cy="0" rx="24" ry="8" transform="rotate(-18)"/></g></g><g transform="translate(240 1555) rotate(227) scale(1.156169937867341)"><g opacity="0.144" fill="none" stroke="#2ee5d6" stroke-width="2.4"><polygon points="0,-20 20,16 -20,16"/></g></g><g transform="translate(264 689) rotate(28) scale(0.8442323220390717)"><g opacity="0.156" fill="none" stroke="#2ee5d6" stroke-width="2.4"><path d="M-28,0 C-18,-12 -8,-12 2,0 S22,12 32,0"/></g></g><g transform="translate(459 1544) rotate(190) scale(1.2763311676836255)"><g opacity="0.143" fill="none" stroke="#2ee5d6" stroke-width="2"><circle cx="0" cy="0" r="18"/><path d="M-18,0H18 M0,-18V18"/><path d="M-12,-12 Q0,-5 12,-12 M-12,12 Q0,5 12,12"/></g></g><g transform="translate(207 1010) rotate(239) scale(1.3481120801268842)"><g opacity="0.165" fill="none" stroke="#2ee5d6" stroke-width="2.4" stroke-linejoin="round"><path d="M-20,10 L10,-20 L20,-10 L-10,20 L-24,24 Z"/><path d="M6,-24 L24,-6"/></g></g><g transform="translate(472 170) rotate(226) scale(1.0038430330486043)"><g opacity="0.168" fill="none" stroke="#2ee5d6" stroke-width="2.2"><ellipse cx="0" cy="0" rx="22" ry="9"/><ellipse cx="0" cy="0" rx="22" ry="9" transform="rotate(60)"/><ellipse cx="0" cy="0" rx="22" ry="9" transform="rotate(120)"/><circle cx="0" cy="0" r="4" fill="#2ee5d6"/></g></g><g transform="translate(54 955) rotate(333) scale(0.9494952205034488)"><g opacity="0.138" fill="none" stroke="#2ee5d6" stroke-width="2.4" stroke-linejoin="round"><path d="M-16,-10 h14 a6,6 0 0 1 6,6 v18 h-14 a6,6 0 0 0 -6,6 v-24 a6,6 0 0 1 6,-6z"/><path d="M16,-10 h-14 a6,6 0 0 0 -6,6 v18 h14 a6,6 0 0 1 6,6 v-24 a6,6 0 0 0 -6,-6z"/></g></g><g transform="translate(628 37) rotate(235) scale(1.117198663998746)"><g opacity="0.137" fill="none" stroke="#2ee5d6" stroke-width="2.4" stroke-linejoin="round"><path d="M-20,10 L10,-20 L20,-10 L-10,20 L-24,24 Z"/><path d="M6,-24 L24,-6"/></g></g><g transform="translate(491 980) rotate(134) scale(1.10796165520901)"><g opacity="0.158" fill="none" stroke="#2ee5d6" stroke-width="2"><rect x="-18" y="-18" width="36" height="36" rx="4"/><path d="M-6,-18V18 M6,-18V18 M-18,-6H18 M-18,6H18"/></g></g><g transform="translate(482 859) rotate(257) scale(1.167951471963537)"><g opacity="0.144" fill="none" stroke="#2ee5d6" stroke-width="2.4"><circle cx="0" cy="0" r="12"/><ellipse cx="0" cy="0" rx="24" ry="8" transform="rotate(-18)"/></g></g><g transform="translate(350 951) rotate(169) scale(1.2968567869641805)"><g opacity="0.158" fill="none" stroke="#2ee5d6" stroke-width="2"><circle cx="0" cy="0" r="18"/><path d="M-18,0H18 M0,-18V18"/><path d="M-12,-12 Q0,-5 12,-12 M-12,12 Q0,5 12,12"/></g></g><g transform="translate(116 467) rotate(87) scale(1.258763168245707)"><g opacity="0.16" fill="none" stroke="#2ee5d6" stroke-width="2.4"><polygon points="0,-20 20,16 -20,16"/></g></g><g transform="translate(704 252) rotate(349) scale(1.1672455492569767)"><g opacity="0.152" fill="none" stroke="#2ee5d6" stroke-width="2.4"><path d="M-28,0 C-18,-12 -8,-12 2,0 S22,12 32,0"/></g></g><g transform="translate(490 550) rotate(138) scale(0.855556502641614)"><g opacity="0.142" fill="none" stroke="#2ee5d6" stroke-width="2"><rect x="-18" y="-18" width="36" height="36" rx="4"/><path d="M-6,-18V18 M6,-18V18 M-18,-6H18 M-18,6H18"/></g></g><g transform="translate(735 1439) rotate(83) scale(0.8816882652190097)"><g opacity="0.148" fill="none" stroke="#2ee5d6" stroke-width="2"><circle cx="0" cy="0" r="18"/><path d="M-18,0H18 M0,-18V18"/><path d="M-12,-12 Q0,-5 12,-12 M-12,12 Q0,5 12,12"/></g></g><g transform="translate(327 341) rotate(261) scale(1.0195221557916916)"><g opacity="0.182" fill="none" stroke="#2ee5d6" stroke-width="2.2"><ellipse cx="0" cy="0" rx="22" ry="9"/><ellipse cx="0" cy="0" rx="22" ry="9" transform="rotate(60)"/><ellipse cx="0" cy="0" rx="22" ry="9" transform="rotate(120)"/><circle cx="0" cy="0" r="4" fill="#2ee5d6"/></g></g><g transform="translate(523 1090) rotate(335) scale(1.3471236577052492)"><g opacity="0.174" fill="none" stroke="#2ee5d6" stroke-width="2.2"><ellipse cx="0" cy="0" rx="22" ry="9"/><ellipse cx="0" cy="0" rx="22" ry="9" transform="rotate(60)"/><ellipse cx="0" cy="0" rx="22" ry="9" transform="rotate(120)"/><circle cx="0" cy="0" r="4" fill="#2ee5d6"/></g></g><g transform="translate(434 907) rotate(146) scale(0.8824983162359337)"><g opacity="0.17" fill="none" stroke="#2ee5d6" stroke-width="2"><rect x="-18" y="-18" width="36" height="36" rx="4"/><path d="M-6,-18V18 M6,-18V18 M-18,-6H18 M-18,6H18"/></g></g><g transform="translate(511 1359) rotate(206) scale(1.1265922427606814)"><g opacity="0.173" fill="none" stroke="#2ee5d6" stroke-width="2.4" stroke-linejoin="round"><path d="M-20,10 L10,-20 L20,-10 L-10,20 L-24,24 Z"/><path d="M6,-24 L24,-6"/></g></g><g transform="translate(359 810) rotate(175) scale(0.961683846920309)"><g opacity="0.152" fill="none" stroke="#2ee5d6" stroke-width="2"><rect x="-18" y="-18" width="36" height="36" rx="4"/><path d="M-6,-18V18 M6,-18V18 M-18,-6H18 M-18,6H18"/></g></g><g transform="translate(372 227) rotate(254) scale(1.2144852435516902)"><g opacity="0.182" fill="none" stroke="#2ee5d6" stroke-width="2.2"><ellipse cx="0" cy="0" rx="22" ry="9"/><ellipse cx="0" cy="0" rx="22" ry="9" transform="rotate(60)"/><ellipse cx="0" cy="0" rx="22" ry="9" transform="rotate(120)"/><circle cx="0" cy="0" r="4" fill="#2ee5d6"/></g></g><g transform="translate(782 496) rotate(37) scale(1.092254714624117)"><g opacity="0.169" fill="none" stroke="#2ee5d6" stroke-width="2.4" stroke-linejoin="round"><path d="M-16,-10 h14 a6,6 0 0 1 6,6 v18 h-14 a6,6 0 0 0 -6,6 v-24 a6,6 0 0 1 6,-6z"/><path d="M16,-10 h-14 a6,6 0 0 0 -6,6 v18 h14 a6,6 0 0 1 6,6 v-24 a6,6 0 0 0 -6,-6z"/></g></g><g transform="translate(748 657) rotate(122) scale(0.9039646903362375)"><g opacity="0.148" fill="none" stroke="#2ee5d6" stroke-width="2.4" stroke-linejoin="round"><path d="M-20,10 L10,-20 L20,-10 L-10,20 L-24,24 Z"/><path d="M6,-24 L24,-6"/></g></g><g transform="translate(535 408) rotate(248) scale(1.252988716517784)"><g opacity="0.144" fill="none" stroke="#2ee5d6" stroke-width="2.4"><path d="M-28,0 C-18,-12 -8,-12 2,0 S22,12 32,0"/></g></g><g transform="translate(561 1357) rotate(286) scale(1.1452936748328664)"><g opacity="0.165" fill="none" stroke="#2ee5d6" stroke-width="2.4"><polygon points="0,-20 20,16 -20,16"/></g></g><g transform="translate(679 1488) rotate(57) scale(0.9472679776961211)"><g opacity="0.138" fill="none" stroke="#2ee5d6" stroke-width="2"><circle cx="0" cy="0" r="18"/><path d="M-18,0H18 M0,-18V18"/><path d="M-12,-12 Q0,-5 12,-12 M-12,12 Q0,5 12,12"/></g></g><g transform="translate(815 153) rotate(180) scale(0.8833956869198433)"><g opacity="0.152" fill="none" stroke="#2ee5d6" stroke-width="2"><rect x="-18" y="-18" width="36" height="36" rx="4"/><path d="M-6,-18V18 M6,-18V18 M-18,-6H18 M-18,6H18"/></g></g><g transform="translate(333 1238) rotate(162) scale(1.1326739680176523)"><g opacity="0.153" fill="none" stroke="#2ee5d6" stroke-width="2.4"><path d="M-28,0 C-18,-12 -8,-12 2,0 S22,12 32,0"/></g></g><g transform="translate(701 1164) rotate(195) scale(1.308789412506493)"><g stroke="#2ee5d6" stroke-width="2.5" stroke-linecap="round" stroke-linejoin="round" opacity="0.18" fill="none"><path d="M0,-16 L4,-4 L16,0 L4,4 L0,16 L-4,4 L-16,0 L-4,-4 Z"/></g></g><g transform="translate(516 1553) rotate(325) scale(1.2544744114719006)"><g opacity="0.156" fill="none" stroke="#2ee5d6" stroke-width="2.2"><ellipse cx="0" cy="0" rx="22" ry="9"/><ellipse cx="0" cy="0" rx="22" ry="9" transform="rotate(60)"/><ellipse cx="0" cy="0" rx="22" ry="9" transform="rotate(120)"/><circle cx="0" cy="0" r="4" fill="#2ee5d6"/></g></g><g transform="translate(96 1405) rotate(223) scale(1.3024246446834005)"><g opacity="0.142" fill="none" stroke="#2ee5d6" stroke-width="2.4" stroke-linejoin="round"><path d="M-16,-10 h14 a6,6 0 0 1 6,6 v18 h-14 a6,6 0 0 0 -6,6 v-24 a6,6 0 0 1 6,-6z"/><path d="M16,-10 h-14 a6,6 0 0 0 -6,6 v18 h14 a6,6 0 0 1 6,6 v-24 a6,6 0 0 0 -6,-6z"/></g></g><g transform="translate(669 212) rotate(199) scale(0.7765929205620726)"><g opacity="0.162" fill="none" stroke="#2ee5d6" stroke-width="2"><circle cx="0" cy="0" r="18"/><path d="M-18,0H18 M0,-18V18"/><path d="M-12,-12 Q0,-5 12,-12 M-12,12 Q0,5 12,12"/></g></g><g transform="translate(474 765) rotate(274) scale(0.8420497038779976)"><g opacity="0.18" fill="none" stroke="#2ee5d6" stroke-width="2.4"><path d="M-28,0 C-18,-12 -8,-12 2,0 S22,12 32,0"/></g></g><g transform="translate(123 314) rotate(267) scale(0.7825257957624704)"><g opacity="0.178" fill="#2ee5d6" font-family="Arial, Helvetica, sans-serif" font-size="22" font-weight="700"><text x="-30" y="-6">x² + y²</text><text x="-30" y="18">= r²</text></g></g><g transform="translate(550 128) rotate(14) scale(1.0137920536153184)"><g opacity="0.136" fill="none" stroke="#2ee5d6" stroke-width="2.4" stroke-linejoin="round"><path d="M-16,-10 h14 a6,6 0 0 1 6,6 v18 h-14 a6,6 0 0 0 -6,6 v-24 a6,6 0 0 1 6,-6z"/><path d="M16,-10 h-14 a6,6 0 0 0 -6,6 v18 h14 a6,6 0 0 1 6,6 v-24 a6,6 0 0 0 -6,-6z"/></g></g><g transform="translate(481 1017) rotate(73) scale(0.882864478335341)"><g opacity="0.144" fill="#2ee5d6"><circle cx="0" cy="0" r="3"/><path d="M0,-12 L3,-3 L12,0 L3,3 L0,12 L-3,3 L-12,0 L-3,-3 Z"/></g></g><g transform="translate(665 828) rotate(112) scale(1.345806783019077)"><g opacity="0.177" fill="none" stroke="#2ee5d6" stroke-width="2"><rect x="-18" y="-18" width="36" height="36" rx="4"/><path d="M-6,-18V18 M6,-18V18 M-18,-6H18 M-18,6H18"/></g></g><g transform="translate(701 1044) rotate(279) scale(0.7786749785573466)"><g opacity="0.155" fill="none" stroke="#2ee5d6" stroke-width="2.4" stroke-linejoin="round"><path d="M-16,-10 h14 a6,6 0 0 1 6,6 v18 h-14 a6,6 0 0 0 -6,6 v-24 a6,6 0 0 1 6,-6z"/><path d="M16,-10 h-14 a6,6 0 0 0 -6,6 v18 h14 a6,6 0 0 1 6,6 v-24 a6,6 0 0 0 -6,-6z"/></g></g><g transform="translate(617 610) rotate(161) scale(1.3241291861529867)"><g opacity="0.141" fill="#2ee5d6"><circle cx="0" cy="0" r="3"/><path d="M0,-12 L3,-3 L12,0 L3,3 L0,12 L-3,3 L-12,0 L-3,-3 Z"/></g></g><g transform="translate(308 347) rotate(6) scale(1.060545631981145)"><g opacity="0.148" fill="none" stroke="#2ee5d6" stroke-width="2.2"><ellipse cx="0" cy="0" rx="22" ry="9"/><ellipse cx="0" cy="0" rx="22" ry="9" transform="rotate(60)"/><ellipse cx="0" cy="0" rx="22" ry="9" transform="rotate(120)"/><circle cx="0" cy="0" r="4" fill="#2ee5d6"/></g></g><g transform="translate(176 1570) rotate(144) scale(1.329800397442756)"><g opacity="0.139" fill="#2ee5d6"><circle cx="0" cy="0" r="3"/><path d="M0,-12 L3,-3 L12,0 L3,3 L0,12 L-3,3 L-12,0 L-3,-3 Z"/></g></g><g transform="translate(567 807) rotate(113) scale(1.3406598862732477)"><g opacity="0.176" fill="#2ee5d6"><circle cx="0" cy="0" r="3"/><path d="M0,-12 L3,-3 L12,0 L3,3 L0,12 L-3,3 L-12,0 L-3,-3 Z"/></g></g><g transform="translate(84 1528) rotate(178) scale(1.0470814464380807)"><g opacity="0.145" fill="none" stroke="#2ee5d6" stroke-width="2.4" stroke-linejoin="round"><path d="M-16,-10 h14 a6,6 0 0 1 6,6 v18 h-14 a6,6 0 0 0 -6,6 v-24 a6,6 0 0 1 6,-6z"/><path d="M16,-10 h-14 a6,6 0 0 0 -6,6 v18 h14 a6,6 0 0 1 6,6 v-24 a6,6 0 0 0 -6,-6z"/></g></g><g transform="translate(231 261) rotate(188) scale(0.8113719566023353)"><g opacity="0.145" fill="#2ee5d6"><circle cx="0" cy="0" r="3"/><path d="M0,-12 L3,-3 L12,0 L3,3 L0,12 L-3,3 L-12,0 L-3,-3 Z"/></g></g><g transform="translate(165 1216) rotate(68) scale(0.9270558018982218)"><g opacity="0.159" fill="none" stroke="#2ee5d6" stroke-width="2"><circle cx="0" cy="0" r="18"/><path d="M-18,0H18 M0,-18V18"/><path d="M-12,-12 Q0,-5 12,-12 M-12,12 Q0,5 12,12"/></g></g><g transform="translate(742 75) rotate(330) scale(0.831542862279028)"><g opacity="0.172" fill="#2ee5d6"><circle cx="0" cy="0" r="3"/><path d="M0,-12 L3,-3 L12,0 L3,3 L0,12 L-3,3 L-12,0 L-3,-3 Z"/></g></g><g transform="translate(68 795) rotate(246) scale(1.0057347852725091)"><g opacity="0.165" fill="none" stroke="#2ee5d6" stroke-width="2.4"><path d="M-28,0 C-18,-12 -8,-12 2,0 S22,12 32,0"/></g></g><g transform="translate(692 1455) rotate(287) scale(0.9696255719101069)"><g stroke="#2ee5d6" stroke-width="2.5" stroke-linecap="round" stroke-linejoin="round" opacity="0.171" fill="none"><path d="M0,-16 L4,-4 L16,0 L4,4 L0,16 L-4,4 L-16,0 L-4,-4 Z"/></g></g><g transform="translate(501 144) rotate(337) scale(1.3488223559491561)"><g opacity="0.165" fill="none" stroke="#2ee5d6" stroke-width="2.4"><path d="M-28,0 C-18,-12 -8,-12 2,0 S22,12 32,0"/></g></g><rect width="100%" height="100%" fill="#000" opacity="0.12"/>
</svg>