<svg xmlns="http://www.w3.org/2000/svg" width="900" height="1600" viewBox="0 0 900 1600">
<defs><linearGradient id="bg" x1="0%" y1="0%" x2="100%" y2="100%">
<stop offset="0%" stop-color="#05070d"/>
<stop offset="50%" stop-color="#0d1326"/>
<stop offset="100%" stop-color="#13284d"/>
</linearGradient><radialGradient id="neb" cx="70%" cy="28%" r="45%">
<stop offset="0%" stop-color="#7ef0ff" stop-opacity="0.26"/>
<stop offset="35%" stop-color="#8b5cff" stop-opacity="0.16"/>
<stop offset="70%" stop-color="#ff5ca8" stop-opacity="0.08"/>
<stop offset="100%" stop-color="#000000" stop-opacity="0"/>
</radialGradient></defs><rect width="100%" height="100%" fill="url(#bg)"/><rect width="100%" height="100%" fill="url(#neb)"/><circle cx="110" cy="950" r="0.84" fill="#fff" opacity="0.66"/><circle cx="811" cy="831" r="1.83" fill="#fff" opacity="0.76"/><circle cx="408" cy="368" r="1.33" fill="#fff" opacity="0.33"/><circle cx="295" cy="1406" r="1.80" fill="#fff" opacity="0.65"/><circle cx="349" cy="618" r="0.82" fill="#fff" opacity="0.86"/><circle cx="846" cy="1339" r="2.24" fill="#fff" opacity="0.50"/><circle cx="233" cy="320" r="2.02" fill="#fff" opacity="0.44"/><circle cx="354" cy="449" r="1.42" fill="#fff" opacity="0.47"/><circle cx="887" cy="958" r="1.37" fill="#fff" opacity="0.72"/><circle cx="322" cy="1256" r="2.22" fill="#fff" opacity="0.74"/><circle cx="196" cy="1589" r="0.81" fill="#fff" opacity="0.53"/><circle cx="537" cy="201" r="1.19" fill="#fff" opacity="0.90"/><circle cx="424" cy="790" r="1.72" fill="#fff" opacity="0.73"/><circle cx="279" cy="1204" r="0.83" fill="#fff" opacity="0.76"/><circle cx="626" cy="1148" r="2.05" fill="#fff" opacity="0.55"/><circle cx="69" cy="1005" r="1.11" fill="#fff" opacity="0.22"/><circle cx="310" cy="1206" r="1.83" fill="#fff" opacity="0.55"/><circle cx="92" cy="1101" r="0.75" fill="#fff" opacity="0.64"/><circle cx="624" cy="265" r="1.31" fill="#fff" opacity="0.21"/><circle cx="29" cy="10" r="1.83" fill="#fff" opacity="0.64"/><circle cx="525" cy="584" r="1.60" fill="#fff" opacity="0.78"/><circle cx="473" cy="420" r="2.18" fill="#fff" opacity="0.47"/><circle cx="190" cy="977" r="1.18" fill="#fff" opacity="0.62"/><circle cx="492" cy="1434" r="2.11" fill="#fff" opacity="0.88"/><circle cx="682" cy="1204" r="1.70" fill="#fff" opacity="0.35"/><circle cx="764" cy="1352" r="1.89" fill="#fff" opacity="0.27"/><circle cx="92" cy="639" r="1.59" fill="#fff" opacity="0.30"/><circle cx="261" cy="909" r="2.03" fill="#fff" opacity="0.29"/><circle cx="257" cy="1455" r="1.79" fill="#fff" opacity="0.39"/><circle cx="364" cy="495" r="2.38" fill="#fff" opacity="0.57"/><circle cx="863" cy="1338" r="1.64" fill="#fff" opacity="0.22"/><circle cx="202" cy="951" r="0.95" fill="#fff" opacity="0.77"/><circle cx="297" cy="351" r="0.97" fill="#fff" opacity="0.61"/><circle cx="210" cy="527" r="1.34" fill="#fff" opacity="0.61"/><circle cx="626" cy="797" r="1.16" fill="#fff" opacity="0.40"/><circle cx="276" cy="393" r="2.21" fill="#fff" opacity="0.27"/><circle cx="258" cy="843" r="0.86" fill="#fff" opacity="0.53"/><circle cx="779" cy="1528" r="0.95" fill="#fff" opacity="0.48"/><circle cx="597" cy="435" r="1.26" fill="#fff" opacity="0.81"/><circle cx="544" cy="817" r="0.92" fill="#fff" opacity="0.26"/><circle cx="427" cy="514" r="2.28" fill="#fff" opacity="0.77"/><circle cx="395" cy="1086" r="1.71" fill="#fff" opacity="0.66"/><circle cx="149" cy="174" r="1.81" fill="#fff" opacity="0.66"/><circle cx="340" cy="854" r="1.38" fill="#fff" opacity="0.80"/><circle cx="716" cy="96" r="1.03" fill="#fff" opacity="0.60"/><circle cx="728" cy="1030" r="1.29" fill="#fff" opacity="0.32"/><circle cx="292" cy="192" r="1.08" fill="#fff" opacity="0.33"/><circle cx="244" cy="148" r="1.30" fill="#fff" opacity="0.27"/><circle cx="485" cy="1163" r="0.96" fill="#fff" opacity="0.70"/><circle cx="131" cy="1016" r="0.84" fill="#fff" opacity="0.37"/><circle cx="832" cy="1029" r="1.85" fill="#fff" opacity="0.86"/><circle cx="882" cy="929" r="2.39" fill="#fff" opacity="0.32"/><circle cx="494" cy="385" r="1.87" fill="#fff" opacity="0.27"/><circle cx="724" cy="1156" r="1.87" fill="#fff" opacity="0.83"/><circle cx="69" cy="460" r="2.44" fill="#fff" opacity="0.60"/><circle cx="472" cy="35" r="2.22" fill="#fff" opacity="0.47"/><circle cx="594" cy="1163" r="1.23" fill="#fff" opacity="0.73"/><circle cx="773" cy="103" r="1.96" fill="#fff" opacity="0.82"/><circle cx="657" cy="329" r="1.72" fill="#fff" opacity="0.33"/><circle cx="84" cy="522" r="0.77" fill="#fff" opacity="0.30"/><circle cx="892" cy="1239" r="1.18" fill="#fff" opacity="0.49"/><circle cx="482" cy="603" r="0.94" fill="#fff" opacity="0.30"/><circle cx="674" cy="1296" r="1.92" fill="#fff" opacity="0.21"/><circle cx="37" cy="351" r="1.96" fill="#fff" opacity="0.59"/><circle cx="812" cy="1052" r="2.20" fill="#fff" opacity="0.27"/><circle cx="816" cy="1550" r="0.98" fill="#fff" opacity="0.55"/><circle cx="657" cy="978" r="1.36" fill="#fff" opacity="0.62"/><circle cx="328" cy="1317" r="2.44" fill="#fff" opacity="0.33"/><circle cx="304" cy="1581" r="1.89" fill="#fff" opacity="0.52"/><circle cx="56" cy="141" r="1.32" fill="#fff" opacity="0.52"/><circle cx="455" cy="67" r="1.30" fill="#fff" opacity="0.71"/><circle cx="419" cy="1599" r="1.60" fill="#fff" opacity="0.87"/><circle cx="467" cy="1297" r="1.44" fill="#fff" opacity="0.54"/><circle cx="281" cy="1366" r="1.35" fill="#fff" opacity="0.61"/><circle cx="693" cy="178" r="0.77" fill="#fff" opacity="0.84"/><circle cx="451" cy="912" r="0.85" fill="#fff" opacity="0.56"/><circle cx="497" cy="1558" r="1.57" fill="#fff" opacity="0.67"/><circle cx="897" cy="155" r="1.65" fill="#fff" opacity="0.33"/><circle cx="608" cy="1304" r="2.07" fill="#fff" opacity="0.39"/><circle cx="819" cy="626" r="1.26" fill="#fff" opacity="0.47"/><circle cx="375" cy="1102" r="1.69" fill="#fff" opacity="0.50"/><circle cx="405" cy="802" r="1.98" fill="#fff" opacity="0.23"/><circle cx="134" cy="1019" r="1.34" fill="#fff" opacity="0.60"/><circle cx="377" cy="1184" r="1.80" fill="#fff" opacity="0.83"/><circle cx="823" cy="1025" r="1.90" fill="#fff" opacity="0.30"/><circle cx="23" cy="200" r="1.90" fill="#fff" opacity="0.57"/><circle cx="138" cy="360" r="1.64" fill="#fff" opacity="0.55"/><circle cx="641" cy="242" r="1.59" fill="#fff" opacity="0.76"/><circle cx="374" cy="1221" r="0.75" fill="#fff" opacity="0.55"/><circle cx="725" cy="12" r="2.03" fill="#fff" opacity="0.32"/><circle cx="353" cy="1414" r="1.95" fill="#fff" opacity="0.77"/><circle cx="835" cy="896" r="1.35" fill="#fff" opacity="0.29"/><circle cx="489" cy="1245" r="1.62" fill="#fff" opacity="0.54"/><circle cx="564" cy="1120" r="2.31" fill="#fff" opacity="0.65"/><circle cx="115" cy="63" r="1.53" fill="#fff" opacity="0.56"/><circle cx="743" cy="1468" r="1.93" fill="#fff" opacity="0.83"/><circle cx="844" cy="1350" r="1.05" fill="#fff" opacity="0.60"/><circle cx="835" cy="829" r="1.40" fill="#fff" opacity="0.55"/><circle cx="850" cy="774" r="1.27" fill="#fff" opacity="0.88"/><circle cx="562" cy="82" r="0.98" fill="#fff" opacity="0.65"/><circle cx="537" cy="816" r="2.48" fill="#fff" opacity="0.89"/><circle cx="217" cy="490" r="1.82" fill="#fff" opacity="0.88"/><circle cx="886" cy="1358" r="2.39" fill="#fff" opacity="0.53"/><circle cx="758" cy="1002" r="1.39" fill="#fff" opacity="0.56"/><circle cx="621" cy="1183" r="0.73" fill="#fff" opacity="0.55"/><circle cx="604" cy="1218" r="1.06" fill="#fff" opacity="0.22"/><circle cx="5" cy="791" r="2.27" fill="#fff" opacity="0.25"/><circle cx="878" cy="221" r="2.46" fill="#fff" opacity="0.56"/><circle cx="337" cy="309" r="2.07" fill="#fff" opacity="0.81"/><circle cx="154" cy="488" r="1.51" fill="#fff" opacity="0.59"/><circle cx="235" cy="764" r="1.05" fill="#fff" opacity="0.43"/><circle cx="17" cy="868" r="1.43" fill="#fff" opacity="0.46"/><circle cx="530" cy="583" r="1.27" fill="#fff" opacity="0.64"/><circle cx="609" cy="323" r="1.89" fill="#fff" opacity="0.71"/><circle cx="698" cy="1334" r="1.31" fill="#fff" opacity="0.47"/><circle cx="308" cy="38" r="1.58" fill="#fff" opacity="0.90"/><circle cx="694" cy="916" r="0.95" fill="#fff" opacity="0.67"/><circle cx="179" cy="580" r="1.22" fill="#fff" opacity="0.29"/><circle cx="357" cy="503" r="1.91" fill="#fff" opacity="0.41"/><circle cx="210" cy="207" r="0.78" fill="#fff" opacity="0.69"/><circle cx="610" cy="501" r="1.37" fill="#fff" opacity="0.28"/><circle cx="467" cy="157" r="0.80" fill="#fff" opacity="0.70"/><circle cx="574" cy="285" r="2.06" fill="#fff" opacity="0.47"/><circle cx="233" cy="657" r="2.42" fill="#fff" opacity="0.57"/><circle cx="369" cy="1001" r="1.40" fill="#fff" opacity="0.82"/><circle cx="84" cy="720" r="2.34" fill="#fff" opacity="0.53"/><circle cx="767" cy="959" r="1.77" fill="#fff" opacity="0.46"/><circle cx="826" cy="1166" r="2.44" fill="#fff" opacity="0.71"/><circle cx="580" cy="330" r="0.87" fill="#fff" opacity="0.43"/><circle cx="630" cy="1131" r="1.41" fill="#fff" opacity="0.49"/><circle cx="513" cy="1212" r="2.01" fill="#fff" opacity="0.54"/><circle cx="402" cy="478" r="1.89" fill="#fff" opacity="0.22"/><circle cx="9" cy="187" r="0.82" fill="#fff" opacity="0.65"/><circle cx="191" cy="885" r="2.00" fill="#fff" opacity="0.33"/><circle cx="525" cy="149" r="0.76" fill="#fff" opacity="0.58"/><circle cx="839" cy="1356" r="1.29" fill="#fff" opacity="0.31"/><circle cx="109" cy="1595" r="1.98" fill="#fff" opacity="0.26"/><circle cx="494" cy="1016" r="2.37" fill="#fff" opacity="0.81"/><circle cx="832" cy="704" r="1.90" fill="#fff" opacity="0.39"/><circle cx="334" cy="917" r="1.87" fill="#fff" opacity="0.38"/><circle cx="31" cy="621" r="1.05" fill="#fff" opacity="0.77"/><circle cx="58" cy="508" r="1.95" fill="#fff" opacity="0.64"/><circle cx="607" cy="691" r="2.40" fill="#fff" opacity="0.84"/><circle cx="231" cy="1076" r="1.95" fill="#fff" opacity="0.66"/><circle cx="128" cy="359" r="1.24" fill="#fff" opacity="0.34"/><circle cx="476" cy="112" r="1.07" fill="#fff" opacity="0.72"/><circle cx="112" cy="289" r="1.55" fill="#fff" opacity="0.55"/><circle cx="242" cy="493" r="0.84" fill="#fff" opacity="0.76"/><circle cx="298" cy="117" r="1.88" fill="#fff" opacity="0.54"/><circle cx="807" cy="1095" r="1.26" fill="#fff" opacity="0.90"/><circle cx="320" cy="1419" r="1.39" fill="#fff" opacity="0.59"/><circle cx="554" cy="1401" r="1.18" fill="#fff" opacity="0.83"/><circle cx="565" cy="1061" r="1.85" fill="#fff" opacity="0.55"/><circle cx="490" cy="1120" r="1.13" fill="#fff" opacity="0.55"/><circle cx="103" cy="1112" r="1.61" fill="#fff" opacity="0.75"/><circle cx="641" cy="1499" r="1.92" fill="#fff" opacity="0.21"/><circle cx="669" cy="1138" r="1.19" fill="#fff" opacity="0.64"/><circle cx="405" cy="1477" r="2.13" fill="#fff" opacity="0.59"/><circle cx="645" cy="70" r="2.27" fill="#fff" opacity="0.78"/><circle cx="661" cy="502" r="1.62" fill="#fff" opacity="0.61"/><circle cx="718" cy="830" r="0.83" fill="#fff" opacity="0.39"/><circle cx="754" cy="806" r="0.84" fill="#fff" opacity="0.72"/><circle cx="312" cy="1358" r="1.76" fill="#fff" opacity="0.74"/><circle cx="836" cy="481" r="1.65" fill="#fff" opacity="0.61"/><circle cx="737" cy="837" r="1.78" fill="#fff" opacity="0.30"/><circle cx="366" cy="655" r="1.02" fill="#fff" opacity="0.82"/><circle cx="348" cy="551" r="1.07" fill="#fff" opacity="0.36"/><circle cx="417" cy="726" r="1.01" fill="#fff" opacity="0.47"/><circle cx="194" cy="1486" r="1.82" fill="#fff" opacity="0.31"/><circle cx="211" cy="792" r="1.61" fill="#fff" opacity="0.38"/><circle cx="696" cy="1594" r="0.94" fill="#fff" opacity="0.73"/><circle cx="404" cy="1245" r="0.91" fill="#fff" opacity="0.48"/><circle cx="252" cy="1335" r="1.69" fill="#fff" opacity="0.81"/><circle cx="138" cy="1162" r="0.81" fill="#fff" opacity="0.60"/><circle cx="769" cy="1323" r="1.13" fill="#fff" opacity="0.87"/><circle cx="580" cy="1021" r="0.75" fill="#fff" opacity="0.43"/><circle cx="615" cy="1510" r="1.25" fill="#fff" opacity="0.38"/><circle cx="803" cy="1279" r="1.26" fill="#fff" opacity="0.71"/><circle cx="352" cy="1064" r="1.42" fill="#fff" opacity="0.62"/><circle cx="163" cy="1521" r="0.98" fill="#fff" opacity="0.39"/><circle cx="434" cy="531" r="159" fill="none" stroke="#baf2ff" stroke-opacity="0.16" stroke-width="3"/><circle cx="434" cy="531" r="131" fill="#0d1a33" opacity="0.28"/><ellipse cx="434" cy="531" rx="239" ry="79" transform="rotate(-20 434 531)" fill="none" stroke="#ffffff" stroke-opacity="0.10" stroke-width="3"/>
</svg>