<svg xmlns="http://www.w3.org/2000/svg" width="900" height="1600" viewBox="0 0 900 1600">
<defs><linearGradient id="bg" x1="0%" y1="0%" x2="100%" y2="100%">
<stop offset="0%" stop-color="#040608"/>
<stop offset="100%" stop-color="#0b0b12"/>
</linearGradient><radialGradient id="glow" cx="80%" cy="20%" r="60%">
<stop offset="0%" stop-color="#6f56ff" stop-opacity="0.22"/>
<stop offset="60%" stop-color="#6f56ff" stop-opacity="0.06"/>
<stop offset="100%" stop-color="#6f56ff" stop-opacity="0"/>
</radialGradient></defs><rect width="100%" height="100%" fill="url(#bg)"/><rect width="100%" height="100%" fill="url(#glow)"/><g transform="translate(723 118) rotate(266) scale(1.2209468136522665)"><g opacity="0.151" fill="none" stroke="#6f56ff" stroke-width="2.4"><circle cx="0" cy="0" r="12"/><ellipse cx="0" cy="0" rx="24" ry="8" transform="rotate(-18)"/></g></g><g transform="translate(432 741) rotate(148) scale(1.3480901622587393)"><g opacity="0.134" fill="none" stroke="#6f56ff" stroke-width="2"><circle cx="0" cy="0" r="18"/><path d="M-18,0H18 M0,-18V18"/><path d="M-12,-12 Q0,-5 12,-12 M-12,12 Q0,5 12,12"/></g></g><g transform="translate(297 250) rotate(167) scale(0.9062623161607974)"><g opacity="0.165" fill="#6f56ff" font-family="Arial, Helvetica, sans-serif" font-size="22" font-weight="700"><text x="-30" y="-6">x² + y²</text><text x="-30" y="18">= r²</text></g></g><g transform="translate(821 696) rotate(11) scale(1.288320866127603)"><g opacity="0.155" fill="none" stroke="#6f56ff" stroke-width="2"><circle cx="0" cy="0" r="18"/><path d="M-18,0H18 M0,-18V18"/><path d="M-12,-12 Q0,-5 12,-12 M-12,12 Q0,5 12,12"/></g></g><g transform="translate(102 444) rotate(233) scale(0.8183349499513622)"><g opacity="0.166" fill="none" stroke="#6f56ff" stroke-width="2"><rect x="-18" y="-18" width="36" height="36" rx="4"/><path d="M-6,-18V18 M6,-18V18 M-18,-6H18 M-18,6H18"/></g></g><g transform="translate(105 231) rotate(50) scale(0.9986625552928564)"><g opacity="0.16" fill="none" stroke="#6f56ff" stroke-width="2"><circle cx="0" cy="0" r="18"/><path d="M-18,0H18 M0,-18V18"/><path d="M-12,-12 Q0,-5 12,-12 M-12,12 Q0,5 12,12"/></g></g><g transform="translate(803 841) rotate(153) scale(1.0141808092219649)"><g opacity="0.169" fill="none" stroke="#6f56ff" stroke-width="2"><circle cx="0" cy="0" r="18"/><path d="M-18,0H18 M0,-18V18"/><path d="M-12,-12 Q0,-5 12,-12 M-12,12 Q0,5 12,12"/></g></g><g transform="translate(192 1334) rotate(119) scale(1.322349010734527)"><g opacity="0.153" fill="none" stroke="#6f56ff" stroke-width="2.4"><polygon points="0,-20 20,16 -20,16"/></g></g><g transform="translate(140 454) rotate(70) scale(0.9841680639602843)"><g opacity="0.156" fill="none" stroke="#6f56ff" stroke-width="2.4" stroke-linejoin="round"><path d="M-16,-10 h14 a6,6 0 0 1 6,6 v18 h-14 a6,6 0 0 0 -6,6 v-24 a6,6 0 0 1 6,-6z"/><path d="M16,-10 h-14 a6,6 0 0 0 -6,6 v18 h14 a6,6 0 0 1 6,6 v-24 a6,6 0 0 0 -6,-6z"/></g></g><g transform="translate(137 1150) rotate(3) scale(1.1732159143301966)"><g opacity="0.168" fill="none" stroke="#6f56ff" stroke-width="2.4" stroke-linejoin="round"><path d="M-20,10 L10,-20 L20,-10 L-10,20 L-24,24 Z"/><path d="M6,-24 L24,-6"/></g></g><g transform="translate(638 275) rotate(256) scale(1.0621049634226862)"><g opacity="0.144" fill="none" stroke="#6f56ff" stroke-width="2.4" stroke-linejoin="round"><path d="M-20,10 L10,-20 L20,-10 L-10,20 L-24,24 Z"/><path d="M6,-24 L24,-6"/></g></g><g transform="translate(584 405) rotate(125) scale(1.2843208328017601)"><g opacity="0.129" fill="none" stroke="#6f56ff" stroke-width="2.4"><circle cx="0" cy="0" r="12"/><ellipse cx="0" cy="0" rx="24" ry="8" transform="rotate(-18)"/></g></g><g transform="translate(415 955) rotate(334) scale(0.8181949034741742)"><g opacity="0.17" fill="#6f56ff" font-family="Arial, Helvetica, sans-serif" font-size="22" font-weight="700"><text x="-30" y="-6">x² + y²</text><text x="-30" y="18">= r²</text></g></g><g transform="translate(517 611) rotate(150) scale(1.019548878387019)"><g opacity="0.148" fill="none" stroke="#6f56ff" stroke-width="2.4" stroke-linejoin="round"><path d="M-16,-10 h14 a6,6 0 0 1 6,6 v18 h-14 a6,6 0 0 0 -6,6 v-24 a6,6 0 0 1 6,-6z"/><path d="M16,-10 h-14 a6,6 0 0 0 -6,6 v18 h14 a6,6 0 0 1 6,6 v-24 a6,6 0 0 0 -6,-6z"/></g></g><g transform="translate(338 661) rotate(23) scale(1.1564220417983924)"><g opacity="0.137" fill="none" stroke="#6f56ff" stroke-width="2.4"><circle cx="0" cy="0" r="12"/><ellipse cx="0" cy="0" rx="24" ry="8" transform="rotate(-18)"/></g></g><g transform="translate(733 1570) rotate(237) scale(1.0023610179184776)"><g opacity="0.149" fill="none" stroke="#6f56ff" stroke-width="2.4"><circle cx="0" cy="0" r="12"/><ellipse cx="0" cy="0" rx="24" ry="8" transform="rotate(-18)"/></g></g><g transform="translate(492 1374) rotate(89) scale(1.3238995850806643)"><g opacity="0.157" fill="none" stroke="#6f56ff" stroke-width="2"><rect x="-18" y="-18" width="36" height="36" rx="4"/><path d="M-6,-18V18 M6,-18V18 M-18,-6H18 M-18,6H18"/></g></g><g transform="translate(107 204) rotate(220) scale(0.8258236222169062)"><g opacity="0.167" fill="#6f56ff" font-family="Arial, Helvetica, sans-serif" font-size="22" font-weight="700"><text x="-30" y="-6">x² + y²</text><text x="-30" y="18">= r²</text></g></g><g transform="translate(144 445) rotate(350) scale(1.1222060701385235)"><g opacity="0.147" fill="none" stroke="#6f56ff" stroke-width="2.4"><circle cx="0" cy="0" r="12"/><ellipse cx="0" cy="0" rx="24" ry="8" transform="rotate(-18)"/></g></g><g transform="translate(679 343) rotate(196) scale(0.7552617827570403)"><g opacity="0.157" fill="none" stroke="#6f56ff" stroke-width="2"><circle cx="0" cy="0" r="18"/><path d="M-18,0H18 M0,-18V18"/><path d="M-12,-12 Q0,-5 12,-12 M-12,12 Q0,5 12,12"/></g></g><g transform="translate(682 110) rotate(301) scale(1.0917188534691953)"><g opacity="0.171" fill="none" stroke="#6f56ff" stroke-width="2.4"><path d="M-28,0 C-18,-12 -8,-12 2,0 S22,12 32,0"/></g></g><g transform="translate(245 571) rotate(31) scale(1.0554857312922326)"><g stroke="#6f56ff" stroke-width="2.5" stroke-linecap="round" stroke-linejoin="round" opacity="0.162" fill="none"><path d="M0,-16 L4,-4 L16,0 L4,4 L0,16 L-4,4 L-16,0 L-4,-4 Z"/></g></g><g transform="translate(699 461) rotate(150) scale(0.7884978586304915)"><g opacity="0.148" fill="none" stroke="#6f56ff" stroke-width="2.4"><polygon points="0,-20 20,16 -20,16"/></g></g><g transform="translate(544 308) rotate(262) scale(1.3427106380018805)"><g opacity="0.153" fill="#6f56ff" font-family="Arial, Helvetica, sans-serif" font-size="22" font-weight="700"><text x="-30" y="-6">x² + y²</text><text x="-30" y="18">= r²</text></g></g><g transform="translate(763 1514) rotate(156) scale(1.1927487594875785)"><g opacity="0.161" fill="#6f56ff"><circle cx="0" cy="0" r="3"/><path d="M0,-12 L3,-3 L12,0 L3,3 L0,12 L-3,3 L-12,0 L-3,-3 Z"/></g></g><g transform="translate(571 614) rotate(291) scale(1.1375936396630602)"><g opacity="0.165" fill="none" stroke="#6f56ff" stroke-width="2"><rect x="-18" y="-18" width="36" height="36" rx="4"/><path d="M-6,-18V18 M6,-18V18 M-18,-6H18 M-18,6H18"/></g></g><g transform="translate(93 488) rotate(234) scale(0.8426515729988481)"><g opacity="0.151" fill="none" stroke="#6f56ff" stroke-width="2.4"><circle cx="0" cy="0" r="12"/><ellipse cx="0" cy="0" rx="24" ry="8" transform="rotate(-18)"/></g></g><g transform="translate(133 563) rotate(356) scale(1.180453377068873)"><g opacity="0.158" fill="none" stroke="#6f56ff" stroke-width="2"><rect x="-18" y="-18" width="36" height="36" rx="4"/><path d="M-6,-18V18 M6,-18V18 M-18,-6H18 M-18,6H18"/></g></g><g transform="translate(367 786) rotate(169) scale(0.8622471501465622)"><g opacity="0.156" fill="none" stroke="#6f56ff" stroke-width="2.4"><circle cx="0" cy="0" r="12"/><ellipse cx="0" cy="0" rx="24" ry="8" transform="rotate(-18)"/></g></g><g transform="translate(705 1113) rotate(316) scale(1.019850653766815)"><g stroke="#6f56ff" stroke-width="2.5" stroke-linecap="round" stroke-linejoin="round" opacity="0.167" fill="none"><path d="M0,-16 L4,-4 L16,0 L4,4 L0,16 L-4,4 L-16,0 L-4,-4 Z"/></g></g><g transform="translate(125 679) rotate(234) scale(1.0121388153750193)"><g opacity="0.16" fill="none" stroke="#6f56ff" stroke-width="2"><circle cx="0" cy="0" r="18"/><path d="M-18,0H18 M0,-18V18"/><path d="M-12,-12 Q0,-5 12,-12 M-12,12 Q0,5 12,12"/></g></g><g transform="translate(76 635) rotate(45) scale(0.9072063368898791)"><g opacity="0.145" fill="none" stroke="#6f56ff" stroke-width="2.2"><ellipse cx="0" cy="0" rx="22" ry="9"/><ellipse cx="0" cy="0" rx="22" ry="9" transform="rotate(60)"/><ellipse cx="0" cy="0" rx="22" ry="9" transform="rotate(120)"/><circle cx="0" cy="0" r="4" fill="#6f56ff"/></g></g><g transform="translate(204 369) rotate(283) scale(1.0319387093062986)"><g opacity="0.159" fill="none" stroke="#6f56ff" stroke-width="2.4"><circle cx="0" cy="0" r="12"/><ellipse cx="0" cy="0" rx="24" ry="8" transform="rotate(-18)"/></g></g><g transform="translate(556 216) rotate(300) scale(1.2743211464722717)"><g opacity="0.13" fill="none" stroke="#6f56ff" stroke-width="2"><rect x="-18" y="-18" width="36" height="36" rx="4"/><path d="M-6,-18V18 M6,-18V18 M-18,-6H18 M-18,6H18"/></g></g><g transform="translate(728 316) rotate(125) scale(1.1178967654307046)"><g opacity="0.16" fill="none" stroke="#6f56ff" stroke-width="2.4"><polygon points="0,-20 20,16 -20,16"/></g></g><g transform="translate(64 597) rotate(127) scale(0.8647063813287869)"><g opacity="0.133" fill="#6f56ff" font-family="Arial, Helvetica, sans-serif" font-size="22" font-weight="700"><text x="-30" y="-6">x² + y²</text><text x="-30" y="18">= r²</text></g></g><g transform="translate(484 292) rotate(230) scale(0.7933128507202953)"><g opacity="0.152" fill="#6f56ff" font-family="Arial, Helvetica, sans-serif" font-size="22" font-weight="700"><text x="-30" y="-6">x² + y²</text><text x="-30" y="18">= r²</text></g></g><g transform="translate(622 490) rotate(52) scale(0.9622948888191974)"><g opacity="0.138" fill="#6f56ff"><circle cx="0" cy="0" r="3"/><path d="M0,-12 L3,-3 L12,0 L3,3 L0,12 L-3,3 L-12,0 L-3,-3 Z"/></g></g><g transform="translate(170 739) rotate(286) scale(1.0261602934836989)"><g opacity="0.152" fill="none" stroke="#6f56ff" stroke-width="2.2"><ellipse cx="0" cy="0" rx="22" ry="9"/><ellipse cx="0" cy="0" rx="22" ry="9" transform="rotate(60)"/><ellipse cx="0" cy="0" rx="22" ry="9" transform="rotate(120)"/><circle cx="0" cy="0" r="4" fill="#6f56ff"/></g></g><g transform="translate(341 152) rotate(224) scale(1.0999546625434264)"><g opacity="0.171" fill="none" stroke="#6f56ff" stroke-width="2.4"><circle cx="0" cy="0" r="12"/><ellipse cx="0" cy="0" rx="24" ry="8" transform="rotate(-18)"/></g></g><g transform="translate(659 160) rotate(197) scale(1.0459628066090283)"><g opacity="0.14" fill="none" stroke="#6f56ff" stroke-width="2.4"><polygon points="0,-20 20,16 -20,16"/></g></g><g transform="translate(388 957) rotate(217) scale(0.7798178338651591)"><g stroke="#6f56ff" stroke-width="2.5" stroke-linecap="round" stroke-linejoin="round" opacity="0.153" fill="none"><path d="M0,-16 L4,-4 L16,0 L4,4 L0,16 L-4,4 L-16,0 L-4,-4 Z"/></g></g><g transform="translate(707 663) rotate(52) scale(1.0840578239131355)"><g opacity="0.146" fill="none" stroke="#6f56ff" stroke-width="2"><rect x="-18" y="-18" width="36" height="36" rx="4"/><path d="M-6,-18V18 M6,-18V18 M-18,-6H18 M-18,6H18"/></g></g><g transform="translate(169 1439) rotate(79) scale(1.070483655765937)"><g opacity="0.136" fill="none" stroke="#6f56ff" stroke-width="2.4" stroke-linejoin="round"><path d="M-20,10 L10,-20 L20,-10 L-10,20 L-24,24 Z"/><path d="M6,-24 L24,-6"/></g></g><g transform="translate(652 1007) rotate(205) scale(0.8015947190485573)"><g opacity="0.154" fill="none" stroke="#6f56ff" stroke-width="2.4" stroke-linejoin="round"><path d="M-20,10 L10,-20 L20,-10 L-10,20 L-24,24 Z"/><path d="M6,-24 L24,-6"/></g></g><g transform="translate(621 1410) rotate(1) scale(1.346234839982381)"><g opacity="0.165" fill="none" stroke="#6f56ff" stroke-width="2.2"><ellipse cx="0" cy="0" rx="22" ry="9"/><ellipse cx="0" cy="0" rx="22" ry="9" transform="rotate(60)"/><ellipse cx="0" cy="0" rx="22" ry="9" transform="rotate(120)"/><circle cx="0" cy="0" r="4" fill="#6f56ff"/></g></g><g transform="translate(115 585) rotate(83) scale(0.899024268178453)"><g opacity="0.145" fill="none" stroke="#6f56ff" stroke-width="2.4"><polygon points="0,-20 20,16 -20,16"/></g></g><g transform="translate(505 896) rotate(71) scale(1.232651406623765)"><g opacity="0.135" fill="none" stroke="#6f56ff" stroke-width="2.4"><circle cx="0" cy="0" r="12"/><ellipse cx="0" cy="0" rx="24" ry="8" transform="rotate(-18)"/></g></g><g transform="translate(857 68) rotate(250) scale(0.911325460418442)"><g opacity="0.172" fill="none" stroke="#6f56ff" stroke-width="2"><circle cx="0" cy="0" r="18"/><path d="M-18,0H18 M0,-18V18"/><path d="M-12,-12 Q0,-5 12,-12 M-12,12 Q0,5 12,12"/></g></g><g transform="translate(285 662) rotate(36) scale(0.8581773017676301)"><g opacity="0.169" fill="none" stroke="#6f56ff" stroke-width="2.4"><polygon points="0,-20 20,16 -20,16"/></g></g><g transform="translate(56 278) rotate(341) scale(0.7934821443947886)"><g opacity="0.152" fill="none" stroke="#6f56ff" stroke-width="2.4"><circle cx="0" cy="0" r="12"/><ellipse cx="0" cy="0" rx="24" ry="8" transform="rotate(-18)"/></g></g><g transform="translate(94 102) rotate(195) scale(0.8062059796728926)"><g opacity="0.141" fill="none" stroke="#6f56ff" stroke-width="2.4" stroke-linejoin="round"><path d="M-20,10 L10,-20 L20,-10 L-10,20 L-24,24 Z"/><path d="M6,-24 L24,-6"/></g></g><g transform="translate(374 605) rotate(61) scale(1.3170502833208482)"><g opacity="0.13" fill="none" stroke="#6f56ff" stroke-width="2"><circle cx="0" cy="0" r="18"/><path d="M-18,0H18 M0,-18V18"/><path d="M-12,-12 Q0,-5 12,-12 M-12,12 Q0,5 12,12"/></g></g><g transform="translate(401 398) rotate(172) scale(0.8197796686281937)"><g opacity="0.143" fill="none" stroke="#6f56ff" stroke-width="2.4" stroke-linejoin="round"><path d="M-20,10 L10,-20 L20,-10 L-10,20 L-24,24 Z"/><path d="M6,-24 L24,-6"/></g></g><g transform="translate(763 1315) rotate(276) scale(1.0300721843847844)"><g opacity="0.163" fill="#6f56ff"><circle cx="0" cy="0" r="3"/><path d="M0,-12 L3,-3 L12,0 L3,3 L0,12 L-3,3 L-12,0 L-3,-3 Z"/></g></g><g transform="translate(243 100) rotate(139) scale(1.1075773053072757)"><g opacity="0.145" fill="none" stroke="#6f56ff" stroke-width="2"><circle cx="0" cy="0" r="18"/><path d="M-18,0H18 M0,-18V18"/><path d="M-12,-12 Q0,-5 12,-12 M-12,12 Q0,5 12,12"/></g></g><g transform="translate(48 460) rotate(36) scale(1.0727975494745654)"><g stroke="#6f56ff" stroke-width="2.5" stroke-linecap="round" stroke-linejoin="round" opacity="0.172" fill="none"><path d="M0,-16 L4,-4 L16,0 L4,4 L0,16 L-4,4 L-16,0 L-4,-4 Z"/></g></g><g transform="translate(836 1024) rotate(306) scale(0.8864598095508385)"><g opacity="0.136" fill="none" stroke="#6f56ff" stroke-width="2.4" stroke-linejoin="round"><path d="M-16,-10 h14 a6,6 0 0 1 6,6 v18 h-14 a6,6 0 0 0 -6,6 v-24 a6,6 0 0 1 6,-6z"/><path d="M16,-10 h-14 a6,6 0 0 0 -6,6 v18 h14 a6,6 0 0 1 6,6 v-24 a6,6 0 0 0 -6,-6z"/></g></g><g transform="translate(680 814) rotate(273) scale(0.8520248683513061)"><g opacity="0.163" fill="none" stroke="#6f56ff" stroke-width="2.4"><circle cx="0" cy="0" r="12"/><ellipse cx="0" cy="0" rx="24" ry="8" transform="rotate(-18)"/></g></g><g transform="translate(222 544) rotate(331) scale(0.8115086324404601)"><g opacity="0.151" fill="none" stroke="#6f56ff" stroke-width="2.4" stroke-linejoin="round"><path d="M-20,10 L10,-20 L20,-10 L-10,20 L-24,24 Z"/><path d="M6,-24 L24,-6"/></g></g><g transform="translate(547 881) rotate(37) scale(0.8742497006215141)"><g opacity="0.151" fill="none" stroke="#6f56ff" stroke-width="2"><circle cx="0" cy="0" r="18"/><path d="M-18,0H18 M0,-18V18"/><path d="M-12,-12 Q0,-5 12,-12 M-12,12 Q0,5 12,12"/></g></g><g transform="translate(385 1277) rotate(267) scale(0.8635519861464668)"><g opacity="0.156" fill="none" stroke="#6f56ff" stroke-width="2.4" stroke-linejoin="round"><path d="M-16,-10 h14 a6,6 0 0 1 6,6 v18 h-14 a6,6 0 0 0 -6,6 v-24 a6,6 0 0 1 6,-6z"/><path d="M16,-10 h-14 a6,6 0 0 0 -6,6 v18 h14 a6,6 0 0 1 6,6 v-24 a6,6 0 0 0 -6,-6z"/></g></g><g transform="translate(636 426) rotate(21) scale(1.2946465865329455)"><g opacity="0.166" fill="#6f56ff" font-family="Arial, Helvetica, sans-serif" font-size="22" font-weight="700"><text x="-30" y="-6">x² + y²</text><text x="-30" y="18">= r²</text></g></g><g transform="translate(745 901) rotate(352) scale(1.0309458293915919)"><g opacity="0.13" fill="none" stroke="#6f56ff" stroke-width="2.4"><polygon points="0,-20 20,16 -20,16"/></g></g><g transform="translate(674 859) rotate(12) scale(1.050235524431553)"><g opacity="0.155" fill="none" stroke="#6f56ff" stroke-width="2"><circle cx="0" cy="0" r="18"/><path d="M-18,0H18 M0,-18V18"/><path d="M-12,-12 Q0,-5 12,-12 M-12,12 Q0,5 12,12"/></g></g><g transform="translate(720 944) rotate(266) scale(1.098486141511052)"><g opacity="0.153" fill="#6f56ff"><circle cx="0" cy="0" r="3"/><path d="M0,-12 L3,-3 L12,0 L3,3 L0,12 L-3,3 L-12,0 L-3,-3 Z"/></g></g><g transform="translate(826 952) rotate(198) scale(1.295716599294907)"><g opacity="0.142" fill="none" stroke="#6f56ff" stroke-width="2"><circle cx="0" cy="0" r="18"/><path d="M-18,0H18 M0,-18V18"/><path d="M-12,-12 Q0,-5 12,-12 M-12,12 Q0,5 12,12"/></g></g><g transform="translate(524 301) rotate(279) scale(1.25658090792717)"><g opacity="0.169" fill="none" stroke="#6f56ff" stroke-width="2.4"><polygon points="0,-20 20,16 -20,16"/></g></g><g transform="translate(182 127) rotate(200) scale(1.1711308155462712)"><g opacity="0.137" fill="none" stroke="#6f56ff" stroke-width="2"><circle cx="0" cy="0" r="18"/><path d="M-18,0H18 M0,-18V18"/><path d="M-12,-12 Q0,-5 12,-12 M-12,12 Q0,5 12,12"/></g></g><g transform="translate(830 225) rotate(178) scale(1.1967036370094066)"><g opacity="0.134" fill="#6f56ff"><circle cx="0" cy="0" r="3"/><path d="M0,-12 L3,-3 L12,0 L3,3 L0,12 L-3,3 L-12,0 L-3,-3 Z"/></g></g><g transform="translate(436 786) rotate(263) scale(1.1286883061018314)"><g opacity="0.169" fill="none" stroke="#6f56ff" stroke-width="2"><circle cx="0" cy="0" r="18"/><path d="M-18,0H18 M0,-18V18"/><path d="M-12,-12 Q0,-5 12,-12 M-12,12 Q0,5 12,12"/></g></g><g transform="translate(524 116) rotate(280) scale(0.8368814750479365)"><g stroke="#6f56ff" stroke-width="2.5" stroke-linecap="round" stroke-linejoin="round" opacity="0.17" fill="none"><path d="M0,-16 L4,-4 L16,0 L4,4 L0,16 L-4,4 L-16,0 L-4,-4 Z"/></g></g><g transform="translate(524 355) rotate(224) scale(0.9501886210765949)"><g opacity="0.169" fill="none" stroke="#6f56ff" stroke-width="2.4" stroke-linejoin="round"><path d="M-16,-10 h14 a6,6 0 0 1 6,6 v18 h-14 a6,6 0 0 0 -6,6 v-24 a6,6 0 0 1 6,-6z"/><path d="M16,-10 h-14 a6,6 0 0 0 -6,6 v18 h14 a6,6 0 0 1 6,6 v-24 a6,6 0 0 0 -6,-6z"/></g></g><g transform="translate(160 608) rotate(156) scale(1.2485959648875322)"><g opacity="0.149" fill="none" stroke="#6f56ff" stroke-width="2.4"><polygon points="0,-20 20,16 -20,16"/></g></g><g transform="translate(328 1290) rotate(198) scale(1.305792726878189)"><g opacity="0.128" fill="#6f56ff"><circle cx="0" cy="0" r="3"/><path d="M0,-12 L3,-3 L12,0 L3,3 L0,12 L-3,3 L-12,0 L-3,-3 Z"/></g></g><g transform="translate(262 1158) rotate(186) scale(1.1985975900379346)"><g opacity="0.172" fill="none" stroke="#6f56ff" stroke-width="2.4" stroke-linejoin="round"><path d="M-16,-10 h14 a6,6 0 0 1 6,6 v18 h-14 a6,6 0 0 0 -6,6 v-24 a6,6 0 0 1 6,-6z"/><path d="M16,-10 h-14 a6,6 0 0 0 -6,6 v18 h14 a6,6 0 0 1 6,6 v-24 a6,6 0 0 0 -6,-6z"/></g></g><g transform="translate(43 300) rotate(17) scale(1.1516522866959291)"><g opacity="0.172" fill="#6f56ff" font-family="Arial, Helvetica, sans-serif" font-size="22" font-weight="700"><text x="-30" y="-6">x² + y²</text><text x="-30" y="18">= r²</text></g></g><g transform="translate(389 1104) rotate(247) scale(1.185127246416585)"><g opacity="0.144" fill="#6f56ff"><circle cx="0" cy="0" r="3"/><path d="M0,-12 L3,-3 L12,0 L3,3 L0,12 L-3,3 L-12,0 L-3,-3 Z"/></g></g><g transform="translate(443 862) rotate(35) scale(1.0223503655857389)"><g opacity="0.162" fill="none" stroke="#6f56ff" stroke-width="2.4"><circle cx="0" cy="0" r="12"/><ellipse cx="0" cy="0" rx="24" ry="8" transform="rotate(-18)"/></g></g><g transform="translate(629 753) rotate(79) scale(1.224991510943792)"><g opacity="0.14" fill="none" stroke="#6f56ff" stroke-width="2.2"><ellipse cx="0" cy="0" rx="22" ry="9"/><ellipse cx="0" cy="0" rx="22" ry="9" transform="rotate(60)"/><ellipse cx="0" cy="0" rx="22" ry="9" transform="rotate(120)"/><circle cx="0" cy="0" r="4" fill="#6f56ff"/></g></g><g transform="translate(398 589) rotate(252) scale(1.0598350452315184)"><g opacity="0.136" fill="none" stroke="#6f56ff" stroke-width="2.4"><path d="M-28,0 C-18,-12 -8,-12 2,0 S22,12 32,0"/></g></g><g transform="translate(391 1217) rotate(217) scale(1.0510487125824652)"><g opacity="0.168" fill="none" stroke="#6f56ff" stroke-width="2.4" stroke-linejoin="round"><path d="M-20,10 L10,-20 L20,-10 L-10,20 L-24,24 Z"/><path d="M6,-24 L24,-6"/></g></g><g transform="translate(680 1079) rotate(332) scale(1.312624252354895)"><g opacity="0.147" fill="none" stroke="#6f56ff" stroke-width="2.4"><circle cx="0" cy="0" r="12"/><ellipse cx="0" cy="0" rx="24" ry="8" transform="rotate(-18)"/></g></g><g transform="translate(110 689) rotate(267) scale(1.0480896191344318)"><g opacity="0.155" fill="none" stroke="#6f56ff" stroke-width="2.4" stroke-linejoin="round"><path d="M-16,-10 h14 a6,6 0 0 1 6,6 v18 h-14 a6,6 0 0 0 -6,6 v-24 a6,6 0 0 1 6,-6z"/><path d="M16,-10 h-14 a6,6 0 0 0 -6,6 v18 h14 a6,6 0 0 1 6,6 v-24 a6,6 0 0 0 -6,-6z"/></g></g><g transform="translate(247 779) rotate(317) scale(0.8300147230159249)"><g opacity="0.17" fill="none" stroke="#6f56ff" stroke-width="2"><rect x="-18" y="-18" width="36" height="36" rx="4"/><path d="M-6,-18V18 M6,-18V18 M-18,-6H18 M-18,6H18"/></g></g><rect width="100%" height="100%" fill="#000" opacity="0.12"/>
</svg>