<svg xmlns="http://www.w3.org/2000/svg" width="900" height="1600" viewBox="0 0 900 1600">
<defs><linearGradient id="bg" x1="0%" y1="0%" x2="100%" y2="100%">
<stop offset="0%" stop-color="#090807"/>
<stop offset="100%" stop-color="#1a1308"/>
</linearGradient><radialGradient id="glow" cx="80%" cy="20%" r="60%">
<stop offset="0%" stop-color="#d8a84a" stop-opacity="0.22"/>
<stop offset="60%" stop-color="#d8a84a" stop-opacity="0.06"/>
<stop offset="100%" stop-color="#d8a84a" stop-opacity="0"/>
</radialGradient></defs><rect width="100%" height="100%" fill="url(#bg)"/><rect width="100%" height="100%" fill="url(#glow)"/><rect x="-900" y="-100" width="80" height="1800" transform="rotate(-18 -900 0)" fill="#ffffff" opacity="0.03"/><rect x="-780" y="-100" width="80" height="1800" transform="rotate(-18 -780 0)" fill="#ffffff" opacity="0.03"/><rect x="-660" y="-100" width="80" height="1800" transform="rotate(-18 -660 0)" fill="#ffffff" opacity="0.03"/><rect x="-540" y="-100" width="80" height="1800" transform="rotate(-18 -540 0)" fill="#ffffff" opacity="0.03"/><rect x="-420" y="-100" width="80" height="1800" transform="rotate(-18 -420 0)" fill="#ffffff" opacity="0.03"/><rect x="-300" y="-100" width="80" height="1800" transform="rotate(-18 -300 0)" fill="#ffffff" opacity="0.03"/><rect x="-180" y="-100" width="80" height="1800" transform="rotate(-18 -180 0)" fill="#ffffff" opacity="0.03"/><rect x="-60" y="-100" width="80" height="1800" transform="rotate(-18 -60 0)" fill="#ffffff" opacity="0.03"/><rect x="60" y="-100" width="80" height="1800" transform="rotate(-18 60 0)" fill="#ffffff" opacity="0.03"/><rect x="180" y="-100" width="80" height="1800" transform="rotate(-18 180 0)" fill="#ffffff" opacity="0.03"/><rect x="300" y="-100" width="80" height="1800" transform="rotate(-18 300 0)" fill="#ffffff" opacity="0.03"/><rect x="420" y="-100" width="80" height="1800" transform="rotate(-18 420 0)" fill="#ffffff" opacity="0.03"/><rect x="540" y="-100" width="80" height="1800" transform="rotate(-18 540 0)" fill="#ffffff" opacity="0.03"/><rect x="660" y="-100" width="80" height="1800" transform="rotate(-18 660 0)" fill="#ffffff" opacity="0.03"/><rect x="780" y="-100" width="80" height="1800" transform="rotate(-18 780 0)" fill="#ffffff" opacity="0.03"/><rect x="900" y="-100" width="80" height="1800" transform="rotate(-18 900 0)" fill="#ffffff" opacity="0.03"/><rect x="1020" y="-100" width="80" height="1800" transform="rotate(-18 1020 0)" fill="#ffffff" opacity="0.03"/><rect x="1140" y="-100" width="80" height="1800" transform="rotate(-18 1140 0)" fill="#ffffff" opacity="0.03"/><rect x="1260" y="-100" width="80" height="1800" transform="rotate(-18 1260 0)" fill="#ffffff" opacity="0.03"/><rect x="1380" y="-100" width="80" height="1800" transform="rotate(-18 1380 0)" fill="#ffffff" opacity="0.03"/><rect x="1500" y="-100" width="80" height="1800" transform="rotate(-18 1500 0)" fill="#ffffff" opacity="0.03"/><rect x="1620" y="-100" width="80" height="1800" transform="rotate(-18 1620 0)" fill="#ffffff" opacity="0.03"/><rect x="1740" y="-100" width="80" height="1800" transform="rotate(-18 1740 0)" fill="#ffffff" opacity="0.03"/><g transform="translate(139 1291) rotate(333) scale(1.1715513143921132)"><g opacity="0.181" fill="none" stroke="#d8a84a" stroke-width="2.4"><polygon points="0,-20 20,16 -20,16"/></g></g><g transform="translate(307 1535) rotate(37) scale(0.9034653080598235)"><g opacity="0.158" fill="#d8a84a"><circle cx="0" cy="0" r="3"/><path d="M0,-12 L3,-3 L12,0 L3,3 L0,12 L-3,3 L-12,0 L-3,-3 Z"/></g></g><g transform="translate(507 1431) rotate(201) scale(1.2736931848377302)"><g opacity="0.149" fill="none" stroke="#d8a84a" stroke-width="2.4"><circle cx="0" cy="0" r="12"/><ellipse cx="0" cy="0" rx="24" ry="8" transform="rotate(-18)"/></g></g><g transform="translate(353 763) rotate(184) scale(1.2347104769665107)"><g opacity="0.166" fill="#d8a84a"><circle cx="0" cy="0" r="3"/><path d="M0,-12 L3,-3 L12,0 L3,3 L0,12 L-3,3 L-12,0 L-3,-3 Z"/></g></g><g transform="translate(183 359) rotate(339) scale(1.0807996034567)"><g opacity="0.144" fill="#d8a84a" font-family="Arial, Helvetica, sans-serif" font-size="22" font-weight="700"><text x="-30" y="-6">x² + y²</text><text x="-30" y="18">= r²</text></g></g><g transform="translate(697 173) rotate(172) scale(0.8238158073789975)"><g stroke="#d8a84a" stroke-width="2.5" stroke-linecap="round" stroke-linejoin="round" opacity="0.14" fill="none"><path d="M0,-16 L4,-4 L16,0 L4,4 L0,16 L-4,4 L-16,0 L-4,-4 Z"/></g></g><g transform="translate(239 812) rotate(224) scale(0.9922054793683528)"><g opacity="0.141" fill="none" stroke="#d8a84a" stroke-width="2"><circle cx="0" cy="0" r="18"/><path d="M-18,0H18 M0,-18V18"/><path d="M-12,-12 Q0,-5 12,-12 M-12,12 Q0,5 12,12"/></g></g><g transform="translate(686 1436) rotate(296) scale(1.2816929345348393)"><g opacity="0.167" fill="none" stroke="#d8a84a" stroke-width="2"><circle cx="0" cy="0" r="18"/><path d="M-18,0H18 M0,-18V18"/><path d="M-12,-12 Q0,-5 12,-12 M-12,12 Q0,5 12,12"/></g></g><g transform="translate(402 401) rotate(249) scale(1.2689084265887998)"><g opacity="0.168" fill="none" stroke="#d8a84a" stroke-width="2.4"><polygon points="0,-20 20,16 -20,16"/></g></g><g transform="translate(307 956) rotate(248) scale(1.1244702915170248)"><g opacity="0.16" fill="#d8a84a" font-family="Arial, Helvetica, sans-serif" font-size="22" font-weight="700"><text x="-30" y="-6">x² + y²</text><text x="-30" y="18">= r²</text></g></g><g transform="translate(134 278) rotate(45) scale(1.2408768072689917)"><g opacity="0.149" fill="#d8a84a" font-family="Arial, Helvetica, sans-serif" font-size="22" font-weight="700"><text x="-30" y="-6">x² + y²</text><text x="-30" y="18">= r²</text></g></g><g transform="translate(58 361) rotate(58) scale(1.1942047450476991)"><g opacity="0.161" fill="#d8a84a"><circle cx="0" cy="0" r="3"/><path d="M0,-12 L3,-3 L12,0 L3,3 L0,12 L-3,3 L-12,0 L-3,-3 Z"/></g></g><g transform="translate(125 900) rotate(350) scale(1.038262456538262)"><g opacity="0.162" fill="none" stroke="#d8a84a" stroke-width="2.4" stroke-linejoin="round"><path d="M-16,-10 h14 a6,6 0 0 1 6,6 v18 h-14 a6,6 0 0 0 -6,6 v-24 a6,6 0 0 1 6,-6z"/><path d="M16,-10 h-14 a6,6 0 0 0 -6,6 v18 h14 a6,6 0 0 1 6,6 v-24 a6,6 0 0 0 -6,-6z"/></g></g><g transform="translate(496 663) rotate(223) scale(1.0409225618533464)"><g opacity="0.165" fill="none" stroke="#d8a84a" stroke-width="2"><rect x="-18" y="-18" width="36" height="36" rx="4"/><path d="M-6,-18V18 M6,-18V18 M-18,-6H18 M-18,6H18"/></g></g><g transform="translate(127 555) rotate(120) scale(1.0347108962867162)"><g opacity="0.178" fill="none" stroke="#d8a84a" stroke-width="2.4" stroke-linejoin="round"><path d="M-20,10 L10,-20 L20,-10 L-10,20 L-24,24 Z"/><path d="M6,-24 L24,-6"/></g></g><g transform="translate(530 166) rotate(250) scale(1.0914551815835996)"><g opacity="0.163" fill="#d8a84a" font-family="Arial, Helvetica, sans-serif" font-size="22" font-weight="700"><text x="-30" y="-6">x² + y²</text><text x="-30" y="18">= r²</text></g></g><g transform="translate(49 1473) rotate(216) scale(0.9934120369431331)"><g stroke="#d8a84a" stroke-width="2.5" stroke-linecap="round" stroke-linejoin="round" opacity="0.153" fill="none"><path d="M0,-16 L4,-4 L16,0 L4,4 L0,16 L-4,4 L-16,0 L-4,-4 Z"/></g></g><g transform="translate(613 783) rotate(134) scale(1.3134815699057751)"><g opacity="0.151" fill="none" stroke="#d8a84a" stroke-width="2.4"><path d="M-28,0 C-18,-12 -8,-12 2,0 S22,12 32,0"/></g></g><g transform="translate(223 117) rotate(240) scale(1.1270505244726665)"><g opacity="0.141" fill="#d8a84a" font-family="Arial, Helvetica, sans-serif" font-size="22" font-weight="700"><text x="-30" y="-6">x² + y²</text><text x="-30" y="18">= r²</text></g></g><g transform="translate(130 101) rotate(12) scale(0.8654341458340683)"><g stroke="#d8a84a" stroke-width="2.5" stroke-linecap="round" stroke-linejoin="round" opacity="0.164" fill="none"><path d="M0,-16 L4,-4 L16,0 L4,4 L0,16 L-4,4 L-16,0 L-4,-4 Z"/></g></g><g transform="translate(319 1098) rotate(183) scale(1.3116780629960343)"><g opacity="0.141" fill="#d8a84a" font-family="Arial, Helvetica, sans-serif" font-size="22" font-weight="700"><text x="-30" y="-6">x² + y²</text><text x="-30" y="18">= r²</text></g></g><g transform="translate(179 437) rotate(128) scale(0.7510688657911211)"><g opacity="0.149" fill="none" stroke="#d8a84a" stroke-width="2.4"><polygon points="0,-20 20,16 -20,16"/></g></g><g transform="translate(284 455) rotate(169) scale(1.112355904341302)"><g opacity="0.171" fill="#d8a84a" font-family="Arial, Helvetica, sans-serif" font-size="22" font-weight="700"><text x="-30" y="-6">x² + y²</text><text x="-30" y="18">= r²</text></g></g><g transform="translate(407 94) rotate(305) scale(1.0866680275871017)"><g opacity="0.16" fill="none" stroke="#d8a84a" stroke-width="2.4" stroke-linejoin="round"><path d="M-16,-10 h14 a6,6 0 0 1 6,6 v18 h-14 a6,6 0 0 0 -6,6 v-24 a6,6 0 0 1 6,-6z"/><path d="M16,-10 h-14 a6,6 0 0 0 -6,6 v18 h14 a6,6 0 0 1 6,6 v-24 a6,6 0 0 0 -6,-6z"/></g></g><g transform="translate(232 780) rotate(125) scale(1.044144927192227)"><g opacity="0.162" fill="none" stroke="#d8a84a" stroke-width="2"><rect x="-18" y="-18" width="36" height="36" rx="4"/><path d="M-6,-18V18 M6,-18V18 M-18,-6H18 M-18,6H18"/></g></g><g transform="translate(822 673) rotate(313) scale(1.042777472355772)"><g stroke="#d8a84a" stroke-width="2.5" stroke-linecap="round" stroke-linejoin="round" opacity="0.148" fill="none"><path d="M0,-16 L4,-4 L16,0 L4,4 L0,16 L-4,4 L-16,0 L-4,-4 Z"/></g></g><g transform="translate(469 990) rotate(45) scale(1.2141320377860965)"><g opacity="0.175" fill="#d8a84a" font-family="Arial, Helvetica, sans-serif" font-size="22" font-weight="700"><text x="-30" y="-6">x² + y²</text><text x="-30" y="18">= r²</text></g></g><g transform="translate(163 440) rotate(72) scale(0.7827362747143628)"><g opacity="0.148" fill="none" stroke="#d8a84a" stroke-width="2.2"><ellipse cx="0" cy="0" rx="22" ry="9"/><ellipse cx="0" cy="0" rx="22" ry="9" transform="rotate(60)"/><ellipse cx="0" cy="0" rx="22" ry="9" transform="rotate(120)"/><circle cx="0" cy="0" r="4" fill="#d8a84a"/></g></g><g transform="translate(488 287) rotate(194) scale(1.0768142397565035)"><g stroke="#d8a84a" stroke-width="2.5" stroke-linecap="round" stroke-linejoin="round" opacity="0.174" fill="none"><path d="M0,-16 L4,-4 L16,0 L4,4 L0,16 L-4,4 L-16,0 L-4,-4 Z"/></g></g><g transform="translate(292 1471) rotate(217) scale(0.9711600134131697)"><g opacity="0.142" fill="none" stroke="#d8a84a" stroke-width="2"><rect x="-18" y="-18" width="36" height="36" rx="4"/><path d="M-6,-18V18 M6,-18V18 M-18,-6H18 M-18,6H18"/></g></g><g transform="translate(257 214) rotate(88) scale(0.8378913125777415)"><g opacity="0.137" fill="none" stroke="#d8a84a" stroke-width="2.4" stroke-linejoin="round"><path d="M-16,-10 h14 a6,6 0 0 1 6,6 v18 h-14 a6,6 0 0 0 -6,6 v-24 a6,6 0 0 1 6,-6z"/><path d="M16,-10 h-14 a6,6 0 0 0 -6,6 v18 h14 a6,6 0 0 1 6,6 v-24 a6,6 0 0 0 -6,-6z"/></g></g><g transform="translate(257 1354) rotate(180) scale(1.266065555765615)"><g opacity="0.168" fill="none" stroke="#d8a84a" stroke-width="2"><circle cx="0" cy="0" r="18"/><path d="M-18,0H18 M0,-18V18"/><path d="M-12,-12 Q0,-5 12,-12 M-12,12 Q0,5 12,12"/></g></g><g transform="translate(600 1470) rotate(208) scale(0.7777736510837947)"><g opacity="0.149" fill="none" stroke="#d8a84a" stroke-width="2.4" stroke-linejoin="round"><path d="M-20,10 L10,-20 L20,-10 L-10,20 L-24,24 Z"/><path d="M6,-24 L24,-6"/></g></g><g transform="translate(511 690) rotate(187) scale(1.3099980044814021)"><g stroke="#d8a84a" stroke-width="2.5" stroke-linecap="round" stroke-linejoin="round" opacity="0.184" fill="none"><path d="M0,-16 L4,-4 L16,0 L4,4 L0,16 L-4,4 L-16,0 L-4,-4 Z"/></g></g><g transform="translate(687 1356) rotate(49) scale(1.0754649050079284)"><g opacity="0.156" fill="none" stroke="#d8a84a" stroke-width="2.4"><circle cx="0" cy="0" r="12"/><ellipse cx="0" cy="0" rx="24" ry="8" transform="rotate(-18)"/></g></g><g transform="translate(147 135) rotate(87) scale(1.2473260297420405)"><g opacity="0.136" fill="none" stroke="#d8a84a" stroke-width="2.4"><circle cx="0" cy="0" r="12"/><ellipse cx="0" cy="0" rx="24" ry="8" transform="rotate(-18)"/></g></g><g transform="translate(722 655) rotate(194) scale(0.7769199779712364)"><g opacity="0.143" fill="none" stroke="#d8a84a" stroke-width="2"><circle cx="0" cy="0" r="18"/><path d="M-18,0H18 M0,-18V18"/><path d="M-12,-12 Q0,-5 12,-12 M-12,12 Q0,5 12,12"/></g></g><g transform="translate(490 989) rotate(253) scale(1.2205569946666976)"><g opacity="0.137" fill="none" stroke="#d8a84a" stroke-width="2.4"><polygon points="0,-20 20,16 -20,16"/></g></g><g transform="translate(113 585) rotate(348) scale(0.8989036527956292)"><g opacity="0.167" fill="none" stroke="#d8a84a" stroke-width="2"><circle cx="0" cy="0" r="18"/><path d="M-18,0H18 M0,-18V18"/><path d="M-12,-12 Q0,-5 12,-12 M-12,12 Q0,5 12,12"/></g></g><g transform="translate(30 1153) rotate(120) scale(1.3478976434308705)"><g stroke="#d8a84a" stroke-width="2.5" stroke-linecap="round" stroke-linejoin="round" opacity="0.181" fill="none"><path d="M0,-16 L4,-4 L16,0 L4,4 L0,16 L-4,4 L-16,0 L-4,-4 Z"/></g></g><g transform="translate(144 282) rotate(228) scale(0.988650970380857)"><g opacity="0.153" fill="#d8a84a" font-family="Arial, Helvetica, sans-serif" font-size="22" font-weight="700"><text x="-30" y="-6">x² + y²</text><text x="-30" y="18">= r²</text></g></g><g transform="translate(371 89) rotate(144) scale(0.901402035967369)"><g opacity="0.175" fill="none" stroke="#d8a84a" stroke-width="2"><circle cx="0" cy="0" r="18"/><path d="M-18,0H18 M0,-18V18"/><path d="M-12,-12 Q0,-5 12,-12 M-12,12 Q0,5 12,12"/></g></g><g transform="translate(752 666) rotate(268) scale(1.3307358885538112)"><g opacity="0.176" fill="none" stroke="#d8a84a" stroke-width="2"><circle cx="0" cy="0" r="18"/><path d="M-18,0H18 M0,-18V18"/><path d="M-12,-12 Q0,-5 12,-12 M-12,12 Q0,5 12,12"/></g></g><g transform="translate(483 82) rotate(35) scale(1.2904174341831087)"><g opacity="0.152" fill="none" stroke="#d8a84a" stroke-width="2.4" stroke-linejoin="round"><path d="M-20,10 L10,-20 L20,-10 L-10,20 L-24,24 Z"/><path d="M6,-24 L24,-6"/></g></g><g transform="translate(423 1261) rotate(348) scale(1.0035037603233852)"><g opacity="0.183" fill="none" stroke="#d8a84a" stroke-width="2"><rect x="-18" y="-18" width="36" height="36" rx="4"/><path d="M-6,-18V18 M6,-18V18 M-18,-6H18 M-18,6H18"/></g></g><g transform="translate(830 92) rotate(243) scale(0.975964342930051)"><g opacity="0.155" fill="none" stroke="#d8a84a" stroke-width="2.2"><ellipse cx="0" cy="0" rx="22" ry="9"/><ellipse cx="0" cy="0" rx="22" ry="9" transform="rotate(60)"/><ellipse cx="0" cy="0" rx="22" ry="9" transform="rotate(120)"/><circle cx="0" cy="0" r="4" fill="#d8a84a"/></g></g><g transform="translate(562 276) rotate(120) scale(1.2061190272363498)"><g opacity="0.148" fill="none" stroke="#d8a84a" stroke-width="2.2"><ellipse cx="0" cy="0" rx="22" ry="9"/><ellipse cx="0" cy="0" rx="22" ry="9" transform="rotate(60)"/><ellipse cx="0" cy="0" rx="22" ry="9" transform="rotate(120)"/><circle cx="0" cy="0" r="4" fill="#d8a84a"/></g></g><g transform="translate(106 535) rotate(232) scale(1.2248150114289238)"><g opacity="0.163" fill="#d8a84a"><circle cx="0" cy="0" r="3"/><path d="M0,-12 L3,-3 L12,0 L3,3 L0,12 L-3,3 L-12,0 L-3,-3 Z"/></g></g><g transform="translate(58 418) rotate(351) scale(1.1551096594873345)"><g opacity="0.167" fill="none" stroke="#d8a84a" stroke-width="2"><circle cx="0" cy="0" r="18"/><path d="M-18,0H18 M0,-18V18"/><path d="M-12,-12 Q0,-5 12,-12 M-12,12 Q0,5 12,12"/></g></g><g transform="translate(823 898) rotate(34) scale(1.0257475743810132)"><g opacity="0.14" fill="#d8a84a"><circle cx="0" cy="0" r="3"/><path d="M0,-12 L3,-3 L12,0 L3,3 L0,12 L-3,3 L-12,0 L-3,-3 Z"/></g></g><g transform="translate(765 406) rotate(235) scale(1.180829623517519)"><g opacity="0.154" fill="none" stroke="#d8a84a" stroke-width="2.2"><ellipse cx="0" cy="0" rx="22" ry="9"/><ellipse cx="0" cy="0" rx="22" ry="9" transform="rotate(60)"/><ellipse cx="0" cy="0" rx="22" ry="9" transform="rotate(120)"/><circle cx="0" cy="0" r="4" fill="#d8a84a"/></g></g><g transform="translate(646 775) rotate(348) scale(1.0337824041458608)"><g opacity="0.152" fill="none" stroke="#d8a84a" stroke-width="2.4"><path d="M-28,0 C-18,-12 -8,-12 2,0 S22,12 32,0"/></g></g><g transform="translate(577 666) rotate(312) scale(0.7798889466035409)"><g opacity="0.158" fill="#d8a84a"><circle cx="0" cy="0" r="3"/><path d="M0,-12 L3,-3 L12,0 L3,3 L0,12 L-3,3 L-12,0 L-3,-3 Z"/></g></g><g transform="translate(869 593) rotate(156) scale(1.035271399784718)"><g opacity="0.138" fill="none" stroke="#d8a84a" stroke-width="2.4"><polygon points="0,-20 20,16 -20,16"/></g></g><g transform="translate(86 1097) rotate(157) scale(0.7682883054726605)"><g opacity="0.154" fill="none" stroke="#d8a84a" stroke-width="2.4" stroke-linejoin="round"><path d="M-20,10 L10,-20 L20,-10 L-10,20 L-24,24 Z"/><path d="M6,-24 L24,-6"/></g></g><g transform="translate(332 785) rotate(89) scale(1.1524876801335506)"><g opacity="0.174" fill="none" stroke="#d8a84a" stroke-width="2.4" stroke-linejoin="round"><path d="M-16,-10 h14 a6,6 0 0 1 6,6 v18 h-14 a6,6 0 0 0 -6,6 v-24 a6,6 0 0 1 6,-6z"/><path d="M16,-10 h-14 a6,6 0 0 0 -6,6 v18 h14 a6,6 0 0 1 6,6 v-24 a6,6 0 0 0 -6,-6z"/></g></g><g transform="translate(54 458) rotate(34) scale(1.0542966608844053)"><g opacity="0.178" fill="none" stroke="#d8a84a" stroke-width="2.4" stroke-linejoin="round"><path d="M-16,-10 h14 a6,6 0 0 1 6,6 v18 h-14 a6,6 0 0 0 -6,6 v-24 a6,6 0 0 1 6,-6z"/><path d="M16,-10 h-14 a6,6 0 0 0 -6,6 v18 h14 a6,6 0 0 1 6,6 v-24 a6,6 0 0 0 -6,-6z"/></g></g><g transform="translate(263 663) rotate(302) scale(1.2593359279756475)"><g opacity="0.176" fill="none" stroke="#d8a84a" stroke-width="2.4" stroke-linejoin="round"><path d="M-20,10 L10,-20 L20,-10 L-10,20 L-24,24 Z"/><path d="M6,-24 L24,-6"/></g></g><g transform="translate(861 747) rotate(126) scale(0.856489984772003)"><g opacity="0.166" fill="none" stroke="#d8a84a" stroke-width="2.4"><polygon points="0,-20 20,16 -20,16"/></g></g><g transform="translate(373 1098) rotate(221) scale(1.3494110672705446)"><g opacity="0.137" fill="none" stroke="#d8a84a" stroke-width="2.4"><circle cx="0" cy="0" r="12"/><ellipse cx="0" cy="0" rx="24" ry="8" transform="rotate(-18)"/></g></g><g transform="translate(342 587) rotate(101) scale(0.853107119950043)"><g opacity="0.141" fill="none" stroke="#d8a84a" stroke-width="2.2"><ellipse cx="0" cy="0" rx="22" ry="9"/><ellipse cx="0" cy="0" rx="22" ry="9" transform="rotate(60)"/><ellipse cx="0" cy="0" rx="22" ry="9" transform="rotate(120)"/><circle cx="0" cy="0" r="4" fill="#d8a84a"/></g></g><g transform="translate(786 493) rotate(144) scale(1.3094658511336275)"><g opacity="0.157" fill="none" stroke="#d8a84a" stroke-width="2"><circle cx="0" cy="0" r="18"/><path d="M-18,0H18 M0,-18V18"/><path d="M-12,-12 Q0,-5 12,-12 M-12,12 Q0,5 12,12"/></g></g><g transform="translate(425 261) rotate(309) scale(1.0130729555584008)"><g opacity="0.17" fill="none" stroke="#d8a84a" stroke-width="2.4"><circle cx="0" cy="0" r="12"/><ellipse cx="0" cy="0" rx="24" ry="8" transform="rotate(-18)"/></g></g><g transform="translate(588 525) rotate(278) scale(0.7855419587700234)"><g opacity="0.162" fill="none" stroke="#d8a84a" stroke-width="2.2"><ellipse cx="0" cy="0" rx="22" ry="9"/><ellipse cx="0" cy="0" rx="22" ry="9" transform="rotate(60)"/><ellipse cx="0" cy="0" rx="22" ry="9" transform="rotate(120)"/><circle cx="0" cy="0" r="4" fill="#d8a84a"/></g></g><g transform="translate(799 1234) rotate(272) scale(0.9761088305480968)"><g opacity="0.142" fill="none" stroke="#d8a84a" stroke-width="2.4"><circle cx="0" cy="0" r="12"/><ellipse cx="0" cy="0" rx="24" ry="8" transform="rotate(-18)"/></g></g><g transform="translate(671 1006) rotate(41) scale(1.2482370888542818)"><g opacity="0.178" fill="none" stroke="#d8a84a" stroke-width="2.4"><circle cx="0" cy="0" r="12"/><ellipse cx="0" cy="0" rx="24" ry="8" transform="rotate(-18)"/></g></g><g transform="translate(625 502) rotate(54) scale(0.8855251233348764)"><g opacity="0.159" fill="none" stroke="#d8a84a" stroke-width="2.4" stroke-linejoin="round"><path d="M-16,-10 h14 a6,6 0 0 1 6,6 v18 h-14 a6,6 0 0 0 -6,6 v-24 a6,6 0 0 1 6,-6z"/><path d="M16,-10 h-14 a6,6 0 0 0 -6,6 v18 h14 a6,6 0 0 1 6,6 v-24 a6,6 0 0 0 -6,-6z"/></g></g><g transform="translate(512 679) rotate(33) scale(0.9815441899512832)"><g opacity="0.168" fill="#d8a84a"><circle cx="0" cy="0" r="3"/><path d="M0,-12 L3,-3 L12,0 L3,3 L0,12 L-3,3 L-12,0 L-3,-3 Z"/></g></g><g transform="translate(399 279) rotate(173) scale(1.289279644960122)"><g opacity="0.144" fill="#d8a84a" font-family="Arial, Helvetica, sans-serif" font-size="22" font-weight="700"><text x="-30" y="-6">x² + y²</text><text x="-30" y="18">= r²</text></g></g><g transform="translate(525 1500) rotate(323) scale(1.2176584173684697)"><g opacity="0.138" fill="none" stroke="#d8a84a" stroke-width="2.4"><path d="M-28,0 C-18,-12 -8,-12 2,0 S22,12 32,0"/></g></g><g transform="translate(492 681) rotate(31) scale(0.7589224297604183)"><g opacity="0.154" fill="none" stroke="#d8a84a" stroke-width="2.4"><polygon points="0,-20 20,16 -20,16"/></g></g><g transform="translate(279 1136) rotate(261) scale(0.8124150813522883)"><g opacity="0.18" fill="none" stroke="#d8a84a" stroke-width="2.4" stroke-linejoin="round"><path d="M-16,-10 h14 a6,6 0 0 1 6,6 v18 h-14 a6,6 0 0 0 -6,6 v-24 a6,6 0 0 1 6,-6z"/><path d="M16,-10 h-14 a6,6 0 0 0 -6,6 v18 h14 a6,6 0 0 1 6,6 v-24 a6,6 0 0 0 -6,-6z"/></g></g><g transform="translate(466 132) rotate(34) scale(0.8570342067732915)"><g opacity="0.166" fill="none" stroke="#d8a84a" stroke-width="2"><rect x="-18" y="-18" width="36" height="36" rx="4"/><path d="M-6,-18V18 M6,-18V18 M-18,-6H18 M-18,6H18"/></g></g><g transform="translate(523 417) rotate(359) scale(1.0848479116540624)"><g opacity="0.143" fill="none" stroke="#d8a84a" stroke-width="2"><rect x="-18" y="-18" width="36" height="36" rx="4"/><path d="M-6,-18V18 M6,-18V18 M-18,-6H18 M-18,6H18"/></g></g><g transform="translate(601 1139) rotate(215) scale(1.203136046364599)"><g opacity="0.17" fill="#d8a84a" font-family="Arial, Helvetica, sans-serif" font-size="22" font-weight="700"><text x="-30" y="-6">x² + y²</text><text x="-30" y="18">= r²</text></g></g><g transform="translate(855 637) rotate(356) scale(0.8799163036196694)"><g opacity="0.142" fill="#d8a84a"><circle cx="0" cy="0" r="3"/><path d="M0,-12 L3,-3 L12,0 L3,3 L0,12 L-3,3 L-12,0 L-3,-3 Z"/></g></g><g transform="translate(278 1078) rotate(104) scale(1.1301028537442106)"><g opacity="0.146" fill="none" stroke="#d8a84a" stroke-width="2.4" stroke-linejoin="round"><path d="M-16,-10 h14 a6,6 0 0 1 6,6 v18 h-14 a6,6 0 0 0 -6,6 v-24 a6,6 0 0 1 6,-6z"/><path d="M16,-10 h-14 a6,6 0 0 0 -6,6 v18 h14 a6,6 0 0 1 6,6 v-24 a6,6 0 0 0 -6,-6z"/></g></g><g transform="translate(289 260) rotate(5) scale(0.8904631475900717)"><g opacity="0.172" fill="none" stroke="#d8a84a" stroke-width="2.2"><ellipse cx="0" cy="0" rx="22" ry="9"/><ellipse cx="0" cy="0" rx="22" ry="9" transform="rotate(60)"/><ellipse cx="0" cy="0" rx="22" ry="9" transform="rotate(120)"/><circle cx="0" cy="0" r="4" fill="#d8a84a"/></g></g><g transform="translate(705 665) rotate(141) scale(0.7707044403219806)"><g opacity="0.148" fill="none" stroke="#d8a84a" stroke-width="2.4"><polygon points="0,-20 20,16 -20,16"/></g></g><g transform="translate(371 306) rotate(141) scale(0.8878178360399879)"><g opacity="0.136" fill="none" stroke="#d8a84a" stroke-width="2.4" stroke-linejoin="round"><path d="M-16,-10 h14 a6,6 0 0 1 6,6 v18 h-14 a6,6 0 0 0 -6,6 v-24 a6,6 0 0 1 6,-6z"/><path d="M16,-10 h-14 a6,6 0 0 0 -6,6 v18 h14 a6,6 0 0 1 6,6 v-24 a6,6 0 0 0 -6,-6z"/></g></g><g transform="translate(868 891) rotate(140) scale(1.1308740086952342)"><g opacity="0.158" fill="none" stroke="#d8a84a" stroke-width="2.4" stroke-linejoin="round"><path d="M-20,10 L10,-20 L20,-10 L-10,20 L-24,24 Z"/><path d="M6,-24 L24,-6"/></g></g><g transform="translate(277 1558) rotate(77) scale(0.7796993516150972)"><g opacity="0.146" fill="none" stroke="#d8a84a" stroke-width="2.4" stroke-linejoin="round"><path d="M-20,10 L10,-20 L20,-10 L-10,20 L-24,24 Z"/><path d="M6,-24 L24,-6"/></g></g><g transform="translate(778 1342) rotate(102) scale(0.9061164601740832)"><g opacity="0.164" fill="none" stroke="#d8a84a" stroke-width="2.4"><polygon points="0,-20 20,16 -20,16"/></g></g><g transform="translate(701 657) rotate(252) scale(1.3033181911299168)"><g opacity="0.155" fill="#d8a84a"><circle cx="0" cy="0" r="3"/><path d="M0,-12 L3,-3 L12,0 L3,3 L0,12 L-3,3 L-12,0 L-3,-3 Z"/></g></g><g transform="translate(519 1119) rotate(217) scale(0.9449406399780794)"><g opacity="0.15" fill="none" stroke="#d8a84a" stroke-width="2.4"><path d="M-28,0 C-18,-12 -8,-12 2,0 S22,12 32,0"/></g></g><rect width="100%" height="100%" fill="#000" opacity="0.12"/>
</svg>