<svg xmlns="http://www.w3.org/2000/svg" width="900" height="1600" viewBox="0 0 900 1600">
<defs><linearGradient id="bg" x1="0%" y1="0%" x2="100%" y2="100%">
<stop offset="0%" stop-color="#0d3b66"/>
<stop offset="50%" stop-color="#1a936f"/>
<stop offset="100%" stop-color="#f5b700"/>
</linearGradient></defs><rect width="100%" height="100%" fill="url(#bg)"/><path d="M900,1370 Q878,1083 825,878" stroke="#ffffff" stroke-opacity="0.07" stroke-width="4.487025464902264" fill="none" stroke-linecap="round"/><path d="M-96,1231 Q319,920 759,607" stroke="#ffffff" stroke-opacity="0.07" stroke-width="3.863546051684219" fill="none" stroke-linecap="round"/><path d="M749,464 Q245,861 35,1018" stroke="#ffffff" stroke-opacity="0.07" stroke-width="2.299481737549376" fill="none" stroke-linecap="round"/><path d="M940,244 Q470,559 296,924" stroke="#ffffff" stroke-opacity="0.07" stroke-width="3.557680879641991" fill="none" stroke-linecap="round"/><path d="M438,551 Q613,1065 846,1500" stroke="#ffffff" stroke-opacity="0.07" stroke-width="2.6447829398779525" fill="none" stroke-linecap="round"/><path d="M959,325 Q968,183 804,137" stroke="#ffffff" stroke-opacity="0.07" stroke-width="2.8991955860622336" fill="none" stroke-linecap="round"/><path d="M981,906 Q804,771 607,843" stroke="#ffffff" stroke-opacity="0.07" stroke-width="3.2128327924196043" fill="none" stroke-linecap="round"/><path d="M582,1195 Q385,1589 364,1679" stroke="#ffffff" stroke-opacity="0.07" stroke-width="1.6784492432539915" fill="none" stroke-linecap="round"/><path d="M-61,674 Q275,582 866,355" stroke="#ffffff" stroke-opacity="0.07" stroke-width="1.9491832493721861" fill="none" stroke-linecap="round"/><path d="M765,656 Q827,1102 568,1499" stroke="#ffffff" stroke-opacity="0.07" stroke-width="4.18505446465395" fill="none" stroke-linecap="round"/><path d="M248,974 Q311,537 170,135" stroke="#ffffff" stroke-opacity="0.07" stroke-width="2.7975595667553046" fill="none" stroke-linecap="round"/><path d="M650,300 Q370,969 27,1479" stroke="#ffffff" stroke-opacity="0.07" stroke-width="2.1757570201828313" fill="none" stroke-linecap="round"/><path d="M799,504 Q721,375 612,606" stroke="#ffffff" stroke-opacity="0.07" stroke-width="2.664686764943018" fill="none" stroke-linecap="round"/><path d="M743,189 Q226,478 -5,492" stroke="#ffffff" stroke-opacity="0.07" stroke-width="1.7194709641071158" fill="none" stroke-linecap="round"/><path d="M959,1166 Q612,720 643,68" stroke="#ffffff" stroke-opacity="0.07" stroke-width="1.607377401949145" fill="none" stroke-linecap="round"/><path d="M749,-5 Q617,594 320,1039" stroke="#ffffff" stroke-opacity="0.07" stroke-width="2.1872221154490363" fill="none" stroke-linecap="round"/><path d="M725,1492 Q628,905 925,171" stroke="#ffffff" stroke-opacity="0.07" stroke-width="1.979097255491668" fill="none" stroke-linecap="round"/><path d="M391,-23 Q344,450 230,1305" stroke="#ffffff" stroke-opacity="0.07" stroke-width="3.69933153939472" fill="none" stroke-linecap="round"/><path d="M936,142 Q741,43 417,-3" stroke="#ffffff" stroke-opacity="0.07" stroke-width="2.3064232234380753" fill="none" stroke-linecap="round"/><path d="M-52,955 Q284,1089 573,906" stroke="#ffffff" stroke-opacity="0.07" stroke-width="1.807065725040725" fill="none" stroke-linecap="round"/><path d="M839,1587 Q837,1074 568,801" stroke="#ffffff" stroke-opacity="0.07" stroke-width="3.6742203517284384" fill="none" stroke-linecap="round"/><path d="M830,744 Q757,416 828,212" stroke="#ffffff" stroke-opacity="0.07" stroke-width="2.5886499987324116" fill="none" stroke-linecap="round"/><circle cx="164" cy="910" r="120" fill="none" stroke="#ffffff" stroke-opacity="0.05" stroke-width="2"/><circle cx="197" cy="1007" r="180" fill="none" stroke="#ffffff" stroke-opacity="0.05" stroke-width="2"/><circle cx="410" cy="693" r="240" fill="none" stroke="#ffffff" stroke-opacity="0.05" stroke-width="2"/><circle cx="320" cy="138" r="320" fill="none" stroke="#ffffff" stroke-opacity="0.05" stroke-width="2"/><path d="M0,0 Q40,400 0,800 T0,1600" stroke="#fff" stroke-opacity="0.04" stroke-width="2" fill="none"/><path d="M80,0 Q120,400 80,800 T80,1600" stroke="#fff" stroke-opacity="0.04" stroke-width="2" fill="none"/><path d="M160,0 Q200,400 160,800 T160,1600" stroke="#fff" stroke-opacity="0.04" stroke-width="2" fill="none"/><path d="M240,0 Q280,400 240,800 T240,1600" stroke="#fff" stroke-opacity="0.04" stroke-width="2" fill="none"/><path d="M320,0 Q360,400 320,800 T320,1600" stroke="#fff" stroke-opacity="0.04" stroke-width="2" fill="none"/><path d="M400,0 Q440,400 400,800 T400,1600" stroke="#fff" stroke-opacity="0.04" stroke-width="2" fill="none"/><path d="M480,0 Q520,400 480,800 T480,1600" stroke="#fff" stroke-opacity="0.04" stroke-width="2" fill="none"/><path d="M560,0 Q600,400 560,800 T560,1600" stroke="#fff" stroke-opacity="0.04" stroke-width="2" fill="none"/><path d="M640,0 Q680,400 640,800 T640,1600" stroke="#fff" stroke-opacity="0.04" stroke-width="2" fill="none"/><path d="M720,0 Q760,400 720,800 T720,1600" stroke="#fff" stroke-opacity="0.04" stroke-width="2" fill="none"/><path d="M800,0 Q840,400 800,800 T800,1600" stroke="#fff" stroke-opacity="0.04" stroke-width="2" fill="none"/><path d="M880,0 Q920,400 880,800 T880,1600" stroke="#fff" stroke-opacity="0.04" stroke-width="2" fill="none"/><path d="M960,0 Q1000,400 960,800 T960,1600" stroke="#fff" stroke-opacity="0.04" stroke-width="2" fill="none"/>
</svg>