<svg xmlns="http://www.w3.org/2000/svg" width="900" height="1600" viewBox="0 0 900 1600">
<defs><linearGradient id="bg" x1="0%" y1="0%" x2="100%" y2="100%">
<stop offset="0%" stop-color="#1b0033"/>
<stop offset="50%" stop-color="#4b0082"/>
<stop offset="100%" stop-color="#006d77"/>
</linearGradient></defs><rect width="100%" height="100%" fill="url(#bg)"/><path d="M329,17 Q76,292 -10,320" stroke="#ffffff" stroke-opacity="0.07" stroke-width="2.534093989758639" fill="none" stroke-linecap="round"/><path d="M411,686 Q348,965 547,881" stroke="#ffffff" stroke-opacity="0.07" stroke-width="4.198324628730499" fill="none" stroke-linecap="round"/><path d="M501,1362 Q358,1456 42,1281" stroke="#ffffff" stroke-opacity="0.07" stroke-width="1.7990280018419695" fill="none" stroke-linecap="round"/><path d="M323,1052 Q275,1309 514,1438" stroke="#ffffff" stroke-opacity="0.07" stroke-width="3.60250550787534" fill="none" stroke-linecap="round"/><path d="M-86,1113 Q157,1194 452,1493" stroke="#ffffff" stroke-opacity="0.07" stroke-width="1.6123981713121074" fill="none" stroke-linecap="round"/><path d="M556,1253 Q786,1039 739,570" stroke="#ffffff" stroke-opacity="0.07" stroke-width="3.652964388867751" fill="none" stroke-linecap="round"/><path d="M575,1248 Q91,755 -28,260" stroke="#ffffff" stroke-opacity="0.07" stroke-width="2.6943076457860853" fill="none" stroke-linecap="round"/><path d="M641,1670 Q452,772 -96,-98" stroke="#ffffff" stroke-opacity="0.07" stroke-width="3.6985567339572043" fill="none" stroke-linecap="round"/><path d="M559,531 Q646,423 428,396" stroke="#ffffff" stroke-opacity="0.07" stroke-width="4.310073499956033" fill="none" stroke-linecap="round"/><path d="M-46,261 Q100,521 427,944" stroke="#ffffff" stroke-opacity="0.07" stroke-width="4.374030786073081" fill="none" stroke-linecap="round"/><path d="M-58,521 Q127,418 64,297" stroke="#ffffff" stroke-opacity="0.07" stroke-width="3.8753768907399464" fill="none" stroke-linecap="round"/><path d="M796,1128 Q434,1418 -24,1648" stroke="#ffffff" stroke-opacity="0.07" stroke-width="3.844656986434617" fill="none" stroke-linecap="round"/><path d="M598,295 Q617,272 633,198" stroke="#ffffff" stroke-opacity="0.07" stroke-width="2.6822811337132606" fill="none" stroke-linecap="round"/><path d="M739,634 Q548,675 129,1015" stroke="#ffffff" stroke-opacity="0.07" stroke-width="4.282821978958715" fill="none" stroke-linecap="round"/><path d="M784,1461 Q311,1167 -37,646" stroke="#ffffff" stroke-opacity="0.07" stroke-width="4.240671082813126" fill="none" stroke-linecap="round"/><path d="M-39,1572 Q-99,1657 114,1591" stroke="#ffffff" stroke-opacity="0.07" stroke-width="4.24340389119937" fill="none" stroke-linecap="round"/><path d="M-98,236 Q-24,159 295,378" stroke="#ffffff" stroke-opacity="0.07" stroke-width="2.9475345663839683" fill="none" stroke-linecap="round"/><path d="M228,100 Q198,798 149,1111" stroke="#ffffff" stroke-opacity="0.07" stroke-width="4.003214682070988" fill="none" stroke-linecap="round"/><path d="M975,1565 Q652,1678 486,1534" stroke="#ffffff" stroke-opacity="0.07" stroke-width="1.5121685453226932" fill="none" stroke-linecap="round"/><path d="M637,220 Q531,330 486,729" stroke="#ffffff" stroke-opacity="0.07" stroke-width="4.2497643070508015" fill="none" stroke-linecap="round"/><path d="M239,428 Q32,124 200,207" stroke="#ffffff" stroke-opacity="0.07" stroke-width="3.138498930429222" fill="none" stroke-linecap="round"/><path d="M468,759 Q236,927 247,1015" stroke="#ffffff" stroke-opacity="0.07" stroke-width="4.2223753082954" fill="none" stroke-linecap="round"/><circle cx="187" cy="198" r="120" fill="none" stroke="#ffffff" stroke-opacity="0.05" stroke-width="2"/><circle cx="99" cy="1249" r="180" fill="none" stroke="#ffffff" stroke-opacity="0.05" stroke-width="2"/><circle cx="273" cy="177" r="240" fill="none" stroke="#ffffff" stroke-opacity="0.05" stroke-width="2"/><circle cx="251" cy="1220" r="320" fill="none" stroke="#ffffff" stroke-opacity="0.05" stroke-width="2"/><path d="M0,0 Q40,400 0,800 T0,1600" stroke="#fff" stroke-opacity="0.04" stroke-width="2" fill="none"/><path d="M80,0 Q120,400 80,800 T80,1600" stroke="#fff" stroke-opacity="0.04" stroke-width="2" fill="none"/><path d="M160,0 Q200,400 160,800 T160,1600" stroke="#fff" stroke-opacity="0.04" stroke-width="2" fill="none"/><path d="M240,0 Q280,400 240,800 T240,1600" stroke="#fff" stroke-opacity="0.04" stroke-width="2" fill="none"/><path d="M320,0 Q360,400 320,800 T320,1600" stroke="#fff" stroke-opacity="0.04" stroke-width="2" fill="none"/><path d="M400,0 Q440,400 400,800 T400,1600" stroke="#fff" stroke-opacity="0.04" stroke-width="2" fill="none"/><path d="M480,0 Q520,400 480,800 T480,1600" stroke="#fff" stroke-opacity="0.04" stroke-width="2" fill="none"/><path d="M560,0 Q600,400 560,800 T560,1600" stroke="#fff" stroke-opacity="0.04" stroke-width="2" fill="none"/><path d="M640,0 Q680,400 640,800 T640,1600" stroke="#fff" stroke-opacity="0.04" stroke-width="2" fill="none"/><path d="M720,0 Q760,400 720,800 T720,1600" stroke="#fff" stroke-opacity="0.04" stroke-width="2" fill="none"/><path d="M800,0 Q840,400 800,800 T800,1600" stroke="#fff" stroke-opacity="0.04" stroke-width="2" fill="none"/><path d="M880,0 Q920,400 880,800 T880,1600" stroke="#fff" stroke-opacity="0.04" stroke-width="2" fill="none"/><path d="M960,0 Q1000,400 960,800 T960,1600" stroke="#fff" stroke-opacity="0.04" stroke-width="2" fill="none"/>
</svg>