<svg xmlns="http://www.w3.org/2000/svg" width="900" height="1600" viewBox="0 0 900 1600">
<defs><linearGradient id="bg" x1="0%" y1="0%" x2="100%" y2="100%">
<stop offset="0%" stop-color="#d8ff9e"/>
<stop offset="50%" stop-color="#94ffd6"/>
<stop offset="100%" stop-color="#ffd39a"/>
</linearGradient><radialGradient id="glow" cx="80%" cy="20%" r="60%">
<stop offset="0%" stop-color="#fff1c4" stop-opacity="0.22"/>
<stop offset="60%" stop-color="#fff1c4" stop-opacity="0.06"/>
<stop offset="100%" stop-color="#fff1c4" stop-opacity="0"/>
</radialGradient></defs><rect width="100%" height="100%" fill="url(#bg)"/><rect width="100%" height="100%" fill="url(#glow)"/><g transform="translate(271 651) rotate(202) scale(0.8118996205384295)"><g opacity="0.134" fill="none" stroke="#5d8a4d" stroke-width="2.4" stroke-linejoin="round"><path d="M-20,10 L10,-20 L20,-10 L-10,20 L-24,24 Z"/><path d="M6,-24 L24,-6"/></g></g><g transform="translate(98 70) rotate(148) scale(0.9909546086910449)"><g stroke="#5d8a4d" stroke-width="2.5" stroke-linecap="round" stroke-linejoin="round" opacity="0.137" fill="none"><path d="M0,-16 L4,-4 L16,0 L4,4 L0,16 L-4,4 L-16,0 L-4,-4 Z"/></g></g><g transform="translate(579 767) rotate(88) scale(0.9160095860648702)"><g opacity="0.139" fill="none" stroke="#5d8a4d" stroke-width="2.4"><circle cx="0" cy="0" r="12"/><ellipse cx="0" cy="0" rx="24" ry="8" transform="rotate(-18)"/></g></g><g transform="translate(56 1342) rotate(139) scale(1.233991408021394)"><g opacity="0.135" fill="none" stroke="#5d8a4d" stroke-width="2.2"><ellipse cx="0" cy="0" rx="22" ry="9"/><ellipse cx="0" cy="0" rx="22" ry="9" transform="rotate(60)"/><ellipse cx="0" cy="0" rx="22" ry="9" transform="rotate(120)"/><circle cx="0" cy="0" r="4" fill="#5d8a4d"/></g></g><g transform="translate(326 1314) rotate(190) scale(1.270392991894013)"><g opacity="0.166" fill="none" stroke="#5d8a4d" stroke-width="2.4"><circle cx="0" cy="0" r="12"/><ellipse cx="0" cy="0" rx="24" ry="8" transform="rotate(-18)"/></g></g><g transform="translate(375 1405) rotate(127) scale(0.9827591099111159)"><g opacity="0.139" fill="none" stroke="#5d8a4d" stroke-width="2.4" stroke-linejoin="round"><path d="M-16,-10 h14 a6,6 0 0 1 6,6 v18 h-14 a6,6 0 0 0 -6,6 v-24 a6,6 0 0 1 6,-6z"/><path d="M16,-10 h-14 a6,6 0 0 0 -6,6 v18 h14 a6,6 0 0 1 6,6 v-24 a6,6 0 0 0 -6,-6z"/></g></g><g transform="translate(316 212) rotate(280) scale(1.3167466741856413)"><g opacity="0.128" fill="#5d8a4d" font-family="Arial, Helvetica, sans-serif" font-size="22" font-weight="700"><text x="-30" y="-6">x² + y²</text><text x="-30" y="18">= r²</text></g></g><g transform="translate(328 1202) rotate(159) scale(1.1729441637500402)"><g opacity="0.136" fill="none" stroke="#5d8a4d" stroke-width="2.4"><polygon points="0,-20 20,16 -20,16"/></g></g><g transform="translate(463 1256) rotate(231) scale(0.922922142286791)"><g opacity="0.138" fill="none" stroke="#5d8a4d" stroke-width="2.4" stroke-linejoin="round"><path d="M-16,-10 h14 a6,6 0 0 1 6,6 v18 h-14 a6,6 0 0 0 -6,6 v-24 a6,6 0 0 1 6,-6z"/><path d="M16,-10 h-14 a6,6 0 0 0 -6,6 v18 h14 a6,6 0 0 1 6,6 v-24 a6,6 0 0 0 -6,-6z"/></g></g><g transform="translate(295 118) rotate(236) scale(0.7986452760382979)"><g opacity="0.172" fill="#5d8a4d"><circle cx="0" cy="0" r="3"/><path d="M0,-12 L3,-3 L12,0 L3,3 L0,12 L-3,3 L-12,0 L-3,-3 Z"/></g></g><g transform="translate(561 1124) rotate(358) scale(1.13879884990114)"><g opacity="0.134" fill="none" stroke="#5d8a4d" stroke-width="2.4"><path d="M-28,0 C-18,-12 -8,-12 2,0 S22,12 32,0"/></g></g><g transform="translate(719 430) rotate(103) scale(0.7898630816316365)"><g opacity="0.156" fill="#5d8a4d"><circle cx="0" cy="0" r="3"/><path d="M0,-12 L3,-3 L12,0 L3,3 L0,12 L-3,3 L-12,0 L-3,-3 Z"/></g></g><g transform="translate(312 406) rotate(301) scale(0.9634984527644113)"><g opacity="0.156" fill="none" stroke="#5d8a4d" stroke-width="2.4"><path d="M-28,0 C-18,-12 -8,-12 2,0 S22,12 32,0"/></g></g><g transform="translate(233 692) rotate(31) scale(0.8105876632307157)"><g opacity="0.14" fill="none" stroke="#5d8a4d" stroke-width="2.2"><ellipse cx="0" cy="0" rx="22" ry="9"/><ellipse cx="0" cy="0" rx="22" ry="9" transform="rotate(60)"/><ellipse cx="0" cy="0" rx="22" ry="9" transform="rotate(120)"/><circle cx="0" cy="0" r="4" fill="#5d8a4d"/></g></g><g transform="translate(626 1290) rotate(62) scale(1.267259427476304)"><g opacity="0.17" fill="none" stroke="#5d8a4d" stroke-width="2.4"><path d="M-28,0 C-18,-12 -8,-12 2,0 S22,12 32,0"/></g></g><g transform="translate(327 970) rotate(182) scale(0.7654056476480269)"><g opacity="0.168" fill="none" stroke="#5d8a4d" stroke-width="2.4"><circle cx="0" cy="0" r="12"/><ellipse cx="0" cy="0" rx="24" ry="8" transform="rotate(-18)"/></g></g><g transform="translate(322 1535) rotate(167) scale(1.1551279349321169)"><g stroke="#5d8a4d" stroke-width="2.5" stroke-linecap="round" stroke-linejoin="round" opacity="0.142" fill="none"><path d="M0,-16 L4,-4 L16,0 L4,4 L0,16 L-4,4 L-16,0 L-4,-4 Z"/></g></g><g transform="translate(359 343) rotate(210) scale(1.2151436611350892)"><g opacity="0.158" fill="none" stroke="#5d8a4d" stroke-width="2"><circle cx="0" cy="0" r="18"/><path d="M-18,0H18 M0,-18V18"/><path d="M-12,-12 Q0,-5 12,-12 M-12,12 Q0,5 12,12"/></g></g><g transform="translate(109 630) rotate(227) scale(1.1206377857539738)"><g opacity="0.134" fill="#5d8a4d" font-family="Arial, Helvetica, sans-serif" font-size="22" font-weight="700"><text x="-30" y="-6">x² + y²</text><text x="-30" y="18">= r²</text></g></g><g transform="translate(420 1256) rotate(169) scale(1.3270881734441429)"><g opacity="0.128" fill="none" stroke="#5d8a4d" stroke-width="2"><circle cx="0" cy="0" r="18"/><path d="M-18,0H18 M0,-18V18"/><path d="M-12,-12 Q0,-5 12,-12 M-12,12 Q0,5 12,12"/></g></g><g transform="translate(75 961) rotate(185) scale(0.8517402262919731)"><g opacity="0.153" fill="#5d8a4d" font-family="Arial, Helvetica, sans-serif" font-size="22" font-weight="700"><text x="-30" y="-6">x² + y²</text><text x="-30" y="18">= r²</text></g></g><g transform="translate(479 454) rotate(106) scale(1.004371511563047)"><g opacity="0.13" fill="none" stroke="#5d8a4d" stroke-width="2.4"><circle cx="0" cy="0" r="12"/><ellipse cx="0" cy="0" rx="24" ry="8" transform="rotate(-18)"/></g></g><g transform="translate(86 1539) rotate(346) scale(0.8512021627822586)"><g opacity="0.155" fill="none" stroke="#5d8a4d" stroke-width="2.4" stroke-linejoin="round"><path d="M-16,-10 h14 a6,6 0 0 1 6,6 v18 h-14 a6,6 0 0 0 -6,6 v-24 a6,6 0 0 1 6,-6z"/><path d="M16,-10 h-14 a6,6 0 0 0 -6,6 v18 h14 a6,6 0 0 1 6,6 v-24 a6,6 0 0 0 -6,-6z"/></g></g><g transform="translate(589 1034) rotate(164) scale(1.0995990436482073)"><g stroke="#5d8a4d" stroke-width="2.5" stroke-linecap="round" stroke-linejoin="round" opacity="0.133" fill="none"><path d="M0,-16 L4,-4 L16,0 L4,4 L0,16 L-4,4 L-16,0 L-4,-4 Z"/></g></g><g transform="translate(571 629) rotate(209) scale(1.2142752751569708)"><g opacity="0.172" fill="#5d8a4d"><circle cx="0" cy="0" r="3"/><path d="M0,-12 L3,-3 L12,0 L3,3 L0,12 L-3,3 L-12,0 L-3,-3 Z"/></g></g><g transform="translate(519 443) rotate(210) scale(0.8951172997302451)"><g opacity="0.129" fill="none" stroke="#5d8a4d" stroke-width="2.4" stroke-linejoin="round"><path d="M-20,10 L10,-20 L20,-10 L-10,20 L-24,24 Z"/><path d="M6,-24 L24,-6"/></g></g><g transform="translate(461 938) rotate(219) scale(0.8991515844200655)"><g opacity="0.15" fill="none" stroke="#5d8a4d" stroke-width="2.2"><ellipse cx="0" cy="0" rx="22" ry="9"/><ellipse cx="0" cy="0" rx="22" ry="9" transform="rotate(60)"/><ellipse cx="0" cy="0" rx="22" ry="9" transform="rotate(120)"/><circle cx="0" cy="0" r="4" fill="#5d8a4d"/></g></g><g transform="translate(62 105) rotate(124) scale(0.9026361968519719)"><g opacity="0.137" fill="none" stroke="#5d8a4d" stroke-width="2.4"><polygon points="0,-20 20,16 -20,16"/></g></g><g transform="translate(267 884) rotate(72) scale(1.27182570961872)"><g opacity="0.13" fill="none" stroke="#5d8a4d" stroke-width="2.4"><path d="M-28,0 C-18,-12 -8,-12 2,0 S22,12 32,0"/></g></g><g transform="translate(352 1187) rotate(291) scale(0.8201136052186968)"><g opacity="0.171" fill="none" stroke="#5d8a4d" stroke-width="2"><rect x="-18" y="-18" width="36" height="36" rx="4"/><path d="M-6,-18V18 M6,-18V18 M-18,-6H18 M-18,6H18"/></g></g><g transform="translate(698 1369) rotate(20) scale(1.2725388666578727)"><g opacity="0.145" fill="none" stroke="#5d8a4d" stroke-width="2.4" stroke-linejoin="round"><path d="M-20,10 L10,-20 L20,-10 L-10,20 L-24,24 Z"/><path d="M6,-24 L24,-6"/></g></g><g transform="translate(470 461) rotate(293) scale(1.3079566234669369)"><g opacity="0.143" fill="none" stroke="#5d8a4d" stroke-width="2.4" stroke-linejoin="round"><path d="M-16,-10 h14 a6,6 0 0 1 6,6 v18 h-14 a6,6 0 0 0 -6,6 v-24 a6,6 0 0 1 6,-6z"/><path d="M16,-10 h-14 a6,6 0 0 0 -6,6 v18 h14 a6,6 0 0 1 6,6 v-24 a6,6 0 0 0 -6,-6z"/></g></g><g transform="translate(702 995) rotate(328) scale(1.2297027955980488)"><g opacity="0.164" fill="none" stroke="#5d8a4d" stroke-width="2.4"><path d="M-28,0 C-18,-12 -8,-12 2,0 S22,12 32,0"/></g></g><g transform="translate(570 470) rotate(351) scale(1.1428393131556986)"><g opacity="0.143" fill="#5d8a4d" font-family="Arial, Helvetica, sans-serif" font-size="22" font-weight="700"><text x="-30" y="-6">x² + y²</text><text x="-30" y="18">= r²</text></g></g><g transform="translate(431 1046) rotate(143) scale(0.794628340863926)"><g opacity="0.158" fill="#5d8a4d"><circle cx="0" cy="0" r="3"/><path d="M0,-12 L3,-3 L12,0 L3,3 L0,12 L-3,3 L-12,0 L-3,-3 Z"/></g></g><g transform="translate(75 838) rotate(65) scale(1.2893818331638536)"><g opacity="0.158" fill="#5d8a4d" font-family="Arial, Helvetica, sans-serif" font-size="22" font-weight="700"><text x="-30" y="-6">x² + y²</text><text x="-30" y="18">= r²</text></g></g><g transform="translate(91 372) rotate(237) scale(1.1627116425418398)"><g opacity="0.149" fill="none" stroke="#5d8a4d" stroke-width="2"><circle cx="0" cy="0" r="18"/><path d="M-18,0H18 M0,-18V18"/><path d="M-12,-12 Q0,-5 12,-12 M-12,12 Q0,5 12,12"/></g></g><g transform="translate(443 829) rotate(1) scale(0.8811248785168524)"><g opacity="0.169" fill="none" stroke="#5d8a4d" stroke-width="2.2"><ellipse cx="0" cy="0" rx="22" ry="9"/><ellipse cx="0" cy="0" rx="22" ry="9" transform="rotate(60)"/><ellipse cx="0" cy="0" rx="22" ry="9" transform="rotate(120)"/><circle cx="0" cy="0" r="4" fill="#5d8a4d"/></g></g><g transform="translate(43 1279) rotate(59) scale(1.2758541506111878)"><g opacity="0.164" fill="none" stroke="#5d8a4d" stroke-width="2"><rect x="-18" y="-18" width="36" height="36" rx="4"/><path d="M-6,-18V18 M6,-18V18 M-18,-6H18 M-18,6H18"/></g></g><g transform="translate(831 810) rotate(281) scale(1.2767267222210856)"><g stroke="#5d8a4d" stroke-width="2.5" stroke-linecap="round" stroke-linejoin="round" opacity="0.167" fill="none"><path d="M0,-16 L4,-4 L16,0 L4,4 L0,16 L-4,4 L-16,0 L-4,-4 Z"/></g></g><g transform="translate(236 361) rotate(169) scale(1.1528890756142642)"><g opacity="0.162" fill="none" stroke="#5d8a4d" stroke-width="2.4"><polygon points="0,-20 20,16 -20,16"/></g></g><g transform="translate(512 1108) rotate(40) scale(1.0137853996145434)"><g stroke="#5d8a4d" stroke-width="2.5" stroke-linecap="round" stroke-linejoin="round" opacity="0.159" fill="none"><path d="M0,-16 L4,-4 L16,0 L4,4 L0,16 L-4,4 L-16,0 L-4,-4 Z"/></g></g><g transform="translate(145 1031) rotate(131) scale(1.086483764043688)"><g opacity="0.162" fill="none" stroke="#5d8a4d" stroke-width="2"><circle cx="0" cy="0" r="18"/><path d="M-18,0H18 M0,-18V18"/><path d="M-12,-12 Q0,-5 12,-12 M-12,12 Q0,5 12,12"/></g></g><g transform="translate(72 772) rotate(267) scale(0.7978139509301461)"><g stroke="#5d8a4d" stroke-width="2.5" stroke-linecap="round" stroke-linejoin="round" opacity="0.141" fill="none"><path d="M0,-16 L4,-4 L16,0 L4,4 L0,16 L-4,4 L-16,0 L-4,-4 Z"/></g></g><g transform="translate(385 183) rotate(278) scale(0.8010846061700642)"><g opacity="0.145" fill="none" stroke="#5d8a4d" stroke-width="2.4" stroke-linejoin="round"><path d="M-20,10 L10,-20 L20,-10 L-10,20 L-24,24 Z"/><path d="M6,-24 L24,-6"/></g></g><g transform="translate(836 667) rotate(249) scale(0.9831783737258639)"><g opacity="0.132" fill="none" stroke="#5d8a4d" stroke-width="2"><rect x="-18" y="-18" width="36" height="36" rx="4"/><path d="M-6,-18V18 M6,-18V18 M-18,-6H18 M-18,6H18"/></g></g><g transform="translate(147 1301) rotate(187) scale(1.2290121490598152)"><g opacity="0.172" fill="none" stroke="#5d8a4d" stroke-width="2.4"><polygon points="0,-20 20,16 -20,16"/></g></g><g transform="translate(455 1486) rotate(34) scale(1.2159517427276345)"><g opacity="0.167" fill="#5d8a4d"><circle cx="0" cy="0" r="3"/><path d="M0,-12 L3,-3 L12,0 L3,3 L0,12 L-3,3 L-12,0 L-3,-3 Z"/></g></g><g transform="translate(230 1334) rotate(245) scale(0.9313832801420229)"><g opacity="0.133" fill="none" stroke="#5d8a4d" stroke-width="2"><rect x="-18" y="-18" width="36" height="36" rx="4"/><path d="M-6,-18V18 M6,-18V18 M-18,-6H18 M-18,6H18"/></g></g><g transform="translate(601 372) rotate(83) scale(0.9729617664558611)"><g opacity="0.159" fill="none" stroke="#5d8a4d" stroke-width="2.4" stroke-linejoin="round"><path d="M-16,-10 h14 a6,6 0 0 1 6,6 v18 h-14 a6,6 0 0 0 -6,6 v-24 a6,6 0 0 1 6,-6z"/><path d="M16,-10 h-14 a6,6 0 0 0 -6,6 v18 h14 a6,6 0 0 1 6,6 v-24 a6,6 0 0 0 -6,-6z"/></g></g><g transform="translate(364 1042) rotate(132) scale(1.265892837965123)"><g opacity="0.171" fill="none" stroke="#5d8a4d" stroke-width="2.4"><polygon points="0,-20 20,16 -20,16"/></g></g><g transform="translate(34 1485) rotate(331) scale(0.8512246996412968)"><g opacity="0.133" fill="#5d8a4d" font-family="Arial, Helvetica, sans-serif" font-size="22" font-weight="700"><text x="-30" y="-6">x² + y²</text><text x="-30" y="18">= r²</text></g></g><g transform="translate(143 1026) rotate(307) scale(1.2217321368258596)"><g opacity="0.151" fill="none" stroke="#5d8a4d" stroke-width="2.4" stroke-linejoin="round"><path d="M-20,10 L10,-20 L20,-10 L-10,20 L-24,24 Z"/><path d="M6,-24 L24,-6"/></g></g><g transform="translate(563 532) rotate(150) scale(0.9967061199884271)"><g opacity="0.138" fill="none" stroke="#5d8a4d" stroke-width="2.4"><path d="M-28,0 C-18,-12 -8,-12 2,0 S22,12 32,0"/></g></g><g transform="translate(214 1313) rotate(27) scale(0.7510155007693172)"><g opacity="0.168" fill="none" stroke="#5d8a4d" stroke-width="2"><circle cx="0" cy="0" r="18"/><path d="M-18,0H18 M0,-18V18"/><path d="M-12,-12 Q0,-5 12,-12 M-12,12 Q0,5 12,12"/></g></g><g transform="translate(587 986) rotate(290) scale(1.219471880397535)"><g opacity="0.17" fill="#5d8a4d" font-family="Arial, Helvetica, sans-serif" font-size="22" font-weight="700"><text x="-30" y="-6">x² + y²</text><text x="-30" y="18">= r²</text></g></g><g transform="translate(548 932) rotate(226) scale(1.1177997065370948)"><g opacity="0.134" fill="none" stroke="#5d8a4d" stroke-width="2"><rect x="-18" y="-18" width="36" height="36" rx="4"/><path d="M-6,-18V18 M6,-18V18 M-18,-6H18 M-18,6H18"/></g></g><g transform="translate(819 1252) rotate(338) scale(0.9673077329362749)"><g opacity="0.133" fill="none" stroke="#5d8a4d" stroke-width="2.4"><path d="M-28,0 C-18,-12 -8,-12 2,0 S22,12 32,0"/></g></g><g transform="translate(114 1270) rotate(318) scale(0.8363629624637402)"><g opacity="0.14" fill="none" stroke="#5d8a4d" stroke-width="2.4" stroke-linejoin="round"><path d="M-16,-10 h14 a6,6 0 0 1 6,6 v18 h-14 a6,6 0 0 0 -6,6 v-24 a6,6 0 0 1 6,-6z"/><path d="M16,-10 h-14 a6,6 0 0 0 -6,6 v18 h14 a6,6 0 0 1 6,6 v-24 a6,6 0 0 0 -6,-6z"/></g></g><g transform="translate(410 434) rotate(179) scale(1.0955894878233743)"><g opacity="0.155" fill="#5d8a4d"><circle cx="0" cy="0" r="3"/><path d="M0,-12 L3,-3 L12,0 L3,3 L0,12 L-3,3 L-12,0 L-3,-3 Z"/></g></g><g transform="translate(125 187) rotate(91) scale(0.9915284677401882)"><g opacity="0.157" fill="none" stroke="#5d8a4d" stroke-width="2.4"><path d="M-28,0 C-18,-12 -8,-12 2,0 S22,12 32,0"/></g></g><g transform="translate(364 387) rotate(11) scale(0.9303480858353568)"><g opacity="0.128" fill="none" stroke="#5d8a4d" stroke-width="2"><circle cx="0" cy="0" r="18"/><path d="M-18,0H18 M0,-18V18"/><path d="M-12,-12 Q0,-5 12,-12 M-12,12 Q0,5 12,12"/></g></g><g transform="translate(802 211) rotate(50) scale(1.2306626797870668)"><g opacity="0.136" fill="none" stroke="#5d8a4d" stroke-width="2.4" stroke-linejoin="round"><path d="M-16,-10 h14 a6,6 0 0 1 6,6 v18 h-14 a6,6 0 0 0 -6,6 v-24 a6,6 0 0 1 6,-6z"/><path d="M16,-10 h-14 a6,6 0 0 0 -6,6 v18 h14 a6,6 0 0 1 6,6 v-24 a6,6 0 0 0 -6,-6z"/></g></g><g transform="translate(537 1383) rotate(39) scale(1.094318689372467)"><g opacity="0.135" fill="none" stroke="#5d8a4d" stroke-width="2.4"><circle cx="0" cy="0" r="12"/><ellipse cx="0" cy="0" rx="24" ry="8" transform="rotate(-18)"/></g></g><g transform="translate(520 1413) rotate(113) scale(1.2817957062059717)"><g opacity="0.163" fill="none" stroke="#5d8a4d" stroke-width="2"><circle cx="0" cy="0" r="18"/><path d="M-18,0H18 M0,-18V18"/><path d="M-12,-12 Q0,-5 12,-12 M-12,12 Q0,5 12,12"/></g></g><g transform="translate(706 650) rotate(352) scale(1.2616647940627714)"><g opacity="0.167" fill="none" stroke="#5d8a4d" stroke-width="2"><rect x="-18" y="-18" width="36" height="36" rx="4"/><path d="M-6,-18V18 M6,-18V18 M-18,-6H18 M-18,6H18"/></g></g><g transform="translate(273 1033) rotate(158) scale(1.1721536914458253)"><g opacity="0.138" fill="none" stroke="#5d8a4d" stroke-width="2.4"><path d="M-28,0 C-18,-12 -8,-12 2,0 S22,12 32,0"/></g></g><g transform="translate(364 1130) rotate(231) scale(1.126078035815481)"><g opacity="0.15" fill="none" stroke="#5d8a4d" stroke-width="2"><rect x="-18" y="-18" width="36" height="36" rx="4"/><path d="M-6,-18V18 M6,-18V18 M-18,-6H18 M-18,6H18"/></g></g><g transform="translate(867 671) rotate(210) scale(0.9202627633733628)"><g opacity="0.128" fill="none" stroke="#5d8a4d" stroke-width="2"><circle cx="0" cy="0" r="18"/><path d="M-18,0H18 M0,-18V18"/><path d="M-12,-12 Q0,-5 12,-12 M-12,12 Q0,5 12,12"/></g></g><g transform="translate(218 1136) rotate(287) scale(1.0251210437415064)"><g opacity="0.165" fill="none" stroke="#5d8a4d" stroke-width="2"><circle cx="0" cy="0" r="18"/><path d="M-18,0H18 M0,-18V18"/><path d="M-12,-12 Q0,-5 12,-12 M-12,12 Q0,5 12,12"/></g></g><g transform="translate(443 825) rotate(79) scale(1.1239375592526346)"><g opacity="0.131" fill="none" stroke="#5d8a4d" stroke-width="2.4"><polygon points="0,-20 20,16 -20,16"/></g></g><g transform="translate(675 741) rotate(159) scale(1.1122821709345532)"><g opacity="0.162" fill="none" stroke="#5d8a4d" stroke-width="2.4"><circle cx="0" cy="0" r="12"/><ellipse cx="0" cy="0" rx="24" ry="8" transform="rotate(-18)"/></g></g><g transform="translate(525 484) rotate(244) scale(1.1339632984768344)"><g opacity="0.163" fill="none" stroke="#5d8a4d" stroke-width="2"><circle cx="0" cy="0" r="18"/><path d="M-18,0H18 M0,-18V18"/><path d="M-12,-12 Q0,-5 12,-12 M-12,12 Q0,5 12,12"/></g></g><g transform="translate(182 518) rotate(67) scale(0.7914473189378392)"><g stroke="#5d8a4d" stroke-width="2.5" stroke-linecap="round" stroke-linejoin="round" opacity="0.135" fill="none"><path d="M0,-16 L4,-4 L16,0 L4,4 L0,16 L-4,4 L-16,0 L-4,-4 Z"/></g></g><g transform="translate(839 1221) rotate(280) scale(1.1584178192347496)"><g opacity="0.139" fill="none" stroke="#5d8a4d" stroke-width="2.4"><polygon points="0,-20 20,16 -20,16"/></g></g><g transform="translate(566 532) rotate(49) scale(0.8445116210787363)"><g opacity="0.129" fill="none" stroke="#5d8a4d" stroke-width="2.2"><ellipse cx="0" cy="0" rx="22" ry="9"/><ellipse cx="0" cy="0" rx="22" ry="9" transform="rotate(60)"/><ellipse cx="0" cy="0" rx="22" ry="9" transform="rotate(120)"/><circle cx="0" cy="0" r="4" fill="#5d8a4d"/></g></g><g transform="translate(354 197) rotate(31) scale(0.8230627578674037)"><g opacity="0.141" fill="#5d8a4d"><circle cx="0" cy="0" r="3"/><path d="M0,-12 L3,-3 L12,0 L3,3 L0,12 L-3,3 L-12,0 L-3,-3 Z"/></g></g><g transform="translate(676 1467) rotate(76) scale(0.8533945697456289)"><g opacity="0.146" fill="#5d8a4d"><circle cx="0" cy="0" r="3"/><path d="M0,-12 L3,-3 L12,0 L3,3 L0,12 L-3,3 L-12,0 L-3,-3 Z"/></g></g><g transform="translate(163 1482) rotate(286) scale(1.1816600698887156)"><g opacity="0.159" fill="none" stroke="#5d8a4d" stroke-width="2.4"><path d="M-28,0 C-18,-12 -8,-12 2,0 S22,12 32,0"/></g></g><g transform="translate(771 1161) rotate(210) scale(0.843468866508674)"><g opacity="0.137" fill="none" stroke="#5d8a4d" stroke-width="2.4" stroke-linejoin="round"><path d="M-16,-10 h14 a6,6 0 0 1 6,6 v18 h-14 a6,6 0 0 0 -6,6 v-24 a6,6 0 0 1 6,-6z"/><path d="M16,-10 h-14 a6,6 0 0 0 -6,6 v18 h14 a6,6 0 0 1 6,6 v-24 a6,6 0 0 0 -6,-6z"/></g></g><g transform="translate(335 1021) rotate(192) scale(1.0545560407689267)"><g opacity="0.135" fill="none" stroke="#5d8a4d" stroke-width="2.4" stroke-linejoin="round"><path d="M-16,-10 h14 a6,6 0 0 1 6,6 v18 h-14 a6,6 0 0 0 -6,6 v-24 a6,6 0 0 1 6,-6z"/><path d="M16,-10 h-14 a6,6 0 0 0 -6,6 v18 h14 a6,6 0 0 1 6,6 v-24 a6,6 0 0 0 -6,-6z"/></g></g><g transform="translate(292 1084) rotate(349) scale(0.9847941109717766)"><g opacity="0.166" fill="#5d8a4d" font-family="Arial, Helvetica, sans-serif" font-size="22" font-weight="700"><text x="-30" y="-6">x² + y²</text><text x="-30" y="18">= r²</text></g></g><g transform="translate(366 378) rotate(216) scale(0.9820833253648322)"><g stroke="#5d8a4d" stroke-width="2.5" stroke-linecap="round" stroke-linejoin="round" opacity="0.14" fill="none"><path d="M0,-16 L4,-4 L16,0 L4,4 L0,16 L-4,4 L-16,0 L-4,-4 Z"/></g></g><g transform="translate(722 68) rotate(78) scale(0.9323985679153848)"><g opacity="0.135" fill="none" stroke="#5d8a4d" stroke-width="2.4"><circle cx="0" cy="0" r="12"/><ellipse cx="0" cy="0" rx="24" ry="8" transform="rotate(-18)"/></g></g><g transform="translate(653 61) rotate(283) scale(0.8892109315005358)"><g stroke="#5d8a4d" stroke-width="2.5" stroke-linecap="round" stroke-linejoin="round" opacity="0.149" fill="none"><path d="M0,-16 L4,-4 L16,0 L4,4 L0,16 L-4,4 L-16,0 L-4,-4 Z"/></g></g>
</svg>