<svg xmlns="http://www.w3.org/2000/svg" width="900" height="1600" viewBox="0 0 900 1600">
<defs><linearGradient id="bg" x1="0%" y1="0%" x2="100%" y2="100%">
<stop offset="0%" stop-color="#050505"/>
<stop offset="100%" stop-color="#130f14"/>
</linearGradient><radialGradient id="glow" cx="80%" cy="20%" r="60%">
<stop offset="0%" stop-color="#ff7a45" stop-opacity="0.22"/>
<stop offset="60%" stop-color="#ff7a45" stop-opacity="0.06"/>
<stop offset="100%" stop-color="#ff7a45" stop-opacity="0"/>
</radialGradient></defs><rect width="100%" height="100%" fill="url(#bg)"/><rect width="100%" height="100%" fill="url(#glow)"/><g transform="translate(564 878) rotate(187) scale(1.2340144662712076)"><g opacity="0.144" fill="#ff7a45" font-family="Arial, Helvetica, sans-serif" font-size="22" font-weight="700"><text x="-30" y="-6">x² + y²</text><text x="-30" y="18">= r²</text></g></g><g transform="translate(752 1472) rotate(142) scale(1.0741112336280185)"><g opacity="0.18" fill="none" stroke="#ff7a45" stroke-width="2.4"><circle cx="0" cy="0" r="12"/><ellipse cx="0" cy="0" rx="24" ry="8" transform="rotate(-18)"/></g></g><g transform="translate(284 816) rotate(214) scale(1.2391116533267283)"><g opacity="0.177" fill="#ff7a45" font-family="Arial, Helvetica, sans-serif" font-size="22" font-weight="700"><text x="-30" y="-6">x² + y²</text><text x="-30" y="18">= r²</text></g></g><g transform="translate(851 680) rotate(350) scale(1.1343148865386596)"><g opacity="0.143" fill="none" stroke="#ff7a45" stroke-width="2"><rect x="-18" y="-18" width="36" height="36" rx="4"/><path d="M-6,-18V18 M6,-18V18 M-18,-6H18 M-18,6H18"/></g></g><g transform="translate(594 157) rotate(100) scale(0.8339290103879973)"><g opacity="0.178" fill="none" stroke="#ff7a45" stroke-width="2.4" stroke-linejoin="round"><path d="M-16,-10 h14 a6,6 0 0 1 6,6 v18 h-14 a6,6 0 0 0 -6,6 v-24 a6,6 0 0 1 6,-6z"/><path d="M16,-10 h-14 a6,6 0 0 0 -6,6 v18 h14 a6,6 0 0 1 6,6 v-24 a6,6 0 0 0 -6,-6z"/></g></g><g transform="translate(575 1174) rotate(351) scale(1.231076390840953)"><g opacity="0.152" fill="none" stroke="#ff7a45" stroke-width="2.2"><ellipse cx="0" cy="0" rx="22" ry="9"/><ellipse cx="0" cy="0" rx="22" ry="9" transform="rotate(60)"/><ellipse cx="0" cy="0" rx="22" ry="9" transform="rotate(120)"/><circle cx="0" cy="0" r="4" fill="#ff7a45"/></g></g><g transform="translate(156 1495) rotate(158) scale(1.133263908635878)"><g opacity="0.14" fill="none" stroke="#ff7a45" stroke-width="2"><rect x="-18" y="-18" width="36" height="36" rx="4"/><path d="M-6,-18V18 M6,-18V18 M-18,-6H18 M-18,6H18"/></g></g><g transform="translate(515 1341) rotate(72) scale(1.347795709669334)"><g opacity="0.175" fill="#ff7a45"><circle cx="0" cy="0" r="3"/><path d="M0,-12 L3,-3 L12,0 L3,3 L0,12 L-3,3 L-12,0 L-3,-3 Z"/></g></g><g transform="translate(862 1066) rotate(9) scale(1.3019850134985842)"><g opacity="0.154" fill="none" stroke="#ff7a45" stroke-width="2"><rect x="-18" y="-18" width="36" height="36" rx="4"/><path d="M-6,-18V18 M6,-18V18 M-18,-6H18 M-18,6H18"/></g></g><g transform="translate(82 1570) rotate(25) scale(1.193332275843509)"><g opacity="0.154" fill="none" stroke="#ff7a45" stroke-width="2.4" stroke-linejoin="round"><path d="M-20,10 L10,-20 L20,-10 L-10,20 L-24,24 Z"/><path d="M6,-24 L24,-6"/></g></g><g transform="translate(822 40) rotate(122) scale(1.2706732052808611)"><g opacity="0.163" fill="none" stroke="#ff7a45" stroke-width="2.4"><circle cx="0" cy="0" r="12"/><ellipse cx="0" cy="0" rx="24" ry="8" transform="rotate(-18)"/></g></g><g transform="translate(284 1109) rotate(29) scale(1.3244198546992592)"><g opacity="0.139" fill="#ff7a45" font-family="Arial, Helvetica, sans-serif" font-size="22" font-weight="700"><text x="-30" y="-6">x² + y²</text><text x="-30" y="18">= r²</text></g></g><g transform="translate(312 424) rotate(284) scale(1.1985136565740246)"><g opacity="0.163" fill="none" stroke="#ff7a45" stroke-width="2.4"><polygon points="0,-20 20,16 -20,16"/></g></g><g transform="translate(162 542) rotate(178) scale(1.1451390816611426)"><g opacity="0.144" fill="none" stroke="#ff7a45" stroke-width="2.4"><path d="M-28,0 C-18,-12 -8,-12 2,0 S22,12 32,0"/></g></g><g transform="translate(126 1207) rotate(139) scale(1.0970071157026355)"><g opacity="0.136" fill="none" stroke="#ff7a45" stroke-width="2.4"><path d="M-28,0 C-18,-12 -8,-12 2,0 S22,12 32,0"/></g></g><g transform="translate(801 742) rotate(139) scale(0.7615290796778749)"><g opacity="0.166" fill="none" stroke="#ff7a45" stroke-width="2.4" stroke-linejoin="round"><path d="M-20,10 L10,-20 L20,-10 L-10,20 L-24,24 Z"/><path d="M6,-24 L24,-6"/></g></g><g transform="translate(776 436) rotate(38) scale(0.9358728524658517)"><g opacity="0.137" fill="none" stroke="#ff7a45" stroke-width="2.4" stroke-linejoin="round"><path d="M-20,10 L10,-20 L20,-10 L-10,20 L-24,24 Z"/><path d="M6,-24 L24,-6"/></g></g><g transform="translate(607 1105) rotate(206) scale(1.1615989974367271)"><g opacity="0.171" fill="none" stroke="#ff7a45" stroke-width="2.4" stroke-linejoin="round"><path d="M-20,10 L10,-20 L20,-10 L-10,20 L-24,24 Z"/><path d="M6,-24 L24,-6"/></g></g><g transform="translate(634 831) rotate(128) scale(0.8599718937083252)"><g opacity="0.168" fill="none" stroke="#ff7a45" stroke-width="2.4" stroke-linejoin="round"><path d="M-16,-10 h14 a6,6 0 0 1 6,6 v18 h-14 a6,6 0 0 0 -6,6 v-24 a6,6 0 0 1 6,-6z"/><path d="M16,-10 h-14 a6,6 0 0 0 -6,6 v18 h14 a6,6 0 0 1 6,6 v-24 a6,6 0 0 0 -6,-6z"/></g></g><g transform="translate(247 132) rotate(274) scale(1.2552145733234648)"><g opacity="0.175" fill="#ff7a45" font-family="Arial, Helvetica, sans-serif" font-size="22" font-weight="700"><text x="-30" y="-6">x² + y²</text><text x="-30" y="18">= r²</text></g></g><g transform="translate(353 677) rotate(214) scale(0.7796657599275563)"><g opacity="0.169" fill="none" stroke="#ff7a45" stroke-width="2.4"><circle cx="0" cy="0" r="12"/><ellipse cx="0" cy="0" rx="24" ry="8" transform="rotate(-18)"/></g></g><g transform="translate(349 543) rotate(206) scale(1.1444708213080412)"><g opacity="0.14" fill="none" stroke="#ff7a45" stroke-width="2.4" stroke-linejoin="round"><path d="M-20,10 L10,-20 L20,-10 L-10,20 L-24,24 Z"/><path d="M6,-24 L24,-6"/></g></g><g transform="translate(117 1142) rotate(123) scale(1.1319016232161168)"><g opacity="0.162" fill="none" stroke="#ff7a45" stroke-width="2.2"><ellipse cx="0" cy="0" rx="22" ry="9"/><ellipse cx="0" cy="0" rx="22" ry="9" transform="rotate(60)"/><ellipse cx="0" cy="0" rx="22" ry="9" transform="rotate(120)"/><circle cx="0" cy="0" r="4" fill="#ff7a45"/></g></g><g transform="translate(301 1209) rotate(151) scale(0.8480454495610554)"><g stroke="#ff7a45" stroke-width="2.5" stroke-linecap="round" stroke-linejoin="round" opacity="0.171" fill="none"><path d="M0,-16 L4,-4 L16,0 L4,4 L0,16 L-4,4 L-16,0 L-4,-4 Z"/></g></g><g transform="translate(528 1230) rotate(249) scale(0.9856618783970823)"><g opacity="0.163" fill="none" stroke="#ff7a45" stroke-width="2.2"><ellipse cx="0" cy="0" rx="22" ry="9"/><ellipse cx="0" cy="0" rx="22" ry="9" transform="rotate(60)"/><ellipse cx="0" cy="0" rx="22" ry="9" transform="rotate(120)"/><circle cx="0" cy="0" r="4" fill="#ff7a45"/></g></g><g transform="translate(558 1313) rotate(235) scale(1.0170353743913765)"><g opacity="0.147" fill="none" stroke="#ff7a45" stroke-width="2.2"><ellipse cx="0" cy="0" rx="22" ry="9"/><ellipse cx="0" cy="0" rx="22" ry="9" transform="rotate(60)"/><ellipse cx="0" cy="0" rx="22" ry="9" transform="rotate(120)"/><circle cx="0" cy="0" r="4" fill="#ff7a45"/></g></g><g transform="translate(355 416) rotate(306) scale(1.3318553851429766)"><g stroke="#ff7a45" stroke-width="2.5" stroke-linecap="round" stroke-linejoin="round" opacity="0.182" fill="none"><path d="M0,-16 L4,-4 L16,0 L4,4 L0,16 L-4,4 L-16,0 L-4,-4 Z"/></g></g><g transform="translate(621 1193) rotate(27) scale(1.0616664622247851)"><g opacity="0.182" fill="none" stroke="#ff7a45" stroke-width="2.4"><path d="M-28,0 C-18,-12 -8,-12 2,0 S22,12 32,0"/></g></g><g transform="translate(203 1168) rotate(160) scale(0.8886595380886291)"><g opacity="0.144" fill="none" stroke="#ff7a45" stroke-width="2.4"><path d="M-28,0 C-18,-12 -8,-12 2,0 S22,12 32,0"/></g></g><g transform="translate(802 462) rotate(182) scale(0.9320070345721401)"><g opacity="0.164" fill="none" stroke="#ff7a45" stroke-width="2.4" stroke-linejoin="round"><path d="M-20,10 L10,-20 L20,-10 L-10,20 L-24,24 Z"/><path d="M6,-24 L24,-6"/></g></g><g transform="translate(561 246) rotate(98) scale(1.0639838174455205)"><g opacity="0.179" fill="none" stroke="#ff7a45" stroke-width="2"><circle cx="0" cy="0" r="18"/><path d="M-18,0H18 M0,-18V18"/><path d="M-12,-12 Q0,-5 12,-12 M-12,12 Q0,5 12,12"/></g></g><g transform="translate(596 396) rotate(228) scale(1.019628111110492)"><g opacity="0.143" fill="none" stroke="#ff7a45" stroke-width="2.4"><polygon points="0,-20 20,16 -20,16"/></g></g><g transform="translate(592 1002) rotate(150) scale(1.0216831192915143)"><g opacity="0.145" fill="#ff7a45" font-family="Arial, Helvetica, sans-serif" font-size="22" font-weight="700"><text x="-30" y="-6">x² + y²</text><text x="-30" y="18">= r²</text></g></g><g transform="translate(38 987) rotate(168) scale(0.9524066884159055)"><g opacity="0.138" fill="none" stroke="#ff7a45" stroke-width="2.2"><ellipse cx="0" cy="0" rx="22" ry="9"/><ellipse cx="0" cy="0" rx="22" ry="9" transform="rotate(60)"/><ellipse cx="0" cy="0" rx="22" ry="9" transform="rotate(120)"/><circle cx="0" cy="0" r="4" fill="#ff7a45"/></g></g><g transform="translate(130 1090) rotate(7) scale(1.1502845571903655)"><g stroke="#ff7a45" stroke-width="2.5" stroke-linecap="round" stroke-linejoin="round" opacity="0.141" fill="none"><path d="M0,-16 L4,-4 L16,0 L4,4 L0,16 L-4,4 L-16,0 L-4,-4 Z"/></g></g><g transform="translate(757 647) rotate(50) scale(1.1173545071663906)"><g stroke="#ff7a45" stroke-width="2.5" stroke-linecap="round" stroke-linejoin="round" opacity="0.158" fill="none"><path d="M0,-16 L4,-4 L16,0 L4,4 L0,16 L-4,4 L-16,0 L-4,-4 Z"/></g></g><g transform="translate(870 484) rotate(15) scale(1.2704029425202412)"><g opacity="0.174" fill="none" stroke="#ff7a45" stroke-width="2"><rect x="-18" y="-18" width="36" height="36" rx="4"/><path d="M-6,-18V18 M6,-18V18 M-18,-6H18 M-18,6H18"/></g></g><g transform="translate(468 149) rotate(30) scale(1.193002002861375)"><g opacity="0.183" fill="none" stroke="#ff7a45" stroke-width="2.2"><ellipse cx="0" cy="0" rx="22" ry="9"/><ellipse cx="0" cy="0" rx="22" ry="9" transform="rotate(60)"/><ellipse cx="0" cy="0" rx="22" ry="9" transform="rotate(120)"/><circle cx="0" cy="0" r="4" fill="#ff7a45"/></g></g><g transform="translate(298 581) rotate(278) scale(0.9641386688380563)"><g opacity="0.175" fill="none" stroke="#ff7a45" stroke-width="2"><circle cx="0" cy="0" r="18"/><path d="M-18,0H18 M0,-18V18"/><path d="M-12,-12 Q0,-5 12,-12 M-12,12 Q0,5 12,12"/></g></g><g transform="translate(456 860) rotate(269) scale(1.2977608681058386)"><g opacity="0.14" fill="none" stroke="#ff7a45" stroke-width="2.4"><path d="M-28,0 C-18,-12 -8,-12 2,0 S22,12 32,0"/></g></g><g transform="translate(797 98) rotate(145) scale(1.1258616986758971)"><g opacity="0.151" fill="none" stroke="#ff7a45" stroke-width="2.4"><path d="M-28,0 C-18,-12 -8,-12 2,0 S22,12 32,0"/></g></g><g transform="translate(372 290) rotate(124) scale(1.073028171824168)"><g opacity="0.175" fill="none" stroke="#ff7a45" stroke-width="2.4" stroke-linejoin="round"><path d="M-20,10 L10,-20 L20,-10 L-10,20 L-24,24 Z"/><path d="M6,-24 L24,-6"/></g></g><g transform="translate(483 285) rotate(37) scale(0.9029710303990997)"><g opacity="0.156" fill="#ff7a45"><circle cx="0" cy="0" r="3"/><path d="M0,-12 L3,-3 L12,0 L3,3 L0,12 L-3,3 L-12,0 L-3,-3 Z"/></g></g><g transform="translate(731 440) rotate(65) scale(1.0396928222428543)"><g opacity="0.16" fill="none" stroke="#ff7a45" stroke-width="2.2"><ellipse cx="0" cy="0" rx="22" ry="9"/><ellipse cx="0" cy="0" rx="22" ry="9" transform="rotate(60)"/><ellipse cx="0" cy="0" rx="22" ry="9" transform="rotate(120)"/><circle cx="0" cy="0" r="4" fill="#ff7a45"/></g></g><g transform="translate(836 1201) rotate(150) scale(0.8409923975974022)"><g opacity="0.157" fill="none" stroke="#ff7a45" stroke-width="2.4"><circle cx="0" cy="0" r="12"/><ellipse cx="0" cy="0" rx="24" ry="8" transform="rotate(-18)"/></g></g><g transform="translate(570 825) rotate(309) scale(1.2186099329143334)"><g opacity="0.168" fill="none" stroke="#ff7a45" stroke-width="2.4" stroke-linejoin="round"><path d="M-16,-10 h14 a6,6 0 0 1 6,6 v18 h-14 a6,6 0 0 0 -6,6 v-24 a6,6 0 0 1 6,-6z"/><path d="M16,-10 h-14 a6,6 0 0 0 -6,6 v18 h14 a6,6 0 0 1 6,6 v-24 a6,6 0 0 0 -6,-6z"/></g></g><g transform="translate(176 366) rotate(162) scale(1.1018770450418813)"><g opacity="0.175" fill="none" stroke="#ff7a45" stroke-width="2.4" stroke-linejoin="round"><path d="M-20,10 L10,-20 L20,-10 L-10,20 L-24,24 Z"/><path d="M6,-24 L24,-6"/></g></g><g transform="translate(318 863) rotate(120) scale(0.7895095852765494)"><g opacity="0.179" fill="none" stroke="#ff7a45" stroke-width="2.4" stroke-linejoin="round"><path d="M-16,-10 h14 a6,6 0 0 1 6,6 v18 h-14 a6,6 0 0 0 -6,6 v-24 a6,6 0 0 1 6,-6z"/><path d="M16,-10 h-14 a6,6 0 0 0 -6,6 v18 h14 a6,6 0 0 1 6,6 v-24 a6,6 0 0 0 -6,-6z"/></g></g><g transform="translate(184 512) rotate(164) scale(1.0062125692394464)"><g opacity="0.172" fill="none" stroke="#ff7a45" stroke-width="2.4"><polygon points="0,-20 20,16 -20,16"/></g></g><g transform="translate(798 1057) rotate(147) scale(1.2295852085732177)"><g opacity="0.16" fill="none" stroke="#ff7a45" stroke-width="2.2"><ellipse cx="0" cy="0" rx="22" ry="9"/><ellipse cx="0" cy="0" rx="22" ry="9" transform="rotate(60)"/><ellipse cx="0" cy="0" rx="22" ry="9" transform="rotate(120)"/><circle cx="0" cy="0" r="4" fill="#ff7a45"/></g></g><g transform="translate(544 421) rotate(325) scale(0.9734750122145406)"><g opacity="0.152" fill="none" stroke="#ff7a45" stroke-width="2.4"><circle cx="0" cy="0" r="12"/><ellipse cx="0" cy="0" rx="24" ry="8" transform="rotate(-18)"/></g></g><g transform="translate(108 911) rotate(263) scale(0.8019460375145715)"><g opacity="0.148" fill="none" stroke="#ff7a45" stroke-width="2"><rect x="-18" y="-18" width="36" height="36" rx="4"/><path d="M-6,-18V18 M6,-18V18 M-18,-6H18 M-18,6H18"/></g></g><g transform="translate(102 637) rotate(173) scale(0.7936897573850394)"><g opacity="0.151" fill="none" stroke="#ff7a45" stroke-width="2.4" stroke-linejoin="round"><path d="M-20,10 L10,-20 L20,-10 L-10,20 L-24,24 Z"/><path d="M6,-24 L24,-6"/></g></g><g transform="translate(183 1552) rotate(196) scale(0.9096254034711715)"><g opacity="0.18" fill="none" stroke="#ff7a45" stroke-width="2.4"><path d="M-28,0 C-18,-12 -8,-12 2,0 S22,12 32,0"/></g></g><g transform="translate(556 1324) rotate(53) scale(0.8361296539138239)"><g opacity="0.166" fill="#ff7a45"><circle cx="0" cy="0" r="3"/><path d="M0,-12 L3,-3 L12,0 L3,3 L0,12 L-3,3 L-12,0 L-3,-3 Z"/></g></g><g transform="translate(842 557) rotate(109) scale(0.892277831807948)"><g opacity="0.178" fill="none" stroke="#ff7a45" stroke-width="2.4"><polygon points="0,-20 20,16 -20,16"/></g></g><g transform="translate(774 923) rotate(40) scale(0.9752702114145705)"><g opacity="0.155" fill="#ff7a45" font-family="Arial, Helvetica, sans-serif" font-size="22" font-weight="700"><text x="-30" y="-6">x² + y²</text><text x="-30" y="18">= r²</text></g></g><g transform="translate(692 446) rotate(6) scale(1.2787690906935294)"><g stroke="#ff7a45" stroke-width="2.5" stroke-linecap="round" stroke-linejoin="round" opacity="0.178" fill="none"><path d="M0,-16 L4,-4 L16,0 L4,4 L0,16 L-4,4 L-16,0 L-4,-4 Z"/></g></g><g transform="translate(626 153) rotate(332) scale(0.9612155899773346)"><g opacity="0.155" fill="none" stroke="#ff7a45" stroke-width="2.4" stroke-linejoin="round"><path d="M-20,10 L10,-20 L20,-10 L-10,20 L-24,24 Z"/><path d="M6,-24 L24,-6"/></g></g><g transform="translate(654 561) rotate(230) scale(1.1635908870514373)"><g opacity="0.172" fill="none" stroke="#ff7a45" stroke-width="2.4" stroke-linejoin="round"><path d="M-16,-10 h14 a6,6 0 0 1 6,6 v18 h-14 a6,6 0 0 0 -6,6 v-24 a6,6 0 0 1 6,-6z"/><path d="M16,-10 h-14 a6,6 0 0 0 -6,6 v18 h14 a6,6 0 0 1 6,6 v-24 a6,6 0 0 0 -6,-6z"/></g></g><g transform="translate(248 417) rotate(185) scale(0.8748312273049749)"><g opacity="0.147" fill="none" stroke="#ff7a45" stroke-width="2.2"><ellipse cx="0" cy="0" rx="22" ry="9"/><ellipse cx="0" cy="0" rx="22" ry="9" transform="rotate(60)"/><ellipse cx="0" cy="0" rx="22" ry="9" transform="rotate(120)"/><circle cx="0" cy="0" r="4" fill="#ff7a45"/></g></g><g transform="translate(678 807) rotate(337) scale(0.7928069984416642)"><g opacity="0.153" fill="none" stroke="#ff7a45" stroke-width="2.2"><ellipse cx="0" cy="0" rx="22" ry="9"/><ellipse cx="0" cy="0" rx="22" ry="9" transform="rotate(60)"/><ellipse cx="0" cy="0" rx="22" ry="9" transform="rotate(120)"/><circle cx="0" cy="0" r="4" fill="#ff7a45"/></g></g><g transform="translate(542 286) rotate(247) scale(1.3136784803159105)"><g opacity="0.175" fill="none" stroke="#ff7a45" stroke-width="2.4" stroke-linejoin="round"><path d="M-20,10 L10,-20 L20,-10 L-10,20 L-24,24 Z"/><path d="M6,-24 L24,-6"/></g></g><g transform="translate(119 298) rotate(223) scale(0.89140523617772)"><g opacity="0.147" fill="none" stroke="#ff7a45" stroke-width="2"><rect x="-18" y="-18" width="36" height="36" rx="4"/><path d="M-6,-18V18 M6,-18V18 M-18,-6H18 M-18,6H18"/></g></g><g transform="translate(441 805) rotate(354) scale(1.0416190505080172)"><g opacity="0.152" fill="none" stroke="#ff7a45" stroke-width="2.2"><ellipse cx="0" cy="0" rx="22" ry="9"/><ellipse cx="0" cy="0" rx="22" ry="9" transform="rotate(60)"/><ellipse cx="0" cy="0" rx="22" ry="9" transform="rotate(120)"/><circle cx="0" cy="0" r="4" fill="#ff7a45"/></g></g><g transform="translate(425 468) rotate(252) scale(1.2646809883723145)"><g stroke="#ff7a45" stroke-width="2.5" stroke-linecap="round" stroke-linejoin="round" opacity="0.159" fill="none"><path d="M0,-16 L4,-4 L16,0 L4,4 L0,16 L-4,4 L-16,0 L-4,-4 Z"/></g></g><g transform="translate(446 1362) rotate(94) scale(1.0388865132606013)"><g opacity="0.137" fill="none" stroke="#ff7a45" stroke-width="2.4" stroke-linejoin="round"><path d="M-20,10 L10,-20 L20,-10 L-10,20 L-24,24 Z"/><path d="M6,-24 L24,-6"/></g></g><g transform="translate(513 294) rotate(131) scale(0.869274603531365)"><g opacity="0.138" fill="none" stroke="#ff7a45" stroke-width="2.4" stroke-linejoin="round"><path d="M-16,-10 h14 a6,6 0 0 1 6,6 v18 h-14 a6,6 0 0 0 -6,6 v-24 a6,6 0 0 1 6,-6z"/><path d="M16,-10 h-14 a6,6 0 0 0 -6,6 v18 h14 a6,6 0 0 1 6,6 v-24 a6,6 0 0 0 -6,-6z"/></g></g><g transform="translate(157 626) rotate(44) scale(1.0146641048224536)"><g opacity="0.177" fill="#ff7a45" font-family="Arial, Helvetica, sans-serif" font-size="22" font-weight="700"><text x="-30" y="-6">x² + y²</text><text x="-30" y="18">= r²</text></g></g><g transform="translate(691 562) rotate(331) scale(1.0687995730848971)"><g opacity="0.161" fill="none" stroke="#ff7a45" stroke-width="2"><rect x="-18" y="-18" width="36" height="36" rx="4"/><path d="M-6,-18V18 M6,-18V18 M-18,-6H18 M-18,6H18"/></g></g><g transform="translate(858 1183) rotate(331) scale(0.7703127120890364)"><g stroke="#ff7a45" stroke-width="2.5" stroke-linecap="round" stroke-linejoin="round" opacity="0.17" fill="none"><path d="M0,-16 L4,-4 L16,0 L4,4 L0,16 L-4,4 L-16,0 L-4,-4 Z"/></g></g><g transform="translate(321 1125) rotate(36) scale(1.1170898120921477)"><g stroke="#ff7a45" stroke-width="2.5" stroke-linecap="round" stroke-linejoin="round" opacity="0.149" fill="none"><path d="M0,-16 L4,-4 L16,0 L4,4 L0,16 L-4,4 L-16,0 L-4,-4 Z"/></g></g><g transform="translate(660 749) rotate(108) scale(1.290400048263621)"><g opacity="0.141" fill="none" stroke="#ff7a45" stroke-width="2.4"><polygon points="0,-20 20,16 -20,16"/></g></g><g transform="translate(410 792) rotate(168) scale(1.037219937651395)"><g opacity="0.154" fill="none" stroke="#ff7a45" stroke-width="2.4" stroke-linejoin="round"><path d="M-20,10 L10,-20 L20,-10 L-10,20 L-24,24 Z"/><path d="M6,-24 L24,-6"/></g></g><g transform="translate(254 46) rotate(58) scale(1.1105539790149261)"><g opacity="0.161" fill="none" stroke="#ff7a45" stroke-width="2.4"><path d="M-28,0 C-18,-12 -8,-12 2,0 S22,12 32,0"/></g></g><g transform="translate(182 812) rotate(285) scale(0.8191071537642644)"><g opacity="0.138" fill="none" stroke="#ff7a45" stroke-width="2.4"><circle cx="0" cy="0" r="12"/><ellipse cx="0" cy="0" rx="24" ry="8" transform="rotate(-18)"/></g></g><g transform="translate(431 254) rotate(236) scale(1.155908671362649)"><g opacity="0.167" fill="none" stroke="#ff7a45" stroke-width="2.4" stroke-linejoin="round"><path d="M-16,-10 h14 a6,6 0 0 1 6,6 v18 h-14 a6,6 0 0 0 -6,6 v-24 a6,6 0 0 1 6,-6z"/><path d="M16,-10 h-14 a6,6 0 0 0 -6,6 v18 h14 a6,6 0 0 1 6,6 v-24 a6,6 0 0 0 -6,-6z"/></g></g><g transform="translate(590 936) rotate(137) scale(0.7782491401361038)"><g stroke="#ff7a45" stroke-width="2.5" stroke-linecap="round" stroke-linejoin="round" opacity="0.184" fill="none"><path d="M0,-16 L4,-4 L16,0 L4,4 L0,16 L-4,4 L-16,0 L-4,-4 Z"/></g></g><g transform="translate(138 226) rotate(112) scale(0.8342795110168147)"><g opacity="0.174" fill="#ff7a45" font-family="Arial, Helvetica, sans-serif" font-size="22" font-weight="700"><text x="-30" y="-6">x² + y²</text><text x="-30" y="18">= r²</text></g></g><g transform="translate(337 650) rotate(282) scale(1.113563366222517)"><g stroke="#ff7a45" stroke-width="2.5" stroke-linecap="round" stroke-linejoin="round" opacity="0.157" fill="none"><path d="M0,-16 L4,-4 L16,0 L4,4 L0,16 L-4,4 L-16,0 L-4,-4 Z"/></g></g><g transform="translate(423 36) rotate(53) scale(1.1305953761697949)"><g opacity="0.162" fill="none" stroke="#ff7a45" stroke-width="2.4"><path d="M-28,0 C-18,-12 -8,-12 2,0 S22,12 32,0"/></g></g><g transform="translate(361 1537) rotate(29) scale(1.025535902051665)"><g opacity="0.14" fill="none" stroke="#ff7a45" stroke-width="2.4" stroke-linejoin="round"><path d="M-20,10 L10,-20 L20,-10 L-10,20 L-24,24 Z"/><path d="M6,-24 L24,-6"/></g></g><g transform="translate(691 988) rotate(62) scale(0.9281445739006522)"><g opacity="0.176" fill="none" stroke="#ff7a45" stroke-width="2"><circle cx="0" cy="0" r="18"/><path d="M-18,0H18 M0,-18V18"/><path d="M-12,-12 Q0,-5 12,-12 M-12,12 Q0,5 12,12"/></g></g><g transform="translate(187 175) rotate(348) scale(1.1563506662348886)"><g stroke="#ff7a45" stroke-width="2.5" stroke-linecap="round" stroke-linejoin="round" opacity="0.177" fill="none"><path d="M0,-16 L4,-4 L16,0 L4,4 L0,16 L-4,4 L-16,0 L-4,-4 Z"/></g></g><g transform="translate(615 1419) rotate(151) scale(0.8702099556071449)"><g opacity="0.174" fill="none" stroke="#ff7a45" stroke-width="2"><rect x="-18" y="-18" width="36" height="36" rx="4"/><path d="M-6,-18V18 M6,-18V18 M-18,-6H18 M-18,6H18"/></g></g><rect width="100%" height="100%" fill="#000" opacity="0.12"/>
</svg>