<svg xmlns="http://www.w3.org/2000/svg" width="900" height="1600" viewBox="0 0 900 1600">
<defs><linearGradient id="bg" x1="0%" y1="0%" x2="100%" y2="100%">
<stop offset="0%" stop-color="#06060b"/>
<stop offset="100%" stop-color="#0e091a"/>
</linearGradient><radialGradient id="glow" cx="80%" cy="20%" r="60%">
<stop offset="0%" stop-color="#ae6dff" stop-opacity="0.22"/>
<stop offset="60%" stop-color="#ae6dff" stop-opacity="0.06"/>
<stop offset="100%" stop-color="#ae6dff" stop-opacity="0"/>
</radialGradient></defs><rect width="100%" height="100%" fill="url(#bg)"/><rect width="100%" height="100%" fill="url(#glow)"/><rect x="-900" y="-100" width="80" height="1800" transform="rotate(-18 -900 0)" fill="#ffffff" opacity="0.03"/><rect x="-780" y="-100" width="80" height="1800" transform="rotate(-18 -780 0)" fill="#ffffff" opacity="0.03"/><rect x="-660" y="-100" width="80" height="1800" transform="rotate(-18 -660 0)" fill="#ffffff" opacity="0.03"/><rect x="-540" y="-100" width="80" height="1800" transform="rotate(-18 -540 0)" fill="#ffffff" opacity="0.03"/><rect x="-420" y="-100" width="80" height="1800" transform="rotate(-18 -420 0)" fill="#ffffff" opacity="0.03"/><rect x="-300" y="-100" width="80" height="1800" transform="rotate(-18 -300 0)" fill="#ffffff" opacity="0.03"/><rect x="-180" y="-100" width="80" height="1800" transform="rotate(-18 -180 0)" fill="#ffffff" opacity="0.03"/><rect x="-60" y="-100" width="80" height="1800" transform="rotate(-18 -60 0)" fill="#ffffff" opacity="0.03"/><rect x="60" y="-100" width="80" height="1800" transform="rotate(-18 60 0)" fill="#ffffff" opacity="0.03"/><rect x="180" y="-100" width="80" height="1800" transform="rotate(-18 180 0)" fill="#ffffff" opacity="0.03"/><rect x="300" y="-100" width="80" height="1800" transform="rotate(-18 300 0)" fill="#ffffff" opacity="0.03"/><rect x="420" y="-100" width="80" height="1800" transform="rotate(-18 420 0)" fill="#ffffff" opacity="0.03"/><rect x="540" y="-100" width="80" height="1800" transform="rotate(-18 540 0)" fill="#ffffff" opacity="0.03"/><rect x="660" y="-100" width="80" height="1800" transform="rotate(-18 660 0)" fill="#ffffff" opacity="0.03"/><rect x="780" y="-100" width="80" height="1800" transform="rotate(-18 780 0)" fill="#ffffff" opacity="0.03"/><rect x="900" y="-100" width="80" height="1800" transform="rotate(-18 900 0)" fill="#ffffff" opacity="0.03"/><rect x="1020" y="-100" width="80" height="1800" transform="rotate(-18 1020 0)" fill="#ffffff" opacity="0.03"/><rect x="1140" y="-100" width="80" height="1800" transform="rotate(-18 1140 0)" fill="#ffffff" opacity="0.03"/><rect x="1260" y="-100" width="80" height="1800" transform="rotate(-18 1260 0)" fill="#ffffff" opacity="0.03"/><rect x="1380" y="-100" width="80" height="1800" transform="rotate(-18 1380 0)" fill="#ffffff" opacity="0.03"/><rect x="1500" y="-100" width="80" height="1800" transform="rotate(-18 1500 0)" fill="#ffffff" opacity="0.03"/><rect x="1620" y="-100" width="80" height="1800" transform="rotate(-18 1620 0)" fill="#ffffff" opacity="0.03"/><rect x="1740" y="-100" width="80" height="1800" transform="rotate(-18 1740 0)" fill="#ffffff" opacity="0.03"/><g transform="translate(215 281) rotate(171) scale(1.1468583290971468)"><g opacity="0.146" fill="none" stroke="#ae6dff" stroke-width="2.2"><ellipse cx="0" cy="0" rx="22" ry="9"/><ellipse cx="0" cy="0" rx="22" ry="9" transform="rotate(60)"/><ellipse cx="0" cy="0" rx="22" ry="9" transform="rotate(120)"/><circle cx="0" cy="0" r="4" fill="#ae6dff"/></g></g><g transform="translate(531 1316) rotate(245) scale(1.046420807464305)"><g opacity="0.158" fill="#ae6dff" font-family="Arial, Helvetica, sans-serif" font-size="22" font-weight="700"><text x="-30" y="-6">x² + y²</text><text x="-30" y="18">= r²</text></g></g><g transform="translate(300 431) rotate(354) scale(0.9022805611754965)"><g opacity="0.152" fill="none" stroke="#ae6dff" stroke-width="2.4"><circle cx="0" cy="0" r="12"/><ellipse cx="0" cy="0" rx="24" ry="8" transform="rotate(-18)"/></g></g><g transform="translate(721 387) rotate(120) scale(1.2695673285446176)"><g opacity="0.147" fill="none" stroke="#ae6dff" stroke-width="2.4" stroke-linejoin="round"><path d="M-16,-10 h14 a6,6 0 0 1 6,6 v18 h-14 a6,6 0 0 0 -6,6 v-24 a6,6 0 0 1 6,-6z"/><path d="M16,-10 h-14 a6,6 0 0 0 -6,6 v18 h14 a6,6 0 0 1 6,6 v-24 a6,6 0 0 0 -6,-6z"/></g></g><g transform="translate(782 778) rotate(103) scale(1.0953259058642753)"><g opacity="0.179" fill="#ae6dff"><circle cx="0" cy="0" r="3"/><path d="M0,-12 L3,-3 L12,0 L3,3 L0,12 L-3,3 L-12,0 L-3,-3 Z"/></g></g><g transform="translate(804 1041) rotate(153) scale(0.8796577098203768)"><g opacity="0.136" fill="#ae6dff" font-family="Arial, Helvetica, sans-serif" font-size="22" font-weight="700"><text x="-30" y="-6">x² + y²</text><text x="-30" y="18">= r²</text></g></g><g transform="translate(445 481) rotate(207) scale(1.213076786967088)"><g opacity="0.153" fill="none" stroke="#ae6dff" stroke-width="2.4"><polygon points="0,-20 20,16 -20,16"/></g></g><g transform="translate(616 1108) rotate(138) scale(0.9132890976616543)"><g opacity="0.17" fill="none" stroke="#ae6dff" stroke-width="2"><circle cx="0" cy="0" r="18"/><path d="M-18,0H18 M0,-18V18"/><path d="M-12,-12 Q0,-5 12,-12 M-12,12 Q0,5 12,12"/></g></g><g transform="translate(595 265) rotate(290) scale(0.9187960735443454)"><g opacity="0.143" fill="none" stroke="#ae6dff" stroke-width="2.4"><polygon points="0,-20 20,16 -20,16"/></g></g><g transform="translate(730 1322) rotate(97) scale(1.2259701810490848)"><g opacity="0.167" fill="none" stroke="#ae6dff" stroke-width="2.2"><ellipse cx="0" cy="0" rx="22" ry="9"/><ellipse cx="0" cy="0" rx="22" ry="9" transform="rotate(60)"/><ellipse cx="0" cy="0" rx="22" ry="9" transform="rotate(120)"/><circle cx="0" cy="0" r="4" fill="#ae6dff"/></g></g><g transform="translate(855 924) rotate(262) scale(0.8288209829047738)"><g opacity="0.164" fill="none" stroke="#ae6dff" stroke-width="2.4" stroke-linejoin="round"><path d="M-20,10 L10,-20 L20,-10 L-10,20 L-24,24 Z"/><path d="M6,-24 L24,-6"/></g></g><g transform="translate(751 442) rotate(273) scale(1.1030277204189072)"><g opacity="0.174" fill="none" stroke="#ae6dff" stroke-width="2.4"><path d="M-28,0 C-18,-12 -8,-12 2,0 S22,12 32,0"/></g></g><g transform="translate(703 1145) rotate(251) scale(1.031599434116564)"><g opacity="0.159" fill="none" stroke="#ae6dff" stroke-width="2.4" stroke-linejoin="round"><path d="M-16,-10 h14 a6,6 0 0 1 6,6 v18 h-14 a6,6 0 0 0 -6,6 v-24 a6,6 0 0 1 6,-6z"/><path d="M16,-10 h-14 a6,6 0 0 0 -6,6 v18 h14 a6,6 0 0 1 6,6 v-24 a6,6 0 0 0 -6,-6z"/></g></g><g transform="translate(531 191) rotate(47) scale(0.8997403427137828)"><g opacity="0.153" fill="none" stroke="#ae6dff" stroke-width="2.4"><polygon points="0,-20 20,16 -20,16"/></g></g><g transform="translate(832 1319) rotate(296) scale(0.9859906857855505)"><g opacity="0.169" fill="none" stroke="#ae6dff" stroke-width="2.4"><polygon points="0,-20 20,16 -20,16"/></g></g><g transform="translate(569 42) rotate(68) scale(1.3408402204037846)"><g opacity="0.159" fill="none" stroke="#ae6dff" stroke-width="2.4"><circle cx="0" cy="0" r="12"/><ellipse cx="0" cy="0" rx="24" ry="8" transform="rotate(-18)"/></g></g><g transform="translate(866 858) rotate(213) scale(0.8588146778286017)"><g opacity="0.149" fill="none" stroke="#ae6dff" stroke-width="2.4" stroke-linejoin="round"><path d="M-16,-10 h14 a6,6 0 0 1 6,6 v18 h-14 a6,6 0 0 0 -6,6 v-24 a6,6 0 0 1 6,-6z"/><path d="M16,-10 h-14 a6,6 0 0 0 -6,6 v18 h14 a6,6 0 0 1 6,6 v-24 a6,6 0 0 0 -6,-6z"/></g></g><g transform="translate(436 1422) rotate(73) scale(1.1711250827935569)"><g opacity="0.152" fill="none" stroke="#ae6dff" stroke-width="2.4"><path d="M-28,0 C-18,-12 -8,-12 2,0 S22,12 32,0"/></g></g><g transform="translate(655 647) rotate(222) scale(1.297515263226881)"><g opacity="0.177" fill="none" stroke="#ae6dff" stroke-width="2.4"><polygon points="0,-20 20,16 -20,16"/></g></g><g transform="translate(615 897) rotate(83) scale(0.8376191754720507)"><g opacity="0.171" fill="none" stroke="#ae6dff" stroke-width="2"><circle cx="0" cy="0" r="18"/><path d="M-18,0H18 M0,-18V18"/><path d="M-12,-12 Q0,-5 12,-12 M-12,12 Q0,5 12,12"/></g></g><g transform="translate(697 903) rotate(284) scale(0.7534252681482668)"><g opacity="0.176" fill="none" stroke="#ae6dff" stroke-width="2.4"><polygon points="0,-20 20,16 -20,16"/></g></g><g transform="translate(591 237) rotate(310) scale(0.7552487422615355)"><g opacity="0.156" fill="#ae6dff" font-family="Arial, Helvetica, sans-serif" font-size="22" font-weight="700"><text x="-30" y="-6">x² + y²</text><text x="-30" y="18">= r²</text></g></g><g transform="translate(443 1012) rotate(241) scale(1.116269814483998)"><g opacity="0.176" fill="none" stroke="#ae6dff" stroke-width="2"><rect x="-18" y="-18" width="36" height="36" rx="4"/><path d="M-6,-18V18 M6,-18V18 M-18,-6H18 M-18,6H18"/></g></g><g transform="translate(841 338) rotate(90) scale(0.8850243337697612)"><g opacity="0.171" fill="none" stroke="#ae6dff" stroke-width="2.4"><path d="M-28,0 C-18,-12 -8,-12 2,0 S22,12 32,0"/></g></g><g transform="translate(334 1045) rotate(47) scale(0.7851228152808757)"><g opacity="0.172" fill="none" stroke="#ae6dff" stroke-width="2.4"><path d="M-28,0 C-18,-12 -8,-12 2,0 S22,12 32,0"/></g></g><g transform="translate(783 395) rotate(268) scale(1.333641179762534)"><g opacity="0.181" fill="none" stroke="#ae6dff" stroke-width="2.4" stroke-linejoin="round"><path d="M-16,-10 h14 a6,6 0 0 1 6,6 v18 h-14 a6,6 0 0 0 -6,6 v-24 a6,6 0 0 1 6,-6z"/><path d="M16,-10 h-14 a6,6 0 0 0 -6,6 v18 h14 a6,6 0 0 1 6,6 v-24 a6,6 0 0 0 -6,-6z"/></g></g><g transform="translate(298 186) rotate(293) scale(0.8479232706403115)"><g opacity="0.142" fill="none" stroke="#ae6dff" stroke-width="2.2"><ellipse cx="0" cy="0" rx="22" ry="9"/><ellipse cx="0" cy="0" rx="22" ry="9" transform="rotate(60)"/><ellipse cx="0" cy="0" rx="22" ry="9" transform="rotate(120)"/><circle cx="0" cy="0" r="4" fill="#ae6dff"/></g></g><g transform="translate(337 247) rotate(33) scale(1.1023532168889756)"><g opacity="0.152" fill="none" stroke="#ae6dff" stroke-width="2.4"><path d="M-28,0 C-18,-12 -8,-12 2,0 S22,12 32,0"/></g></g><g transform="translate(647 576) rotate(87) scale(1.3121034950653447)"><g opacity="0.17" fill="none" stroke="#ae6dff" stroke-width="2"><rect x="-18" y="-18" width="36" height="36" rx="4"/><path d="M-6,-18V18 M6,-18V18 M-18,-6H18 M-18,6H18"/></g></g><g transform="translate(555 868) rotate(5) scale(1.1948698663198305)"><g opacity="0.18" fill="#ae6dff" font-family="Arial, Helvetica, sans-serif" font-size="22" font-weight="700"><text x="-30" y="-6">x² + y²</text><text x="-30" y="18">= r²</text></g></g><g transform="translate(851 1558) rotate(131) scale(0.7774213473426516)"><g opacity="0.149" fill="none" stroke="#ae6dff" stroke-width="2"><rect x="-18" y="-18" width="36" height="36" rx="4"/><path d="M-6,-18V18 M6,-18V18 M-18,-6H18 M-18,6H18"/></g></g><g transform="translate(250 611) rotate(69) scale(0.8473845915828491)"><g opacity="0.167" fill="#ae6dff"><circle cx="0" cy="0" r="3"/><path d="M0,-12 L3,-3 L12,0 L3,3 L0,12 L-3,3 L-12,0 L-3,-3 Z"/></g></g><g transform="translate(121 249) rotate(167) scale(1.2040532328638247)"><g opacity="0.148" fill="#ae6dff"><circle cx="0" cy="0" r="3"/><path d="M0,-12 L3,-3 L12,0 L3,3 L0,12 L-3,3 L-12,0 L-3,-3 Z"/></g></g><g transform="translate(601 984) rotate(45) scale(1.0681426476211775)"><g opacity="0.17" fill="none" stroke="#ae6dff" stroke-width="2.2"><ellipse cx="0" cy="0" rx="22" ry="9"/><ellipse cx="0" cy="0" rx="22" ry="9" transform="rotate(60)"/><ellipse cx="0" cy="0" rx="22" ry="9" transform="rotate(120)"/><circle cx="0" cy="0" r="4" fill="#ae6dff"/></g></g><g transform="translate(508 675) rotate(47) scale(0.8474089388221052)"><g opacity="0.153" fill="none" stroke="#ae6dff" stroke-width="2.2"><ellipse cx="0" cy="0" rx="22" ry="9"/><ellipse cx="0" cy="0" rx="22" ry="9" transform="rotate(60)"/><ellipse cx="0" cy="0" rx="22" ry="9" transform="rotate(120)"/><circle cx="0" cy="0" r="4" fill="#ae6dff"/></g></g><g transform="translate(581 1338) rotate(259) scale(1.0446539082958806)"><g opacity="0.177" fill="none" stroke="#ae6dff" stroke-width="2"><rect x="-18" y="-18" width="36" height="36" rx="4"/><path d="M-6,-18V18 M6,-18V18 M-18,-6H18 M-18,6H18"/></g></g><g transform="translate(722 661) rotate(10) scale(1.023284745623036)"><g opacity="0.167" fill="none" stroke="#ae6dff" stroke-width="2.4"><polygon points="0,-20 20,16 -20,16"/></g></g><g transform="translate(224 1375) rotate(8) scale(1.3478070715240231)"><g opacity="0.155" fill="none" stroke="#ae6dff" stroke-width="2.4"><circle cx="0" cy="0" r="12"/><ellipse cx="0" cy="0" rx="24" ry="8" transform="rotate(-18)"/></g></g><g transform="translate(798 777) rotate(295) scale(1.1780658382150864)"><g stroke="#ae6dff" stroke-width="2.5" stroke-linecap="round" stroke-linejoin="round" opacity="0.149" fill="none"><path d="M0,-16 L4,-4 L16,0 L4,4 L0,16 L-4,4 L-16,0 L-4,-4 Z"/></g></g><g transform="translate(282 1133) rotate(330) scale(0.8339969190041369)"><g opacity="0.137" fill="none" stroke="#ae6dff" stroke-width="2.4"><path d="M-28,0 C-18,-12 -8,-12 2,0 S22,12 32,0"/></g></g><g transform="translate(162 501) rotate(228) scale(1.1801978530432402)"><g opacity="0.137" fill="#ae6dff" font-family="Arial, Helvetica, sans-serif" font-size="22" font-weight="700"><text x="-30" y="-6">x² + y²</text><text x="-30" y="18">= r²</text></g></g><g transform="translate(464 1410) rotate(262) scale(1.3048842061075412)"><g opacity="0.149" fill="none" stroke="#ae6dff" stroke-width="2.4" stroke-linejoin="round"><path d="M-16,-10 h14 a6,6 0 0 1 6,6 v18 h-14 a6,6 0 0 0 -6,6 v-24 a6,6 0 0 1 6,-6z"/><path d="M16,-10 h-14 a6,6 0 0 0 -6,6 v18 h14 a6,6 0 0 1 6,6 v-24 a6,6 0 0 0 -6,-6z"/></g></g><g transform="translate(170 1052) rotate(314) scale(1.1176055352794796)"><g opacity="0.159" fill="#ae6dff" font-family="Arial, Helvetica, sans-serif" font-size="22" font-weight="700"><text x="-30" y="-6">x² + y²</text><text x="-30" y="18">= r²</text></g></g><g transform="translate(568 1271) rotate(179) scale(1.17342558410846)"><g opacity="0.139" fill="none" stroke="#ae6dff" stroke-width="2.4"><polygon points="0,-20 20,16 -20,16"/></g></g><g transform="translate(495 628) rotate(353) scale(1.2300338565960147)"><g opacity="0.17" fill="#ae6dff" font-family="Arial, Helvetica, sans-serif" font-size="22" font-weight="700"><text x="-30" y="-6">x² + y²</text><text x="-30" y="18">= r²</text></g></g><g transform="translate(663 59) rotate(325) scale(0.8641053899859937)"><g opacity="0.163" fill="none" stroke="#ae6dff" stroke-width="2.4"><polygon points="0,-20 20,16 -20,16"/></g></g><g transform="translate(251 76) rotate(152) scale(0.850546981255647)"><g opacity="0.145" fill="none" stroke="#ae6dff" stroke-width="2.2"><ellipse cx="0" cy="0" rx="22" ry="9"/><ellipse cx="0" cy="0" rx="22" ry="9" transform="rotate(60)"/><ellipse cx="0" cy="0" rx="22" ry="9" transform="rotate(120)"/><circle cx="0" cy="0" r="4" fill="#ae6dff"/></g></g><g transform="translate(98 1159) rotate(14) scale(1.2703698732403155)"><g opacity="0.162" fill="none" stroke="#ae6dff" stroke-width="2.4" stroke-linejoin="round"><path d="M-20,10 L10,-20 L20,-10 L-10,20 L-24,24 Z"/><path d="M6,-24 L24,-6"/></g></g><g transform="translate(285 971) rotate(354) scale(0.800198823519422)"><g opacity="0.159" fill="none" stroke="#ae6dff" stroke-width="2.4" stroke-linejoin="round"><path d="M-20,10 L10,-20 L20,-10 L-10,20 L-24,24 Z"/><path d="M6,-24 L24,-6"/></g></g><g transform="translate(223 940) rotate(134) scale(0.9435832037266442)"><g opacity="0.15" fill="none" stroke="#ae6dff" stroke-width="2"><rect x="-18" y="-18" width="36" height="36" rx="4"/><path d="M-6,-18V18 M6,-18V18 M-18,-6H18 M-18,6H18"/></g></g><g transform="translate(230 804) rotate(168) scale(1.2556310652017924)"><g opacity="0.163" fill="#ae6dff"><circle cx="0" cy="0" r="3"/><path d="M0,-12 L3,-3 L12,0 L3,3 L0,12 L-3,3 L-12,0 L-3,-3 Z"/></g></g><g transform="translate(298 793) rotate(338) scale(0.8786257715615058)"><g opacity="0.172" fill="#ae6dff"><circle cx="0" cy="0" r="3"/><path d="M0,-12 L3,-3 L12,0 L3,3 L0,12 L-3,3 L-12,0 L-3,-3 Z"/></g></g><g transform="translate(663 326) rotate(46) scale(0.9847675997023084)"><g opacity="0.182" fill="none" stroke="#ae6dff" stroke-width="2.4" stroke-linejoin="round"><path d="M-20,10 L10,-20 L20,-10 L-10,20 L-24,24 Z"/><path d="M6,-24 L24,-6"/></g></g><g transform="translate(294 745) rotate(244) scale(1.3300383800822657)"><g opacity="0.178" fill="none" stroke="#ae6dff" stroke-width="2.4"><circle cx="0" cy="0" r="12"/><ellipse cx="0" cy="0" rx="24" ry="8" transform="rotate(-18)"/></g></g><g transform="translate(398 341) rotate(7) scale(0.9543168351095123)"><g opacity="0.153" fill="none" stroke="#ae6dff" stroke-width="2"><rect x="-18" y="-18" width="36" height="36" rx="4"/><path d="M-6,-18V18 M6,-18V18 M-18,-6H18 M-18,6H18"/></g></g><g transform="translate(67 621) rotate(120) scale(0.8758062413976722)"><g opacity="0.166" fill="none" stroke="#ae6dff" stroke-width="2.4" stroke-linejoin="round"><path d="M-16,-10 h14 a6,6 0 0 1 6,6 v18 h-14 a6,6 0 0 0 -6,6 v-24 a6,6 0 0 1 6,-6z"/><path d="M16,-10 h-14 a6,6 0 0 0 -6,6 v18 h14 a6,6 0 0 1 6,6 v-24 a6,6 0 0 0 -6,-6z"/></g></g><g transform="translate(383 1322) rotate(301) scale(0.8715773419471216)"><g stroke="#ae6dff" stroke-width="2.5" stroke-linecap="round" stroke-linejoin="round" opacity="0.142" fill="none"><path d="M0,-16 L4,-4 L16,0 L4,4 L0,16 L-4,4 L-16,0 L-4,-4 Z"/></g></g><g transform="translate(860 693) rotate(28) scale(1.3156022391476152)"><g opacity="0.168" fill="none" stroke="#ae6dff" stroke-width="2.2"><ellipse cx="0" cy="0" rx="22" ry="9"/><ellipse cx="0" cy="0" rx="22" ry="9" transform="rotate(60)"/><ellipse cx="0" cy="0" rx="22" ry="9" transform="rotate(120)"/><circle cx="0" cy="0" r="4" fill="#ae6dff"/></g></g><g transform="translate(774 360) rotate(352) scale(0.9533108143680371)"><g opacity="0.151" fill="none" stroke="#ae6dff" stroke-width="2.4"><polygon points="0,-20 20,16 -20,16"/></g></g><g transform="translate(628 688) rotate(298) scale(1.2612966992819057)"><g opacity="0.177" fill="none" stroke="#ae6dff" stroke-width="2.4"><path d="M-28,0 C-18,-12 -8,-12 2,0 S22,12 32,0"/></g></g><g transform="translate(321 759) rotate(241) scale(0.8902044116880372)"><g opacity="0.156" fill="none" stroke="#ae6dff" stroke-width="2.4"><path d="M-28,0 C-18,-12 -8,-12 2,0 S22,12 32,0"/></g></g><g transform="translate(403 1124) rotate(140) scale(1.2207466279712196)"><g opacity="0.143" fill="none" stroke="#ae6dff" stroke-width="2.4" stroke-linejoin="round"><path d="M-20,10 L10,-20 L20,-10 L-10,20 L-24,24 Z"/><path d="M6,-24 L24,-6"/></g></g><g transform="translate(241 1034) rotate(239) scale(0.966523250478161)"><g opacity="0.175" fill="#ae6dff" font-family="Arial, Helvetica, sans-serif" font-size="22" font-weight="700"><text x="-30" y="-6">x² + y²</text><text x="-30" y="18">= r²</text></g></g><g transform="translate(518 330) rotate(196) scale(0.9052074654715416)"><g opacity="0.172" fill="none" stroke="#ae6dff" stroke-width="2.4"><path d="M-28,0 C-18,-12 -8,-12 2,0 S22,12 32,0"/></g></g><g transform="translate(533 662) rotate(292) scale(0.8657789481917608)"><g stroke="#ae6dff" stroke-width="2.5" stroke-linecap="round" stroke-linejoin="round" opacity="0.169" fill="none"><path d="M0,-16 L4,-4 L16,0 L4,4 L0,16 L-4,4 L-16,0 L-4,-4 Z"/></g></g><g transform="translate(729 501) rotate(345) scale(1.2039882202260774)"><g opacity="0.138" fill="none" stroke="#ae6dff" stroke-width="2"><rect x="-18" y="-18" width="36" height="36" rx="4"/><path d="M-6,-18V18 M6,-18V18 M-18,-6H18 M-18,6H18"/></g></g><g transform="translate(641 250) rotate(182) scale(1.2624064415893295)"><g stroke="#ae6dff" stroke-width="2.5" stroke-linecap="round" stroke-linejoin="round" opacity="0.173" fill="none"><path d="M0,-16 L4,-4 L16,0 L4,4 L0,16 L-4,4 L-16,0 L-4,-4 Z"/></g></g><g transform="translate(433 896) rotate(35) scale(1.248644461145303)"><g opacity="0.178" fill="none" stroke="#ae6dff" stroke-width="2"><rect x="-18" y="-18" width="36" height="36" rx="4"/><path d="M-6,-18V18 M6,-18V18 M-18,-6H18 M-18,6H18"/></g></g><g transform="translate(753 1407) rotate(183) scale(1.3186330090786795)"><g opacity="0.153" fill="none" stroke="#ae6dff" stroke-width="2.4" stroke-linejoin="round"><path d="M-20,10 L10,-20 L20,-10 L-10,20 L-24,24 Z"/><path d="M6,-24 L24,-6"/></g></g><g transform="translate(598 438) rotate(345) scale(1.349785002930335)"><g opacity="0.175" fill="none" stroke="#ae6dff" stroke-width="2"><rect x="-18" y="-18" width="36" height="36" rx="4"/><path d="M-6,-18V18 M6,-18V18 M-18,-6H18 M-18,6H18"/></g></g><g transform="translate(589 831) rotate(124) scale(1.0942423532870926)"><g opacity="0.14" fill="none" stroke="#ae6dff" stroke-width="2.4"><polygon points="0,-20 20,16 -20,16"/></g></g><g transform="translate(101 1221) rotate(174) scale(1.058756605216593)"><g opacity="0.156" fill="#ae6dff" font-family="Arial, Helvetica, sans-serif" font-size="22" font-weight="700"><text x="-30" y="-6">x² + y²</text><text x="-30" y="18">= r²</text></g></g><g transform="translate(724 670) rotate(187) scale(1.075457484489592)"><g opacity="0.153" fill="none" stroke="#ae6dff" stroke-width="2"><circle cx="0" cy="0" r="18"/><path d="M-18,0H18 M0,-18V18"/><path d="M-12,-12 Q0,-5 12,-12 M-12,12 Q0,5 12,12"/></g></g><g transform="translate(633 1374) rotate(88) scale(0.8602496055434248)"><g stroke="#ae6dff" stroke-width="2.5" stroke-linecap="round" stroke-linejoin="round" opacity="0.151" fill="none"><path d="M0,-16 L4,-4 L16,0 L4,4 L0,16 L-4,4 L-16,0 L-4,-4 Z"/></g></g><g transform="translate(760 414) rotate(124) scale(0.9799925734197107)"><g opacity="0.163" fill="none" stroke="#ae6dff" stroke-width="2.4"><path d="M-28,0 C-18,-12 -8,-12 2,0 S22,12 32,0"/></g></g><g transform="translate(526 252) rotate(153) scale(1.0320730172940737)"><g opacity="0.176" fill="none" stroke="#ae6dff" stroke-width="2.4"><path d="M-28,0 C-18,-12 -8,-12 2,0 S22,12 32,0"/></g></g><g transform="translate(675 193) rotate(138) scale(0.9282513196414728)"><g opacity="0.178" fill="none" stroke="#ae6dff" stroke-width="2.2"><ellipse cx="0" cy="0" rx="22" ry="9"/><ellipse cx="0" cy="0" rx="22" ry="9" transform="rotate(60)"/><ellipse cx="0" cy="0" rx="22" ry="9" transform="rotate(120)"/><circle cx="0" cy="0" r="4" fill="#ae6dff"/></g></g><g transform="translate(448 862) rotate(62) scale(0.8738034415399988)"><g opacity="0.151" fill="none" stroke="#ae6dff" stroke-width="2"><rect x="-18" y="-18" width="36" height="36" rx="4"/><path d="M-6,-18V18 M6,-18V18 M-18,-6H18 M-18,6H18"/></g></g><g transform="translate(376 1304) rotate(15) scale(0.8738403069536371)"><g opacity="0.174" fill="none" stroke="#ae6dff" stroke-width="2.4"><circle cx="0" cy="0" r="12"/><ellipse cx="0" cy="0" rx="24" ry="8" transform="rotate(-18)"/></g></g><g transform="translate(722 1169) rotate(83) scale(1.1189471821972035)"><g opacity="0.18" fill="none" stroke="#ae6dff" stroke-width="2.4" stroke-linejoin="round"><path d="M-16,-10 h14 a6,6 0 0 1 6,6 v18 h-14 a6,6 0 0 0 -6,6 v-24 a6,6 0 0 1 6,-6z"/><path d="M16,-10 h-14 a6,6 0 0 0 -6,6 v18 h14 a6,6 0 0 1 6,6 v-24 a6,6 0 0 0 -6,-6z"/></g></g><g transform="translate(718 48) rotate(67) scale(0.753730624391948)"><g opacity="0.176" fill="none" stroke="#ae6dff" stroke-width="2"><rect x="-18" y="-18" width="36" height="36" rx="4"/><path d="M-6,-18V18 M6,-18V18 M-18,-6H18 M-18,6H18"/></g></g><g transform="translate(157 1188) rotate(261) scale(0.8309456072915558)"><g opacity="0.146" fill="none" stroke="#ae6dff" stroke-width="2"><circle cx="0" cy="0" r="18"/><path d="M-18,0H18 M0,-18V18"/><path d="M-12,-12 Q0,-5 12,-12 M-12,12 Q0,5 12,12"/></g></g><g transform="translate(448 860) rotate(71) scale(0.8816815376521472)"><g opacity="0.164" fill="#ae6dff"><circle cx="0" cy="0" r="3"/><path d="M0,-12 L3,-3 L12,0 L3,3 L0,12 L-3,3 L-12,0 L-3,-3 Z"/></g></g><g transform="translate(426 911) rotate(278) scale(1.3350806864242704)"><g opacity="0.178" fill="none" stroke="#ae6dff" stroke-width="2"><rect x="-18" y="-18" width="36" height="36" rx="4"/><path d="M-6,-18V18 M6,-18V18 M-18,-6H18 M-18,6H18"/></g></g><g transform="translate(536 1462) rotate(232) scale(0.9468541319958612)"><g opacity="0.166" fill="#ae6dff"><circle cx="0" cy="0" r="3"/><path d="M0,-12 L3,-3 L12,0 L3,3 L0,12 L-3,3 L-12,0 L-3,-3 Z"/></g></g><rect width="100%" height="100%" fill="#000" opacity="0.12"/>
</svg>