<svg xmlns="http://www.w3.org/2000/svg" width="900" height="1600" viewBox="0 0 900 1600">
<defs><linearGradient id="bg" x1="0%" y1="0%" x2="100%" y2="100%">
<stop offset="0%" stop-color="#ffd27d"/>
<stop offset="100%" stop-color="#ffc7b0"/>
</linearGradient><radialGradient id="glow" cx="80%" cy="20%" r="60%">
<stop offset="0%" stop-color="#fff0a8" stop-opacity="0.22"/>
<stop offset="60%" stop-color="#fff0a8" stop-opacity="0.06"/>
<stop offset="100%" stop-color="#fff0a8" stop-opacity="0"/>
</radialGradient></defs><rect width="100%" height="100%" fill="url(#bg)"/><rect width="100%" height="100%" fill="url(#glow)"/><g transform="translate(87 217) rotate(86) scale(0.800923197095353)"><g opacity="0.166" fill="#b86f2b"><circle cx="0" cy="0" r="3"/><path d="M0,-12 L3,-3 L12,0 L3,3 L0,12 L-3,3 L-12,0 L-3,-3 Z"/></g></g><g transform="translate(287 1270) rotate(18) scale(0.8773312864011604)"><g opacity="0.158" fill="none" stroke="#b86f2b" stroke-width="2"><circle cx="0" cy="0" r="18"/><path d="M-18,0H18 M0,-18V18"/><path d="M-12,-12 Q0,-5 12,-12 M-12,12 Q0,5 12,12"/></g></g><g transform="translate(471 1337) rotate(260) scale(0.9861190921232228)"><g opacity="0.152" fill="none" stroke="#b86f2b" stroke-width="2.4"><path d="M-28,0 C-18,-12 -8,-12 2,0 S22,12 32,0"/></g></g><g transform="translate(485 1058) rotate(18) scale(0.9109444449895969)"><g stroke="#b86f2b" stroke-width="2.5" stroke-linecap="round" stroke-linejoin="round" opacity="0.144" fill="none"><path d="M0,-16 L4,-4 L16,0 L4,4 L0,16 L-4,4 L-16,0 L-4,-4 Z"/></g></g><g transform="translate(356 808) rotate(269) scale(1.0041665817430143)"><g opacity="0.153" fill="none" stroke="#b86f2b" stroke-width="2.4" stroke-linejoin="round"><path d="M-16,-10 h14 a6,6 0 0 1 6,6 v18 h-14 a6,6 0 0 0 -6,6 v-24 a6,6 0 0 1 6,-6z"/><path d="M16,-10 h-14 a6,6 0 0 0 -6,6 v18 h14 a6,6 0 0 1 6,6 v-24 a6,6 0 0 0 -6,-6z"/></g></g><g transform="translate(271 502) rotate(166) scale(0.7643148474844693)"><g opacity="0.134" fill="none" stroke="#b86f2b" stroke-width="2.4" stroke-linejoin="round"><path d="M-16,-10 h14 a6,6 0 0 1 6,6 v18 h-14 a6,6 0 0 0 -6,6 v-24 a6,6 0 0 1 6,-6z"/><path d="M16,-10 h-14 a6,6 0 0 0 -6,6 v18 h14 a6,6 0 0 1 6,6 v-24 a6,6 0 0 0 -6,-6z"/></g></g><g transform="translate(552 766) rotate(345) scale(1.3492101409155313)"><g opacity="0.136" fill="none" stroke="#b86f2b" stroke-width="2.4"><polygon points="0,-20 20,16 -20,16"/></g></g><g transform="translate(486 879) rotate(186) scale(1.1906410151363866)"><g opacity="0.143" fill="none" stroke="#b86f2b" stroke-width="2"><circle cx="0" cy="0" r="18"/><path d="M-18,0H18 M0,-18V18"/><path d="M-12,-12 Q0,-5 12,-12 M-12,12 Q0,5 12,12"/></g></g><g transform="translate(486 360) rotate(204) scale(1.3229598719805662)"><g opacity="0.157" fill="none" stroke="#b86f2b" stroke-width="2.4" stroke-linejoin="round"><path d="M-20,10 L10,-20 L20,-10 L-10,20 L-24,24 Z"/><path d="M6,-24 L24,-6"/></g></g><g transform="translate(285 1033) rotate(255) scale(0.9174613457538131)"><g opacity="0.151" fill="none" stroke="#b86f2b" stroke-width="2.4"><polygon points="0,-20 20,16 -20,16"/></g></g><g transform="translate(845 754) rotate(232) scale(1.1470113600023877)"><g opacity="0.143" fill="none" stroke="#b86f2b" stroke-width="2.4" stroke-linejoin="round"><path d="M-20,10 L10,-20 L20,-10 L-10,20 L-24,24 Z"/><path d="M6,-24 L24,-6"/></g></g><g transform="translate(773 1171) rotate(249) scale(1.184263772323211)"><g opacity="0.137" fill="#b86f2b"><circle cx="0" cy="0" r="3"/><path d="M0,-12 L3,-3 L12,0 L3,3 L0,12 L-3,3 L-12,0 L-3,-3 Z"/></g></g><g transform="translate(362 1462) rotate(315) scale(1.2510158397230642)"><g opacity="0.162" fill="#b86f2b" font-family="Arial, Helvetica, sans-serif" font-size="22" font-weight="700"><text x="-30" y="-6">x² + y²</text><text x="-30" y="18">= r²</text></g></g><g transform="translate(521 663) rotate(258) scale(0.9319780467034655)"><g opacity="0.151" fill="none" stroke="#b86f2b" stroke-width="2.4"><polygon points="0,-20 20,16 -20,16"/></g></g><g transform="translate(697 1291) rotate(159) scale(1.1027668270766908)"><g opacity="0.15" fill="none" stroke="#b86f2b" stroke-width="2.2"><ellipse cx="0" cy="0" rx="22" ry="9"/><ellipse cx="0" cy="0" rx="22" ry="9" transform="rotate(60)"/><ellipse cx="0" cy="0" rx="22" ry="9" transform="rotate(120)"/><circle cx="0" cy="0" r="4" fill="#b86f2b"/></g></g><g transform="translate(405 1431) rotate(38) scale(1.1239590520355234)"><g opacity="0.16" fill="none" stroke="#b86f2b" stroke-width="2.4"><path d="M-28,0 C-18,-12 -8,-12 2,0 S22,12 32,0"/></g></g><g transform="translate(864 421) rotate(54) scale(1.3482411581789675)"><g stroke="#b86f2b" stroke-width="2.5" stroke-linecap="round" stroke-linejoin="round" opacity="0.153" fill="none"><path d="M0,-16 L4,-4 L16,0 L4,4 L0,16 L-4,4 L-16,0 L-4,-4 Z"/></g></g><g transform="translate(80 589) rotate(349) scale(1.1050201902983332)"><g opacity="0.161" fill="none" stroke="#b86f2b" stroke-width="2.4"><circle cx="0" cy="0" r="12"/><ellipse cx="0" cy="0" rx="24" ry="8" transform="rotate(-18)"/></g></g><g transform="translate(169 574) rotate(107) scale(0.8968991867814102)"><g stroke="#b86f2b" stroke-width="2.5" stroke-linecap="round" stroke-linejoin="round" opacity="0.147" fill="none"><path d="M0,-16 L4,-4 L16,0 L4,4 L0,16 L-4,4 L-16,0 L-4,-4 Z"/></g></g><g transform="translate(764 95) rotate(184) scale(0.7840778471336822)"><g opacity="0.139" fill="none" stroke="#b86f2b" stroke-width="2.4" stroke-linejoin="round"><path d="M-16,-10 h14 a6,6 0 0 1 6,6 v18 h-14 a6,6 0 0 0 -6,6 v-24 a6,6 0 0 1 6,-6z"/><path d="M16,-10 h-14 a6,6 0 0 0 -6,6 v18 h14 a6,6 0 0 1 6,6 v-24 a6,6 0 0 0 -6,-6z"/></g></g><g transform="translate(54 199) rotate(34) scale(0.8191338477487661)"><g stroke="#b86f2b" stroke-width="2.5" stroke-linecap="round" stroke-linejoin="round" opacity="0.129" fill="none"><path d="M0,-16 L4,-4 L16,0 L4,4 L0,16 L-4,4 L-16,0 L-4,-4 Z"/></g></g><g transform="translate(51 794) rotate(80) scale(0.9034140324344656)"><g opacity="0.151" fill="none" stroke="#b86f2b" stroke-width="2.4" stroke-linejoin="round"><path d="M-16,-10 h14 a6,6 0 0 1 6,6 v18 h-14 a6,6 0 0 0 -6,6 v-24 a6,6 0 0 1 6,-6z"/><path d="M16,-10 h-14 a6,6 0 0 0 -6,6 v18 h14 a6,6 0 0 1 6,6 v-24 a6,6 0 0 0 -6,-6z"/></g></g><g transform="translate(31 819) rotate(126) scale(1.103674945428197)"><g opacity="0.171" fill="none" stroke="#b86f2b" stroke-width="2.4" stroke-linejoin="round"><path d="M-16,-10 h14 a6,6 0 0 1 6,6 v18 h-14 a6,6 0 0 0 -6,6 v-24 a6,6 0 0 1 6,-6z"/><path d="M16,-10 h-14 a6,6 0 0 0 -6,6 v18 h14 a6,6 0 0 1 6,6 v-24 a6,6 0 0 0 -6,-6z"/></g></g><g transform="translate(34 734) rotate(321) scale(1.3130784077133515)"><g opacity="0.14" fill="none" stroke="#b86f2b" stroke-width="2.4"><circle cx="0" cy="0" r="12"/><ellipse cx="0" cy="0" rx="24" ry="8" transform="rotate(-18)"/></g></g><g transform="translate(530 93) rotate(282) scale(0.935031368353903)"><g opacity="0.161" fill="none" stroke="#b86f2b" stroke-width="2"><circle cx="0" cy="0" r="18"/><path d="M-18,0H18 M0,-18V18"/><path d="M-12,-12 Q0,-5 12,-12 M-12,12 Q0,5 12,12"/></g></g><g transform="translate(300 852) rotate(78) scale(1.267467465795257)"><g opacity="0.171" fill="none" stroke="#b86f2b" stroke-width="2.4" stroke-linejoin="round"><path d="M-20,10 L10,-20 L20,-10 L-10,20 L-24,24 Z"/><path d="M6,-24 L24,-6"/></g></g><g transform="translate(125 1383) rotate(52) scale(1.1624372734858361)"><g stroke="#b86f2b" stroke-width="2.5" stroke-linecap="round" stroke-linejoin="round" opacity="0.148" fill="none"><path d="M0,-16 L4,-4 L16,0 L4,4 L0,16 L-4,4 L-16,0 L-4,-4 Z"/></g></g><g transform="translate(160 1091) rotate(201) scale(1.1009734188663645)"><g opacity="0.151" fill="none" stroke="#b86f2b" stroke-width="2.4" stroke-linejoin="round"><path d="M-20,10 L10,-20 L20,-10 L-10,20 L-24,24 Z"/><path d="M6,-24 L24,-6"/></g></g><g transform="translate(177 728) rotate(310) scale(0.9054578539513234)"><g opacity="0.157" fill="none" stroke="#b86f2b" stroke-width="2"><rect x="-18" y="-18" width="36" height="36" rx="4"/><path d="M-6,-18V18 M6,-18V18 M-18,-6H18 M-18,6H18"/></g></g><g transform="translate(746 1172) rotate(343) scale(1.3253999731268111)"><g stroke="#b86f2b" stroke-width="2.5" stroke-linecap="round" stroke-linejoin="round" opacity="0.139" fill="none"><path d="M0,-16 L4,-4 L16,0 L4,4 L0,16 L-4,4 L-16,0 L-4,-4 Z"/></g></g><g transform="translate(164 360) rotate(232) scale(0.8524264593237875)"><g opacity="0.138" fill="#b86f2b"><circle cx="0" cy="0" r="3"/><path d="M0,-12 L3,-3 L12,0 L3,3 L0,12 L-3,3 L-12,0 L-3,-3 Z"/></g></g><g transform="translate(755 94) rotate(119) scale(1.346715139955702)"><g opacity="0.131" fill="none" stroke="#b86f2b" stroke-width="2.4" stroke-linejoin="round"><path d="M-20,10 L10,-20 L20,-10 L-10,20 L-24,24 Z"/><path d="M6,-24 L24,-6"/></g></g><g transform="translate(112 1240) rotate(319) scale(0.886921931613225)"><g opacity="0.139" fill="none" stroke="#b86f2b" stroke-width="2.4"><path d="M-28,0 C-18,-12 -8,-12 2,0 S22,12 32,0"/></g></g><g transform="translate(463 600) rotate(2) scale(1.0657139662683508)"><g opacity="0.129" fill="none" stroke="#b86f2b" stroke-width="2.4" stroke-linejoin="round"><path d="M-16,-10 h14 a6,6 0 0 1 6,6 v18 h-14 a6,6 0 0 0 -6,6 v-24 a6,6 0 0 1 6,-6z"/><path d="M16,-10 h-14 a6,6 0 0 0 -6,6 v18 h14 a6,6 0 0 1 6,6 v-24 a6,6 0 0 0 -6,-6z"/></g></g><g transform="translate(448 358) rotate(44) scale(0.8167049803379856)"><g opacity="0.132" fill="none" stroke="#b86f2b" stroke-width="2.2"><ellipse cx="0" cy="0" rx="22" ry="9"/><ellipse cx="0" cy="0" rx="22" ry="9" transform="rotate(60)"/><ellipse cx="0" cy="0" rx="22" ry="9" transform="rotate(120)"/><circle cx="0" cy="0" r="4" fill="#b86f2b"/></g></g><g transform="translate(50 402) rotate(53) scale(1.200351115606094)"><g opacity="0.129" fill="none" stroke="#b86f2b" stroke-width="2.2"><ellipse cx="0" cy="0" rx="22" ry="9"/><ellipse cx="0" cy="0" rx="22" ry="9" transform="rotate(60)"/><ellipse cx="0" cy="0" rx="22" ry="9" transform="rotate(120)"/><circle cx="0" cy="0" r="4" fill="#b86f2b"/></g></g><g transform="translate(715 981) rotate(274) scale(1.0223146333235178)"><g opacity="0.145" fill="#b86f2b"><circle cx="0" cy="0" r="3"/><path d="M0,-12 L3,-3 L12,0 L3,3 L0,12 L-3,3 L-12,0 L-3,-3 Z"/></g></g><g transform="translate(731 460) rotate(222) scale(1.1873586273465147)"><g opacity="0.151" fill="none" stroke="#b86f2b" stroke-width="2"><rect x="-18" y="-18" width="36" height="36" rx="4"/><path d="M-6,-18V18 M6,-18V18 M-18,-6H18 M-18,6H18"/></g></g><g transform="translate(625 1241) rotate(214) scale(0.780740846163498)"><g opacity="0.154" fill="none" stroke="#b86f2b" stroke-width="2.4"><polygon points="0,-20 20,16 -20,16"/></g></g><g transform="translate(126 1388) rotate(187) scale(1.2315931252232317)"><g stroke="#b86f2b" stroke-width="2.5" stroke-linecap="round" stroke-linejoin="round" opacity="0.151" fill="none"><path d="M0,-16 L4,-4 L16,0 L4,4 L0,16 L-4,4 L-16,0 L-4,-4 Z"/></g></g><g transform="translate(151 1280) rotate(353) scale(0.9698896957468127)"><g opacity="0.141" fill="none" stroke="#b86f2b" stroke-width="2.4"><path d="M-28,0 C-18,-12 -8,-12 2,0 S22,12 32,0"/></g></g><g transform="translate(731 874) rotate(156) scale(0.8106971253678941)"><g opacity="0.165" fill="none" stroke="#b86f2b" stroke-width="2.2"><ellipse cx="0" cy="0" rx="22" ry="9"/><ellipse cx="0" cy="0" rx="22" ry="9" transform="rotate(60)"/><ellipse cx="0" cy="0" rx="22" ry="9" transform="rotate(120)"/><circle cx="0" cy="0" r="4" fill="#b86f2b"/></g></g><g transform="translate(718 62) rotate(30) scale(1.2372362425241923)"><g opacity="0.156" fill="none" stroke="#b86f2b" stroke-width="2"><rect x="-18" y="-18" width="36" height="36" rx="4"/><path d="M-6,-18V18 M6,-18V18 M-18,-6H18 M-18,6H18"/></g></g><g transform="translate(504 456) rotate(314) scale(1.2837251436207224)"><g opacity="0.128" fill="none" stroke="#b86f2b" stroke-width="2.4"><circle cx="0" cy="0" r="12"/><ellipse cx="0" cy="0" rx="24" ry="8" transform="rotate(-18)"/></g></g><g transform="translate(54 793) rotate(39) scale(0.933492833086567)"><g opacity="0.161" fill="none" stroke="#b86f2b" stroke-width="2.2"><ellipse cx="0" cy="0" rx="22" ry="9"/><ellipse cx="0" cy="0" rx="22" ry="9" transform="rotate(60)"/><ellipse cx="0" cy="0" rx="22" ry="9" transform="rotate(120)"/><circle cx="0" cy="0" r="4" fill="#b86f2b"/></g></g><g transform="translate(226 267) rotate(200) scale(1.0929316447975985)"><g opacity="0.134" fill="none" stroke="#b86f2b" stroke-width="2.4" stroke-linejoin="round"><path d="M-20,10 L10,-20 L20,-10 L-10,20 L-24,24 Z"/><path d="M6,-24 L24,-6"/></g></g><g transform="translate(383 839) rotate(130) scale(1.2826150065141744)"><g opacity="0.133" fill="none" stroke="#b86f2b" stroke-width="2.4"><circle cx="0" cy="0" r="12"/><ellipse cx="0" cy="0" rx="24" ry="8" transform="rotate(-18)"/></g></g><g transform="translate(661 715) rotate(108) scale(1.134594956298639)"><g opacity="0.129" fill="none" stroke="#b86f2b" stroke-width="2.4"><circle cx="0" cy="0" r="12"/><ellipse cx="0" cy="0" rx="24" ry="8" transform="rotate(-18)"/></g></g><g transform="translate(704 993) rotate(254) scale(1.2163271607898793)"><g opacity="0.144" fill="#b86f2b" font-family="Arial, Helvetica, sans-serif" font-size="22" font-weight="700"><text x="-30" y="-6">x² + y²</text><text x="-30" y="18">= r²</text></g></g><g transform="translate(498 319) rotate(137) scale(1.229233250207808)"><g opacity="0.151" fill="none" stroke="#b86f2b" stroke-width="2.4" stroke-linejoin="round"><path d="M-20,10 L10,-20 L20,-10 L-10,20 L-24,24 Z"/><path d="M6,-24 L24,-6"/></g></g><g transform="translate(519 1503) rotate(214) scale(1.3228181081767985)"><g opacity="0.165" fill="none" stroke="#b86f2b" stroke-width="2.4" stroke-linejoin="round"><path d="M-20,10 L10,-20 L20,-10 L-10,20 L-24,24 Z"/><path d="M6,-24 L24,-6"/></g></g><g transform="translate(333 838) rotate(250) scale(0.8889764166909435)"><g opacity="0.139" fill="none" stroke="#b86f2b" stroke-width="2"><circle cx="0" cy="0" r="18"/><path d="M-18,0H18 M0,-18V18"/><path d="M-12,-12 Q0,-5 12,-12 M-12,12 Q0,5 12,12"/></g></g><g transform="translate(467 1454) rotate(43) scale(1.1574841292166893)"><g opacity="0.16" fill="none" stroke="#b86f2b" stroke-width="2"><circle cx="0" cy="0" r="18"/><path d="M-18,0H18 M0,-18V18"/><path d="M-12,-12 Q0,-5 12,-12 M-12,12 Q0,5 12,12"/></g></g><g transform="translate(619 226) rotate(90) scale(0.7926959187808211)"><g opacity="0.134" fill="none" stroke="#b86f2b" stroke-width="2.4"><polygon points="0,-20 20,16 -20,16"/></g></g><g transform="translate(456 166) rotate(348) scale(1.2291423086202862)"><g opacity="0.129" fill="#b86f2b"><circle cx="0" cy="0" r="3"/><path d="M0,-12 L3,-3 L12,0 L3,3 L0,12 L-3,3 L-12,0 L-3,-3 Z"/></g></g><g transform="translate(333 829) rotate(343) scale(0.8890197860080145)"><g opacity="0.142" fill="#b86f2b"><circle cx="0" cy="0" r="3"/><path d="M0,-12 L3,-3 L12,0 L3,3 L0,12 L-3,3 L-12,0 L-3,-3 Z"/></g></g><g transform="translate(206 1103) rotate(79) scale(0.9221929957512183)"><g opacity="0.172" fill="none" stroke="#b86f2b" stroke-width="2.4"><polygon points="0,-20 20,16 -20,16"/></g></g><g transform="translate(803 897) rotate(264) scale(0.8076926767625374)"><g opacity="0.16" fill="none" stroke="#b86f2b" stroke-width="2.2"><ellipse cx="0" cy="0" rx="22" ry="9"/><ellipse cx="0" cy="0" rx="22" ry="9" transform="rotate(60)"/><ellipse cx="0" cy="0" rx="22" ry="9" transform="rotate(120)"/><circle cx="0" cy="0" r="4" fill="#b86f2b"/></g></g><g transform="translate(293 377) rotate(236) scale(1.2869379899986588)"><g opacity="0.146" fill="none" stroke="#b86f2b" stroke-width="2.2"><ellipse cx="0" cy="0" rx="22" ry="9"/><ellipse cx="0" cy="0" rx="22" ry="9" transform="rotate(60)"/><ellipse cx="0" cy="0" rx="22" ry="9" transform="rotate(120)"/><circle cx="0" cy="0" r="4" fill="#b86f2b"/></g></g><g transform="translate(397 1204) rotate(238) scale(1.1873546815429554)"><g opacity="0.16" fill="none" stroke="#b86f2b" stroke-width="2.4" stroke-linejoin="round"><path d="M-20,10 L10,-20 L20,-10 L-10,20 L-24,24 Z"/><path d="M6,-24 L24,-6"/></g></g><g transform="translate(859 1248) rotate(92) scale(0.9799508119306751)"><g opacity="0.15" fill="none" stroke="#b86f2b" stroke-width="2"><rect x="-18" y="-18" width="36" height="36" rx="4"/><path d="M-6,-18V18 M6,-18V18 M-18,-6H18 M-18,6H18"/></g></g><g transform="translate(524 591) rotate(211) scale(0.9929488074200817)"><g opacity="0.149" fill="#b86f2b"><circle cx="0" cy="0" r="3"/><path d="M0,-12 L3,-3 L12,0 L3,3 L0,12 L-3,3 L-12,0 L-3,-3 Z"/></g></g><g transform="translate(590 707) rotate(337) scale(1.1779557410431478)"><g opacity="0.162" fill="none" stroke="#b86f2b" stroke-width="2.4"><circle cx="0" cy="0" r="12"/><ellipse cx="0" cy="0" rx="24" ry="8" transform="rotate(-18)"/></g></g><g transform="translate(773 490) rotate(96) scale(1.0697127012368248)"><g opacity="0.164" fill="none" stroke="#b86f2b" stroke-width="2"><rect x="-18" y="-18" width="36" height="36" rx="4"/><path d="M-6,-18V18 M6,-18V18 M-18,-6H18 M-18,6H18"/></g></g><g transform="translate(421 1330) rotate(160) scale(1.2989819303673764)"><g opacity="0.151" fill="none" stroke="#b86f2b" stroke-width="2.4" stroke-linejoin="round"><path d="M-20,10 L10,-20 L20,-10 L-10,20 L-24,24 Z"/><path d="M6,-24 L24,-6"/></g></g><g transform="translate(507 1361) rotate(48) scale(0.8564212865355756)"><g stroke="#b86f2b" stroke-width="2.5" stroke-linecap="round" stroke-linejoin="round" opacity="0.146" fill="none"><path d="M0,-16 L4,-4 L16,0 L4,4 L0,16 L-4,4 L-16,0 L-4,-4 Z"/></g></g><g transform="translate(251 1523) rotate(197) scale(1.0915605095316945)"><g opacity="0.167" fill="none" stroke="#b86f2b" stroke-width="2.2"><ellipse cx="0" cy="0" rx="22" ry="9"/><ellipse cx="0" cy="0" rx="22" ry="9" transform="rotate(60)"/><ellipse cx="0" cy="0" rx="22" ry="9" transform="rotate(120)"/><circle cx="0" cy="0" r="4" fill="#b86f2b"/></g></g><g transform="translate(132 828) rotate(102) scale(1.2393727297681123)"><g opacity="0.161" fill="#b86f2b" font-family="Arial, Helvetica, sans-serif" font-size="22" font-weight="700"><text x="-30" y="-6">x² + y²</text><text x="-30" y="18">= r²</text></g></g><g transform="translate(630 1218) rotate(313) scale(0.8648966542920633)"><g opacity="0.128" fill="none" stroke="#b86f2b" stroke-width="2.4" stroke-linejoin="round"><path d="M-16,-10 h14 a6,6 0 0 1 6,6 v18 h-14 a6,6 0 0 0 -6,6 v-24 a6,6 0 0 1 6,-6z"/><path d="M16,-10 h-14 a6,6 0 0 0 -6,6 v18 h14 a6,6 0 0 1 6,6 v-24 a6,6 0 0 0 -6,-6z"/></g></g><g transform="translate(724 919) rotate(262) scale(1.0392337348477145)"><g opacity="0.135" fill="none" stroke="#b86f2b" stroke-width="2"><circle cx="0" cy="0" r="18"/><path d="M-18,0H18 M0,-18V18"/><path d="M-12,-12 Q0,-5 12,-12 M-12,12 Q0,5 12,12"/></g></g><g transform="translate(759 449) rotate(37) scale(1.3334315119688844)"><g opacity="0.128" fill="none" stroke="#b86f2b" stroke-width="2.4"><path d="M-28,0 C-18,-12 -8,-12 2,0 S22,12 32,0"/></g></g><g transform="translate(527 1121) rotate(337) scale(1.252314898382521)"><g opacity="0.161" fill="none" stroke="#b86f2b" stroke-width="2.4"><circle cx="0" cy="0" r="12"/><ellipse cx="0" cy="0" rx="24" ry="8" transform="rotate(-18)"/></g></g><g transform="translate(526 1411) rotate(235) scale(1.3033497437904358)"><g opacity="0.167" fill="#b86f2b" font-family="Arial, Helvetica, sans-serif" font-size="22" font-weight="700"><text x="-30" y="-6">x² + y²</text><text x="-30" y="18">= r²</text></g></g><g transform="translate(501 86) rotate(314) scale(1.342252140103915)"><g opacity="0.135" fill="none" stroke="#b86f2b" stroke-width="2.4"><path d="M-28,0 C-18,-12 -8,-12 2,0 S22,12 32,0"/></g></g><g transform="translate(798 858) rotate(320) scale(0.9031757295503907)"><g opacity="0.13" fill="none" stroke="#b86f2b" stroke-width="2.4" stroke-linejoin="round"><path d="M-16,-10 h14 a6,6 0 0 1 6,6 v18 h-14 a6,6 0 0 0 -6,6 v-24 a6,6 0 0 1 6,-6z"/><path d="M16,-10 h-14 a6,6 0 0 0 -6,6 v18 h14 a6,6 0 0 1 6,6 v-24 a6,6 0 0 0 -6,-6z"/></g></g><g transform="translate(541 811) rotate(345) scale(1.3453774428277763)"><g opacity="0.135" fill="#b86f2b" font-family="Arial, Helvetica, sans-serif" font-size="22" font-weight="700"><text x="-30" y="-6">x² + y²</text><text x="-30" y="18">= r²</text></g></g><g transform="translate(319 1171) rotate(0) scale(1.0304351983975488)"><g opacity="0.129" fill="none" stroke="#b86f2b" stroke-width="2.4"><path d="M-28,0 C-18,-12 -8,-12 2,0 S22,12 32,0"/></g></g><g transform="translate(421 1185) rotate(346) scale(1.0156802872020683)"><g opacity="0.15" fill="#b86f2b" font-family="Arial, Helvetica, sans-serif" font-size="22" font-weight="700"><text x="-30" y="-6">x² + y²</text><text x="-30" y="18">= r²</text></g></g><g transform="translate(166 1020) rotate(154) scale(1.1637766087289267)"><g opacity="0.139" fill="none" stroke="#b86f2b" stroke-width="2.4"><circle cx="0" cy="0" r="12"/><ellipse cx="0" cy="0" rx="24" ry="8" transform="rotate(-18)"/></g></g><g transform="translate(350 652) rotate(159) scale(0.9502242370529842)"><g opacity="0.156" fill="#b86f2b"><circle cx="0" cy="0" r="3"/><path d="M0,-12 L3,-3 L12,0 L3,3 L0,12 L-3,3 L-12,0 L-3,-3 Z"/></g></g><g transform="translate(560 220) rotate(107) scale(1.0550756721197714)"><g opacity="0.154" fill="none" stroke="#b86f2b" stroke-width="2"><rect x="-18" y="-18" width="36" height="36" rx="4"/><path d="M-6,-18V18 M6,-18V18 M-18,-6H18 M-18,6H18"/></g></g><g transform="translate(183 1063) rotate(157) scale(1.127304102878886)"><g stroke="#b86f2b" stroke-width="2.5" stroke-linecap="round" stroke-linejoin="round" opacity="0.138" fill="none"><path d="M0,-16 L4,-4 L16,0 L4,4 L0,16 L-4,4 L-16,0 L-4,-4 Z"/></g></g><g transform="translate(498 1179) rotate(142) scale(0.88926574374422)"><g stroke="#b86f2b" stroke-width="2.5" stroke-linecap="round" stroke-linejoin="round" opacity="0.171" fill="none"><path d="M0,-16 L4,-4 L16,0 L4,4 L0,16 L-4,4 L-16,0 L-4,-4 Z"/></g></g><g transform="translate(144 1413) rotate(194) scale(1.241169824245819)"><g opacity="0.137" fill="none" stroke="#b86f2b" stroke-width="2.4"><path d="M-28,0 C-18,-12 -8,-12 2,0 S22,12 32,0"/></g></g><g transform="translate(394 188) rotate(185) scale(0.9508281042756745)"><g opacity="0.15" fill="none" stroke="#b86f2b" stroke-width="2.4" stroke-linejoin="round"><path d="M-16,-10 h14 a6,6 0 0 1 6,6 v18 h-14 a6,6 0 0 0 -6,6 v-24 a6,6 0 0 1 6,-6z"/><path d="M16,-10 h-14 a6,6 0 0 0 -6,6 v18 h14 a6,6 0 0 1 6,6 v-24 a6,6 0 0 0 -6,-6z"/></g></g>
</svg>