<svg xmlns="http://www.w3.org/2000/svg" width="900" height="1600" viewBox="0 0 900 1600">
<defs><linearGradient id="bg" x1="0%" y1="0%" x2="100%" y2="100%">
<stop offset="0%" stop-color="#9fd7ff"/>
<stop offset="50%" stop-color="#b7ffb7"/>
<stop offset="100%" stop-color="#f7ff8f"/>
</linearGradient><radialGradient id="glow" cx="80%" cy="20%" r="60%">
<stop offset="0%" stop-color="#e9fff5" stop-opacity="0.22"/>
<stop offset="60%" stop-color="#e9fff5" stop-opacity="0.06"/>
<stop offset="100%" stop-color="#e9fff5" stop-opacity="0"/>
</radialGradient></defs><rect width="100%" height="100%" fill="url(#bg)"/><rect width="100%" height="100%" fill="url(#glow)"/><g transform="translate(361 338) rotate(24) scale(0.9868940978539041)"><g opacity="0.164" fill="none" stroke="#4b7ba1" stroke-width="2.4"><circle cx="0" cy="0" r="12"/><ellipse cx="0" cy="0" rx="24" ry="8" transform="rotate(-18)"/></g></g><g transform="translate(126 778) rotate(259) scale(1.0996728035420131)"><g opacity="0.129" fill="none" stroke="#4b7ba1" stroke-width="2.2"><ellipse cx="0" cy="0" rx="22" ry="9"/><ellipse cx="0" cy="0" rx="22" ry="9" transform="rotate(60)"/><ellipse cx="0" cy="0" rx="22" ry="9" transform="rotate(120)"/><circle cx="0" cy="0" r="4" fill="#4b7ba1"/></g></g><g transform="translate(474 886) rotate(46) scale(0.7919132541447713)"><g opacity="0.147" fill="none" stroke="#4b7ba1" stroke-width="2.4"><polygon points="0,-20 20,16 -20,16"/></g></g><g transform="translate(609 283) rotate(322) scale(1.3184698204244927)"><g opacity="0.154" fill="#4b7ba1"><circle cx="0" cy="0" r="3"/><path d="M0,-12 L3,-3 L12,0 L3,3 L0,12 L-3,3 L-12,0 L-3,-3 Z"/></g></g><g transform="translate(93 1211) rotate(25) scale(1.1013248535842322)"><g opacity="0.13" fill="none" stroke="#4b7ba1" stroke-width="2.2"><ellipse cx="0" cy="0" rx="22" ry="9"/><ellipse cx="0" cy="0" rx="22" ry="9" transform="rotate(60)"/><ellipse cx="0" cy="0" rx="22" ry="9" transform="rotate(120)"/><circle cx="0" cy="0" r="4" fill="#4b7ba1"/></g></g><g transform="translate(166 623) rotate(276) scale(1.001483426142879)"><g opacity="0.153" fill="none" stroke="#4b7ba1" stroke-width="2.4"><circle cx="0" cy="0" r="12"/><ellipse cx="0" cy="0" rx="24" ry="8" transform="rotate(-18)"/></g></g><g transform="translate(603 1426) rotate(297) scale(0.8584358279543625)"><g opacity="0.156" fill="none" stroke="#4b7ba1" stroke-width="2"><circle cx="0" cy="0" r="18"/><path d="M-18,0H18 M0,-18V18"/><path d="M-12,-12 Q0,-5 12,-12 M-12,12 Q0,5 12,12"/></g></g><g transform="translate(411 229) rotate(32) scale(1.0786466794257348)"><g opacity="0.13" fill="none" stroke="#4b7ba1" stroke-width="2"><circle cx="0" cy="0" r="18"/><path d="M-18,0H18 M0,-18V18"/><path d="M-12,-12 Q0,-5 12,-12 M-12,12 Q0,5 12,12"/></g></g><g transform="translate(240 1046) rotate(218) scale(1.1582399839090716)"><g opacity="0.148" fill="none" stroke="#4b7ba1" stroke-width="2.4"><path d="M-28,0 C-18,-12 -8,-12 2,0 S22,12 32,0"/></g></g><g transform="translate(494 770) rotate(92) scale(0.9298601981182094)"><g opacity="0.131" fill="none" stroke="#4b7ba1" stroke-width="2.2"><ellipse cx="0" cy="0" rx="22" ry="9"/><ellipse cx="0" cy="0" rx="22" ry="9" transform="rotate(60)"/><ellipse cx="0" cy="0" rx="22" ry="9" transform="rotate(120)"/><circle cx="0" cy="0" r="4" fill="#4b7ba1"/></g></g><g transform="translate(337 1105) rotate(175) scale(1.0470698157331535)"><g opacity="0.14" fill="none" stroke="#4b7ba1" stroke-width="2.4" stroke-linejoin="round"><path d="M-20,10 L10,-20 L20,-10 L-10,20 L-24,24 Z"/><path d="M6,-24 L24,-6"/></g></g><g transform="translate(104 271) rotate(84) scale(1.0571596983885296)"><g opacity="0.134" fill="none" stroke="#4b7ba1" stroke-width="2.4"><path d="M-28,0 C-18,-12 -8,-12 2,0 S22,12 32,0"/></g></g><g transform="translate(530 893) rotate(342) scale(0.7735243542284626)"><g opacity="0.162" fill="none" stroke="#4b7ba1" stroke-width="2.4"><circle cx="0" cy="0" r="12"/><ellipse cx="0" cy="0" rx="24" ry="8" transform="rotate(-18)"/></g></g><g transform="translate(616 672) rotate(179) scale(0.9540734173147174)"><g opacity="0.15" fill="none" stroke="#4b7ba1" stroke-width="2"><circle cx="0" cy="0" r="18"/><path d="M-18,0H18 M0,-18V18"/><path d="M-12,-12 Q0,-5 12,-12 M-12,12 Q0,5 12,12"/></g></g><g transform="translate(846 964) rotate(47) scale(0.7912577696441163)"><g opacity="0.149" fill="#4b7ba1" font-family="Arial, Helvetica, sans-serif" font-size="22" font-weight="700"><text x="-30" y="-6">x² + y²</text><text x="-30" y="18">= r²</text></g></g><g transform="translate(710 163) rotate(359) scale(0.7864016565583318)"><g opacity="0.157" fill="#4b7ba1" font-family="Arial, Helvetica, sans-serif" font-size="22" font-weight="700"><text x="-30" y="-6">x² + y²</text><text x="-30" y="18">= r²</text></g></g><g transform="translate(727 942) rotate(197) scale(0.9207573192564895)"><g opacity="0.143" fill="#4b7ba1"><circle cx="0" cy="0" r="3"/><path d="M0,-12 L3,-3 L12,0 L3,3 L0,12 L-3,3 L-12,0 L-3,-3 Z"/></g></g><g transform="translate(502 757) rotate(59) scale(0.8508290273439267)"><g opacity="0.13" fill="none" stroke="#4b7ba1" stroke-width="2.4" stroke-linejoin="round"><path d="M-20,10 L10,-20 L20,-10 L-10,20 L-24,24 Z"/><path d="M6,-24 L24,-6"/></g></g><g transform="translate(816 618) rotate(126) scale(0.8276041332112105)"><g opacity="0.145" fill="none" stroke="#4b7ba1" stroke-width="2"><rect x="-18" y="-18" width="36" height="36" rx="4"/><path d="M-6,-18V18 M6,-18V18 M-18,-6H18 M-18,6H18"/></g></g><g transform="translate(538 195) rotate(205) scale(0.8498197694831523)"><g opacity="0.14" fill="none" stroke="#4b7ba1" stroke-width="2.4"><polygon points="0,-20 20,16 -20,16"/></g></g><g transform="translate(170 911) rotate(142) scale(1.2683906818191093)"><g opacity="0.172" fill="none" stroke="#4b7ba1" stroke-width="2"><rect x="-18" y="-18" width="36" height="36" rx="4"/><path d="M-6,-18V18 M6,-18V18 M-18,-6H18 M-18,6H18"/></g></g><g transform="translate(729 809) rotate(77) scale(1.3246387223783949)"><g opacity="0.135" fill="none" stroke="#4b7ba1" stroke-width="2.4"><circle cx="0" cy="0" r="12"/><ellipse cx="0" cy="0" rx="24" ry="8" transform="rotate(-18)"/></g></g><g transform="translate(267 1378) rotate(248) scale(0.8900016502085166)"><g opacity="0.136" fill="none" stroke="#4b7ba1" stroke-width="2"><circle cx="0" cy="0" r="18"/><path d="M-18,0H18 M0,-18V18"/><path d="M-12,-12 Q0,-5 12,-12 M-12,12 Q0,5 12,12"/></g></g><g transform="translate(318 38) rotate(273) scale(0.8374058354747884)"><g opacity="0.155" fill="none" stroke="#4b7ba1" stroke-width="2.4"><path d="M-28,0 C-18,-12 -8,-12 2,0 S22,12 32,0"/></g></g><g transform="translate(356 287) rotate(263) scale(1.1642961942815868)"><g opacity="0.157" fill="none" stroke="#4b7ba1" stroke-width="2"><circle cx="0" cy="0" r="18"/><path d="M-18,0H18 M0,-18V18"/><path d="M-12,-12 Q0,-5 12,-12 M-12,12 Q0,5 12,12"/></g></g><g transform="translate(787 140) rotate(348) scale(1.023986233321725)"><g opacity="0.145" fill="none" stroke="#4b7ba1" stroke-width="2.4"><polygon points="0,-20 20,16 -20,16"/></g></g><g transform="translate(438 837) rotate(324) scale(0.8121222562261946)"><g opacity="0.13" fill="none" stroke="#4b7ba1" stroke-width="2"><rect x="-18" y="-18" width="36" height="36" rx="4"/><path d="M-6,-18V18 M6,-18V18 M-18,-6H18 M-18,6H18"/></g></g><g transform="translate(98 457) rotate(56) scale(1.0143761209948503)"><g opacity="0.155" fill="none" stroke="#4b7ba1" stroke-width="2.4"><path d="M-28,0 C-18,-12 -8,-12 2,0 S22,12 32,0"/></g></g><g transform="translate(134 30) rotate(274) scale(1.0900701648798508)"><g opacity="0.17" fill="none" stroke="#4b7ba1" stroke-width="2.4"><circle cx="0" cy="0" r="12"/><ellipse cx="0" cy="0" rx="24" ry="8" transform="rotate(-18)"/></g></g><g transform="translate(658 82) rotate(106) scale(0.7921893456920939)"><g opacity="0.144" fill="none" stroke="#4b7ba1" stroke-width="2"><circle cx="0" cy="0" r="18"/><path d="M-18,0H18 M0,-18V18"/><path d="M-12,-12 Q0,-5 12,-12 M-12,12 Q0,5 12,12"/></g></g><g transform="translate(679 546) rotate(308) scale(1.323280814352883)"><g opacity="0.149" fill="none" stroke="#4b7ba1" stroke-width="2.4"><path d="M-28,0 C-18,-12 -8,-12 2,0 S22,12 32,0"/></g></g><g transform="translate(148 1029) rotate(238) scale(1.3458616330228286)"><g opacity="0.149" fill="none" stroke="#4b7ba1" stroke-width="2.4" stroke-linejoin="round"><path d="M-20,10 L10,-20 L20,-10 L-10,20 L-24,24 Z"/><path d="M6,-24 L24,-6"/></g></g><g transform="translate(117 325) rotate(175) scale(0.8113125700489011)"><g opacity="0.149" fill="#4b7ba1" font-family="Arial, Helvetica, sans-serif" font-size="22" font-weight="700"><text x="-30" y="-6">x² + y²</text><text x="-30" y="18">= r²</text></g></g><g transform="translate(738 360) rotate(105) scale(1.059800711377393)"><g opacity="0.144" fill="none" stroke="#4b7ba1" stroke-width="2.4"><polygon points="0,-20 20,16 -20,16"/></g></g><g transform="translate(736 1142) rotate(270) scale(1.298487469674837)"><g opacity="0.172" fill="#4b7ba1" font-family="Arial, Helvetica, sans-serif" font-size="22" font-weight="700"><text x="-30" y="-6">x² + y²</text><text x="-30" y="18">= r²</text></g></g><g transform="translate(123 1455) rotate(265) scale(1.2572685566296364)"><g opacity="0.168" fill="none" stroke="#4b7ba1" stroke-width="2.4"><path d="M-28,0 C-18,-12 -8,-12 2,0 S22,12 32,0"/></g></g><g transform="translate(394 486) rotate(257) scale(1.0695554384957275)"><g opacity="0.156" fill="none" stroke="#4b7ba1" stroke-width="2.4"><path d="M-28,0 C-18,-12 -8,-12 2,0 S22,12 32,0"/></g></g><g transform="translate(657 429) rotate(205) scale(1.2336471508714006)"><g opacity="0.136" fill="none" stroke="#4b7ba1" stroke-width="2.2"><ellipse cx="0" cy="0" rx="22" ry="9"/><ellipse cx="0" cy="0" rx="22" ry="9" transform="rotate(60)"/><ellipse cx="0" cy="0" rx="22" ry="9" transform="rotate(120)"/><circle cx="0" cy="0" r="4" fill="#4b7ba1"/></g></g><g transform="translate(534 758) rotate(14) scale(1.188602395485253)"><g opacity="0.149" fill="#4b7ba1" font-family="Arial, Helvetica, sans-serif" font-size="22" font-weight="700"><text x="-30" y="-6">x² + y²</text><text x="-30" y="18">= r²</text></g></g><g transform="translate(228 1448) rotate(176) scale(1.1130834190093655)"><g opacity="0.164" fill="none" stroke="#4b7ba1" stroke-width="2.4" stroke-linejoin="round"><path d="M-20,10 L10,-20 L20,-10 L-10,20 L-24,24 Z"/><path d="M6,-24 L24,-6"/></g></g><g transform="translate(770 745) rotate(186) scale(1.3230003787928)"><g opacity="0.137" fill="none" stroke="#4b7ba1" stroke-width="2.4"><circle cx="0" cy="0" r="12"/><ellipse cx="0" cy="0" rx="24" ry="8" transform="rotate(-18)"/></g></g><g transform="translate(262 992) rotate(104) scale(0.8680236980515903)"><g opacity="0.156" fill="none" stroke="#4b7ba1" stroke-width="2.4" stroke-linejoin="round"><path d="M-20,10 L10,-20 L20,-10 L-10,20 L-24,24 Z"/><path d="M6,-24 L24,-6"/></g></g><g transform="translate(654 33) rotate(334) scale(1.037684055756923)"><g opacity="0.163" fill="none" stroke="#4b7ba1" stroke-width="2.4"><path d="M-28,0 C-18,-12 -8,-12 2,0 S22,12 32,0"/></g></g><g transform="translate(116 1382) rotate(198) scale(0.8219421785016826)"><g opacity="0.149" fill="none" stroke="#4b7ba1" stroke-width="2.2"><ellipse cx="0" cy="0" rx="22" ry="9"/><ellipse cx="0" cy="0" rx="22" ry="9" transform="rotate(60)"/><ellipse cx="0" cy="0" rx="22" ry="9" transform="rotate(120)"/><circle cx="0" cy="0" r="4" fill="#4b7ba1"/></g></g><g transform="translate(212 918) rotate(170) scale(1.223481258612166)"><g opacity="0.164" fill="none" stroke="#4b7ba1" stroke-width="2.4"><circle cx="0" cy="0" r="12"/><ellipse cx="0" cy="0" rx="24" ry="8" transform="rotate(-18)"/></g></g><g transform="translate(769 840) rotate(43) scale(1.0278963241043098)"><g opacity="0.135" fill="none" stroke="#4b7ba1" stroke-width="2.4" stroke-linejoin="round"><path d="M-16,-10 h14 a6,6 0 0 1 6,6 v18 h-14 a6,6 0 0 0 -6,6 v-24 a6,6 0 0 1 6,-6z"/><path d="M16,-10 h-14 a6,6 0 0 0 -6,6 v18 h14 a6,6 0 0 1 6,6 v-24 a6,6 0 0 0 -6,-6z"/></g></g><g transform="translate(160 86) rotate(238) scale(0.8406904202288938)"><g opacity="0.134" fill="#4b7ba1"><circle cx="0" cy="0" r="3"/><path d="M0,-12 L3,-3 L12,0 L3,3 L0,12 L-3,3 L-12,0 L-3,-3 Z"/></g></g><g transform="translate(640 1001) rotate(179) scale(1.144360975641612)"><g opacity="0.152" fill="none" stroke="#4b7ba1" stroke-width="2.4" stroke-linejoin="round"><path d="M-16,-10 h14 a6,6 0 0 1 6,6 v18 h-14 a6,6 0 0 0 -6,6 v-24 a6,6 0 0 1 6,-6z"/><path d="M16,-10 h-14 a6,6 0 0 0 -6,6 v18 h14 a6,6 0 0 1 6,6 v-24 a6,6 0 0 0 -6,-6z"/></g></g><g transform="translate(164 73) rotate(332) scale(0.7585457628936634)"><g opacity="0.151" fill="none" stroke="#4b7ba1" stroke-width="2.4"><circle cx="0" cy="0" r="12"/><ellipse cx="0" cy="0" rx="24" ry="8" transform="rotate(-18)"/></g></g><g transform="translate(172 918) rotate(99) scale(1.34192965271358)"><g opacity="0.129" fill="none" stroke="#4b7ba1" stroke-width="2.2"><ellipse cx="0" cy="0" rx="22" ry="9"/><ellipse cx="0" cy="0" rx="22" ry="9" transform="rotate(60)"/><ellipse cx="0" cy="0" rx="22" ry="9" transform="rotate(120)"/><circle cx="0" cy="0" r="4" fill="#4b7ba1"/></g></g><g transform="translate(247 629) rotate(300) scale(1.050697151901749)"><g opacity="0.139" fill="none" stroke="#4b7ba1" stroke-width="2.4"><path d="M-28,0 C-18,-12 -8,-12 2,0 S22,12 32,0"/></g></g><g transform="translate(459 298) rotate(181) scale(0.7865427147299813)"><g opacity="0.157" fill="none" stroke="#4b7ba1" stroke-width="2.4" stroke-linejoin="round"><path d="M-20,10 L10,-20 L20,-10 L-10,20 L-24,24 Z"/><path d="M6,-24 L24,-6"/></g></g><g transform="translate(864 1088) rotate(256) scale(1.002376962425439)"><g opacity="0.151" fill="none" stroke="#4b7ba1" stroke-width="2.4" stroke-linejoin="round"><path d="M-16,-10 h14 a6,6 0 0 1 6,6 v18 h-14 a6,6 0 0 0 -6,6 v-24 a6,6 0 0 1 6,-6z"/><path d="M16,-10 h-14 a6,6 0 0 0 -6,6 v18 h14 a6,6 0 0 1 6,6 v-24 a6,6 0 0 0 -6,-6z"/></g></g><g transform="translate(566 1075) rotate(225) scale(0.761222920743252)"><g opacity="0.155" fill="none" stroke="#4b7ba1" stroke-width="2.4" stroke-linejoin="round"><path d="M-16,-10 h14 a6,6 0 0 1 6,6 v18 h-14 a6,6 0 0 0 -6,6 v-24 a6,6 0 0 1 6,-6z"/><path d="M16,-10 h-14 a6,6 0 0 0 -6,6 v18 h14 a6,6 0 0 1 6,6 v-24 a6,6 0 0 0 -6,-6z"/></g></g><g transform="translate(824 336) rotate(242) scale(0.8534080273280693)"><g opacity="0.16" fill="none" stroke="#4b7ba1" stroke-width="2"><circle cx="0" cy="0" r="18"/><path d="M-18,0H18 M0,-18V18"/><path d="M-12,-12 Q0,-5 12,-12 M-12,12 Q0,5 12,12"/></g></g>
</svg>