<svg xmlns="http://www.w3.org/2000/svg" width="900" height="1600" viewBox="0 0 900 1600">
<defs><linearGradient id="bg" x1="0%" y1="0%" x2="100%" y2="100%">
<stop offset="0%" stop-color="#8aa0ff"/>
<stop offset="50%" stop-color="#d6c2ff"/>
<stop offset="100%" stop-color="#ffc7ed"/>
</linearGradient><radialGradient id="glow" cx="80%" cy="20%" r="60%">
<stop offset="0%" stop-color="#f4eeff" stop-opacity="0.22"/>
<stop offset="60%" stop-color="#f4eeff" stop-opacity="0.06"/>
<stop offset="100%" stop-color="#f4eeff" stop-opacity="0"/>
</radialGradient></defs><rect width="100%" height="100%" fill="url(#bg)"/><rect width="100%" height="100%" fill="url(#glow)"/><g transform="translate(667 553) rotate(353) scale(1.1950721935564377)"><g opacity="0.158" fill="#5563a8"><circle cx="0" cy="0" r="3"/><path d="M0,-12 L3,-3 L12,0 L3,3 L0,12 L-3,3 L-12,0 L-3,-3 Z"/></g></g><g transform="translate(59 983) rotate(127) scale(1.2155751404614303)"><g opacity="0.121" fill="#5563a8"><circle cx="0" cy="0" r="3"/><path d="M0,-12 L3,-3 L12,0 L3,3 L0,12 L-3,3 L-12,0 L-3,-3 Z"/></g></g><g transform="translate(190 261) rotate(126) scale(0.9730760133373844)"><g opacity="0.142" fill="none" stroke="#5563a8" stroke-width="2"><rect x="-18" y="-18" width="36" height="36" rx="4"/><path d="M-6,-18V18 M6,-18V18 M-18,-6H18 M-18,6H18"/></g></g><g transform="translate(617 540) rotate(110) scale(0.7578685137533413)"><g opacity="0.131" fill="none" stroke="#5563a8" stroke-width="2"><rect x="-18" y="-18" width="36" height="36" rx="4"/><path d="M-6,-18V18 M6,-18V18 M-18,-6H18 M-18,6H18"/></g></g><g transform="translate(814 827) rotate(36) scale(0.8457625274148229)"><g opacity="0.145" fill="none" stroke="#5563a8" stroke-width="2.4" stroke-linejoin="round"><path d="M-16,-10 h14 a6,6 0 0 1 6,6 v18 h-14 a6,6 0 0 0 -6,6 v-24 a6,6 0 0 1 6,-6z"/><path d="M16,-10 h-14 a6,6 0 0 0 -6,6 v18 h14 a6,6 0 0 1 6,6 v-24 a6,6 0 0 0 -6,-6z"/></g></g><g transform="translate(485 289) rotate(2) scale(0.8293445125301548)"><g opacity="0.151" fill="none" stroke="#5563a8" stroke-width="2.2"><ellipse cx="0" cy="0" rx="22" ry="9"/><ellipse cx="0" cy="0" rx="22" ry="9" transform="rotate(60)"/><ellipse cx="0" cy="0" rx="22" ry="9" transform="rotate(120)"/><circle cx="0" cy="0" r="4" fill="#5563a8"/></g></g><g transform="translate(199 370) rotate(101) scale(0.923583100648156)"><g opacity="0.156" fill="none" stroke="#5563a8" stroke-width="2.4"><polygon points="0,-20 20,16 -20,16"/></g></g><g transform="translate(670 449) rotate(353) scale(0.8590012011273622)"><g opacity="0.16" fill="none" stroke="#5563a8" stroke-width="2.2"><ellipse cx="0" cy="0" rx="22" ry="9"/><ellipse cx="0" cy="0" rx="22" ry="9" transform="rotate(60)"/><ellipse cx="0" cy="0" rx="22" ry="9" transform="rotate(120)"/><circle cx="0" cy="0" r="4" fill="#5563a8"/></g></g><g transform="translate(422 641) rotate(212) scale(0.7629421250277307)"><g opacity="0.158" fill="none" stroke="#5563a8" stroke-width="2.4" stroke-linejoin="round"><path d="M-16,-10 h14 a6,6 0 0 1 6,6 v18 h-14 a6,6 0 0 0 -6,6 v-24 a6,6 0 0 1 6,-6z"/><path d="M16,-10 h-14 a6,6 0 0 0 -6,6 v18 h14 a6,6 0 0 1 6,6 v-24 a6,6 0 0 0 -6,-6z"/></g></g><g transform="translate(300 163) rotate(308) scale(0.9491126923323829)"><g opacity="0.119" fill="none" stroke="#5563a8" stroke-width="2"><circle cx="0" cy="0" r="18"/><path d="M-18,0H18 M0,-18V18"/><path d="M-12,-12 Q0,-5 12,-12 M-12,12 Q0,5 12,12"/></g></g><g transform="translate(724 1479) rotate(158) scale(0.9527381169767191)"><g opacity="0.153" fill="none" stroke="#5563a8" stroke-width="2.4"><path d="M-28,0 C-18,-12 -8,-12 2,0 S22,12 32,0"/></g></g><g transform="translate(522 1456) rotate(246) scale(0.9394758635078665)"><g opacity="0.149" fill="none" stroke="#5563a8" stroke-width="2.4" stroke-linejoin="round"><path d="M-20,10 L10,-20 L20,-10 L-10,20 L-24,24 Z"/><path d="M6,-24 L24,-6"/></g></g><g transform="translate(88 554) rotate(11) scale(1.3350597378865414)"><g opacity="0.154" fill="none" stroke="#5563a8" stroke-width="2.4"><path d="M-28,0 C-18,-12 -8,-12 2,0 S22,12 32,0"/></g></g><g transform="translate(48 1154) rotate(187) scale(1.2226429823882605)"><g opacity="0.143" fill="none" stroke="#5563a8" stroke-width="2"><rect x="-18" y="-18" width="36" height="36" rx="4"/><path d="M-6,-18V18 M6,-18V18 M-18,-6H18 M-18,6H18"/></g></g><g transform="translate(39 957) rotate(92) scale(0.7780362712193649)"><g opacity="0.159" fill="none" stroke="#5563a8" stroke-width="2"><circle cx="0" cy="0" r="18"/><path d="M-18,0H18 M0,-18V18"/><path d="M-12,-12 Q0,-5 12,-12 M-12,12 Q0,5 12,12"/></g></g><g transform="translate(231 273) rotate(236) scale(1.2034418474707906)"><g opacity="0.141" fill="none" stroke="#5563a8" stroke-width="2.4"><path d="M-28,0 C-18,-12 -8,-12 2,0 S22,12 32,0"/></g></g><g transform="translate(567 543) rotate(55) scale(1.2153618088193974)"><g opacity="0.15" fill="none" stroke="#5563a8" stroke-width="2"><circle cx="0" cy="0" r="18"/><path d="M-18,0H18 M0,-18V18"/><path d="M-12,-12 Q0,-5 12,-12 M-12,12 Q0,5 12,12"/></g></g><g transform="translate(846 782) rotate(18) scale(1.265816591512548)"><g opacity="0.159" fill="none" stroke="#5563a8" stroke-width="2"><rect x="-18" y="-18" width="36" height="36" rx="4"/><path d="M-6,-18V18 M6,-18V18 M-18,-6H18 M-18,6H18"/></g></g><g transform="translate(123 456) rotate(312) scale(0.9544443213025333)"><g opacity="0.158" fill="none" stroke="#5563a8" stroke-width="2.4"><path d="M-28,0 C-18,-12 -8,-12 2,0 S22,12 32,0"/></g></g><g transform="translate(378 594) rotate(279) scale(1.3045185716566745)"><g opacity="0.132" fill="none" stroke="#5563a8" stroke-width="2.4"><circle cx="0" cy="0" r="12"/><ellipse cx="0" cy="0" rx="24" ry="8" transform="rotate(-18)"/></g></g><g transform="translate(354 657) rotate(40) scale(0.8564866653029931)"><g opacity="0.125" fill="#5563a8"><circle cx="0" cy="0" r="3"/><path d="M0,-12 L3,-3 L12,0 L3,3 L0,12 L-3,3 L-12,0 L-3,-3 Z"/></g></g><g transform="translate(735 663) rotate(82) scale(1.3480360887220224)"><g stroke="#5563a8" stroke-width="2.5" stroke-linecap="round" stroke-linejoin="round" opacity="0.122" fill="none"><path d="M0,-16 L4,-4 L16,0 L4,4 L0,16 L-4,4 L-16,0 L-4,-4 Z"/></g></g><g transform="translate(645 1122) rotate(16) scale(1.3041640895868303)"><g opacity="0.15" fill="none" stroke="#5563a8" stroke-width="2.2"><ellipse cx="0" cy="0" rx="22" ry="9"/><ellipse cx="0" cy="0" rx="22" ry="9" transform="rotate(60)"/><ellipse cx="0" cy="0" rx="22" ry="9" transform="rotate(120)"/><circle cx="0" cy="0" r="4" fill="#5563a8"/></g></g><g transform="translate(382 542) rotate(215) scale(1.0233990608943988)"><g opacity="0.121" fill="none" stroke="#5563a8" stroke-width="2.4" stroke-linejoin="round"><path d="M-16,-10 h14 a6,6 0 0 1 6,6 v18 h-14 a6,6 0 0 0 -6,6 v-24 a6,6 0 0 1 6,-6z"/><path d="M16,-10 h-14 a6,6 0 0 0 -6,6 v18 h14 a6,6 0 0 1 6,6 v-24 a6,6 0 0 0 -6,-6z"/></g></g><g transform="translate(683 97) rotate(171) scale(1.230998658360083)"><g opacity="0.124" fill="none" stroke="#5563a8" stroke-width="2.2"><ellipse cx="0" cy="0" rx="22" ry="9"/><ellipse cx="0" cy="0" rx="22" ry="9" transform="rotate(60)"/><ellipse cx="0" cy="0" rx="22" ry="9" transform="rotate(120)"/><circle cx="0" cy="0" r="4" fill="#5563a8"/></g></g><g transform="translate(779 1185) rotate(322) scale(1.3198791375731393)"><g opacity="0.123" fill="none" stroke="#5563a8" stroke-width="2"><rect x="-18" y="-18" width="36" height="36" rx="4"/><path d="M-6,-18V18 M6,-18V18 M-18,-6H18 M-18,6H18"/></g></g><g transform="translate(474 793) rotate(215) scale(0.8395472067241547)"><g opacity="0.125" fill="#5563a8" font-family="Arial, Helvetica, sans-serif" font-size="22" font-weight="700"><text x="-30" y="-6">x² + y²</text><text x="-30" y="18">= r²</text></g></g><g transform="translate(665 376) rotate(232) scale(1.3356045418479785)"><g opacity="0.148" fill="none" stroke="#5563a8" stroke-width="2.4" stroke-linejoin="round"><path d="M-20,10 L10,-20 L20,-10 L-10,20 L-24,24 Z"/><path d="M6,-24 L24,-6"/></g></g><g transform="translate(355 1011) rotate(240) scale(0.9144213182822881)"><g opacity="0.157" fill="none" stroke="#5563a8" stroke-width="2"><rect x="-18" y="-18" width="36" height="36" rx="4"/><path d="M-6,-18V18 M6,-18V18 M-18,-6H18 M-18,6H18"/></g></g><g transform="translate(145 802) rotate(272) scale(1.2432330026703524)"><g opacity="0.145" fill="none" stroke="#5563a8" stroke-width="2.4" stroke-linejoin="round"><path d="M-16,-10 h14 a6,6 0 0 1 6,6 v18 h-14 a6,6 0 0 0 -6,6 v-24 a6,6 0 0 1 6,-6z"/><path d="M16,-10 h-14 a6,6 0 0 0 -6,6 v18 h14 a6,6 0 0 1 6,6 v-24 a6,6 0 0 0 -6,-6z"/></g></g><g transform="translate(541 723) rotate(251) scale(0.8580721784642521)"><g opacity="0.141" fill="#5563a8" font-family="Arial, Helvetica, sans-serif" font-size="22" font-weight="700"><text x="-30" y="-6">x² + y²</text><text x="-30" y="18">= r²</text></g></g><g transform="translate(591 1059) rotate(182) scale(0.9667957398136353)"><g opacity="0.147" fill="none" stroke="#5563a8" stroke-width="2"><circle cx="0" cy="0" r="18"/><path d="M-18,0H18 M0,-18V18"/><path d="M-12,-12 Q0,-5 12,-12 M-12,12 Q0,5 12,12"/></g></g><g transform="translate(807 656) rotate(342) scale(0.968059058007513)"><g opacity="0.154" fill="#5563a8" font-family="Arial, Helvetica, sans-serif" font-size="22" font-weight="700"><text x="-30" y="-6">x² + y²</text><text x="-30" y="18">= r²</text></g></g><g transform="translate(301 1444) rotate(174) scale(1.1795911757373156)"><g opacity="0.127" fill="#5563a8"><circle cx="0" cy="0" r="3"/><path d="M0,-12 L3,-3 L12,0 L3,3 L0,12 L-3,3 L-12,0 L-3,-3 Z"/></g></g><g transform="translate(41 1001) rotate(128) scale(1.0781945352571474)"><g opacity="0.147" fill="none" stroke="#5563a8" stroke-width="2.4"><path d="M-28,0 C-18,-12 -8,-12 2,0 S22,12 32,0"/></g></g><g transform="translate(504 621) rotate(331) scale(1.2400078006104343)"><g opacity="0.153" fill="#5563a8"><circle cx="0" cy="0" r="3"/><path d="M0,-12 L3,-3 L12,0 L3,3 L0,12 L-3,3 L-12,0 L-3,-3 Z"/></g></g><g transform="translate(386 590) rotate(209) scale(1.1364378437947416)"><g opacity="0.158" fill="none" stroke="#5563a8" stroke-width="2.4"><path d="M-28,0 C-18,-12 -8,-12 2,0 S22,12 32,0"/></g></g><g transform="translate(206 1439) rotate(186) scale(1.0198704420452813)"><g opacity="0.141" fill="none" stroke="#5563a8" stroke-width="2.4"><path d="M-28,0 C-18,-12 -8,-12 2,0 S22,12 32,0"/></g></g><g transform="translate(572 370) rotate(185) scale(0.8691919185368133)"><g opacity="0.131" fill="none" stroke="#5563a8" stroke-width="2.4" stroke-linejoin="round"><path d="M-20,10 L10,-20 L20,-10 L-10,20 L-24,24 Z"/><path d="M6,-24 L24,-6"/></g></g><g transform="translate(110 1503) rotate(213) scale(1.1525149795279805)"><g opacity="0.145" fill="none" stroke="#5563a8" stroke-width="2.4" stroke-linejoin="round"><path d="M-16,-10 h14 a6,6 0 0 1 6,6 v18 h-14 a6,6 0 0 0 -6,6 v-24 a6,6 0 0 1 6,-6z"/><path d="M16,-10 h-14 a6,6 0 0 0 -6,6 v18 h14 a6,6 0 0 1 6,6 v-24 a6,6 0 0 0 -6,-6z"/></g></g><g transform="translate(624 1087) rotate(215) scale(1.1493337375064094)"><g opacity="0.145" fill="#5563a8" font-family="Arial, Helvetica, sans-serif" font-size="22" font-weight="700"><text x="-30" y="-6">x² + y²</text><text x="-30" y="18">= r²</text></g></g><g transform="translate(823 1334) rotate(14) scale(0.9124236422199657)"><g opacity="0.126" fill="none" stroke="#5563a8" stroke-width="2.2"><ellipse cx="0" cy="0" rx="22" ry="9"/><ellipse cx="0" cy="0" rx="22" ry="9" transform="rotate(60)"/><ellipse cx="0" cy="0" rx="22" ry="9" transform="rotate(120)"/><circle cx="0" cy="0" r="4" fill="#5563a8"/></g></g><g transform="translate(481 1308) rotate(112) scale(1.1400702380273167)"><g opacity="0.127" fill="#5563a8"><circle cx="0" cy="0" r="3"/><path d="M0,-12 L3,-3 L12,0 L3,3 L0,12 L-3,3 L-12,0 L-3,-3 Z"/></g></g><g transform="translate(765 115) rotate(115) scale(1.3418810358863422)"><g opacity="0.121" fill="none" stroke="#5563a8" stroke-width="2.4" stroke-linejoin="round"><path d="M-16,-10 h14 a6,6 0 0 1 6,6 v18 h-14 a6,6 0 0 0 -6,6 v-24 a6,6 0 0 1 6,-6z"/><path d="M16,-10 h-14 a6,6 0 0 0 -6,6 v18 h14 a6,6 0 0 1 6,6 v-24 a6,6 0 0 0 -6,-6z"/></g></g><g transform="translate(166 256) rotate(92) scale(0.9404105050920569)"><g opacity="0.127" fill="none" stroke="#5563a8" stroke-width="2.4" stroke-linejoin="round"><path d="M-20,10 L10,-20 L20,-10 L-10,20 L-24,24 Z"/><path d="M6,-24 L24,-6"/></g></g><g transform="translate(66 880) rotate(194) scale(1.0291980982621007)"><g opacity="0.145" fill="#5563a8"><circle cx="0" cy="0" r="3"/><path d="M0,-12 L3,-3 L12,0 L3,3 L0,12 L-3,3 L-12,0 L-3,-3 Z"/></g></g><g transform="translate(634 448) rotate(191) scale(0.892707845798203)"><g stroke="#5563a8" stroke-width="2.5" stroke-linecap="round" stroke-linejoin="round" opacity="0.134" fill="none"><path d="M0,-16 L4,-4 L16,0 L4,4 L0,16 L-4,4 L-16,0 L-4,-4 Z"/></g></g><g transform="translate(315 869) rotate(352) scale(1.2698407446521869)"><g opacity="0.135" fill="none" stroke="#5563a8" stroke-width="2.4"><polygon points="0,-20 20,16 -20,16"/></g></g><g transform="translate(66 1156) rotate(48) scale(1.1181384547116568)"><g opacity="0.142" fill="#5563a8" font-family="Arial, Helvetica, sans-serif" font-size="22" font-weight="700"><text x="-30" y="-6">x² + y²</text><text x="-30" y="18">= r²</text></g></g><g transform="translate(377 1219) rotate(180) scale(0.9259150920434319)"><g opacity="0.137" fill="none" stroke="#5563a8" stroke-width="2.4" stroke-linejoin="round"><path d="M-16,-10 h14 a6,6 0 0 1 6,6 v18 h-14 a6,6 0 0 0 -6,6 v-24 a6,6 0 0 1 6,-6z"/><path d="M16,-10 h-14 a6,6 0 0 0 -6,6 v18 h14 a6,6 0 0 1 6,6 v-24 a6,6 0 0 0 -6,-6z"/></g></g><g transform="translate(862 1184) rotate(189) scale(1.1353779250609235)"><g opacity="0.125" fill="none" stroke="#5563a8" stroke-width="2.4" stroke-linejoin="round"><path d="M-20,10 L10,-20 L20,-10 L-10,20 L-24,24 Z"/><path d="M6,-24 L24,-6"/></g></g><g transform="translate(640 813) rotate(101) scale(1.0883154830799906)"><g opacity="0.145" fill="none" stroke="#5563a8" stroke-width="2.4" stroke-linejoin="round"><path d="M-16,-10 h14 a6,6 0 0 1 6,6 v18 h-14 a6,6 0 0 0 -6,6 v-24 a6,6 0 0 1 6,-6z"/><path d="M16,-10 h-14 a6,6 0 0 0 -6,6 v18 h14 a6,6 0 0 1 6,6 v-24 a6,6 0 0 0 -6,-6z"/></g></g><g transform="translate(389 1385) rotate(55) scale(0.7505684869670294)"><g opacity="0.143" fill="none" stroke="#5563a8" stroke-width="2.4"><path d="M-28,0 C-18,-12 -8,-12 2,0 S22,12 32,0"/></g></g><g transform="translate(659 1134) rotate(322) scale(0.8344202905540458)"><g opacity="0.135" fill="none" stroke="#5563a8" stroke-width="2"><circle cx="0" cy="0" r="18"/><path d="M-18,0H18 M0,-18V18"/><path d="M-12,-12 Q0,-5 12,-12 M-12,12 Q0,5 12,12"/></g></g><g transform="translate(472 493) rotate(245) scale(1.0460461212314422)"><g opacity="0.135" fill="none" stroke="#5563a8" stroke-width="2"><rect x="-18" y="-18" width="36" height="36" rx="4"/><path d="M-6,-18V18 M6,-18V18 M-18,-6H18 M-18,6H18"/></g></g>
</svg>