<svg xmlns="http://www.w3.org/2000/svg" width="900" height="1600" viewBox="0 0 900 1600">
<defs><linearGradient id="bg" x1="0%" y1="0%" x2="100%" y2="100%">
<stop offset="0%" stop-color="#07070d"/>
<stop offset="100%" stop-color="#0d0a1e"/>
</linearGradient><radialGradient id="glow" cx="80%" cy="20%" r="60%">
<stop offset="0%" stop-color="#7a5cff" stop-opacity="0.22"/>
<stop offset="60%" stop-color="#7a5cff" stop-opacity="0.06"/>
<stop offset="100%" stop-color="#7a5cff" stop-opacity="0"/>
</radialGradient></defs><rect width="100%" height="100%" fill="url(#bg)"/><rect width="100%" height="100%" fill="url(#glow)"/><rect x="-900" y="-100" width="80" height="1800" transform="rotate(-18 -900 0)" fill="#ffffff" opacity="0.03"/><rect x="-780" y="-100" width="80" height="1800" transform="rotate(-18 -780 0)" fill="#ffffff" opacity="0.03"/><rect x="-660" y="-100" width="80" height="1800" transform="rotate(-18 -660 0)" fill="#ffffff" opacity="0.03"/><rect x="-540" y="-100" width="80" height="1800" transform="rotate(-18 -540 0)" fill="#ffffff" opacity="0.03"/><rect x="-420" y="-100" width="80" height="1800" transform="rotate(-18 -420 0)" fill="#ffffff" opacity="0.03"/><rect x="-300" y="-100" width="80" height="1800" transform="rotate(-18 -300 0)" fill="#ffffff" opacity="0.03"/><rect x="-180" y="-100" width="80" height="1800" transform="rotate(-18 -180 0)" fill="#ffffff" opacity="0.03"/><rect x="-60" y="-100" width="80" height="1800" transform="rotate(-18 -60 0)" fill="#ffffff" opacity="0.03"/><rect x="60" y="-100" width="80" height="1800" transform="rotate(-18 60 0)" fill="#ffffff" opacity="0.03"/><rect x="180" y="-100" width="80" height="1800" transform="rotate(-18 180 0)" fill="#ffffff" opacity="0.03"/><rect x="300" y="-100" width="80" height="1800" transform="rotate(-18 300 0)" fill="#ffffff" opacity="0.03"/><rect x="420" y="-100" width="80" height="1800" transform="rotate(-18 420 0)" fill="#ffffff" opacity="0.03"/><rect x="540" y="-100" width="80" height="1800" transform="rotate(-18 540 0)" fill="#ffffff" opacity="0.03"/><rect x="660" y="-100" width="80" height="1800" transform="rotate(-18 660 0)" fill="#ffffff" opacity="0.03"/><rect x="780" y="-100" width="80" height="1800" transform="rotate(-18 780 0)" fill="#ffffff" opacity="0.03"/><rect x="900" y="-100" width="80" height="1800" transform="rotate(-18 900 0)" fill="#ffffff" opacity="0.03"/><rect x="1020" y="-100" width="80" height="1800" transform="rotate(-18 1020 0)" fill="#ffffff" opacity="0.03"/><rect x="1140" y="-100" width="80" height="1800" transform="rotate(-18 1140 0)" fill="#ffffff" opacity="0.03"/><rect x="1260" y="-100" width="80" height="1800" transform="rotate(-18 1260 0)" fill="#ffffff" opacity="0.03"/><rect x="1380" y="-100" width="80" height="1800" transform="rotate(-18 1380 0)" fill="#ffffff" opacity="0.03"/><rect x="1500" y="-100" width="80" height="1800" transform="rotate(-18 1500 0)" fill="#ffffff" opacity="0.03"/><rect x="1620" y="-100" width="80" height="1800" transform="rotate(-18 1620 0)" fill="#ffffff" opacity="0.03"/><rect x="1740" y="-100" width="80" height="1800" transform="rotate(-18 1740 0)" fill="#ffffff" opacity="0.03"/><g transform="translate(515 580) rotate(341) scale(1.1444835015943533)"><g opacity="0.143" fill="none" stroke="#7a5cff" stroke-width="2.4"><path d="M-28,0 C-18,-12 -8,-12 2,0 S22,12 32,0"/></g></g><g transform="translate(41 797) rotate(329) scale(1.039523288342572)"><g opacity="0.169" fill="none" stroke="#7a5cff" stroke-width="2.4" stroke-linejoin="round"><path d="M-20,10 L10,-20 L20,-10 L-10,20 L-24,24 Z"/><path d="M6,-24 L24,-6"/></g></g><g transform="translate(645 496) rotate(338) scale(1.084914028652009)"><g opacity="0.143" fill="none" stroke="#7a5cff" stroke-width="2"><circle cx="0" cy="0" r="18"/><path d="M-18,0H18 M0,-18V18"/><path d="M-12,-12 Q0,-5 12,-12 M-12,12 Q0,5 12,12"/></g></g><g transform="translate(480 782) rotate(107) scale(0.8473603934333331)"><g stroke="#7a5cff" stroke-width="2.5" stroke-linecap="round" stroke-linejoin="round" opacity="0.164" fill="none"><path d="M0,-16 L4,-4 L16,0 L4,4 L0,16 L-4,4 L-16,0 L-4,-4 Z"/></g></g><g transform="translate(234 182) rotate(172) scale(1.058111915082986)"><g opacity="0.155" fill="#7a5cff"><circle cx="0" cy="0" r="3"/><path d="M0,-12 L3,-3 L12,0 L3,3 L0,12 L-3,3 L-12,0 L-3,-3 Z"/></g></g><g transform="translate(119 68) rotate(338) scale(1.3013440268968852)"><g opacity="0.147" fill="none" stroke="#7a5cff" stroke-width="2.4"><polygon points="0,-20 20,16 -20,16"/></g></g><g transform="translate(463 938) rotate(216) scale(0.8175165816882158)"><g opacity="0.162" fill="none" stroke="#7a5cff" stroke-width="2.4" stroke-linejoin="round"><path d="M-16,-10 h14 a6,6 0 0 1 6,6 v18 h-14 a6,6 0 0 0 -6,6 v-24 a6,6 0 0 1 6,-6z"/><path d="M16,-10 h-14 a6,6 0 0 0 -6,6 v18 h14 a6,6 0 0 1 6,6 v-24 a6,6 0 0 0 -6,-6z"/></g></g><g transform="translate(666 1173) rotate(356) scale(0.8481144769913889)"><g stroke="#7a5cff" stroke-width="2.5" stroke-linecap="round" stroke-linejoin="round" opacity="0.163" fill="none"><path d="M0,-16 L4,-4 L16,0 L4,4 L0,16 L-4,4 L-16,0 L-4,-4 Z"/></g></g><g transform="translate(549 201) rotate(214) scale(0.9903112185333922)"><g opacity="0.165" fill="#7a5cff"><circle cx="0" cy="0" r="3"/><path d="M0,-12 L3,-3 L12,0 L3,3 L0,12 L-3,3 L-12,0 L-3,-3 Z"/></g></g><g transform="translate(518 1277) rotate(15) scale(0.9807488346449248)"><g opacity="0.171" fill="#7a5cff"><circle cx="0" cy="0" r="3"/><path d="M0,-12 L3,-3 L12,0 L3,3 L0,12 L-3,3 L-12,0 L-3,-3 Z"/></g></g><g transform="translate(226 1389) rotate(185) scale(0.9069382415250473)"><g opacity="0.168" fill="none" stroke="#7a5cff" stroke-width="2"><rect x="-18" y="-18" width="36" height="36" rx="4"/><path d="M-6,-18V18 M6,-18V18 M-18,-6H18 M-18,6H18"/></g></g><g transform="translate(146 546) rotate(186) scale(0.8909834563817054)"><g opacity="0.161" fill="none" stroke="#7a5cff" stroke-width="2.4"><path d="M-28,0 C-18,-12 -8,-12 2,0 S22,12 32,0"/></g></g><g transform="translate(859 1054) rotate(195) scale(0.8576450811094489)"><g opacity="0.138" fill="none" stroke="#7a5cff" stroke-width="2"><rect x="-18" y="-18" width="36" height="36" rx="4"/><path d="M-6,-18V18 M6,-18V18 M-18,-6H18 M-18,6H18"/></g></g><g transform="translate(56 484) rotate(22) scale(1.1553926129366894)"><g opacity="0.146" fill="none" stroke="#7a5cff" stroke-width="2"><rect x="-18" y="-18" width="36" height="36" rx="4"/><path d="M-6,-18V18 M6,-18V18 M-18,-6H18 M-18,6H18"/></g></g><g transform="translate(651 240) rotate(112) scale(1.2019774252920064)"><g opacity="0.14" fill="none" stroke="#7a5cff" stroke-width="2.4" stroke-linejoin="round"><path d="M-16,-10 h14 a6,6 0 0 1 6,6 v18 h-14 a6,6 0 0 0 -6,6 v-24 a6,6 0 0 1 6,-6z"/><path d="M16,-10 h-14 a6,6 0 0 0 -6,6 v18 h14 a6,6 0 0 1 6,6 v-24 a6,6 0 0 0 -6,-6z"/></g></g><g transform="translate(310 105) rotate(255) scale(1.0100894508207483)"><g opacity="0.165" fill="none" stroke="#7a5cff" stroke-width="2.4"><path d="M-28,0 C-18,-12 -8,-12 2,0 S22,12 32,0"/></g></g><g transform="translate(773 136) rotate(188) scale(1.0584107836749943)"><g opacity="0.152" fill="none" stroke="#7a5cff" stroke-width="2.2"><ellipse cx="0" cy="0" rx="22" ry="9"/><ellipse cx="0" cy="0" rx="22" ry="9" transform="rotate(60)"/><ellipse cx="0" cy="0" rx="22" ry="9" transform="rotate(120)"/><circle cx="0" cy="0" r="4" fill="#7a5cff"/></g></g><g transform="translate(496 1005) rotate(246) scale(1.1681686608139341)"><g opacity="0.182" fill="none" stroke="#7a5cff" stroke-width="2.2"><ellipse cx="0" cy="0" rx="22" ry="9"/><ellipse cx="0" cy="0" rx="22" ry="9" transform="rotate(60)"/><ellipse cx="0" cy="0" rx="22" ry="9" transform="rotate(120)"/><circle cx="0" cy="0" r="4" fill="#7a5cff"/></g></g><g transform="translate(201 981) rotate(186) scale(1.3045498455264715)"><g opacity="0.145" fill="none" stroke="#7a5cff" stroke-width="2.4" stroke-linejoin="round"><path d="M-16,-10 h14 a6,6 0 0 1 6,6 v18 h-14 a6,6 0 0 0 -6,6 v-24 a6,6 0 0 1 6,-6z"/><path d="M16,-10 h-14 a6,6 0 0 0 -6,6 v18 h14 a6,6 0 0 1 6,6 v-24 a6,6 0 0 0 -6,-6z"/></g></g><g transform="translate(796 480) rotate(3) scale(1.2972251352976867)"><g opacity="0.18" fill="#7a5cff" font-family="Arial, Helvetica, sans-serif" font-size="22" font-weight="700"><text x="-30" y="-6">x² + y²</text><text x="-30" y="18">= r²</text></g></g><g transform="translate(850 729) rotate(4) scale(0.8577240060638788)"><g opacity="0.138" fill="none" stroke="#7a5cff" stroke-width="2.4"><polygon points="0,-20 20,16 -20,16"/></g></g><g transform="translate(663 267) rotate(279) scale(1.3402890415234214)"><g opacity="0.143" fill="none" stroke="#7a5cff" stroke-width="2.4"><polygon points="0,-20 20,16 -20,16"/></g></g><g transform="translate(360 1399) rotate(327) scale(1.249172568080308)"><g opacity="0.147" fill="none" stroke="#7a5cff" stroke-width="2.4"><circle cx="0" cy="0" r="12"/><ellipse cx="0" cy="0" rx="24" ry="8" transform="rotate(-18)"/></g></g><g transform="translate(569 1058) rotate(321) scale(1.0364330984193724)"><g opacity="0.149" fill="none" stroke="#7a5cff" stroke-width="2.4"><path d="M-28,0 C-18,-12 -8,-12 2,0 S22,12 32,0"/></g></g><g transform="translate(485 1543) rotate(149) scale(0.8472885867154466)"><g opacity="0.178" fill="none" stroke="#7a5cff" stroke-width="2"><circle cx="0" cy="0" r="18"/><path d="M-18,0H18 M0,-18V18"/><path d="M-12,-12 Q0,-5 12,-12 M-12,12 Q0,5 12,12"/></g></g><g transform="translate(314 705) rotate(263) scale(1.316342196742431)"><g opacity="0.169" fill="#7a5cff"><circle cx="0" cy="0" r="3"/><path d="M0,-12 L3,-3 L12,0 L3,3 L0,12 L-3,3 L-12,0 L-3,-3 Z"/></g></g><g transform="translate(751 468) rotate(266) scale(1.1904045594559043)"><g opacity="0.137" fill="#7a5cff" font-family="Arial, Helvetica, sans-serif" font-size="22" font-weight="700"><text x="-30" y="-6">x² + y²</text><text x="-30" y="18">= r²</text></g></g><g transform="translate(33 1451) rotate(285) scale(0.7663557222413948)"><g opacity="0.156" fill="#7a5cff" font-family="Arial, Helvetica, sans-serif" font-size="22" font-weight="700"><text x="-30" y="-6">x² + y²</text><text x="-30" y="18">= r²</text></g></g><g transform="translate(277 440) rotate(30) scale(1.011167395733762)"><g opacity="0.163" fill="none" stroke="#7a5cff" stroke-width="2.4"><polygon points="0,-20 20,16 -20,16"/></g></g><g transform="translate(766 558) rotate(213) scale(1.2062605755293576)"><g opacity="0.164" fill="none" stroke="#7a5cff" stroke-width="2"><rect x="-18" y="-18" width="36" height="36" rx="4"/><path d="M-6,-18V18 M6,-18V18 M-18,-6H18 M-18,6H18"/></g></g><g transform="translate(444 437) rotate(177) scale(1.0980981389742883)"><g opacity="0.167" fill="none" stroke="#7a5cff" stroke-width="2.4"><path d="M-28,0 C-18,-12 -8,-12 2,0 S22,12 32,0"/></g></g><g transform="translate(424 1183) rotate(352) scale(0.8465543032457471)"><g opacity="0.179" fill="none" stroke="#7a5cff" stroke-width="2.4" stroke-linejoin="round"><path d="M-16,-10 h14 a6,6 0 0 1 6,6 v18 h-14 a6,6 0 0 0 -6,6 v-24 a6,6 0 0 1 6,-6z"/><path d="M16,-10 h-14 a6,6 0 0 0 -6,6 v18 h14 a6,6 0 0 1 6,6 v-24 a6,6 0 0 0 -6,-6z"/></g></g><g transform="translate(846 107) rotate(212) scale(1.288485955028197)"><g opacity="0.146" fill="none" stroke="#7a5cff" stroke-width="2.4"><polygon points="0,-20 20,16 -20,16"/></g></g><g transform="translate(418 231) rotate(96) scale(1.176170237451058)"><g opacity="0.149" fill="#7a5cff" font-family="Arial, Helvetica, sans-serif" font-size="22" font-weight="700"><text x="-30" y="-6">x² + y²</text><text x="-30" y="18">= r²</text></g></g><g transform="translate(842 1441) rotate(251) scale(1.1619456032288644)"><g opacity="0.165" fill="none" stroke="#7a5cff" stroke-width="2"><circle cx="0" cy="0" r="18"/><path d="M-18,0H18 M0,-18V18"/><path d="M-12,-12 Q0,-5 12,-12 M-12,12 Q0,5 12,12"/></g></g><g transform="translate(247 1124) rotate(347) scale(1.1094015897838128)"><g opacity="0.164" fill="none" stroke="#7a5cff" stroke-width="2"><rect x="-18" y="-18" width="36" height="36" rx="4"/><path d="M-6,-18V18 M6,-18V18 M-18,-6H18 M-18,6H18"/></g></g><g transform="translate(103 863) rotate(42) scale(0.9634553581040792)"><g opacity="0.152" fill="#7a5cff"><circle cx="0" cy="0" r="3"/><path d="M0,-12 L3,-3 L12,0 L3,3 L0,12 L-3,3 L-12,0 L-3,-3 Z"/></g></g><g transform="translate(733 215) rotate(159) scale(1.1824302806517957)"><g opacity="0.172" fill="none" stroke="#7a5cff" stroke-width="2.4" stroke-linejoin="round"><path d="M-16,-10 h14 a6,6 0 0 1 6,6 v18 h-14 a6,6 0 0 0 -6,6 v-24 a6,6 0 0 1 6,-6z"/><path d="M16,-10 h-14 a6,6 0 0 0 -6,6 v18 h14 a6,6 0 0 1 6,6 v-24 a6,6 0 0 0 -6,-6z"/></g></g><g transform="translate(705 1334) rotate(187) scale(1.3108239789427358)"><g opacity="0.137" fill="none" stroke="#7a5cff" stroke-width="2.4" stroke-linejoin="round"><path d="M-16,-10 h14 a6,6 0 0 1 6,6 v18 h-14 a6,6 0 0 0 -6,6 v-24 a6,6 0 0 1 6,-6z"/><path d="M16,-10 h-14 a6,6 0 0 0 -6,6 v18 h14 a6,6 0 0 1 6,6 v-24 a6,6 0 0 0 -6,-6z"/></g></g><g transform="translate(529 1305) rotate(91) scale(1.0162134624363661)"><g stroke="#7a5cff" stroke-width="2.5" stroke-linecap="round" stroke-linejoin="round" opacity="0.168" fill="none"><path d="M0,-16 L4,-4 L16,0 L4,4 L0,16 L-4,4 L-16,0 L-4,-4 Z"/></g></g><g transform="translate(379 965) rotate(167) scale(0.893006769795507)"><g opacity="0.181" fill="none" stroke="#7a5cff" stroke-width="2.4"><circle cx="0" cy="0" r="12"/><ellipse cx="0" cy="0" rx="24" ry="8" transform="rotate(-18)"/></g></g><g transform="translate(37 767) rotate(103) scale(0.9698907194123847)"><g opacity="0.15" fill="none" stroke="#7a5cff" stroke-width="2"><rect x="-18" y="-18" width="36" height="36" rx="4"/><path d="M-6,-18V18 M6,-18V18 M-18,-6H18 M-18,6H18"/></g></g><g transform="translate(558 330) rotate(357) scale(1.0506207342565932)"><g opacity="0.144" fill="none" stroke="#7a5cff" stroke-width="2.4"><path d="M-28,0 C-18,-12 -8,-12 2,0 S22,12 32,0"/></g></g><g transform="translate(505 826) rotate(127) scale(1.1139181874732238)"><g opacity="0.158" fill="none" stroke="#7a5cff" stroke-width="2.4" stroke-linejoin="round"><path d="M-20,10 L10,-20 L20,-10 L-10,20 L-24,24 Z"/><path d="M6,-24 L24,-6"/></g></g><g transform="translate(80 495) rotate(357) scale(0.9945233100860882)"><g opacity="0.161" fill="none" stroke="#7a5cff" stroke-width="2"><rect x="-18" y="-18" width="36" height="36" rx="4"/><path d="M-6,-18V18 M6,-18V18 M-18,-6H18 M-18,6H18"/></g></g><g transform="translate(480 1388) rotate(54) scale(0.781348702188293)"><g opacity="0.163" fill="none" stroke="#7a5cff" stroke-width="2.4"><polygon points="0,-20 20,16 -20,16"/></g></g><g transform="translate(349 747) rotate(8) scale(1.207190826828429)"><g opacity="0.173" fill="none" stroke="#7a5cff" stroke-width="2.4"><path d="M-28,0 C-18,-12 -8,-12 2,0 S22,12 32,0"/></g></g><g transform="translate(399 1325) rotate(69) scale(0.9343182750211185)"><g opacity="0.147" fill="none" stroke="#7a5cff" stroke-width="2.4" stroke-linejoin="round"><path d="M-20,10 L10,-20 L20,-10 L-10,20 L-24,24 Z"/><path d="M6,-24 L24,-6"/></g></g><g transform="translate(587 305) rotate(23) scale(0.9011101148781491)"><g opacity="0.175" fill="none" stroke="#7a5cff" stroke-width="2"><rect x="-18" y="-18" width="36" height="36" rx="4"/><path d="M-6,-18V18 M6,-18V18 M-18,-6H18 M-18,6H18"/></g></g><g transform="translate(322 866) rotate(306) scale(1.3116804180777764)"><g opacity="0.155" fill="#7a5cff" font-family="Arial, Helvetica, sans-serif" font-size="22" font-weight="700"><text x="-30" y="-6">x² + y²</text><text x="-30" y="18">= r²</text></g></g><g transform="translate(838 1273) rotate(64) scale(0.9425803235837573)"><g opacity="0.167" fill="#7a5cff" font-family="Arial, Helvetica, sans-serif" font-size="22" font-weight="700"><text x="-30" y="-6">x² + y²</text><text x="-30" y="18">= r²</text></g></g><g transform="translate(704 1276) rotate(193) scale(1.227652590502807)"><g opacity="0.156" fill="none" stroke="#7a5cff" stroke-width="2"><rect x="-18" y="-18" width="36" height="36" rx="4"/><path d="M-6,-18V18 M6,-18V18 M-18,-6H18 M-18,6H18"/></g></g><g transform="translate(704 569) rotate(194) scale(0.9539053041051438)"><g opacity="0.154" fill="none" stroke="#7a5cff" stroke-width="2.4" stroke-linejoin="round"><path d="M-20,10 L10,-20 L20,-10 L-10,20 L-24,24 Z"/><path d="M6,-24 L24,-6"/></g></g><g transform="translate(439 404) rotate(105) scale(0.851896033236894)"><g opacity="0.141" fill="#7a5cff" font-family="Arial, Helvetica, sans-serif" font-size="22" font-weight="700"><text x="-30" y="-6">x² + y²</text><text x="-30" y="18">= r²</text></g></g><g transform="translate(304 1100) rotate(334) scale(1.2826006161552237)"><g opacity="0.183" fill="none" stroke="#7a5cff" stroke-width="2.4"><path d="M-28,0 C-18,-12 -8,-12 2,0 S22,12 32,0"/></g></g><g transform="translate(342 311) rotate(159) scale(1.2653722414312367)"><g opacity="0.172" fill="none" stroke="#7a5cff" stroke-width="2.2"><ellipse cx="0" cy="0" rx="22" ry="9"/><ellipse cx="0" cy="0" rx="22" ry="9" transform="rotate(60)"/><ellipse cx="0" cy="0" rx="22" ry="9" transform="rotate(120)"/><circle cx="0" cy="0" r="4" fill="#7a5cff"/></g></g><g transform="translate(55 1167) rotate(6) scale(0.9350485103245229)"><g opacity="0.145" fill="none" stroke="#7a5cff" stroke-width="2.4" stroke-linejoin="round"><path d="M-16,-10 h14 a6,6 0 0 1 6,6 v18 h-14 a6,6 0 0 0 -6,6 v-24 a6,6 0 0 1 6,-6z"/><path d="M16,-10 h-14 a6,6 0 0 0 -6,6 v18 h14 a6,6 0 0 1 6,6 v-24 a6,6 0 0 0 -6,-6z"/></g></g><g transform="translate(231 1496) rotate(97) scale(1.2351874409463446)"><g opacity="0.173" fill="none" stroke="#7a5cff" stroke-width="2.4" stroke-linejoin="round"><path d="M-16,-10 h14 a6,6 0 0 1 6,6 v18 h-14 a6,6 0 0 0 -6,6 v-24 a6,6 0 0 1 6,-6z"/><path d="M16,-10 h-14 a6,6 0 0 0 -6,6 v18 h14 a6,6 0 0 1 6,6 v-24 a6,6 0 0 0 -6,-6z"/></g></g><g transform="translate(589 74) rotate(52) scale(1.1141182373947036)"><g opacity="0.169" fill="none" stroke="#7a5cff" stroke-width="2.4"><path d="M-28,0 C-18,-12 -8,-12 2,0 S22,12 32,0"/></g></g><g transform="translate(579 440) rotate(270) scale(1.019071403584479)"><g stroke="#7a5cff" stroke-width="2.5" stroke-linecap="round" stroke-linejoin="round" opacity="0.167" fill="none"><path d="M0,-16 L4,-4 L16,0 L4,4 L0,16 L-4,4 L-16,0 L-4,-4 Z"/></g></g><g transform="translate(849 834) rotate(325) scale(1.053168768374777)"><g opacity="0.158" fill="#7a5cff" font-family="Arial, Helvetica, sans-serif" font-size="22" font-weight="700"><text x="-30" y="-6">x² + y²</text><text x="-30" y="18">= r²</text></g></g><g transform="translate(679 825) rotate(264) scale(1.261705628401944)"><g stroke="#7a5cff" stroke-width="2.5" stroke-linecap="round" stroke-linejoin="round" opacity="0.17" fill="none"><path d="M0,-16 L4,-4 L16,0 L4,4 L0,16 L-4,4 L-16,0 L-4,-4 Z"/></g></g><g transform="translate(315 72) rotate(251) scale(1.3049174360411833)"><g opacity="0.169" fill="none" stroke="#7a5cff" stroke-width="2.4"><path d="M-28,0 C-18,-12 -8,-12 2,0 S22,12 32,0"/></g></g><g transform="translate(728 904) rotate(311) scale(1.0792609396839064)"><g opacity="0.172" fill="none" stroke="#7a5cff" stroke-width="2.4"><path d="M-28,0 C-18,-12 -8,-12 2,0 S22,12 32,0"/></g></g><g transform="translate(162 743) rotate(55) scale(0.7874316270576482)"><g opacity="0.14" fill="none" stroke="#7a5cff" stroke-width="2"><rect x="-18" y="-18" width="36" height="36" rx="4"/><path d="M-6,-18V18 M6,-18V18 M-18,-6H18 M-18,6H18"/></g></g><g transform="translate(87 47) rotate(15) scale(1.3098209392258104)"><g opacity="0.169" fill="none" stroke="#7a5cff" stroke-width="2.4"><circle cx="0" cy="0" r="12"/><ellipse cx="0" cy="0" rx="24" ry="8" transform="rotate(-18)"/></g></g><g transform="translate(608 1291) rotate(332) scale(1.3040908677830847)"><g stroke="#7a5cff" stroke-width="2.5" stroke-linecap="round" stroke-linejoin="round" opacity="0.164" fill="none"><path d="M0,-16 L4,-4 L16,0 L4,4 L0,16 L-4,4 L-16,0 L-4,-4 Z"/></g></g><g transform="translate(631 1003) rotate(235) scale(1.127530526548285)"><g opacity="0.156" fill="none" stroke="#7a5cff" stroke-width="2.4"><path d="M-28,0 C-18,-12 -8,-12 2,0 S22,12 32,0"/></g></g><g transform="translate(586 677) rotate(200) scale(1.2300627763944312)"><g opacity="0.167" fill="none" stroke="#7a5cff" stroke-width="2.4"><circle cx="0" cy="0" r="12"/><ellipse cx="0" cy="0" rx="24" ry="8" transform="rotate(-18)"/></g></g><g transform="translate(375 150) rotate(351) scale(1.342036238894742)"><g opacity="0.143" fill="none" stroke="#7a5cff" stroke-width="2.4"><path d="M-28,0 C-18,-12 -8,-12 2,0 S22,12 32,0"/></g></g><g transform="translate(155 1024) rotate(342) scale(1.1100715807230732)"><g opacity="0.137" fill="#7a5cff" font-family="Arial, Helvetica, sans-serif" font-size="22" font-weight="700"><text x="-30" y="-6">x² + y²</text><text x="-30" y="18">= r²</text></g></g><g transform="translate(264 282) rotate(174) scale(1.0394531358894425)"><g opacity="0.172" fill="none" stroke="#7a5cff" stroke-width="2"><rect x="-18" y="-18" width="36" height="36" rx="4"/><path d="M-6,-18V18 M6,-18V18 M-18,-6H18 M-18,6H18"/></g></g><g transform="translate(377 1246) rotate(248) scale(0.9789759670134563)"><g opacity="0.145" fill="none" stroke="#7a5cff" stroke-width="2.4"><path d="M-28,0 C-18,-12 -8,-12 2,0 S22,12 32,0"/></g></g><g transform="translate(669 1331) rotate(185) scale(1.0715548200289229)"><g opacity="0.147" fill="none" stroke="#7a5cff" stroke-width="2.4"><circle cx="0" cy="0" r="12"/><ellipse cx="0" cy="0" rx="24" ry="8" transform="rotate(-18)"/></g></g><g transform="translate(424 575) rotate(64) scale(1.1174392129380064)"><g opacity="0.168" fill="none" stroke="#7a5cff" stroke-width="2.4"><polygon points="0,-20 20,16 -20,16"/></g></g><g transform="translate(480 1555) rotate(175) scale(0.9174298536127657)"><g opacity="0.184" fill="none" stroke="#7a5cff" stroke-width="2"><rect x="-18" y="-18" width="36" height="36" rx="4"/><path d="M-6,-18V18 M6,-18V18 M-18,-6H18 M-18,6H18"/></g></g><g transform="translate(152 1539) rotate(252) scale(1.1021361826294496)"><g opacity="0.153" fill="none" stroke="#7a5cff" stroke-width="2.4" stroke-linejoin="round"><path d="M-16,-10 h14 a6,6 0 0 1 6,6 v18 h-14 a6,6 0 0 0 -6,6 v-24 a6,6 0 0 1 6,-6z"/><path d="M16,-10 h-14 a6,6 0 0 0 -6,6 v18 h14 a6,6 0 0 1 6,6 v-24 a6,6 0 0 0 -6,-6z"/></g></g><g transform="translate(189 1250) rotate(141) scale(1.1226322199874263)"><g opacity="0.152" fill="none" stroke="#7a5cff" stroke-width="2"><rect x="-18" y="-18" width="36" height="36" rx="4"/><path d="M-6,-18V18 M6,-18V18 M-18,-6H18 M-18,6H18"/></g></g><g transform="translate(413 756) rotate(169) scale(1.294073264289924)"><g opacity="0.165" fill="none" stroke="#7a5cff" stroke-width="2.4"><polygon points="0,-20 20,16 -20,16"/></g></g><g transform="translate(102 384) rotate(104) scale(1.1248112368572964)"><g opacity="0.166" fill="none" stroke="#7a5cff" stroke-width="2.4"><path d="M-28,0 C-18,-12 -8,-12 2,0 S22,12 32,0"/></g></g><g transform="translate(660 746) rotate(72) scale(1.2650240820852288)"><g opacity="0.152" fill="#7a5cff" font-family="Arial, Helvetica, sans-serif" font-size="22" font-weight="700"><text x="-30" y="-6">x² + y²</text><text x="-30" y="18">= r²</text></g></g><g transform="translate(703 1345) rotate(264) scale(0.988350525689896)"><g opacity="0.167" fill="none" stroke="#7a5cff" stroke-width="2.4"><path d="M-28,0 C-18,-12 -8,-12 2,0 S22,12 32,0"/></g></g><g transform="translate(105 1405) rotate(128) scale(1.065291908835614)"><g opacity="0.175" fill="none" stroke="#7a5cff" stroke-width="2.4" stroke-linejoin="round"><path d="M-16,-10 h14 a6,6 0 0 1 6,6 v18 h-14 a6,6 0 0 0 -6,6 v-24 a6,6 0 0 1 6,-6z"/><path d="M16,-10 h-14 a6,6 0 0 0 -6,6 v18 h14 a6,6 0 0 1 6,6 v-24 a6,6 0 0 0 -6,-6z"/></g></g><g transform="translate(122 1409) rotate(224) scale(0.9365093805116302)"><g opacity="0.15" fill="none" stroke="#7a5cff" stroke-width="2.2"><ellipse cx="0" cy="0" rx="22" ry="9"/><ellipse cx="0" cy="0" rx="22" ry="9" transform="rotate(60)"/><ellipse cx="0" cy="0" rx="22" ry="9" transform="rotate(120)"/><circle cx="0" cy="0" r="4" fill="#7a5cff"/></g></g><g transform="translate(734 507) rotate(140) scale(0.8626245760750013)"><g opacity="0.142" fill="#7a5cff"><circle cx="0" cy="0" r="3"/><path d="M0,-12 L3,-3 L12,0 L3,3 L0,12 L-3,3 L-12,0 L-3,-3 Z"/></g></g><rect width="100%" height="100%" fill="#000" opacity="0.12"/>
</svg>