<svg xmlns="http://www.w3.org/2000/svg" width="900" height="1600" viewBox="0 0 900 1600">
<defs><linearGradient id="bg" x1="0%" y1="0%" x2="100%" y2="100%">
<stop offset="0%" stop-color="#2c1910"/>
<stop offset="50%" stop-color="#5a3016"/>
<stop offset="100%" stop-color="#7a4a24"/>
</linearGradient></defs><rect width="100%" height="100%" fill="url(#bg)"/><path d="M531,1338 Q839,844 975,232" stroke="#fff0d5" stroke-opacity="0.05" stroke-width="3.738877248787953" fill="none" stroke-linecap="round"/><path d="M794,427 Q584,458 672,609" stroke="#fff0d5" stroke-opacity="0.05" stroke-width="4.021644338158463" fill="none" stroke-linecap="round"/><path d="M655,459 Q664,920 742,1264" stroke="#fff0d5" stroke-opacity="0.05" stroke-width="3.115267786709269" fill="none" stroke-linecap="round"/><path d="M823,1342 Q287,1673 151,1694" stroke="#fff0d5" stroke-opacity="0.05" stroke-width="2.9696315869254564" fill="none" stroke-linecap="round"/><path d="M414,-65 Q39,405 -88,595" stroke="#fff0d5" stroke-opacity="0.05" stroke-width="1.9155906966586405" fill="none" stroke-linecap="round"/><path d="M990,627 Q893,481 985,598" stroke="#fff0d5" stroke-opacity="0.05" stroke-width="4.097306194873213" fill="none" stroke-linecap="round"/><path d="M414,77 Q495,492 433,633" stroke="#fff0d5" stroke-opacity="0.05" stroke-width="1.731184531660763" fill="none" stroke-linecap="round"/><path d="M-35,129 Q-64,572 302,637" stroke="#fff0d5" stroke-opacity="0.05" stroke-width="1.6975757167242167" fill="none" stroke-linecap="round"/><path d="M-1,-42 Q610,417 979,985" stroke="#fff0d5" stroke-opacity="0.05" stroke-width="1.6504474982229083" fill="none" stroke-linecap="round"/><path d="M345,1527 Q634,1303 949,1289" stroke="#fff0d5" stroke-opacity="0.05" stroke-width="3.3558856820858787" fill="none" stroke-linecap="round"/><path d="M8,1575 Q502,1561 799,1495" stroke="#fff0d5" stroke-opacity="0.05" stroke-width="2.195624181871304" fill="none" stroke-linecap="round"/><path d="M17,1644 Q373,1022 422,747" stroke="#fff0d5" stroke-opacity="0.05" stroke-width="2.0694913208355157" fill="none" stroke-linecap="round"/><path d="M555,467 Q175,228 150,373" stroke="#fff0d5" stroke-opacity="0.05" stroke-width="3.4727065496124974" fill="none" stroke-linecap="round"/><path d="M814,766 Q415,502 322,205" stroke="#fff0d5" stroke-opacity="0.05" stroke-width="3.375146212640524" fill="none" stroke-linecap="round"/><path d="M421,1089 Q706,777 592,533" stroke="#fff0d5" stroke-opacity="0.05" stroke-width="2.2887714448843335" fill="none" stroke-linecap="round"/><path d="M98,1697 Q257,957 356,358" stroke="#fff0d5" stroke-opacity="0.05" stroke-width="2.843246827796002" fill="none" stroke-linecap="round"/><path d="M141,507 Q148,512 450,455" stroke="#fff0d5" stroke-opacity="0.05" stroke-width="2.5505287086773905" fill="none" stroke-linecap="round"/><path d="M365,383 Q508,192 379,214" stroke="#fff0d5" stroke-opacity="0.05" stroke-width="4.487109986526965" fill="none" stroke-linecap="round"/><path d="M362,257 Q590,359 563,418" stroke="#fff0d5" stroke-opacity="0.05" stroke-width="1.8715516581349223" fill="none" stroke-linecap="round"/><path d="M68,1133 Q340,1042 334,1312" stroke="#fff0d5" stroke-opacity="0.05" stroke-width="2.7204144351496082" fill="none" stroke-linecap="round"/><path d="M910,1155 Q943,743 615,652" stroke="#fff0d5" stroke-opacity="0.05" stroke-width="1.7550737383751365" fill="none" stroke-linecap="round"/><path d="M-75,328 Q281,101 879,235" stroke="#fff0d5" stroke-opacity="0.05" stroke-width="2.133607538123701" fill="none" stroke-linecap="round"/><circle cx="305" cy="253" r="120" fill="none" stroke="#ffffff" stroke-opacity="0.05" stroke-width="2"/><circle cx="102" cy="195" r="180" fill="none" stroke="#ffffff" stroke-opacity="0.05" stroke-width="2"/><circle cx="854" cy="486" r="240" fill="none" stroke="#ffffff" stroke-opacity="0.05" stroke-width="2"/><circle cx="102" cy="1304" r="320" fill="none" stroke="#ffffff" stroke-opacity="0.05" stroke-width="2"/>
</svg>