<svg xmlns="http://www.w3.org/2000/svg" width="900" height="1600" viewBox="0 0 900 1600">
<defs><linearGradient id="bg" x1="0%" y1="0%" x2="100%" y2="100%">
<stop offset="0%" stop-color="#0c1222"/>
<stop offset="50%" stop-color="#111c33"/>
<stop offset="100%" stop-color="#1f3b68"/>
</linearGradient></defs><rect width="100%" height="100%" fill="url(#bg)"/><path d="M13,771 Q148,1067 221,1241" stroke="#cde6ff" stroke-opacity="0.06" stroke-width="4.013499882563213" fill="none" stroke-linecap="round"/><path d="M708,1443 Q272,933 44,819" stroke="#cde6ff" stroke-opacity="0.06" stroke-width="3.474226962237171" fill="none" stroke-linecap="round"/><path d="M202,234 Q16,1033 -75,1459" stroke="#cde6ff" stroke-opacity="0.06" stroke-width="4.005426336463142" fill="none" stroke-linecap="round"/><path d="M645,770 Q550,778 480,781" stroke="#cde6ff" stroke-opacity="0.06" stroke-width="1.6499314970396086" fill="none" stroke-linecap="round"/><path d="M407,-12 Q378,117 162,197" stroke="#cde6ff" stroke-opacity="0.06" stroke-width="2.6369869779685424" fill="none" stroke-linecap="round"/><path d="M702,631 Q844,246 690,220" stroke="#cde6ff" stroke-opacity="0.06" stroke-width="3.7729330610216767" fill="none" stroke-linecap="round"/><path d="M230,1460 Q438,771 669,397" stroke="#cde6ff" stroke-opacity="0.06" stroke-width="3.9447633315260613" fill="none" stroke-linecap="round"/><path d="M907,263 Q461,341 -11,541" stroke="#cde6ff" stroke-opacity="0.06" stroke-width="4.333350263538673" fill="none" stroke-linecap="round"/><path d="M899,622 Q747,717 520,1065" stroke="#cde6ff" stroke-opacity="0.06" stroke-width="4.428132772041094" fill="none" stroke-linecap="round"/><path d="M694,1454 Q908,874 933,-2" stroke="#cde6ff" stroke-opacity="0.06" stroke-width="2.9262637723311666" fill="none" stroke-linecap="round"/><path d="M392,1490 Q239,1170 9,521" stroke="#cde6ff" stroke-opacity="0.06" stroke-width="3.8635972741040354" fill="none" stroke-linecap="round"/><path d="M607,1468 Q800,980 762,611" stroke="#cde6ff" stroke-opacity="0.06" stroke-width="3.9357902913814238" fill="none" stroke-linecap="round"/><path d="M704,629 Q738,912 803,1399" stroke="#cde6ff" stroke-opacity="0.06" stroke-width="3.573374126344974" fill="none" stroke-linecap="round"/><path d="M203,1302 Q686,1137 853,729" stroke="#cde6ff" stroke-opacity="0.06" stroke-width="2.436421579406182" fill="none" stroke-linecap="round"/><path d="M979,1554 Q531,637 -58,-90" stroke="#cde6ff" stroke-opacity="0.06" stroke-width="1.840919087756242" fill="none" stroke-linecap="round"/><path d="M483,331 Q141,36 104,-27" stroke="#cde6ff" stroke-opacity="0.06" stroke-width="2.8222242576978793" fill="none" stroke-linecap="round"/><path d="M607,577 Q639,617 519,881" stroke="#cde6ff" stroke-opacity="0.06" stroke-width="2.614032419189532" fill="none" stroke-linecap="round"/><path d="M530,173 Q587,304 618,622" stroke="#cde6ff" stroke-opacity="0.06" stroke-width="2.7715016096936997" fill="none" stroke-linecap="round"/><path d="M608,1014 Q508,1255 317,1389" stroke="#cde6ff" stroke-opacity="0.06" stroke-width="3.9418930719646292" fill="none" stroke-linecap="round"/><path d="M912,450 Q431,-7 112,-95" stroke="#cde6ff" stroke-opacity="0.06" stroke-width="4.45549241986517" fill="none" stroke-linecap="round"/><path d="M503,946 Q668,654 551,628" stroke="#cde6ff" stroke-opacity="0.06" stroke-width="2.7030382437485123" fill="none" stroke-linecap="round"/><path d="M700,877 Q598,749 867,671" stroke="#cde6ff" stroke-opacity="0.06" stroke-width="3.8677486447467393" fill="none" stroke-linecap="round"/><circle cx="21" cy="1527" r="120" fill="none" stroke="#ffffff" stroke-opacity="0.05" stroke-width="2"/><circle cx="728" cy="380" r="180" fill="none" stroke="#ffffff" stroke-opacity="0.05" stroke-width="2"/><circle cx="547" cy="1170" r="240" fill="none" stroke="#ffffff" stroke-opacity="0.05" stroke-width="2"/><circle cx="227" cy="529" r="320" fill="none" stroke="#ffffff" stroke-opacity="0.05" stroke-width="2"/><path d="M0,0 Q40,400 0,800 T0,1600" stroke="#fff" stroke-opacity="0.04" stroke-width="2" fill="none"/><path d="M80,0 Q120,400 80,800 T80,1600" stroke="#fff" stroke-opacity="0.04" stroke-width="2" fill="none"/><path d="M160,0 Q200,400 160,800 T160,1600" stroke="#fff" stroke-opacity="0.04" stroke-width="2" fill="none"/><path d="M240,0 Q280,400 240,800 T240,1600" stroke="#fff" stroke-opacity="0.04" stroke-width="2" fill="none"/><path d="M320,0 Q360,400 320,800 T320,1600" stroke="#fff" stroke-opacity="0.04" stroke-width="2" fill="none"/><path d="M400,0 Q440,400 400,800 T400,1600" stroke="#fff" stroke-opacity="0.04" stroke-width="2" fill="none"/><path d="M480,0 Q520,400 480,800 T480,1600" stroke="#fff" stroke-opacity="0.04" stroke-width="2" fill="none"/><path d="M560,0 Q600,400 560,800 T560,1600" stroke="#fff" stroke-opacity="0.04" stroke-width="2" fill="none"/><path d="M640,0 Q680,400 640,800 T640,1600" stroke="#fff" stroke-opacity="0.04" stroke-width="2" fill="none"/><path d="M720,0 Q760,400 720,800 T720,1600" stroke="#fff" stroke-opacity="0.04" stroke-width="2" fill="none"/><path d="M800,0 Q840,400 800,800 T800,1600" stroke="#fff" stroke-opacity="0.04" stroke-width="2" fill="none"/><path d="M880,0 Q920,400 880,800 T880,1600" stroke="#fff" stroke-opacity="0.04" stroke-width="2" fill="none"/><path d="M960,0 Q1000,400 960,800 T960,1600" stroke="#fff" stroke-opacity="0.04" stroke-width="2" fill="none"/>
</svg>