<svg xmlns="http://www.w3.org/2000/svg" width="900" height="1600" viewBox="0 0 900 1600">
<defs><linearGradient id="bg" x1="0%" y1="0%" x2="100%" y2="100%">
<stop offset="0%" stop-color="#070809"/>
<stop offset="100%" stop-color="#15110c"/>
</linearGradient><radialGradient id="glow" cx="80%" cy="20%" r="60%">
<stop offset="0%" stop-color="#f0b84c" stop-opacity="0.22"/>
<stop offset="60%" stop-color="#f0b84c" stop-opacity="0.06"/>
<stop offset="100%" stop-color="#f0b84c" stop-opacity="0"/>
</radialGradient></defs><rect width="100%" height="100%" fill="url(#bg)"/><rect width="100%" height="100%" fill="url(#glow)"/><g transform="translate(493 1176) rotate(238) scale(1.2641178038308498)"><g opacity="0.18" fill="none" stroke="#f0b84c" stroke-width="2.4" stroke-linejoin="round"><path d="M-20,10 L10,-20 L20,-10 L-10,20 L-24,24 Z"/><path d="M6,-24 L24,-6"/></g></g><g transform="translate(631 418) rotate(262) scale(0.860796206312926)"><g opacity="0.187" fill="none" stroke="#f0b84c" stroke-width="2.4" stroke-linejoin="round"><path d="M-20,10 L10,-20 L20,-10 L-10,20 L-24,24 Z"/><path d="M6,-24 L24,-6"/></g></g><g transform="translate(842 411) rotate(155) scale(0.8064740737375311)"><g opacity="0.158" fill="none" stroke="#f0b84c" stroke-width="2.4" stroke-linejoin="round"><path d="M-16,-10 h14 a6,6 0 0 1 6,6 v18 h-14 a6,6 0 0 0 -6,6 v-24 a6,6 0 0 1 6,-6z"/><path d="M16,-10 h-14 a6,6 0 0 0 -6,6 v18 h14 a6,6 0 0 1 6,6 v-24 a6,6 0 0 0 -6,-6z"/></g></g><g transform="translate(859 1450) rotate(304) scale(1.1306716697300092)"><g opacity="0.205" fill="none" stroke="#f0b84c" stroke-width="2"><rect x="-18" y="-18" width="36" height="36" rx="4"/><path d="M-6,-18V18 M6,-18V18 M-18,-6H18 M-18,6H18"/></g></g><g transform="translate(699 1543) rotate(80) scale(1.1193376227471425)"><g opacity="0.154" fill="none" stroke="#f0b84c" stroke-width="2"><circle cx="0" cy="0" r="18"/><path d="M-18,0H18 M0,-18V18"/><path d="M-12,-12 Q0,-5 12,-12 M-12,12 Q0,5 12,12"/></g></g><g transform="translate(571 159) rotate(97) scale(0.785730663101313)"><g opacity="0.185" fill="none" stroke="#f0b84c" stroke-width="2.2"><ellipse cx="0" cy="0" rx="22" ry="9"/><ellipse cx="0" cy="0" rx="22" ry="9" transform="rotate(60)"/><ellipse cx="0" cy="0" rx="22" ry="9" transform="rotate(120)"/><circle cx="0" cy="0" r="4" fill="#f0b84c"/></g></g><g transform="translate(826 980) rotate(302) scale(0.9457760115289588)"><g opacity="0.181" fill="none" stroke="#f0b84c" stroke-width="2.2"><ellipse cx="0" cy="0" rx="22" ry="9"/><ellipse cx="0" cy="0" rx="22" ry="9" transform="rotate(60)"/><ellipse cx="0" cy="0" rx="22" ry="9" transform="rotate(120)"/><circle cx="0" cy="0" r="4" fill="#f0b84c"/></g></g><g transform="translate(685 632) rotate(339) scale(1.049863891324075)"><g opacity="0.178" fill="none" stroke="#f0b84c" stroke-width="2.4"><circle cx="0" cy="0" r="12"/><ellipse cx="0" cy="0" rx="24" ry="8" transform="rotate(-18)"/></g></g><g transform="translate(314 863) rotate(42) scale(1.3485937202778508)"><g opacity="0.17" fill="#f0b84c" font-family="Arial, Helvetica, sans-serif" font-size="22" font-weight="700"><text x="-30" y="-6">x² + y²</text><text x="-30" y="18">= r²</text></g></g><g transform="translate(265 1080) rotate(35) scale(0.9234239683885213)"><g opacity="0.194" fill="none" stroke="#f0b84c" stroke-width="2"><circle cx="0" cy="0" r="18"/><path d="M-18,0H18 M0,-18V18"/><path d="M-12,-12 Q0,-5 12,-12 M-12,12 Q0,5 12,12"/></g></g><g transform="translate(440 250) rotate(197) scale(1.2579501731287073)"><g opacity="0.205" fill="none" stroke="#f0b84c" stroke-width="2.4"><circle cx="0" cy="0" r="12"/><ellipse cx="0" cy="0" rx="24" ry="8" transform="rotate(-18)"/></g></g><g transform="translate(731 31) rotate(26) scale(0.8781010070877555)"><g opacity="0.173" fill="none" stroke="#f0b84c" stroke-width="2.4" stroke-linejoin="round"><path d="M-20,10 L10,-20 L20,-10 L-10,20 L-24,24 Z"/><path d="M6,-24 L24,-6"/></g></g><g transform="translate(755 843) rotate(289) scale(1.001874840586059)"><g opacity="0.164" fill="#f0b84c"><circle cx="0" cy="0" r="3"/><path d="M0,-12 L3,-3 L12,0 L3,3 L0,12 L-3,3 L-12,0 L-3,-3 Z"/></g></g><g transform="translate(721 582) rotate(159) scale(0.9521357018670926)"><g opacity="0.154" fill="none" stroke="#f0b84c" stroke-width="2.4"><path d="M-28,0 C-18,-12 -8,-12 2,0 S22,12 32,0"/></g></g><g transform="translate(449 271) rotate(51) scale(0.8307578813123164)"><g stroke="#f0b84c" stroke-width="2.5" stroke-linecap="round" stroke-linejoin="round" opacity="0.156" fill="none"><path d="M0,-16 L4,-4 L16,0 L4,4 L0,16 L-4,4 L-16,0 L-4,-4 Z"/></g></g><g transform="translate(846 1027) rotate(286) scale(0.8566068769190197)"><g opacity="0.177" fill="none" stroke="#f0b84c" stroke-width="2.2"><ellipse cx="0" cy="0" rx="22" ry="9"/><ellipse cx="0" cy="0" rx="22" ry="9" transform="rotate(60)"/><ellipse cx="0" cy="0" rx="22" ry="9" transform="rotate(120)"/><circle cx="0" cy="0" r="4" fill="#f0b84c"/></g></g><g transform="translate(225 1528) rotate(214) scale(1.2117131984128078)"><g opacity="0.174" fill="#f0b84c"><circle cx="0" cy="0" r="3"/><path d="M0,-12 L3,-3 L12,0 L3,3 L0,12 L-3,3 L-12,0 L-3,-3 Z"/></g></g><g transform="translate(434 891) rotate(0) scale(1.3440313482859687)"><g opacity="0.2" fill="#f0b84c" font-family="Arial, Helvetica, sans-serif" font-size="22" font-weight="700"><text x="-30" y="-6">x² + y²</text><text x="-30" y="18">= r²</text></g></g><g transform="translate(852 1243) rotate(10) scale(0.9324870899225938)"><g opacity="0.163" fill="none" stroke="#f0b84c" stroke-width="2.2"><ellipse cx="0" cy="0" rx="22" ry="9"/><ellipse cx="0" cy="0" rx="22" ry="9" transform="rotate(60)"/><ellipse cx="0" cy="0" rx="22" ry="9" transform="rotate(120)"/><circle cx="0" cy="0" r="4" fill="#f0b84c"/></g></g><g transform="translate(646 1344) rotate(21) scale(1.096175900550184)"><g opacity="0.165" fill="none" stroke="#f0b84c" stroke-width="2.4" stroke-linejoin="round"><path d="M-16,-10 h14 a6,6 0 0 1 6,6 v18 h-14 a6,6 0 0 0 -6,6 v-24 a6,6 0 0 1 6,-6z"/><path d="M16,-10 h-14 a6,6 0 0 0 -6,6 v18 h14 a6,6 0 0 1 6,6 v-24 a6,6 0 0 0 -6,-6z"/></g></g><g transform="translate(294 49) rotate(168) scale(1.2136138138636938)"><g opacity="0.174" fill="#f0b84c" font-family="Arial, Helvetica, sans-serif" font-size="22" font-weight="700"><text x="-30" y="-6">x² + y²</text><text x="-30" y="18">= r²</text></g></g><g transform="translate(106 214) rotate(325) scale(0.8752399858060544)"><g opacity="0.154" fill="none" stroke="#f0b84c" stroke-width="2.2"><ellipse cx="0" cy="0" rx="22" ry="9"/><ellipse cx="0" cy="0" rx="22" ry="9" transform="rotate(60)"/><ellipse cx="0" cy="0" rx="22" ry="9" transform="rotate(120)"/><circle cx="0" cy="0" r="4" fill="#f0b84c"/></g></g><g transform="translate(407 791) rotate(65) scale(1.1232895394558078)"><g opacity="0.179" fill="none" stroke="#f0b84c" stroke-width="2"><circle cx="0" cy="0" r="18"/><path d="M-18,0H18 M0,-18V18"/><path d="M-12,-12 Q0,-5 12,-12 M-12,12 Q0,5 12,12"/></g></g><g transform="translate(618 307) rotate(93) scale(1.2699154006813336)"><g opacity="0.161" fill="#f0b84c"><circle cx="0" cy="0" r="3"/><path d="M0,-12 L3,-3 L12,0 L3,3 L0,12 L-3,3 L-12,0 L-3,-3 Z"/></g></g><g transform="translate(263 1280) rotate(97) scale(0.8996991398575498)"><g opacity="0.193" fill="none" stroke="#f0b84c" stroke-width="2.4" stroke-linejoin="round"><path d="M-16,-10 h14 a6,6 0 0 1 6,6 v18 h-14 a6,6 0 0 0 -6,6 v-24 a6,6 0 0 1 6,-6z"/><path d="M16,-10 h-14 a6,6 0 0 0 -6,6 v18 h14 a6,6 0 0 1 6,6 v-24 a6,6 0 0 0 -6,-6z"/></g></g><g transform="translate(597 432) rotate(198) scale(1.1621844021237009)"><g opacity="0.186" fill="none" stroke="#f0b84c" stroke-width="2.4" stroke-linejoin="round"><path d="M-20,10 L10,-20 L20,-10 L-10,20 L-24,24 Z"/><path d="M6,-24 L24,-6"/></g></g><g transform="translate(461 127) rotate(19) scale(0.8123038088189688)"><g opacity="0.205" fill="none" stroke="#f0b84c" stroke-width="2.4"><polygon points="0,-20 20,16 -20,16"/></g></g><g transform="translate(274 1545) rotate(131) scale(1.1727476763350262)"><g opacity="0.197" fill="none" stroke="#f0b84c" stroke-width="2"><rect x="-18" y="-18" width="36" height="36" rx="4"/><path d="M-6,-18V18 M6,-18V18 M-18,-6H18 M-18,6H18"/></g></g><g transform="translate(640 1035) rotate(89) scale(0.9260612078908423)"><g opacity="0.16" fill="none" stroke="#f0b84c" stroke-width="2.4"><circle cx="0" cy="0" r="12"/><ellipse cx="0" cy="0" rx="24" ry="8" transform="rotate(-18)"/></g></g><g transform="translate(520 1175) rotate(315) scale(1.142104557986855)"><g opacity="0.157" fill="none" stroke="#f0b84c" stroke-width="2"><circle cx="0" cy="0" r="18"/><path d="M-18,0H18 M0,-18V18"/><path d="M-12,-12 Q0,-5 12,-12 M-12,12 Q0,5 12,12"/></g></g><g transform="translate(247 447) rotate(35) scale(1.1993910671021408)"><g opacity="0.175" fill="#f0b84c" font-family="Arial, Helvetica, sans-serif" font-size="22" font-weight="700"><text x="-30" y="-6">x² + y²</text><text x="-30" y="18">= r²</text></g></g><g transform="translate(285 153) rotate(144) scale(0.7779588826429267)"><g opacity="0.182" fill="none" stroke="#f0b84c" stroke-width="2.4"><path d="M-28,0 C-18,-12 -8,-12 2,0 S22,12 32,0"/></g></g><g transform="translate(164 218) rotate(230) scale(0.9672870940196886)"><g opacity="0.188" fill="none" stroke="#f0b84c" stroke-width="2.4"><path d="M-28,0 C-18,-12 -8,-12 2,0 S22,12 32,0"/></g></g><g transform="translate(737 1098) rotate(71) scale(1.1006641609081074)"><g opacity="0.155" fill="none" stroke="#f0b84c" stroke-width="2"><circle cx="0" cy="0" r="18"/><path d="M-18,0H18 M0,-18V18"/><path d="M-12,-12 Q0,-5 12,-12 M-12,12 Q0,5 12,12"/></g></g><g transform="translate(48 1002) rotate(358) scale(1.2961274714356903)"><g opacity="0.205" fill="#f0b84c" font-family="Arial, Helvetica, sans-serif" font-size="22" font-weight="700"><text x="-30" y="-6">x² + y²</text><text x="-30" y="18">= r²</text></g></g><g transform="translate(51 1255) rotate(246) scale(1.1317107129462078)"><g opacity="0.192" fill="none" stroke="#f0b84c" stroke-width="2.4"><circle cx="0" cy="0" r="12"/><ellipse cx="0" cy="0" rx="24" ry="8" transform="rotate(-18)"/></g></g><g transform="translate(356 309) rotate(38) scale(1.3496145758290532)"><g opacity="0.182" fill="none" stroke="#f0b84c" stroke-width="2.4" stroke-linejoin="round"><path d="M-20,10 L10,-20 L20,-10 L-10,20 L-24,24 Z"/><path d="M6,-24 L24,-6"/></g></g><g transform="translate(784 121) rotate(66) scale(1.2901175287496276)"><g opacity="0.172" fill="none" stroke="#f0b84c" stroke-width="2.4"><path d="M-28,0 C-18,-12 -8,-12 2,0 S22,12 32,0"/></g></g><g transform="translate(731 999) rotate(213) scale(1.2905015635982275)"><g stroke="#f0b84c" stroke-width="2.5" stroke-linecap="round" stroke-linejoin="round" opacity="0.2" fill="none"><path d="M0,-16 L4,-4 L16,0 L4,4 L0,16 L-4,4 L-16,0 L-4,-4 Z"/></g></g><g transform="translate(616 59) rotate(195) scale(1.1249763279956517)"><g opacity="0.184" fill="none" stroke="#f0b84c" stroke-width="2"><rect x="-18" y="-18" width="36" height="36" rx="4"/><path d="M-6,-18V18 M6,-18V18 M-18,-6H18 M-18,6H18"/></g></g><g transform="translate(653 177) rotate(327) scale(0.7981212172984261)"><g opacity="0.207" fill="none" stroke="#f0b84c" stroke-width="2.4"><circle cx="0" cy="0" r="12"/><ellipse cx="0" cy="0" rx="24" ry="8" transform="rotate(-18)"/></g></g><g transform="translate(456 1521) rotate(355) scale(0.9480899261911347)"><g opacity="0.178" fill="none" stroke="#f0b84c" stroke-width="2"><circle cx="0" cy="0" r="18"/><path d="M-18,0H18 M0,-18V18"/><path d="M-12,-12 Q0,-5 12,-12 M-12,12 Q0,5 12,12"/></g></g><g transform="translate(503 1138) rotate(263) scale(0.8002693333567551)"><g stroke="#f0b84c" stroke-width="2.5" stroke-linecap="round" stroke-linejoin="round" opacity="0.17" fill="none"><path d="M0,-16 L4,-4 L16,0 L4,4 L0,16 L-4,4 L-16,0 L-4,-4 Z"/></g></g><g transform="translate(119 1014) rotate(357) scale(0.7633743981877936)"><g opacity="0.18" fill="none" stroke="#f0b84c" stroke-width="2.4"><circle cx="0" cy="0" r="12"/><ellipse cx="0" cy="0" rx="24" ry="8" transform="rotate(-18)"/></g></g><g transform="translate(659 1381) rotate(130) scale(1.3022785640640437)"><g stroke="#f0b84c" stroke-width="2.5" stroke-linecap="round" stroke-linejoin="round" opacity="0.173" fill="none"><path d="M0,-16 L4,-4 L16,0 L4,4 L0,16 L-4,4 L-16,0 L-4,-4 Z"/></g></g><g transform="translate(176 1418) rotate(265) scale(1.1170548507686306)"><g opacity="0.194" fill="none" stroke="#f0b84c" stroke-width="2.4" stroke-linejoin="round"><path d="M-16,-10 h14 a6,6 0 0 1 6,6 v18 h-14 a6,6 0 0 0 -6,6 v-24 a6,6 0 0 1 6,-6z"/><path d="M16,-10 h-14 a6,6 0 0 0 -6,6 v18 h14 a6,6 0 0 1 6,6 v-24 a6,6 0 0 0 -6,-6z"/></g></g><g transform="translate(380 1381) rotate(255) scale(1.308180858680304)"><g opacity="0.171" fill="none" stroke="#f0b84c" stroke-width="2.2"><ellipse cx="0" cy="0" rx="22" ry="9"/><ellipse cx="0" cy="0" rx="22" ry="9" transform="rotate(60)"/><ellipse cx="0" cy="0" rx="22" ry="9" transform="rotate(120)"/><circle cx="0" cy="0" r="4" fill="#f0b84c"/></g></g><g transform="translate(711 543) rotate(220) scale(0.8691034673191895)"><g opacity="0.201" fill="none" stroke="#f0b84c" stroke-width="2.2"><ellipse cx="0" cy="0" rx="22" ry="9"/><ellipse cx="0" cy="0" rx="22" ry="9" transform="rotate(60)"/><ellipse cx="0" cy="0" rx="22" ry="9" transform="rotate(120)"/><circle cx="0" cy="0" r="4" fill="#f0b84c"/></g></g><g transform="translate(423 479) rotate(162) scale(1.0998643126523646)"><g opacity="0.16" fill="none" stroke="#f0b84c" stroke-width="2.2"><ellipse cx="0" cy="0" rx="22" ry="9"/><ellipse cx="0" cy="0" rx="22" ry="9" transform="rotate(60)"/><ellipse cx="0" cy="0" rx="22" ry="9" transform="rotate(120)"/><circle cx="0" cy="0" r="4" fill="#f0b84c"/></g></g><g transform="translate(538 748) rotate(20) scale(1.2522573704823237)"><g opacity="0.204" fill="none" stroke="#f0b84c" stroke-width="2.4"><circle cx="0" cy="0" r="12"/><ellipse cx="0" cy="0" rx="24" ry="8" transform="rotate(-18)"/></g></g><g transform="translate(313 376) rotate(241) scale(0.8176976253866379)"><g opacity="0.203" fill="#f0b84c" font-family="Arial, Helvetica, sans-serif" font-size="22" font-weight="700"><text x="-30" y="-6">x² + y²</text><text x="-30" y="18">= r²</text></g></g><g transform="translate(453 813) rotate(252) scale(1.1254401349424212)"><g opacity="0.17" fill="#f0b84c"><circle cx="0" cy="0" r="3"/><path d="M0,-12 L3,-3 L12,0 L3,3 L0,12 L-3,3 L-12,0 L-3,-3 Z"/></g></g><g transform="translate(669 956) rotate(16) scale(0.9422077286601628)"><g opacity="0.2" fill="#f0b84c" font-family="Arial, Helvetica, sans-serif" font-size="22" font-weight="700"><text x="-30" y="-6">x² + y²</text><text x="-30" y="18">= r²</text></g></g><g transform="translate(72 1419) rotate(292) scale(1.1751785574007199)"><g opacity="0.17" fill="none" stroke="#f0b84c" stroke-width="2.4"><path d="M-28,0 C-18,-12 -8,-12 2,0 S22,12 32,0"/></g></g><g transform="translate(840 1185) rotate(69) scale(0.7614684088870236)"><g opacity="0.178" fill="none" stroke="#f0b84c" stroke-width="2"><rect x="-18" y="-18" width="36" height="36" rx="4"/><path d="M-6,-18V18 M6,-18V18 M-18,-6H18 M-18,6H18"/></g></g><g transform="translate(55 575) rotate(72) scale(0.8924454053309006)"><g stroke="#f0b84c" stroke-width="2.5" stroke-linecap="round" stroke-linejoin="round" opacity="0.206" fill="none"><path d="M0,-16 L4,-4 L16,0 L4,4 L0,16 L-4,4 L-16,0 L-4,-4 Z"/></g></g><g transform="translate(148 944) rotate(274) scale(0.815412120356996)"><g opacity="0.188" fill="#f0b84c"><circle cx="0" cy="0" r="3"/><path d="M0,-12 L3,-3 L12,0 L3,3 L0,12 L-3,3 L-12,0 L-3,-3 Z"/></g></g><g transform="translate(407 189) rotate(102) scale(1.1606956475885972)"><g opacity="0.167" fill="none" stroke="#f0b84c" stroke-width="2.4" stroke-linejoin="round"><path d="M-20,10 L10,-20 L20,-10 L-10,20 L-24,24 Z"/><path d="M6,-24 L24,-6"/></g></g><g transform="translate(761 52) rotate(273) scale(1.2030305764326432)"><g stroke="#f0b84c" stroke-width="2.5" stroke-linecap="round" stroke-linejoin="round" opacity="0.163" fill="none"><path d="M0,-16 L4,-4 L16,0 L4,4 L0,16 L-4,4 L-16,0 L-4,-4 Z"/></g></g><g transform="translate(308 738) rotate(266) scale(1.0738134772955399)"><g opacity="0.186" fill="none" stroke="#f0b84c" stroke-width="2.4"><polygon points="0,-20 20,16 -20,16"/></g></g><g transform="translate(804 356) rotate(358) scale(0.9861097269449912)"><g opacity="0.158" fill="none" stroke="#f0b84c" stroke-width="2.2"><ellipse cx="0" cy="0" rx="22" ry="9"/><ellipse cx="0" cy="0" rx="22" ry="9" transform="rotate(60)"/><ellipse cx="0" cy="0" rx="22" ry="9" transform="rotate(120)"/><circle cx="0" cy="0" r="4" fill="#f0b84c"/></g></g><g transform="translate(769 824) rotate(232) scale(0.827945952641232)"><g opacity="0.187" fill="none" stroke="#f0b84c" stroke-width="2.2"><ellipse cx="0" cy="0" rx="22" ry="9"/><ellipse cx="0" cy="0" rx="22" ry="9" transform="rotate(60)"/><ellipse cx="0" cy="0" rx="22" ry="9" transform="rotate(120)"/><circle cx="0" cy="0" r="4" fill="#f0b84c"/></g></g><g transform="translate(36 801) rotate(334) scale(1.0800078417456778)"><g opacity="0.196" fill="none" stroke="#f0b84c" stroke-width="2.4"><polygon points="0,-20 20,16 -20,16"/></g></g><g transform="translate(381 979) rotate(104) scale(0.9458803772240396)"><g opacity="0.192" fill="none" stroke="#f0b84c" stroke-width="2.4"><circle cx="0" cy="0" r="12"/><ellipse cx="0" cy="0" rx="24" ry="8" transform="rotate(-18)"/></g></g><g transform="translate(867 1344) rotate(63) scale(1.3045382680788427)"><g opacity="0.166" fill="none" stroke="#f0b84c" stroke-width="2.2"><ellipse cx="0" cy="0" rx="22" ry="9"/><ellipse cx="0" cy="0" rx="22" ry="9" transform="rotate(60)"/><ellipse cx="0" cy="0" rx="22" ry="9" transform="rotate(120)"/><circle cx="0" cy="0" r="4" fill="#f0b84c"/></g></g><g transform="translate(429 209) rotate(274) scale(1.3364151134037567)"><g opacity="0.167" fill="none" stroke="#f0b84c" stroke-width="2.4"><path d="M-28,0 C-18,-12 -8,-12 2,0 S22,12 32,0"/></g></g><g transform="translate(765 62) rotate(42) scale(0.9591042258056368)"><g stroke="#f0b84c" stroke-width="2.5" stroke-linecap="round" stroke-linejoin="round" opacity="0.177" fill="none"><path d="M0,-16 L4,-4 L16,0 L4,4 L0,16 L-4,4 L-16,0 L-4,-4 Z"/></g></g><g transform="translate(593 893) rotate(249) scale(1.2109400970127737)"><g stroke="#f0b84c" stroke-width="2.5" stroke-linecap="round" stroke-linejoin="round" opacity="0.165" fill="none"><path d="M0,-16 L4,-4 L16,0 L4,4 L0,16 L-4,4 L-16,0 L-4,-4 Z"/></g></g><g transform="translate(95 908) rotate(88) scale(1.229915920056869)"><g opacity="0.171" fill="none" stroke="#f0b84c" stroke-width="2.4"><polygon points="0,-20 20,16 -20,16"/></g></g><g transform="translate(836 317) rotate(264) scale(1.0323371938556831)"><g opacity="0.198" fill="none" stroke="#f0b84c" stroke-width="2.4"><polygon points="0,-20 20,16 -20,16"/></g></g><g transform="translate(735 931) rotate(252) scale(1.3174484381672982)"><g opacity="0.204" fill="none" stroke="#f0b84c" stroke-width="2"><circle cx="0" cy="0" r="18"/><path d="M-18,0H18 M0,-18V18"/><path d="M-12,-12 Q0,-5 12,-12 M-12,12 Q0,5 12,12"/></g></g><g transform="translate(118 483) rotate(286) scale(1.0136532583534572)"><g opacity="0.198" fill="#f0b84c" font-family="Arial, Helvetica, sans-serif" font-size="22" font-weight="700"><text x="-30" y="-6">x² + y²</text><text x="-30" y="18">= r²</text></g></g><g transform="translate(605 1338) rotate(263) scale(0.8486101829533996)"><g opacity="0.167" fill="none" stroke="#f0b84c" stroke-width="2.4"><polygon points="0,-20 20,16 -20,16"/></g></g><g transform="translate(717 810) rotate(312) scale(1.3228707425829496)"><g opacity="0.169" fill="none" stroke="#f0b84c" stroke-width="2.2"><ellipse cx="0" cy="0" rx="22" ry="9"/><ellipse cx="0" cy="0" rx="22" ry="9" transform="rotate(60)"/><ellipse cx="0" cy="0" rx="22" ry="9" transform="rotate(120)"/><circle cx="0" cy="0" r="4" fill="#f0b84c"/></g></g><g transform="translate(174 1145) rotate(293) scale(1.064535566894542)"><g opacity="0.164" fill="none" stroke="#f0b84c" stroke-width="2.4" stroke-linejoin="round"><path d="M-20,10 L10,-20 L20,-10 L-10,20 L-24,24 Z"/><path d="M6,-24 L24,-6"/></g></g><g transform="translate(578 264) rotate(309) scale(1.051904462299954)"><g opacity="0.154" fill="none" stroke="#f0b84c" stroke-width="2"><rect x="-18" y="-18" width="36" height="36" rx="4"/><path d="M-6,-18V18 M6,-18V18 M-18,-6H18 M-18,6H18"/></g></g><g transform="translate(75 1086) rotate(278) scale(1.300412161948907)"><g opacity="0.16" fill="none" stroke="#f0b84c" stroke-width="2"><circle cx="0" cy="0" r="18"/><path d="M-18,0H18 M0,-18V18"/><path d="M-12,-12 Q0,-5 12,-12 M-12,12 Q0,5 12,12"/></g></g><g transform="translate(125 1445) rotate(275) scale(0.8500627356733392)"><g opacity="0.175" fill="none" stroke="#f0b84c" stroke-width="2.4" stroke-linejoin="round"><path d="M-20,10 L10,-20 L20,-10 L-10,20 L-24,24 Z"/><path d="M6,-24 L24,-6"/></g></g><g transform="translate(849 857) rotate(242) scale(0.9115282740277535)"><g opacity="0.16" fill="none" stroke="#f0b84c" stroke-width="2.4" stroke-linejoin="round"><path d="M-20,10 L10,-20 L20,-10 L-10,20 L-24,24 Z"/><path d="M6,-24 L24,-6"/></g></g><g transform="translate(474 1005) rotate(55) scale(1.0649890705222547)"><g opacity="0.176" fill="none" stroke="#f0b84c" stroke-width="2.2"><ellipse cx="0" cy="0" rx="22" ry="9"/><ellipse cx="0" cy="0" rx="22" ry="9" transform="rotate(60)"/><ellipse cx="0" cy="0" rx="22" ry="9" transform="rotate(120)"/><circle cx="0" cy="0" r="4" fill="#f0b84c"/></g></g><g transform="translate(60 562) rotate(11) scale(0.8276768700872661)"><g stroke="#f0b84c" stroke-width="2.5" stroke-linecap="round" stroke-linejoin="round" opacity="0.163" fill="none"><path d="M0,-16 L4,-4 L16,0 L4,4 L0,16 L-4,4 L-16,0 L-4,-4 Z"/></g></g><g transform="translate(262 54) rotate(164) scale(1.1622204212132738)"><g opacity="0.166" fill="none" stroke="#f0b84c" stroke-width="2.4"><path d="M-28,0 C-18,-12 -8,-12 2,0 S22,12 32,0"/></g></g><g transform="translate(540 244) rotate(298) scale(1.0498058470974583)"><g opacity="0.199" fill="none" stroke="#f0b84c" stroke-width="2.4"><circle cx="0" cy="0" r="12"/><ellipse cx="0" cy="0" rx="24" ry="8" transform="rotate(-18)"/></g></g><g transform="translate(668 543) rotate(359) scale(1.1806177371638813)"><g opacity="0.2" fill="none" stroke="#f0b84c" stroke-width="2.4"><polygon points="0,-20 20,16 -20,16"/></g></g><g transform="translate(53 799) rotate(271) scale(1.1298039633634778)"><g opacity="0.162" fill="none" stroke="#f0b84c" stroke-width="2"><circle cx="0" cy="0" r="18"/><path d="M-18,0H18 M0,-18V18"/><path d="M-12,-12 Q0,-5 12,-12 M-12,12 Q0,5 12,12"/></g></g><rect width="100%" height="100%" fill="#000" opacity="0.12"/>
</svg>