<svg xmlns="http://www.w3.org/2000/svg" width="900" height="1600" viewBox="0 0 900 1600">
<defs><linearGradient id="bg" x1="0%" y1="0%" x2="100%" y2="100%">
<stop offset="0%" stop-color="#29003d"/>
<stop offset="50%" stop-color="#0d1d4a"/>
<stop offset="100%" stop-color="#77106e"/>
</linearGradient></defs><rect width="100%" height="100%" fill="url(#bg)"/><path d="M987,940 Q555,1071 265,1057" stroke="#ffffff" stroke-opacity="0.07" stroke-width="2.2367634531579776" fill="none" stroke-linecap="round"/><path d="M736,1128 Q613,1064 780,1295" stroke="#ffffff" stroke-opacity="0.07" stroke-width="2.7270022705442862" fill="none" stroke-linecap="round"/><path d="M835,427 Q691,697 268,767" stroke="#ffffff" stroke-opacity="0.07" stroke-width="4.10815245774222" fill="none" stroke-linecap="round"/><path d="M-58,557 Q-33,439 -89,368" stroke="#ffffff" stroke-opacity="0.07" stroke-width="4.439547425449106" fill="none" stroke-linecap="round"/><path d="M907,99 Q680,389 387,624" stroke="#ffffff" stroke-opacity="0.07" stroke-width="2.614981220413999" fill="none" stroke-linecap="round"/><path d="M706,-39 Q395,207 -63,217" stroke="#ffffff" stroke-opacity="0.07" stroke-width="4.450113179649849" fill="none" stroke-linecap="round"/><path d="M122,-1 Q505,155 954,491" stroke="#ffffff" stroke-opacity="0.07" stroke-width="2.3253154197984482" fill="none" stroke-linecap="round"/><path d="M230,1191 Q596,1128 921,917" stroke="#ffffff" stroke-opacity="0.07" stroke-width="1.5580181359025862" fill="none" stroke-linecap="round"/><path d="M87,991 Q367,1179 713,1082" stroke="#ffffff" stroke-opacity="0.07" stroke-width="3.6549942554537247" fill="none" stroke-linecap="round"/><path d="M61,88 Q-48,153 37,542" stroke="#ffffff" stroke-opacity="0.07" stroke-width="2.6991836402781852" fill="none" stroke-linecap="round"/><path d="M947,745 Q571,525 474,-55" stroke="#ffffff" stroke-opacity="0.07" stroke-width="2.0868397260526486" fill="none" stroke-linecap="round"/><path d="M599,1152 Q661,1029 727,1142" stroke="#ffffff" stroke-opacity="0.07" stroke-width="3.071692856729811" fill="none" stroke-linecap="round"/><path d="M614,166 Q261,847 100,1376" stroke="#ffffff" stroke-opacity="0.07" stroke-width="1.5817429234795017" fill="none" stroke-linecap="round"/><path d="M551,967 Q737,489 652,353" stroke="#ffffff" stroke-opacity="0.07" stroke-width="1.9541399651360023" fill="none" stroke-linecap="round"/><path d="M103,1567 Q620,1292 844,1001" stroke="#ffffff" stroke-opacity="0.07" stroke-width="3.2227484978991883" fill="none" stroke-linecap="round"/><path d="M912,1407 Q581,1080 73,399" stroke="#ffffff" stroke-opacity="0.07" stroke-width="2.565845442968172" fill="none" stroke-linecap="round"/><path d="M988,679 Q323,1084 -31,1351" stroke="#ffffff" stroke-opacity="0.07" stroke-width="3.8543128334164884" fill="none" stroke-linecap="round"/><path d="M-68,285 Q-55,47 -1,196" stroke="#ffffff" stroke-opacity="0.07" stroke-width="3.372329833920353" fill="none" stroke-linecap="round"/><path d="M344,476 Q318,903 644,1462" stroke="#ffffff" stroke-opacity="0.07" stroke-width="2.048054239524178" fill="none" stroke-linecap="round"/><path d="M-15,1349 Q36,1133 363,1212" stroke="#ffffff" stroke-opacity="0.07" stroke-width="3.9710106081336534" fill="none" stroke-linecap="round"/><path d="M358,1559 Q716,976 983,759" stroke="#ffffff" stroke-opacity="0.07" stroke-width="2.726084799363642" fill="none" stroke-linecap="round"/><path d="M739,1101 Q711,865 512,624" stroke="#ffffff" stroke-opacity="0.07" stroke-width="4.400126215011634" fill="none" stroke-linecap="round"/><circle cx="745" cy="685" r="120" fill="none" stroke="#ffffff" stroke-opacity="0.05" stroke-width="2"/><circle cx="713" cy="550" r="180" fill="none" stroke="#ffffff" stroke-opacity="0.05" stroke-width="2"/><circle cx="476" cy="999" r="240" fill="none" stroke="#ffffff" stroke-opacity="0.05" stroke-width="2"/><circle cx="811" cy="1106" r="320" fill="none" stroke="#ffffff" stroke-opacity="0.05" stroke-width="2"/><path d="M0,0 Q40,400 0,800 T0,1600" stroke="#fff" stroke-opacity="0.04" stroke-width="2" fill="none"/><path d="M80,0 Q120,400 80,800 T80,1600" stroke="#fff" stroke-opacity="0.04" stroke-width="2" fill="none"/><path d="M160,0 Q200,400 160,800 T160,1600" stroke="#fff" stroke-opacity="0.04" stroke-width="2" fill="none"/><path d="M240,0 Q280,400 240,800 T240,1600" stroke="#fff" stroke-opacity="0.04" stroke-width="2" fill="none"/><path d="M320,0 Q360,400 320,800 T320,1600" stroke="#fff" stroke-opacity="0.04" stroke-width="2" fill="none"/><path d="M400,0 Q440,400 400,800 T400,1600" stroke="#fff" stroke-opacity="0.04" stroke-width="2" fill="none"/><path d="M480,0 Q520,400 480,800 T480,1600" stroke="#fff" stroke-opacity="0.04" stroke-width="2" fill="none"/><path d="M560,0 Q600,400 560,800 T560,1600" stroke="#fff" stroke-opacity="0.04" stroke-width="2" fill="none"/><path d="M640,0 Q680,400 640,800 T640,1600" stroke="#fff" stroke-opacity="0.04" stroke-width="2" fill="none"/><path d="M720,0 Q760,400 720,800 T720,1600" stroke="#fff" stroke-opacity="0.04" stroke-width="2" fill="none"/><path d="M800,0 Q840,400 800,800 T800,1600" stroke="#fff" stroke-opacity="0.04" stroke-width="2" fill="none"/><path d="M880,0 Q920,400 880,800 T880,1600" stroke="#fff" stroke-opacity="0.04" stroke-width="2" fill="none"/><path d="M960,0 Q1000,400 960,800 T960,1600" stroke="#fff" stroke-opacity="0.04" stroke-width="2" fill="none"/>
</svg>