<svg xmlns="http://www.w3.org/2000/svg" width="900" height="1600" viewBox="0 0 900 1600">
<defs><linearGradient id="bg" x1="0%" y1="0%" x2="100%" y2="100%">
<stop offset="0%" stop-color="#060912"/>
<stop offset="50%" stop-color="#101b38"/>
<stop offset="100%" stop-color="#0a1e30"/>
</linearGradient><radialGradient id="neb" cx="70%" cy="28%" r="45%">
<stop offset="0%" stop-color="#7ef0ff" stop-opacity="0.26"/>
<stop offset="35%" stop-color="#8b5cff" stop-opacity="0.16"/>
<stop offset="70%" stop-color="#ff5ca8" stop-opacity="0.08"/>
<stop offset="100%" stop-color="#000000" stop-opacity="0"/>
</radialGradient></defs><rect width="100%" height="100%" fill="url(#bg)"/><rect width="100%" height="100%" fill="url(#neb)"/><circle cx="121" cy="654" r="1.60" fill="#fff" opacity="0.56"/><circle cx="880" cy="210" r="2.29" fill="#fff" opacity="0.83"/><circle cx="636" cy="1139" r="1.46" fill="#fff" opacity="0.60"/><circle cx="862" cy="1496" r="2.10" fill="#fff" opacity="0.54"/><circle cx="791" cy="1201" r="1.49" fill="#fff" opacity="0.20"/><circle cx="82" cy="226" r="1.22" fill="#fff" opacity="0.27"/><circle cx="11" cy="1403" r="1.58" fill="#fff" opacity="0.42"/><circle cx="406" cy="515" r="1.33" fill="#fff" opacity="0.90"/><circle cx="365" cy="770" r="2.50" fill="#fff" opacity="0.56"/><circle cx="78" cy="1480" r="1.31" fill="#fff" opacity="0.59"/><circle cx="299" cy="589" r="1.52" fill="#fff" opacity="0.81"/><circle cx="720" cy="1467" r="1.74" fill="#fff" opacity="0.22"/><circle cx="727" cy="755" r="1.35" fill="#fff" opacity="0.50"/><circle cx="408" cy="1199" r="1.70" fill="#fff" opacity="0.81"/><circle cx="435" cy="1037" r="2.14" fill="#fff" opacity="0.81"/><circle cx="896" cy="1005" r="1.42" fill="#fff" opacity="0.57"/><circle cx="864" cy="860" r="1.72" fill="#fff" opacity="0.89"/><circle cx="525" cy="1060" r="2.15" fill="#fff" opacity="0.60"/><circle cx="784" cy="264" r="2.17" fill="#fff" opacity="0.87"/><circle cx="535" cy="1373" r="0.88" fill="#fff" opacity="0.64"/><circle cx="481" cy="291" r="1.57" fill="#fff" opacity="0.36"/><circle cx="124" cy="1283" r="1.96" fill="#fff" opacity="0.67"/><circle cx="731" cy="1117" r="1.15" fill="#fff" opacity="0.48"/><circle cx="315" cy="1122" r="2.14" fill="#fff" opacity="0.55"/><circle cx="490" cy="823" r="1.48" fill="#fff" opacity="0.41"/><circle cx="275" cy="18" r="0.76" fill="#fff" opacity="0.66"/><circle cx="611" cy="938" r="2.15" fill="#fff" opacity="0.85"/><circle cx="368" cy="409" r="1.17" fill="#fff" opacity="0.54"/><circle cx="523" cy="1570" r="2.19" fill="#fff" opacity="0.77"/><circle cx="571" cy="1359" r="2.33" fill="#fff" opacity="0.78"/><circle cx="324" cy="937" r="2.35" fill="#fff" opacity="0.27"/><circle cx="705" cy="1467" r="2.11" fill="#fff" opacity="0.56"/><circle cx="463" cy="374" r="2.44" fill="#fff" opacity="0.79"/><circle cx="490" cy="131" r="1.87" fill="#fff" opacity="0.83"/><circle cx="379" cy="197" r="1.05" fill="#fff" opacity="0.80"/><circle cx="149" cy="920" r="2.35" fill="#fff" opacity="0.26"/><circle cx="462" cy="1189" r="1.68" fill="#fff" opacity="0.79"/><circle cx="624" cy="407" r="1.15" fill="#fff" opacity="0.63"/><circle cx="769" cy="1119" r="2.42" fill="#fff" opacity="0.67"/><circle cx="650" cy="731" r="0.98" fill="#fff" opacity="0.42"/><circle cx="597" cy="1176" r="2.09" fill="#fff" opacity="0.86"/><circle cx="503" cy="1412" r="2.00" fill="#fff" opacity="0.29"/><circle cx="228" cy="968" r="1.76" fill="#fff" opacity="0.87"/><circle cx="897" cy="1418" r="1.61" fill="#fff" opacity="0.26"/><circle cx="684" cy="327" r="2.38" fill="#fff" opacity="0.75"/><circle cx="600" cy="626" r="1.61" fill="#fff" opacity="0.47"/><circle cx="152" cy="1065" r="2.15" fill="#fff" opacity="0.46"/><circle cx="108" cy="797" r="2.30" fill="#fff" opacity="0.24"/><circle cx="355" cy="1323" r="1.34" fill="#fff" opacity="0.74"/><circle cx="26" cy="52" r="1.62" fill="#fff" opacity="0.43"/><circle cx="310" cy="921" r="1.29" fill="#fff" opacity="0.28"/><circle cx="477" cy="1170" r="1.81" fill="#fff" opacity="0.32"/><circle cx="605" cy="1064" r="1.07" fill="#fff" opacity="0.64"/><circle cx="469" cy="1225" r="1.12" fill="#fff" opacity="0.70"/><circle cx="560" cy="817" r="0.76" fill="#fff" opacity="0.65"/><circle cx="177" cy="92" r="1.87" fill="#fff" opacity="0.85"/><circle cx="49" cy="925" r="2.26" fill="#fff" opacity="0.65"/><circle cx="495" cy="1456" r="1.92" fill="#fff" opacity="0.21"/><circle cx="661" cy="1085" r="1.09" fill="#fff" opacity="0.82"/><circle cx="141" cy="328" r="1.89" fill="#fff" opacity="0.33"/><circle cx="279" cy="871" r="1.66" fill="#fff" opacity="0.81"/><circle cx="392" cy="624" r="1.04" fill="#fff" opacity="0.32"/><circle cx="475" cy="1019" r="2.50" fill="#fff" opacity="0.77"/><circle cx="294" cy="957" r="1.02" fill="#fff" opacity="0.56"/><circle cx="455" cy="245" r="1.65" fill="#fff" opacity="0.57"/><circle cx="280" cy="193" r="2.23" fill="#fff" opacity="0.36"/><circle cx="95" cy="930" r="1.86" fill="#fff" opacity="0.49"/><circle cx="802" cy="1372" r="1.03" fill="#fff" opacity="0.22"/><circle cx="866" cy="321" r="1.33" fill="#fff" opacity="0.68"/><circle cx="810" cy="1102" r="1.09" fill="#fff" opacity="0.63"/><circle cx="287" cy="1138" r="2.05" fill="#fff" opacity="0.71"/><circle cx="583" cy="603" r="1.71" fill="#fff" opacity="0.67"/><circle cx="135" cy="207" r="2.11" fill="#fff" opacity="0.27"/><circle cx="446" cy="350" r="0.89" fill="#fff" opacity="0.24"/><circle cx="364" cy="1479" r="2.14" fill="#fff" opacity="0.65"/><circle cx="108" cy="1037" r="1.26" fill="#fff" opacity="0.61"/><circle cx="65" cy="596" r="2.38" fill="#fff" opacity="0.31"/><circle cx="262" cy="128" r="0.72" fill="#fff" opacity="0.81"/><circle cx="795" cy="526" r="1.45" fill="#fff" opacity="0.21"/><circle cx="98" cy="481" r="0.74" fill="#fff" opacity="0.29"/><circle cx="702" cy="1149" r="1.74" fill="#fff" opacity="0.86"/><circle cx="358" cy="645" r="2.10" fill="#fff" opacity="0.63"/><circle cx="670" cy="1462" r="1.81" fill="#fff" opacity="0.85"/><circle cx="323" cy="1244" r="1.09" fill="#fff" opacity="0.52"/><circle cx="692" cy="244" r="1.94" fill="#fff" opacity="0.80"/><circle cx="697" cy="515" r="1.40" fill="#fff" opacity="0.86"/><circle cx="364" cy="118" r="2.02" fill="#fff" opacity="0.51"/><circle cx="24" cy="576" r="1.95" fill="#fff" opacity="0.40"/><circle cx="787" cy="250" r="1.23" fill="#fff" opacity="0.49"/><circle cx="599" cy="41" r="1.68" fill="#fff" opacity="0.44"/><circle cx="574" cy="114" r="2.00" fill="#fff" opacity="0.28"/><circle cx="633" cy="251" r="0.91" fill="#fff" opacity="0.29"/><circle cx="362" cy="1222" r="1.87" fill="#fff" opacity="0.66"/><circle cx="29" cy="869" r="1.74" fill="#fff" opacity="0.45"/><circle cx="393" cy="772" r="1.13" fill="#fff" opacity="0.49"/><circle cx="224" cy="1587" r="0.93" fill="#fff" opacity="0.58"/><circle cx="677" cy="1468" r="2.38" fill="#fff" opacity="0.68"/><circle cx="406" cy="522" r="2.12" fill="#fff" opacity="0.36"/><circle cx="16" cy="566" r="1.67" fill="#fff" opacity="0.49"/><circle cx="322" cy="283" r="2.40" fill="#fff" opacity="0.62"/><circle cx="859" cy="367" r="1.70" fill="#fff" opacity="0.66"/><circle cx="843" cy="1052" r="2.18" fill="#fff" opacity="0.44"/><circle cx="532" cy="1545" r="2.04" fill="#fff" opacity="0.24"/><circle cx="860" cy="23" r="1.83" fill="#fff" opacity="0.37"/><circle cx="59" cy="454" r="1.92" fill="#fff" opacity="0.80"/><circle cx="763" cy="817" r="1.97" fill="#fff" opacity="0.45"/><circle cx="809" cy="476" r="1.71" fill="#fff" opacity="0.39"/><circle cx="881" cy="411" r="1.37" fill="#fff" opacity="0.52"/><circle cx="468" cy="1123" r="2.16" fill="#fff" opacity="0.83"/><circle cx="689" cy="1189" r="1.26" fill="#fff" opacity="0.31"/><circle cx="420" cy="314" r="1.57" fill="#fff" opacity="0.20"/><circle cx="362" cy="1071" r="1.96" fill="#fff" opacity="0.76"/><circle cx="654" cy="353" r="0.85" fill="#fff" opacity="0.46"/><circle cx="748" cy="542" r="0.95" fill="#fff" opacity="0.72"/><circle cx="18" cy="1092" r="1.09" fill="#fff" opacity="0.79"/><circle cx="596" cy="628" r="1.73" fill="#fff" opacity="0.87"/><circle cx="389" cy="1103" r="2.43" fill="#fff" opacity="0.56"/><circle cx="659" cy="1355" r="0.98" fill="#fff" opacity="0.56"/><circle cx="87" cy="290" r="2.02" fill="#fff" opacity="0.43"/><circle cx="267" cy="635" r="0.77" fill="#fff" opacity="0.61"/><circle cx="806" cy="388" r="0.99" fill="#fff" opacity="0.41"/><circle cx="554" cy="584" r="1.34" fill="#fff" opacity="0.88"/><circle cx="193" cy="1529" r="1.83" fill="#fff" opacity="0.79"/><circle cx="663" cy="983" r="2.39" fill="#fff" opacity="0.45"/><circle cx="790" cy="1590" r="2.46" fill="#fff" opacity="0.90"/><circle cx="174" cy="1478" r="1.63" fill="#fff" opacity="0.33"/><circle cx="552" cy="296" r="1.00" fill="#fff" opacity="0.82"/><circle cx="527" cy="1367" r="2.29" fill="#fff" opacity="0.65"/><circle cx="2" cy="767" r="0.81" fill="#fff" opacity="0.41"/><circle cx="544" cy="315" r="1.78" fill="#fff" opacity="0.37"/><circle cx="108" cy="668" r="1.57" fill="#fff" opacity="0.81"/><circle cx="744" cy="149" r="1.39" fill="#fff" opacity="0.63"/><circle cx="663" cy="240" r="1.33" fill="#fff" opacity="0.84"/><circle cx="123" cy="1137" r="1.63" fill="#fff" opacity="0.78"/><circle cx="699" cy="933" r="2.35" fill="#fff" opacity="0.44"/><circle cx="70" cy="1595" r="2.46" fill="#fff" opacity="0.77"/><circle cx="796" cy="639" r="1.18" fill="#fff" opacity="0.66"/><circle cx="172" cy="665" r="1.48" fill="#fff" opacity="0.59"/><circle cx="330" cy="1482" r="1.88" fill="#fff" opacity="0.55"/><circle cx="321" cy="361" r="1.05" fill="#fff" opacity="0.52"/><circle cx="886" cy="1411" r="2.36" fill="#fff" opacity="0.73"/><circle cx="358" cy="839" r="2.20" fill="#fff" opacity="0.61"/><circle cx="217" cy="316" r="1.50" fill="#fff" opacity="0.60"/><circle cx="753" cy="261" r="1.48" fill="#fff" opacity="0.43"/><circle cx="120" cy="655" r="1.18" fill="#fff" opacity="0.81"/><circle cx="269" cy="297" r="1.68" fill="#fff" opacity="0.39"/><circle cx="339" cy="293" r="1.71" fill="#fff" opacity="0.29"/><circle cx="300" cy="1176" r="1.52" fill="#fff" opacity="0.48"/><circle cx="22" cy="1125" r="1.99" fill="#fff" opacity="0.67"/><circle cx="344" cy="194" r="1.92" fill="#fff" opacity="0.85"/><circle cx="694" cy="1296" r="2.41" fill="#fff" opacity="0.67"/><circle cx="559" cy="1058" r="1.08" fill="#fff" opacity="0.45"/><circle cx="338" cy="122" r="2.36" fill="#fff" opacity="0.71"/><circle cx="10" cy="546" r="1.71" fill="#fff" opacity="0.38"/><circle cx="342" cy="1185" r="1.86" fill="#fff" opacity="0.49"/><circle cx="796" cy="974" r="2.23" fill="#fff" opacity="0.54"/><circle cx="12" cy="76" r="2.06" fill="#fff" opacity="0.65"/><circle cx="676" cy="550" r="1.29" fill="#fff" opacity="0.75"/><circle cx="809" cy="936" r="1.63" fill="#fff" opacity="0.64"/><circle cx="378" cy="161" r="1.70" fill="#fff" opacity="0.33"/><circle cx="787" cy="23" r="2.47" fill="#fff" opacity="0.31"/><circle cx="224" cy="949" r="1.07" fill="#fff" opacity="0.67"/><circle cx="722" cy="633" r="0.85" fill="#fff" opacity="0.49"/><circle cx="534" cy="1394" r="1.76" fill="#fff" opacity="0.29"/><circle cx="28" cy="554" r="2.39" fill="#fff" opacity="0.23"/><circle cx="563" cy="1503" r="1.62" fill="#fff" opacity="0.36"/><circle cx="482" cy="1347" r="1.89" fill="#fff" opacity="0.44"/><circle cx="325" cy="1242" r="1.56" fill="#fff" opacity="0.54"/><circle cx="334" cy="512" r="0.77" fill="#fff" opacity="0.54"/><circle cx="22" cy="984" r="2.16" fill="#fff" opacity="0.38"/><circle cx="773" cy="954" r="1.06" fill="#fff" opacity="0.39"/><circle cx="862" cy="1499" r="1.42" fill="#fff" opacity="0.35"/><circle cx="55" cy="841" r="2.25" fill="#fff" opacity="0.71"/><circle cx="660" cy="1354" r="1.62" fill="#fff" opacity="0.57"/><circle cx="878" cy="611" r="2.47" fill="#fff" opacity="0.63"/><circle cx="873" cy="1043" r="2.45" fill="#fff" opacity="0.62"/><circle cx="500" cy="651" r="1.89" fill="#fff" opacity="0.45"/><circle cx="79" cy="1151" r="2.25" fill="#fff" opacity="0.32"/><circle cx="263" cy="1081" r="1.64" fill="#fff" opacity="0.47"/><circle cx="108" cy="1247" r="2.46" fill="#fff" opacity="0.22"/><circle cx="386" cy="327" r="144" fill="none" stroke="#baf2ff" stroke-opacity="0.16" stroke-width="3"/><circle cx="386" cy="327" r="116" fill="#0d1a33" opacity="0.28"/><ellipse cx="386" cy="327" rx="224" ry="72" transform="rotate(-20 386 327)" fill="none" stroke="#ffffff" stroke-opacity="0.10" stroke-width="3"/>
</svg>