<svg xmlns="http://www.w3.org/2000/svg" width="900" height="1600" viewBox="0 0 900 1600">
<defs><linearGradient id="bg" x1="0%" y1="0%" x2="100%" y2="100%">
<stop offset="0%" stop-color="#ffd8ef"/>
<stop offset="50%" stop-color="#fff0fa"/>
<stop offset="100%" stop-color="#c7f3ff"/>
</linearGradient><radialGradient id="glow" cx="80%" cy="20%" r="60%">
<stop offset="0%" stop-color="#ffffff" stop-opacity="0.22"/>
<stop offset="60%" stop-color="#ffffff" stop-opacity="0.06"/>
<stop offset="100%" stop-color="#ffffff" stop-opacity="0"/>
</radialGradient></defs><rect width="100%" height="100%" fill="url(#bg)"/><rect width="100%" height="100%" fill="url(#glow)"/><rect x="-900" y="-100" width="80" height="1800" transform="rotate(-18 -900 0)" fill="#ffffff" opacity="0.03"/><rect x="-780" y="-100" width="80" height="1800" transform="rotate(-18 -780 0)" fill="#ffffff" opacity="0.03"/><rect x="-660" y="-100" width="80" height="1800" transform="rotate(-18 -660 0)" fill="#ffffff" opacity="0.03"/><rect x="-540" y="-100" width="80" height="1800" transform="rotate(-18 -540 0)" fill="#ffffff" opacity="0.03"/><rect x="-420" y="-100" width="80" height="1800" transform="rotate(-18 -420 0)" fill="#ffffff" opacity="0.03"/><rect x="-300" y="-100" width="80" height="1800" transform="rotate(-18 -300 0)" fill="#ffffff" opacity="0.03"/><rect x="-180" y="-100" width="80" height="1800" transform="rotate(-18 -180 0)" fill="#ffffff" opacity="0.03"/><rect x="-60" y="-100" width="80" height="1800" transform="rotate(-18 -60 0)" fill="#ffffff" opacity="0.03"/><rect x="60" y="-100" width="80" height="1800" transform="rotate(-18 60 0)" fill="#ffffff" opacity="0.03"/><rect x="180" y="-100" width="80" height="1800" transform="rotate(-18 180 0)" fill="#ffffff" opacity="0.03"/><rect x="300" y="-100" width="80" height="1800" transform="rotate(-18 300 0)" fill="#ffffff" opacity="0.03"/><rect x="420" y="-100" width="80" height="1800" transform="rotate(-18 420 0)" fill="#ffffff" opacity="0.03"/><rect x="540" y="-100" width="80" height="1800" transform="rotate(-18 540 0)" fill="#ffffff" opacity="0.03"/><rect x="660" y="-100" width="80" height="1800" transform="rotate(-18 660 0)" fill="#ffffff" opacity="0.03"/><rect x="780" y="-100" width="80" height="1800" transform="rotate(-18 780 0)" fill="#ffffff" opacity="0.03"/><rect x="900" y="-100" width="80" height="1800" transform="rotate(-18 900 0)" fill="#ffffff" opacity="0.03"/><rect x="1020" y="-100" width="80" height="1800" transform="rotate(-18 1020 0)" fill="#ffffff" opacity="0.03"/><rect x="1140" y="-100" width="80" height="1800" transform="rotate(-18 1140 0)" fill="#ffffff" opacity="0.03"/><rect x="1260" y="-100" width="80" height="1800" transform="rotate(-18 1260 0)" fill="#ffffff" opacity="0.03"/><rect x="1380" y="-100" width="80" height="1800" transform="rotate(-18 1380 0)" fill="#ffffff" opacity="0.03"/><rect x="1500" y="-100" width="80" height="1800" transform="rotate(-18 1500 0)" fill="#ffffff" opacity="0.03"/><rect x="1620" y="-100" width="80" height="1800" transform="rotate(-18 1620 0)" fill="#ffffff" opacity="0.03"/><rect x="1740" y="-100" width="80" height="1800" transform="rotate(-18 1740 0)" fill="#ffffff" opacity="0.03"/><g transform="translate(504 1285) rotate(70) scale(0.9739871588370252)"><g opacity="0.155" fill="none" stroke="#ab7b94" stroke-width="2.4" stroke-linejoin="round"><path d="M-16,-10 h14 a6,6 0 0 1 6,6 v18 h-14 a6,6 0 0 0 -6,6 v-24 a6,6 0 0 1 6,-6z"/><path d="M16,-10 h-14 a6,6 0 0 0 -6,6 v18 h14 a6,6 0 0 1 6,6 v-24 a6,6 0 0 0 -6,-6z"/></g></g><g transform="translate(36 722) rotate(309) scale(1.051669248031325)"><g opacity="0.133" fill="none" stroke="#ab7b94" stroke-width="2.4"><circle cx="0" cy="0" r="12"/><ellipse cx="0" cy="0" rx="24" ry="8" transform="rotate(-18)"/></g></g><g transform="translate(661 1463) rotate(194) scale(0.7745374592908869)"><g opacity="0.149" fill="none" stroke="#ab7b94" stroke-width="2.4" stroke-linejoin="round"><path d="M-16,-10 h14 a6,6 0 0 1 6,6 v18 h-14 a6,6 0 0 0 -6,6 v-24 a6,6 0 0 1 6,-6z"/><path d="M16,-10 h-14 a6,6 0 0 0 -6,6 v18 h14 a6,6 0 0 1 6,6 v-24 a6,6 0 0 0 -6,-6z"/></g></g><g transform="translate(492 1514) rotate(86) scale(1.003552008377718)"><g opacity="0.121" fill="none" stroke="#ab7b94" stroke-width="2.2"><ellipse cx="0" cy="0" rx="22" ry="9"/><ellipse cx="0" cy="0" rx="22" ry="9" transform="rotate(60)"/><ellipse cx="0" cy="0" rx="22" ry="9" transform="rotate(120)"/><circle cx="0" cy="0" r="4" fill="#ab7b94"/></g></g><g transform="translate(165 1066) rotate(302) scale(1.2730352547339936)"><g opacity="0.152" fill="none" stroke="#ab7b94" stroke-width="2.4"><circle cx="0" cy="0" r="12"/><ellipse cx="0" cy="0" rx="24" ry="8" transform="rotate(-18)"/></g></g><g transform="translate(422 1558) rotate(149) scale(1.2823583771363025)"><g opacity="0.147" fill="none" stroke="#ab7b94" stroke-width="2.2"><ellipse cx="0" cy="0" rx="22" ry="9"/><ellipse cx="0" cy="0" rx="22" ry="9" transform="rotate(60)"/><ellipse cx="0" cy="0" rx="22" ry="9" transform="rotate(120)"/><circle cx="0" cy="0" r="4" fill="#ab7b94"/></g></g><g transform="translate(773 893) rotate(136) scale(1.2837456334578055)"><g opacity="0.136" fill="none" stroke="#ab7b94" stroke-width="2.2"><ellipse cx="0" cy="0" rx="22" ry="9"/><ellipse cx="0" cy="0" rx="22" ry="9" transform="rotate(60)"/><ellipse cx="0" cy="0" rx="22" ry="9" transform="rotate(120)"/><circle cx="0" cy="0" r="4" fill="#ab7b94"/></g></g><g transform="translate(379 118) rotate(2) scale(0.8696899326539071)"><g opacity="0.121" fill="none" stroke="#ab7b94" stroke-width="2"><rect x="-18" y="-18" width="36" height="36" rx="4"/><path d="M-6,-18V18 M6,-18V18 M-18,-6H18 M-18,6H18"/></g></g><g transform="translate(417 1037) rotate(121) scale(0.8334856913543485)"><g opacity="0.15" fill="none" stroke="#ab7b94" stroke-width="2"><rect x="-18" y="-18" width="36" height="36" rx="4"/><path d="M-6,-18V18 M6,-18V18 M-18,-6H18 M-18,6H18"/></g></g><g transform="translate(144 1252) rotate(296) scale(0.7523247739131709)"><g opacity="0.157" fill="none" stroke="#ab7b94" stroke-width="2.2"><ellipse cx="0" cy="0" rx="22" ry="9"/><ellipse cx="0" cy="0" rx="22" ry="9" transform="rotate(60)"/><ellipse cx="0" cy="0" rx="22" ry="9" transform="rotate(120)"/><circle cx="0" cy="0" r="4" fill="#ab7b94"/></g></g><g transform="translate(237 706) rotate(42) scale(0.7549515361747527)"><g opacity="0.142" fill="none" stroke="#ab7b94" stroke-width="2.4" stroke-linejoin="round"><path d="M-16,-10 h14 a6,6 0 0 1 6,6 v18 h-14 a6,6 0 0 0 -6,6 v-24 a6,6 0 0 1 6,-6z"/><path d="M16,-10 h-14 a6,6 0 0 0 -6,6 v18 h14 a6,6 0 0 1 6,6 v-24 a6,6 0 0 0 -6,-6z"/></g></g><g transform="translate(47 1055) rotate(254) scale(0.8009019370659208)"><g opacity="0.158" fill="none" stroke="#ab7b94" stroke-width="2.4"><polygon points="0,-20 20,16 -20,16"/></g></g><g transform="translate(460 170) rotate(327) scale(0.9888808929569922)"><g opacity="0.148" fill="none" stroke="#ab7b94" stroke-width="2.4"><circle cx="0" cy="0" r="12"/><ellipse cx="0" cy="0" rx="24" ry="8" transform="rotate(-18)"/></g></g><g transform="translate(178 383) rotate(21) scale(1.3138292786876336)"><g stroke="#ab7b94" stroke-width="2.5" stroke-linecap="round" stroke-linejoin="round" opacity="0.13" fill="none"><path d="M0,-16 L4,-4 L16,0 L4,4 L0,16 L-4,4 L-16,0 L-4,-4 Z"/></g></g><g transform="translate(729 1271) rotate(137) scale(1.261192623448243)"><g opacity="0.161" fill="none" stroke="#ab7b94" stroke-width="2"><circle cx="0" cy="0" r="18"/><path d="M-18,0H18 M0,-18V18"/><path d="M-12,-12 Q0,-5 12,-12 M-12,12 Q0,5 12,12"/></g></g><g transform="translate(154 1474) rotate(121) scale(0.9914205593657022)"><g opacity="0.145" fill="none" stroke="#ab7b94" stroke-width="2.4" stroke-linejoin="round"><path d="M-16,-10 h14 a6,6 0 0 1 6,6 v18 h-14 a6,6 0 0 0 -6,6 v-24 a6,6 0 0 1 6,-6z"/><path d="M16,-10 h-14 a6,6 0 0 0 -6,6 v18 h14 a6,6 0 0 1 6,6 v-24 a6,6 0 0 0 -6,-6z"/></g></g><g transform="translate(74 1537) rotate(345) scale(0.9695681147828661)"><g opacity="0.144" fill="none" stroke="#ab7b94" stroke-width="2.4"><polygon points="0,-20 20,16 -20,16"/></g></g><g transform="translate(823 1438) rotate(177) scale(0.802043468657304)"><g opacity="0.155" fill="none" stroke="#ab7b94" stroke-width="2.4"><circle cx="0" cy="0" r="12"/><ellipse cx="0" cy="0" rx="24" ry="8" transform="rotate(-18)"/></g></g><g transform="translate(628 778) rotate(205) scale(1.0207800025196252)"><g opacity="0.16" fill="none" stroke="#ab7b94" stroke-width="2.2"><ellipse cx="0" cy="0" rx="22" ry="9"/><ellipse cx="0" cy="0" rx="22" ry="9" transform="rotate(60)"/><ellipse cx="0" cy="0" rx="22" ry="9" transform="rotate(120)"/><circle cx="0" cy="0" r="4" fill="#ab7b94"/></g></g><g transform="translate(618 1557) rotate(311) scale(0.7610199691904078)"><g opacity="0.119" fill="none" stroke="#ab7b94" stroke-width="2.4"><path d="M-28,0 C-18,-12 -8,-12 2,0 S22,12 32,0"/></g></g><g transform="translate(144 467) rotate(138) scale(0.8830235456407717)"><g opacity="0.153" fill="none" stroke="#ab7b94" stroke-width="2.4"><path d="M-28,0 C-18,-12 -8,-12 2,0 S22,12 32,0"/></g></g><g transform="translate(344 1319) rotate(264) scale(0.920932160778654)"><g stroke="#ab7b94" stroke-width="2.5" stroke-linecap="round" stroke-linejoin="round" opacity="0.12" fill="none"><path d="M0,-16 L4,-4 L16,0 L4,4 L0,16 L-4,4 L-16,0 L-4,-4 Z"/></g></g><g transform="translate(829 1177) rotate(254) scale(1.2345298935263078)"><g opacity="0.149" fill="none" stroke="#ab7b94" stroke-width="2.4"><path d="M-28,0 C-18,-12 -8,-12 2,0 S22,12 32,0"/></g></g><g transform="translate(284 1189) rotate(217) scale(1.1925700533372767)"><g opacity="0.129" fill="#ab7b94"><circle cx="0" cy="0" r="3"/><path d="M0,-12 L3,-3 L12,0 L3,3 L0,12 L-3,3 L-12,0 L-3,-3 Z"/></g></g><g transform="translate(808 851) rotate(286) scale(1.0559263290746634)"><g opacity="0.125" fill="none" stroke="#ab7b94" stroke-width="2.4"><path d="M-28,0 C-18,-12 -8,-12 2,0 S22,12 32,0"/></g></g><g transform="translate(327 380) rotate(132) scale(1.1655873336342293)"><g stroke="#ab7b94" stroke-width="2.5" stroke-linecap="round" stroke-linejoin="round" opacity="0.121" fill="none"><path d="M0,-16 L4,-4 L16,0 L4,4 L0,16 L-4,4 L-16,0 L-4,-4 Z"/></g></g><g transform="translate(859 383) rotate(84) scale(0.9077764523618781)"><g opacity="0.144" fill="none" stroke="#ab7b94" stroke-width="2.4"><circle cx="0" cy="0" r="12"/><ellipse cx="0" cy="0" rx="24" ry="8" transform="rotate(-18)"/></g></g><g transform="translate(42 129) rotate(106) scale(0.7865464275349877)"><g opacity="0.131" fill="none" stroke="#ab7b94" stroke-width="2"><rect x="-18" y="-18" width="36" height="36" rx="4"/><path d="M-6,-18V18 M6,-18V18 M-18,-6H18 M-18,6H18"/></g></g><g transform="translate(45 756) rotate(246) scale(0.9210062256782257)"><g opacity="0.131" fill="none" stroke="#ab7b94" stroke-width="2.4"><polygon points="0,-20 20,16 -20,16"/></g></g><g transform="translate(118 1560) rotate(356) scale(1.0835758401275144)"><g opacity="0.122" fill="none" stroke="#ab7b94" stroke-width="2.4"><circle cx="0" cy="0" r="12"/><ellipse cx="0" cy="0" rx="24" ry="8" transform="rotate(-18)"/></g></g><g transform="translate(492 321) rotate(196) scale(1.172306333014036)"><g opacity="0.156" fill="none" stroke="#ab7b94" stroke-width="2"><circle cx="0" cy="0" r="18"/><path d="M-18,0H18 M0,-18V18"/><path d="M-12,-12 Q0,-5 12,-12 M-12,12 Q0,5 12,12"/></g></g><g transform="translate(203 1388) rotate(305) scale(1.1792798918820409)"><g opacity="0.14" fill="none" stroke="#ab7b94" stroke-width="2"><circle cx="0" cy="0" r="18"/><path d="M-18,0H18 M0,-18V18"/><path d="M-12,-12 Q0,-5 12,-12 M-12,12 Q0,5 12,12"/></g></g><g transform="translate(131 129) rotate(65) scale(0.9161107981004017)"><g opacity="0.153" fill="none" stroke="#ab7b94" stroke-width="2.4" stroke-linejoin="round"><path d="M-16,-10 h14 a6,6 0 0 1 6,6 v18 h-14 a6,6 0 0 0 -6,6 v-24 a6,6 0 0 1 6,-6z"/><path d="M16,-10 h-14 a6,6 0 0 0 -6,6 v18 h14 a6,6 0 0 1 6,6 v-24 a6,6 0 0 0 -6,-6z"/></g></g><g transform="translate(870 202) rotate(113) scale(0.8473349099463927)"><g stroke="#ab7b94" stroke-width="2.5" stroke-linecap="round" stroke-linejoin="round" opacity="0.128" fill="none"><path d="M0,-16 L4,-4 L16,0 L4,4 L0,16 L-4,4 L-16,0 L-4,-4 Z"/></g></g><g transform="translate(515 965) rotate(279) scale(1.1049139226641296)"><g opacity="0.122" fill="none" stroke="#ab7b94" stroke-width="2"><rect x="-18" y="-18" width="36" height="36" rx="4"/><path d="M-6,-18V18 M6,-18V18 M-18,-6H18 M-18,6H18"/></g></g><g transform="translate(591 1017) rotate(134) scale(1.1057589811672446)"><g opacity="0.122" fill="none" stroke="#ab7b94" stroke-width="2.4"><polygon points="0,-20 20,16 -20,16"/></g></g><g transform="translate(696 88) rotate(299) scale(1.0986100852183427)"><g opacity="0.142" fill="none" stroke="#ab7b94" stroke-width="2"><rect x="-18" y="-18" width="36" height="36" rx="4"/><path d="M-6,-18V18 M6,-18V18 M-18,-6H18 M-18,6H18"/></g></g><g transform="translate(566 1109) rotate(33) scale(1.0722743852806786)"><g opacity="0.143" fill="#ab7b94"><circle cx="0" cy="0" r="3"/><path d="M0,-12 L3,-3 L12,0 L3,3 L0,12 L-3,3 L-12,0 L-3,-3 Z"/></g></g><g transform="translate(337 161) rotate(70) scale(1.1849563221229265)"><g opacity="0.123" fill="none" stroke="#ab7b94" stroke-width="2.4"><circle cx="0" cy="0" r="12"/><ellipse cx="0" cy="0" rx="24" ry="8" transform="rotate(-18)"/></g></g><g transform="translate(533 958) rotate(326) scale(0.7862681082943784)"><g stroke="#ab7b94" stroke-width="2.5" stroke-linecap="round" stroke-linejoin="round" opacity="0.148" fill="none"><path d="M0,-16 L4,-4 L16,0 L4,4 L0,16 L-4,4 L-16,0 L-4,-4 Z"/></g></g><g transform="translate(59 794) rotate(234) scale(0.8961848521772058)"><g opacity="0.135" fill="none" stroke="#ab7b94" stroke-width="2.2"><ellipse cx="0" cy="0" rx="22" ry="9"/><ellipse cx="0" cy="0" rx="22" ry="9" transform="rotate(60)"/><ellipse cx="0" cy="0" rx="22" ry="9" transform="rotate(120)"/><circle cx="0" cy="0" r="4" fill="#ab7b94"/></g></g><g transform="translate(777 1203) rotate(124) scale(1.1249915979620253)"><g stroke="#ab7b94" stroke-width="2.5" stroke-linecap="round" stroke-linejoin="round" opacity="0.145" fill="none"><path d="M0,-16 L4,-4 L16,0 L4,4 L0,16 L-4,4 L-16,0 L-4,-4 Z"/></g></g><g transform="translate(116 1285) rotate(209) scale(0.7781463847073433)"><g opacity="0.144" fill="none" stroke="#ab7b94" stroke-width="2"><rect x="-18" y="-18" width="36" height="36" rx="4"/><path d="M-6,-18V18 M6,-18V18 M-18,-6H18 M-18,6H18"/></g></g><g transform="translate(112 417) rotate(92) scale(0.7704665628438411)"><g opacity="0.122" fill="none" stroke="#ab7b94" stroke-width="2.4"><circle cx="0" cy="0" r="12"/><ellipse cx="0" cy="0" rx="24" ry="8" transform="rotate(-18)"/></g></g><g transform="translate(393 1309) rotate(274) scale(1.0321450332418847)"><g opacity="0.12" fill="none" stroke="#ab7b94" stroke-width="2.4" stroke-linejoin="round"><path d="M-20,10 L10,-20 L20,-10 L-10,20 L-24,24 Z"/><path d="M6,-24 L24,-6"/></g></g><g transform="translate(824 184) rotate(164) scale(0.9502976063695564)"><g stroke="#ab7b94" stroke-width="2.5" stroke-linecap="round" stroke-linejoin="round" opacity="0.138" fill="none"><path d="M0,-16 L4,-4 L16,0 L4,4 L0,16 L-4,4 L-16,0 L-4,-4 Z"/></g></g><g transform="translate(489 1238) rotate(197) scale(0.8391478835479842)"><g opacity="0.154" fill="none" stroke="#ab7b94" stroke-width="2.4" stroke-linejoin="round"><path d="M-20,10 L10,-20 L20,-10 L-10,20 L-24,24 Z"/><path d="M6,-24 L24,-6"/></g></g><g transform="translate(138 744) rotate(231) scale(1.152742111226841)"><g opacity="0.127" fill="none" stroke="#ab7b94" stroke-width="2.4" stroke-linejoin="round"><path d="M-16,-10 h14 a6,6 0 0 1 6,6 v18 h-14 a6,6 0 0 0 -6,6 v-24 a6,6 0 0 1 6,-6z"/><path d="M16,-10 h-14 a6,6 0 0 0 -6,6 v18 h14 a6,6 0 0 1 6,6 v-24 a6,6 0 0 0 -6,-6z"/></g></g><g transform="translate(256 252) rotate(61) scale(0.8163638102385286)"><g opacity="0.158" fill="none" stroke="#ab7b94" stroke-width="2.4"><circle cx="0" cy="0" r="12"/><ellipse cx="0" cy="0" rx="24" ry="8" transform="rotate(-18)"/></g></g><g transform="translate(114 792) rotate(12) scale(0.8121720749485025)"><g opacity="0.145" fill="none" stroke="#ab7b94" stroke-width="2.4" stroke-linejoin="round"><path d="M-20,10 L10,-20 L20,-10 L-10,20 L-24,24 Z"/><path d="M6,-24 L24,-6"/></g></g><g transform="translate(235 786) rotate(41) scale(1.2745963214399532)"><g opacity="0.119" fill="none" stroke="#ab7b94" stroke-width="2.2"><ellipse cx="0" cy="0" rx="22" ry="9"/><ellipse cx="0" cy="0" rx="22" ry="9" transform="rotate(60)"/><ellipse cx="0" cy="0" rx="22" ry="9" transform="rotate(120)"/><circle cx="0" cy="0" r="4" fill="#ab7b94"/></g></g><g transform="translate(811 1090) rotate(7) scale(1.1596693941832674)"><g opacity="0.13" fill="none" stroke="#ab7b94" stroke-width="2.4" stroke-linejoin="round"><path d="M-20,10 L10,-20 L20,-10 L-10,20 L-24,24 Z"/><path d="M6,-24 L24,-6"/></g></g><g transform="translate(655 75) rotate(265) scale(1.3264209379401226)"><g opacity="0.121" fill="none" stroke="#ab7b94" stroke-width="2"><rect x="-18" y="-18" width="36" height="36" rx="4"/><path d="M-6,-18V18 M6,-18V18 M-18,-6H18 M-18,6H18"/></g></g><g transform="translate(287 1003) rotate(309) scale(1.2609837918658306)"><g opacity="0.146" fill="none" stroke="#ab7b94" stroke-width="2.2"><ellipse cx="0" cy="0" rx="22" ry="9"/><ellipse cx="0" cy="0" rx="22" ry="9" transform="rotate(60)"/><ellipse cx="0" cy="0" rx="22" ry="9" transform="rotate(120)"/><circle cx="0" cy="0" r="4" fill="#ab7b94"/></g></g><g transform="translate(727 593) rotate(19) scale(0.8293380050367805)"><g opacity="0.16" fill="none" stroke="#ab7b94" stroke-width="2.4" stroke-linejoin="round"><path d="M-16,-10 h14 a6,6 0 0 1 6,6 v18 h-14 a6,6 0 0 0 -6,6 v-24 a6,6 0 0 1 6,-6z"/><path d="M16,-10 h-14 a6,6 0 0 0 -6,6 v18 h14 a6,6 0 0 1 6,6 v-24 a6,6 0 0 0 -6,-6z"/></g></g>
</svg>