<svg xmlns="http://www.w3.org/2000/svg" width="900" height="1600" viewBox="0 0 900 1600">
<defs><linearGradient id="bg" x1="0%" y1="0%" x2="100%" y2="100%">
<stop offset="0%" stop-color="#111827"/>
<stop offset="50%" stop-color="#1f2937"/>
<stop offset="100%" stop-color="#4f46e5"/>
</linearGradient></defs><rect width="100%" height="100%" fill="url(#bg)"/><path d="M-61,890 Q384,576 697,561" stroke="#ffffff" stroke-opacity="0.07" stroke-width="3.9882296649953957" fill="none" stroke-linecap="round"/><path d="M811,950 Q896,1240 649,1554" stroke="#ffffff" stroke-opacity="0.07" stroke-width="3.6654586450841706" fill="none" stroke-linecap="round"/><path d="M695,1526 Q266,1440 96,1357" stroke="#ffffff" stroke-opacity="0.07" stroke-width="3.734600161173157" fill="none" stroke-linecap="round"/><path d="M109,738 Q339,833 217,793" stroke="#ffffff" stroke-opacity="0.07" stroke-width="2.921852486868537" fill="none" stroke-linecap="round"/><path d="M610,1162 Q470,761 80,-28" stroke="#ffffff" stroke-opacity="0.07" stroke-width="4.37294371612818" fill="none" stroke-linecap="round"/><path d="M68,109 Q155,699 641,1311" stroke="#ffffff" stroke-opacity="0.07" stroke-width="2.503037943683998" fill="none" stroke-linecap="round"/><path d="M516,273 Q292,131 176,226" stroke="#ffffff" stroke-opacity="0.07" stroke-width="4.244652503486437" fill="none" stroke-linecap="round"/><path d="M86,369 Q203,417 147,841" stroke="#ffffff" stroke-opacity="0.07" stroke-width="3.545388867819711" fill="none" stroke-linecap="round"/><path d="M740,1550 Q268,1757 -56,1594" stroke="#ffffff" stroke-opacity="0.07" stroke-width="1.564351511976199" fill="none" stroke-linecap="round"/><path d="M217,583 Q299,794 604,844" stroke="#ffffff" stroke-opacity="0.07" stroke-width="4.127697332436044" fill="none" stroke-linecap="round"/><path d="M772,24 Q254,976 37,1585" stroke="#ffffff" stroke-opacity="0.07" stroke-width="2.650640305814812" fill="none" stroke-linecap="round"/><path d="M696,283 Q412,1097 338,1679" stroke="#ffffff" stroke-opacity="0.07" stroke-width="3.6169881157808272" fill="none" stroke-linecap="round"/><path d="M576,516 Q776,668 740,851" stroke="#ffffff" stroke-opacity="0.07" stroke-width="3.047447564053288" fill="none" stroke-linecap="round"/><path d="M94,425 Q141,870 -22,1529" stroke="#ffffff" stroke-opacity="0.07" stroke-width="1.708925055716905" fill="none" stroke-linecap="round"/><path d="M157,984 Q542,1298 894,1541" stroke="#ffffff" stroke-opacity="0.07" stroke-width="4.044722765470603" fill="none" stroke-linecap="round"/><path d="M624,59 Q841,663 908,1494" stroke="#ffffff" stroke-opacity="0.07" stroke-width="2.576060009635847" fill="none" stroke-linecap="round"/><path d="M94,1614 Q380,1293 402,942" stroke="#ffffff" stroke-opacity="0.07" stroke-width="3.158460880158771" fill="none" stroke-linecap="round"/><path d="M945,909 Q552,600 177,-83" stroke="#ffffff" stroke-opacity="0.07" stroke-width="2.164861954214903" fill="none" stroke-linecap="round"/><path d="M205,1360 Q193,685 319,120" stroke="#ffffff" stroke-opacity="0.07" stroke-width="3.901760757115375" fill="none" stroke-linecap="round"/><path d="M878,-47 Q605,-120 589,-43" stroke="#ffffff" stroke-opacity="0.07" stroke-width="3.147437953572625" fill="none" stroke-linecap="round"/><path d="M827,1429 Q463,595 339,98" stroke="#ffffff" stroke-opacity="0.07" stroke-width="1.9309903249543365" fill="none" stroke-linecap="round"/><path d="M-89,1111 Q106,783 583,643" stroke="#ffffff" stroke-opacity="0.07" stroke-width="2.9636047399100396" fill="none" stroke-linecap="round"/><circle cx="404" cy="926" r="120" fill="none" stroke="#ffffff" stroke-opacity="0.05" stroke-width="2"/><circle cx="69" cy="1321" r="180" fill="none" stroke="#ffffff" stroke-opacity="0.05" stroke-width="2"/><circle cx="223" cy="1292" r="240" fill="none" stroke="#ffffff" stroke-opacity="0.05" stroke-width="2"/><circle cx="498" cy="1546" r="320" fill="none" stroke="#ffffff" stroke-opacity="0.05" stroke-width="2"/>
</svg>